<?xml version="1.0" encoding="UTF-8" standalone="no"?>
<!DOCTYPE svg PUBLIC "-//W3C//DTD SVG 1.1//EN" "http://www.w3.org/Graphics/SVG/1.1/DTD/svg11.dtd">
<svg xmlns="http://www.w3.org/2000/svg" xmlns:xlink="http://www.w3.org/1999/xlink" version="1.1" width="1652.7777pt" height="2338.889pt" viewBox="0 0 1652.7777 2338.889">
<g enable-background="new">
<g>
<clipPath id="cp0">
<path transform="matrix(2.7777777,0,0,-2.7777777,0,2338.889)" d="M 54 770 L 541.2 770 L 541.2 806 L 54 806 Z " fill-rule="evenodd"/>
</clipPath>
<g clip-path="url(#cp0)">
<symbol id="font_1_8">
<path d="M .32958985 .40722657 C .37679038 .3971354 .41357423 .3761393 .4399414 .34423829 C .46663413 .31233726 .47998048 .27294923 .47998048 .22607422 C .47998048 .15413411 .45524089 .098470058 .40576173 .05908203 C .35628257 .01969401 .28597007 0 .19482422 0 C .16422527 0 .13264974 .003092448 .100097659 .009277344 C .067871097 .015136719 .034505208 .024088541 0 .036132814 L 0 .13134766 C .02734375 .11539713 .057291669 .10335287 .08984375 .095214847 C .122395839 .08707682 .15641277 .08300781 .19189453 .08300781 C .2537435 .08300781 .30078126 .095214847 .3330078 .119628909 C .3655599 .14404297 .38183595 .17952474 .38183595 .22607422 C .38183595 .26904298 .36669923 .30257163 .33642579 .32666017 C .30647788 .35107423 .26464845 .36328126 .2109375 .36328126 L .12597656 .36328126 L .12597656 .44433595 L .21484375 .44433595 C .26334635 .44433595 .30045573 .4539388 .32617188 .47314454 C .35188804 .49267579 .3647461 .5206706 .3647461 .5571289 C .3647461 .5945638 .35139976 .62320968 .32470704 .6430664 C .29833985 .6632487 .26041667 .67333987 .2109375 .67333987 C .18391927 .67333987 .15494792 .67041018 .12402344 .6645508 C .09309896 .6586914 .05908203 .64957687 .021972657 .63720706 L .021972657 .72509768 C .05940755 .73551437 .09440104 .74332687 .12695313 .74853518 C .15983074 .75374349 .1907552 .75634768 .21972656 .75634768 C .29459635 .75634768 .35384117 .7392578 .39746095 .7050781 C .44108073 .67122396 .46289063 .6253255 .46289063 .5673828 C .46289063 .52701827 .45133464 .49283854 .42822267 .46484376 C .4051107 .43717448 .37223307 .41796876 .32958985 .40722657 Z "/>
</symbol>
<use xlink:href="#font_1_8" transform="matrix(27.777777,0,0,-27.777777,820.17147,160.11576)"/>
</g>
<clipPath id="cp2">
<path transform="matrix(2.7777777,0,0,-2.7777777,0,2338.889)" d="M 54 36.2 L 541.2 36.2 L 541.2 72.2 L 54 72.2 Z " fill-rule="evenodd"/>
</clipPath>
<g clip-path="url(#cp2)">
<symbol id="font_1_3">
<path d="M .09863281 .6479492 L .09863281 .37402345 L .22265625 .37402345 C .2685547 .37402345 .30403648 .38590495 .32910157 .40966798 C .35416667 .433431 .36669923 .46728517 .36669923 .51123049 C .36669923 .5548503 .35416667 .5885417 .32910157 .6123047 C .30403648 .6360677 .2685547 .6479492 .22265625 .6479492 L .09863281 .6479492 M 0 .7290039 L .22265625 .7290039 C .30436198 .7290039 .3660482 .7104492 .40771485 .67333987 C .44970704 .63655599 .47070313 .58251956 .47070313 .51123049 C .47070313 .43929038 .44970704 .38492839 .40771485 .34814454 C .3660482 .3113607 .30436198 .29296876 .22265625 .29296876 L .09863281 .29296876 L .09863281 0 L 0 0 L 0 .7290039 Z "/>
</symbol>
<symbol id="font_1_4">
<path d="M .28271485 .2890625 C .2101237 .2890625 .15983074 .28076173 .13183594 .26416017 C .10384115 .2475586 .08984375 .21923828 .08984375 .17919922 C .08984375 .14729817 .100260417 .121907558 .12109375 .103027347 C .14225261 .084472659 .17089844 .07519531 .20703125 .07519531 C .25683595 .07519531 .29671226 .09277344 .32666017 .12792969 C .3569336 .16341146 .3720703 .21044922 .3720703 .26904298 L .3720703 .2890625 L .28271485 .2890625 M .46191407 .32617188 L .46191407 .014160156 L .3720703 .014160156 L .3720703 .09716797 C .3515625 .063964847 .32600913 .03938802 .29541017 .0234375 C .2648112 .0078125 .2273763 0 .18310547 0 C .12711589 0 .08251953 .015625 .049316408 .046875 C .016438803 .07845052 0 .12060547 0 .17333985 C 0 .23486328 .020507813 .28125 .061523439 .3125 C .102864589 .34375 .16438802 .359375 .24609375 .359375 L .3720703 .359375 L .3720703 .36816407 C .3720703 .40950523 .35839845 .44140626 .3310547 .4638672 C .30403648 .48665367 .26595054 .49804688 .21679688 .49804688 C .18554688 .49804688 .15511067 .49430339 .12548828 .4868164 C .09586588 .47932945 .06738281 .46809898 .040039064 .453125 L .040039064 .5361328 C .072916667 .5488281 .10481771 .55826827 .13574219 .5644531 C .16666667 .57096359 .19677735 .57421877 .22607422 .57421877 C .30517579 .57421877 .3642578 .55371096 .4033203 .5126953 C .4423828 .4716797 .46191407 .40950523 .46191407 .32617188 Z "/>
</symbol>
<symbol id="font_1_5">
<path d="M .39892579 .48779298 C .39892579 .55289718 .38541667 .60335287 .35839845 .63916018 C .33170573 .67496749 .29410807 .6928711 .24560547 .6928711 C .19742839 .6928711 .15983074 .67496749 .1328125 .63916018 C .10611979 .60335287 .09277344 .55289718 .09277344 .48779298 C .09277344 .4230143 .10611979 .37272135 .1328125 .33691407 C .15983074 .30110679 .19742839 .28320313 .24560547 .28320313 C .29410807 .28320313 .33170573 .30110679 .35839845 .33691407 C .38541667 .37272135 .39892579 .4230143 .39892579 .48779298 M .48876954 .2758789 C .48876954 .18277996 .46809898 .11360677 .4267578 .068359378 C .38541667 .022786459 .32210288 0 .2368164 0 C .20524089 0 .17545574 .0024414063 .14746094 .0073242189 C .11946615 .011881511 .092285159 .019042969 .06591797 .028808594 L .06591797 .11621094 C .092285159 .10188802 .11832682 .091308597 .14404297 .084472659 C .16975911 .07763672 .19596355 .07421875 .22265625 .07421875 C .28157554 .07421875 .3256836 .08968099 .35498048 .12060547 C .38427735 .15120442 .39892579 .19759114 .39892579 .25976563 L .39892579 .30419923 C .3803711 .27197267 .35660807 .24788411 .32763673 .2319336 C .29866538 .21598308 .2639974 .20800781 .22363281 .20800781 C .15657552 .20800781 .10253906 .2335612 .061523439 .28466798 C .020507813 .33577476 0 .40348307 0 .48779298 C 0 .5724284 .020507813 .6402995 .061523439 .69140627 C .10253906 .742513 .15657552 .7680664 .22363281 .7680664 C .2639974 .7680664 .29866538 .7600911 .32763673 .7441406 C .35660807 .7281901 .3803711 .70410159 .39892579 .671875 L .39892579 .7548828 L .48876954 .7548828 L .48876954 .2758789 Z "/>
</symbol>
<symbol id="font_1_6">
<path d="M .50683596 .3100586 L .50683596 .26611329 L .09375 .26611329 C .09765625 .20426433 .11621094 .1570638 .14941406 .12451172 C .1829427 .092285159 .22949219 .076171878 .2890625 .076171878 C .32356773 .076171878 .3569336 .08040365 .38916017 .08886719 C .42171226 .09733073 .4539388 .11002604 .48583985 .12695313 L .48583985 .041992189 C .45361329 .028320313 .4205729 .017903647 .38671876 .0107421879 C .3528646 .0035807293 .31852214 0 .2836914 0 C .19645183 0 .12727864 .025390625 .076171878 .076171878 C .025390625 .12695313 0 .19563802 0 .28222657 C 0 .37174479 .024088541 .44270835 .072265628 .4951172 C .12076823 .54785159 .18603516 .57421877 .2680664 .57421877 C .34163413 .57421877 .3997396 .55045577 .4423828 .5029297 C .48535157 .45572917 .50683596 .3914388 .50683596 .3100586 M .4169922 .33642579 C .41634117 .38557945 .4025065 .4248047 .37548829 .45410157 C .34879557 .48339845 .3133138 .49804688 .26904298 .49804688 C .21891277 .49804688 .17871094 .48388673 .1484375 .4555664 C .118489589 .4272461 .10123698 .38736979 .09667969 .3359375 L .4169922 .33642579 Z "/>
</symbol>
<symbol id="font_1_7">
<path d="M 0 0 Z "/>
</symbol>
<use xlink:href="#font_1_3" transform="matrix(27.777777,0,0,-27.777777,782.7262,2198.0557)"/>
<use xlink:href="#font_1_4" transform="matrix(27.777777,0,0,-27.777777,797.22378,2198.449)"/>
<use xlink:href="#font_1_5" transform="matrix(27.777777,0,0,-27.777777,814.0326,2203.8338)"/>
<use xlink:href="#font_1_6" transform="matrix(27.777777,0,0,-27.777777,831.7826,2198.449)"/>
<use xlink:href="#font_1_7" transform="matrix(27.777777,0,0,-27.777777,847.1944,2198.0557)"/>
<symbol id="font_1_1">
<path d="M .014160156 .08300781 L .17529297 .08300781 L .17529297 .63916018 L 0 .6040039 L 0 .69384768 L .1743164 .7290039 L .27294923 .7290039 L .27294923 .08300781 L .43408204 .08300781 L .43408204 0 L .014160156 0 L .014160156 .08300781 Z "/>
</symbol>
<use xlink:href="#font_1_1" transform="matrix(27.777777,0,0,-27.777777,859.16287,2198.0557)"/>
</g>
<path transform="matrix(2.7777777,0,0,-2.7777777,0,2338.889)" d="M 245.5 525.7 L 310.6 525.7 L 310.6 543 L 245.5 543 Z " fill="#c0c0c0" fill-rule="evenodd"/>
<path transform="matrix(2.7777777,0,0,-2.7777777,0,2338.889)" d="M 223.8 508.4 L 245.5 508.4 L 245.5 525.7 L 223.8 525.7 Z " fill="#c0c0c0" fill-rule="evenodd"/>
<path transform="matrix(2.7777777,0,0,-2.7777777,0,2338.889)" d="M 267.1 508.4 L 288.80003 508.4 L 288.80003 525.7 L 267.1 525.7 Z " fill="#c0c0c0" fill-rule="evenodd"/>
<path transform="matrix(2.7777777,0,0,-2.7777777,0,2338.889)" d="M 310.5 508.4 L 332.2 508.4 L 332.2 525.7 L 310.5 525.7 Z " fill="#c0c0c0" fill-rule="evenodd"/>
<path transform="matrix(2.7777777,0,0,-2.7777777,0,2338.889)" d="M 202.1 491.2 L 267.2 491.2 L 267.2 508.5 L 202.1 508.5 Z " fill="#c0c0c0" fill-rule="evenodd"/>
<path transform="matrix(2.7777777,0,0,-2.7777777,0,2338.889)" d="M 288.8 491.2 L 353.9 491.2 L 353.9 508.5 L 288.8 508.5 Z " fill="#c0c0c0" fill-rule="evenodd"/>
<path transform="matrix(2.7777777,0,0,-2.7777777,0,2338.889)" d="M 180.4 473.9 L 223.79999 473.9 L 223.79999 491.19999 L 180.4 491.19999 Z " fill="#c0c0c0" fill-rule="evenodd"/>
<path transform="matrix(2.7777777,0,0,-2.7777777,0,2338.889)" d="M 245.5 473.9 L 310.6 473.9 L 310.6 491.19999 L 245.5 491.19999 Z " fill="#c0c0c0" fill-rule="evenodd"/>
<path transform="matrix(2.7777777,0,0,-2.7777777,0,2338.889)" d="M 332.2 473.9 L 375.6 473.9 L 375.6 491.19999 L 332.2 491.19999 Z " fill="#c0c0c0" fill-rule="evenodd"/>
<path transform="matrix(2.7777777,0,0,-2.7777777,0,2338.889)" d="M 158.7 456.7 L 245.5 456.7 L 245.5 474 L 158.7 474 Z " fill="#c0c0c0" fill-rule="evenodd"/>
<path transform="matrix(2.7777777,0,0,-2.7777777,0,2338.889)" d="M 267.1 456.7 L 288.80003 456.7 L 288.80003 474 L 267.1 474 Z " fill="#c0c0c0" fill-rule="evenodd"/>
<path transform="matrix(2.7777777,0,0,-2.7777777,0,2338.889)" d="M 310.5 456.7 L 397.3 456.7 L 397.3 474 L 310.5 474 Z " fill="#c0c0c0" fill-rule="evenodd"/>
<path transform="matrix(2.7777777,0,0,-2.7777777,0,2338.889)" d="M 137 439.5 L 202.1 439.5 L 202.1 456.8 L 137 456.8 Z " fill="#c0c0c0" fill-rule="evenodd"/>
<path transform="matrix(2.7777777,0,0,-2.7777777,0,2338.889)" d="M 223.8 439.5 L 267.2 439.5 L 267.2 456.8 L 223.8 456.8 Z " fill="#c0c0c0" fill-rule="evenodd"/>
<path transform="matrix(2.7777777,0,0,-2.7777777,0,2338.889)" d="M 288.8 439.5 L 332.19999 439.5 L 332.19999 456.8 L 288.8 456.8 Z " fill="#c0c0c0" fill-rule="evenodd"/>
<path transform="matrix(2.7777777,0,0,-2.7777777,0,2338.889)" d="M 353.9 439.5 L 419 439.5 L 419 456.8 L 353.9 456.8 Z " fill="#c0c0c0" fill-rule="evenodd"/>
<path transform="matrix(2.7777777,0,0,-2.7777777,0,2338.889)" d="M 115.3 422.2 L 223.8 422.2 L 223.8 439.5 L 115.3 439.5 Z " fill="#c0c0c0" fill-rule="evenodd"/>
<path transform="matrix(2.7777777,0,0,-2.7777777,0,2338.889)" d="M 332.2 422.2 L 440.7 422.2 L 440.7 439.5 L 332.2 439.5 Z " fill="#c0c0c0" fill-rule="evenodd"/>
<path transform="matrix(2.7777777,0,0,-2.7777777,0,2338.889)" d="M 115.3 405 L 180.4 405 L 180.4 422.3 L 115.3 422.3 Z " fill="#c0c0c0" fill-rule="evenodd"/>
<path transform="matrix(2.7777777,0,0,-2.7777777,0,2338.889)" d="M 202.1 405 L 353.90003 405 L 353.90003 422.3 L 202.1 422.3 Z " fill="#c0c0c0" fill-rule="evenodd"/>
<path transform="matrix(2.7777777,0,0,-2.7777777,0,2338.889)" d="M 375.6 405 L 440.7 405 L 440.7 422.3 L 375.6 422.3 Z " fill="#c0c0c0" fill-rule="evenodd"/>
<path transform="matrix(2.7777777,0,0,-2.7777777,0,2338.889)" d="M 115.3 387.8 L 202.1 387.8 L 202.1 405.09999 L 115.3 405.09999 Z " fill="#c0c0c0" fill-rule="evenodd"/>
<path transform="matrix(2.7777777,0,0,-2.7777777,0,2338.889)" d="M 267.1 387.8 L 288.80003 387.8 L 288.80003 405.09999 L 267.1 405.09999 Z " fill="#c0c0c0" fill-rule="evenodd"/>
<path transform="matrix(2.7777777,0,0,-2.7777777,0,2338.889)" d="M 353.9 387.8 L 440.7 387.8 L 440.7 405.09999 L 353.9 405.09999 Z " fill="#c0c0c0" fill-rule="evenodd"/>
<path transform="matrix(2.7777777,0,0,-2.7777777,0,2338.889)" d="M 115.3 370.5 L 158.70001 370.5 L 158.70001 387.8 L 115.3 387.8 Z " fill="#c0c0c0" fill-rule="evenodd"/>
<path transform="matrix(2.7777777,0,0,-2.7777777,0,2338.889)" d="M 180.4 370.5 L 267.2 370.5 L 267.2 387.8 L 180.4 387.8 Z " fill="#c0c0c0" fill-rule="evenodd"/>
<path transform="matrix(2.7777777,0,0,-2.7777777,0,2338.889)" d="M 288.8 370.5 L 375.59999 370.5 L 375.59999 387.8 L 288.8 387.8 Z " fill="#c0c0c0" fill-rule="evenodd"/>
<path transform="matrix(2.7777777,0,0,-2.7777777,0,2338.889)" d="M 397.2 370.5 L 440.6 370.5 L 440.6 387.8 L 397.2 387.8 Z " fill="#c0c0c0" fill-rule="evenodd"/>
<path transform="matrix(2.7777777,0,0,-2.7777777,0,2338.889)" d="M 115.3 353.3 L 180.4 353.3 L 180.4 370.59999 L 115.3 370.59999 Z " fill="#c0c0c0" fill-rule="evenodd"/>
<path transform="matrix(2.7777777,0,0,-2.7777777,0,2338.889)" d="M 375.6 353.3 L 440.7 353.3 L 440.7 370.59999 L 375.6 370.59999 Z " fill="#c0c0c0" fill-rule="evenodd"/>
<path transform="matrix(2.7777777,0,0,-2.7777777,0,2338.889)" d="M 115.3 336.1 L 137 336.1 L 137 353.4 L 115.3 353.4 Z " fill="#c0c0c0" fill-rule="evenodd"/>
<path transform="matrix(2.7777777,0,0,-2.7777777,0,2338.889)" d="M 158.7 336.1 L 397.3 336.1 L 397.3 353.4 L 158.7 353.4 Z " fill="#c0c0c0" fill-rule="evenodd"/>
<path transform="matrix(2.7777777,0,0,-2.7777777,0,2338.889)" d="M 418.9 336.1 L 440.6 336.1 L 440.6 353.4 L 418.9 353.4 Z " fill="#c0c0c0" fill-rule="evenodd"/>
<path transform="matrix(2.7777777,0,0,-2.7777777,0,2338.889)" d="M 115.3 318.8 L 158.70001 318.8 L 158.70001 336.09999 L 115.3 336.09999 Z " fill="#c0c0c0" fill-rule="evenodd"/>
<path transform="matrix(2.7777777,0,0,-2.7777777,0,2338.889)" d="M 267.1 318.8 L 288.80003 318.8 L 288.80003 336.09999 L 267.1 336.09999 Z " fill="#c0c0c0" fill-rule="evenodd"/>
<path transform="matrix(2.7777777,0,0,-2.7777777,0,2338.889)" d="M 397.2 318.8 L 440.6 318.8 L 440.6 336.09999 L 397.2 336.09999 Z " fill="#c0c0c0" fill-rule="evenodd"/>
<path transform="matrix(2.7777777,0,0,-2.7777777,0,2338.889)" d="M 137 301.6 L 267.1 301.6 L 267.1 318.9 L 137 318.9 Z " fill="#c0c0c0" fill-rule="evenodd"/>
<path transform="matrix(2.7777777,0,0,-2.7777777,0,2338.889)" d="M 288.8 301.6 L 418.9 301.6 L 418.9 318.9 L 288.8 318.9 Z " fill="#c0c0c0" fill-rule="evenodd"/>
<path transform="matrix(2.7777777,0,0,-2.7777777,0,2338.889)" d="M 245 543.3 L 245.5 542.8 L 246 542.3 L 310.1 542.3 L 310.6 542.8 L 311.1 543.3 L 245 543.3 Z " fill-rule="evenodd"/>
<path transform="matrix(2.7777777,0,0,-2.7777777,0,2338.889)" d="M 223.3 526.1 L 223.9 525.6 L 224.4 525.1 L 266.7 525.1 L 267.2 525.6 L 267.7 526.1 L 223.3 526.1 Z " fill-rule="evenodd"/>
<path transform="matrix(2.7777777,0,0,-2.7777777,0,2338.889)" d="M 288.4 526.1 L 288.9 525.6 L 289.4 525.1 L 331.8 525.1 L 332.3 525.6 L 332.8 526.1 L 288.4 526.1 Z " fill-rule="evenodd"/>
<path transform="matrix(2.7777777,0,0,-2.7777777,0,2338.889)" d="M 201.7 508.9 L 202.2 508.4 L 202.7 507.9 L 223.3 507.9 L 223.9 508.4 L 223.3 508.9 L 201.7 508.9 Z " fill-rule="evenodd"/>
<path transform="matrix(2.7777777,0,0,-2.7777777,0,2338.889)" d="M 246 508.9 L 245.5 508.4 L 245 507.9 L 311.1 507.9 L 310.6 508.4 L 310.1 508.9 L 246 508.9 Z " fill-rule="evenodd"/>
<path transform="matrix(2.7777777,0,0,-2.7777777,0,2338.889)" d="M 332.8 508.9 L 332.3 508.4 L 332.8 507.9 L 353.5 507.9 L 354 508.4 L 354.5 508.9 L 332.8 508.9 Z " fill-rule="evenodd"/>
<path transform="matrix(2.7777777,0,0,-2.7777777,0,2338.889)" d="M 180 491.6 L 180.5 491.1 L 181 490.6 L 201.7 490.6 L 202.2 491.1 L 201.7 491.6 L 180 491.6 Z " fill-rule="evenodd"/>
<path transform="matrix(2.7777777,0,0,-2.7777777,0,2338.889)" d="M 224.4 491.6 L 223.9 491.1 L 224.4 490.6 L 245 490.6 L 245.5 491.1 L 246 491.6 L 224.4 491.6 Z " fill-rule="evenodd"/>
<path transform="matrix(2.7777777,0,0,-2.7777777,0,2338.889)" d="M 267.7 491.6 L 267.2 491.1 L 266.7 490.6 L 289.4 490.6 L 288.9 491.1 L 288.4 491.6 L 267.7 491.6 Z " fill-rule="evenodd"/>
<path transform="matrix(2.7777777,0,0,-2.7777777,0,2338.889)" d="M 310.1 491.6 L 310.6 491.1 L 311.1 490.6 L 331.8 490.6 L 332.3 491.1 L 331.8 491.6 L 310.1 491.6 Z " fill-rule="evenodd"/>
<path transform="matrix(2.7777777,0,0,-2.7777777,0,2338.889)" d="M 354.5 491.6 L 354 491.1 L 354.5 490.6 L 375.1 490.6 L 375.6 491.1 L 376.2 491.6 L 354.5 491.6 Z " fill-rule="evenodd"/>
<path transform="matrix(2.7777777,0,0,-2.7777777,0,2338.889)" d="M 158.3 474.4 L 158.8 473.9 L 159.3 473.4 L 180 473.4 L 180.5 473.9 L 180 474.4 L 158.3 474.4 Z " fill-rule="evenodd"/>
<path transform="matrix(2.7777777,0,0,-2.7777777,0,2338.889)" d="M 224.4 474.4 L 223.9 473.9 L 223.3 473.4 L 266.7 473.4 L 267.2 473.9 L 267.7 474.4 L 224.4 474.4 Z " fill-rule="evenodd"/>
<path transform="matrix(2.7777777,0,0,-2.7777777,0,2338.889)" d="M 288.4 474.4 L 288.9 473.9 L 289.4 473.4 L 332.8 473.4 L 332.3 473.9 L 331.8 474.4 L 288.4 474.4 Z " fill-rule="evenodd"/>
<path transform="matrix(2.7777777,0,0,-2.7777777,0,2338.889)" d="M 376.2 474.4 L 375.6 473.9 L 376.2 473.4 L 396.8 473.4 L 397.3 473.9 L 397.8 474.4 L 376.2 474.4 Z " fill-rule="evenodd"/>
<path transform="matrix(2.7777777,0,0,-2.7777777,0,2338.889)" d="M 136.6 457.2 L 137.1 456.7 L 137.6 456.1 L 158.3 456.1 L 158.8 456.7 L 158.3 457.2 L 136.6 457.2 Z " fill-rule="evenodd"/>
<path transform="matrix(2.7777777,0,0,-2.7777777,0,2338.889)" d="M 202.7 457.2 L 202.2 456.7 L 202.7 456.1 L 223.3 456.1 L 223.9 456.7 L 224.4 457.2 L 202.7 457.2 Z " fill-rule="evenodd"/>
<path transform="matrix(2.7777777,0,0,-2.7777777,0,2338.889)" d="M 246 457.2 L 245.5 456.7 L 245 456.1 L 311.1 456.1 L 310.6 456.7 L 310.1 457.2 L 246 457.2 Z " fill-rule="evenodd"/>
<path transform="matrix(2.7777777,0,0,-2.7777777,0,2338.889)" d="M 331.8 457.2 L 332.3 456.7 L 332.8 456.1 L 353.5 456.1 L 354 456.7 L 353.5 457.2 L 331.8 457.2 Z " fill-rule="evenodd"/>
<path transform="matrix(2.7777777,0,0,-2.7777777,0,2338.889)" d="M 397.8 457.2 L 397.3 456.7 L 397.8 456.1 L 418.5 456.1 L 419 456.7 L 419.5 457.2 L 397.8 457.2 Z " fill-rule="evenodd"/>
<path transform="matrix(2.7777777,0,0,-2.7777777,0,2338.889)" d="M 114.9 439.9 L 115.4 439.4 L 115.9 438.9 L 136.6 438.9 L 137.1 439.4 L 136.6 439.9 L 114.9 439.9 Z " fill-rule="evenodd"/>
<path transform="matrix(2.7777777,0,0,-2.7777777,0,2338.889)" d="M 202.7 439.9 L 202.2 439.4 L 201.7 438.9 L 267.7 438.9 L 267.2 439.4 L 266.7 439.9 L 202.7 439.9 Z " fill-rule="evenodd"/>
<path transform="matrix(2.7777777,0,0,-2.7777777,0,2338.889)" d="M 289.4 439.9 L 288.9 439.4 L 288.4 438.9 L 354.5 438.9 L 354 439.4 L 353.5 439.9 L 289.4 439.9 Z " fill-rule="evenodd"/>
<path transform="matrix(2.7777777,0,0,-2.7777777,0,2338.889)" d="M 419.5 439.9 L 419 439.4 L 419.5 438.9 L 440.2 438.9 L 440.7 439.4 L 441.2 439.9 L 419.5 439.9 Z " fill-rule="evenodd"/>
<path transform="matrix(2.7777777,0,0,-2.7777777,0,2338.889)" d="M 53.9 422.7 L 53.9 422.2 L 53.9 421.7 L 114.9 421.7 L 115.4 422.2 L 114.9 422.7 L 53.9 422.7 Z " fill-rule="evenodd"/>
<path transform="matrix(2.7777777,0,0,-2.7777777,0,2338.889)" d="M 181 422.7 L 180.5 422.2 L 181 421.7 L 201.7 421.7 L 202.2 422.2 L 202.7 422.7 L 181 422.7 Z " fill-rule="evenodd"/>
<path transform="matrix(2.7777777,0,0,-2.7777777,0,2338.889)" d="M 224.4 422.7 L 223.9 422.2 L 223.3 421.7 L 332.8 421.7 L 332.3 422.2 L 331.8 422.7 L 224.4 422.7 Z " fill-rule="evenodd"/>
<path transform="matrix(2.7777777,0,0,-2.7777777,0,2338.889)" d="M 353.5 422.7 L 354 422.2 L 354.5 421.7 L 375.1 421.7 L 375.6 422.2 L 375.1 422.7 L 353.5 422.7 Z " fill-rule="evenodd"/>
<path transform="matrix(2.7777777,0,0,-2.7777777,0,2338.889)" d="M 441.2 422.7 L 440.7 422.2 L 441.2 421.7 L 502.2 421.7 L 502.2 422.2 L 502.2 422.7 L 441.2 422.7 Z " fill-rule="evenodd"/>
<path transform="matrix(2.7777777,0,0,-2.7777777,0,2338.889)" d="M 181 405.5 L 180.5 405 L 180 404.4 L 266.7 404.4 L 267.2 405 L 267.7 405.5 L 181 405.5 Z " fill-rule="evenodd"/>
<path transform="matrix(2.7777777,0,0,-2.7777777,0,2338.889)" d="M 288.4 405.5 L 288.9 405 L 289.4 404.4 L 376.2 404.4 L 375.6 405 L 375.1 405.5 L 288.4 405.5 Z " fill-rule="evenodd"/>
<path transform="matrix(2.7777777,0,0,-2.7777777,0,2338.889)" d="M 159.3 388.2 L 158.8 387.7 L 159.3 387.2 L 180 387.2 L 180.5 387.7 L 181 388.2 L 159.3 388.2 Z " fill-rule="evenodd"/>
<path transform="matrix(2.7777777,0,0,-2.7777777,0,2338.889)" d="M 202.7 388.2 L 202.2 387.7 L 201.7 387.2 L 354.5 387.2 L 354 387.7 L 353.5 388.2 L 202.7 388.2 Z " fill-rule="evenodd"/>
<path transform="matrix(2.7777777,0,0,-2.7777777,0,2338.889)" d="M 375.1 388.2 L 375.6 387.7 L 376.2 387.2 L 396.8 387.2 L 397.3 387.7 L 396.8 388.2 L 375.1 388.2 Z " fill-rule="evenodd"/>
<path transform="matrix(2.7777777,0,0,-2.7777777,0,2338.889)" d="M 159.3 371 L 158.8 370.5 L 158.3 370 L 267.7 370 L 267.2 370.5 L 266.7 371 L 159.3 371 Z " fill-rule="evenodd"/>
<path transform="matrix(2.7777777,0,0,-2.7777777,0,2338.889)" d="M 289.4 371 L 288.9 370.5 L 288.4 370 L 397.8 370 L 397.3 370.5 L 396.8 371 L 289.4 371 Z " fill-rule="evenodd"/>
<path transform="matrix(2.7777777,0,0,-2.7777777,0,2338.889)" d="M 137.6 353.8 L 137.1 353.3 L 137.6 352.7 L 158.3 352.7 L 158.8 353.3 L 159.3 353.8 L 137.6 353.8 Z " fill-rule="evenodd"/>
<path transform="matrix(2.7777777,0,0,-2.7777777,0,2338.889)" d="M 181 353.8 L 180.5 353.3 L 180 352.7 L 376.2 352.7 L 375.6 353.3 L 375.1 353.8 L 181 353.8 Z " fill-rule="evenodd"/>
<path transform="matrix(2.7777777,0,0,-2.7777777,0,2338.889)" d="M 396.8 353.8 L 397.3 353.3 L 397.8 352.7 L 418.5 352.7 L 419 353.3 L 418.5 353.8 L 396.8 353.8 Z " fill-rule="evenodd"/>
<path transform="matrix(2.7777777,0,0,-2.7777777,0,2338.889)" d="M 137.6 336.5 L 137.1 336 L 136.6 335.5 L 266.7 335.5 L 267.2 336 L 267.7 336.5 L 137.6 336.5 Z " fill-rule="evenodd"/>
<path transform="matrix(2.7777777,0,0,-2.7777777,0,2338.889)" d="M 288.4 336.5 L 288.9 336 L 289.4 335.5 L 419.5 335.5 L 419 336 L 418.5 336.5 L 288.4 336.5 Z " fill-rule="evenodd"/>
<path transform="matrix(2.7777777,0,0,-2.7777777,0,2338.889)" d="M 115.9 319.3 L 115.4 318.8 L 115.9 318.3 L 136.6 318.3 L 137.1 318.8 L 137.6 319.3 L 115.9 319.3 Z " fill-rule="evenodd"/>
<path transform="matrix(2.7777777,0,0,-2.7777777,0,2338.889)" d="M 159.3 319.3 L 158.8 318.8 L 158.3 318.3 L 397.8 318.3 L 397.3 318.8 L 396.8 319.3 L 159.3 319.3 Z " fill-rule="evenodd"/>
<path transform="matrix(2.7777777,0,0,-2.7777777,0,2338.889)" d="M 418.5 319.3 L 419 318.8 L 419.5 318.3 L 440.2 318.3 L 440.7 318.8 L 440.2 319.3 L 418.5 319.3 Z " fill-rule="evenodd"/>
<path transform="matrix(2.7777777,0,0,-2.7777777,0,2338.889)" d="M 115.9 302.1 L 115.4 301.5 L 114.9 301 L 267.7 301 L 267.2 301.5 L 266.7 302.1 L 115.9 302.1 Z " fill-rule="evenodd"/>
<path transform="matrix(2.7777777,0,0,-2.7777777,0,2338.889)" d="M 289.4 302.1 L 288.9 301.5 L 288.4 301 L 441.2 301 L 440.7 301.5 L 440.2 302.1 L 289.4 302.1 Z " fill-rule="evenodd"/>
<path transform="matrix(2.7777777,0,0,-2.7777777,0,2338.889)" d="M 137.6 284.8 L 137.1 284.3 L 136.6 283.8 L 419.5 283.8 L 419 284.3 L 418.5 284.8 L 137.6 284.8 Z " fill-rule="evenodd"/>
<path transform="matrix(2.7777777,0,0,-2.7777777,0,2338.889)" d="M 114.9 301 L 115.4 301.5 L 115.9 302.1 L 115.9 438.9 L 115.4 439.4 L 114.9 439.9 L 114.9 301 Z " fill-rule="evenodd"/>
<path transform="matrix(2.7777777,0,0,-2.7777777,0,2338.889)" d="M 136.6 335.5 L 137.1 336 L 137.6 336.5 L 137.6 456.1 L 137.1 456.7 L 136.6 457.2 L 136.6 335.5 Z " fill-rule="evenodd"/>
<path transform="matrix(2.7777777,0,0,-2.7777777,0,2338.889)" d="M 136.6 283.8 L 137.1 284.3 L 137.6 284.8 L 137.6 319.3 L 137.1 318.8 L 136.6 318.3 L 136.6 283.8 Z " fill-rule="evenodd"/>
<path transform="matrix(2.7777777,0,0,-2.7777777,0,2338.889)" d="M 158.3 370 L 158.8 370.5 L 159.3 371 L 159.3 473.4 L 158.8 473.9 L 158.3 474.4 L 158.3 370 Z " fill-rule="evenodd"/>
<path transform="matrix(2.7777777,0,0,-2.7777777,0,2338.889)" d="M 158.3 318.3 L 158.8 318.8 L 159.3 319.3 L 159.3 353.8 L 158.8 353.3 L 158.3 352.7 L 158.3 318.3 Z " fill-rule="evenodd"/>
<path transform="matrix(2.7777777,0,0,-2.7777777,0,2338.889)" d="M 180 404.4 L 180.5 405 L 181 405.5 L 181 490.6 L 180.5 491.1 L 180 491.6 L 180 404.4 Z " fill-rule="evenodd"/>
<path transform="matrix(2.7777777,0,0,-2.7777777,0,2338.889)" d="M 180 352.7 L 180.5 353.3 L 181 353.8 L 181 388.2 L 180.5 387.7 L 180 387.2 L 180 352.7 Z " fill-rule="evenodd"/>
<path transform="matrix(2.7777777,0,0,-2.7777777,0,2338.889)" d="M 201.7 438.9 L 202.2 439.4 L 202.7 439.9 L 202.7 507.9 L 202.2 508.4 L 201.7 508.9 L 201.7 438.9 Z " fill-rule="evenodd"/>
<path transform="matrix(2.7777777,0,0,-2.7777777,0,2338.889)" d="M 201.7 387.2 L 202.2 387.7 L 202.7 388.2 L 202.7 422.7 L 202.2 422.2 L 201.7 421.7 L 201.7 387.2 Z " fill-rule="evenodd"/>
<path transform="matrix(2.7777777,0,0,-2.7777777,0,2338.889)" d="M 223.3 473.4 L 223.9 473.9 L 224.4 474.4 L 224.4 525.1 L 223.9 525.6 L 223.3 526.1 L 223.3 473.4 Z " fill-rule="evenodd"/>
<path transform="matrix(2.7777777,0,0,-2.7777777,0,2338.889)" d="M 223.3 421.7 L 223.9 422.2 L 224.4 422.7 L 224.4 457.2 L 223.9 456.7 L 223.3 456.1 L 223.3 421.7 Z " fill-rule="evenodd"/>
<path transform="matrix(2.7777777,0,0,-2.7777777,0,2338.889)" d="M 245 507.9 L 245.5 508.4 L 246 508.9 L 246 542.3 L 245.5 542.8 L 245 543.3 L 245 507.9 Z " fill-rule="evenodd"/>
<path transform="matrix(2.7777777,0,0,-2.7777777,0,2338.889)" d="M 245 456.1 L 245.5 456.7 L 246 457.2 L 246 491.6 L 245.5 491.1 L 245 490.6 L 245 456.1 Z " fill-rule="evenodd"/>
<path transform="matrix(2.7777777,0,0,-2.7777777,0,2338.889)" d="M 266.7 490.6 L 267.2 491.1 L 267.7 491.6 L 267.7 526.1 L 267.2 525.6 L 266.7 525.1 L 266.7 490.6 Z " fill-rule="evenodd"/>
<path transform="matrix(2.7777777,0,0,-2.7777777,0,2338.889)" d="M 266.7 439.9 L 267.2 439.4 L 267.7 438.9 L 267.7 474.4 L 267.2 473.9 L 266.7 473.4 L 266.7 439.9 Z " fill-rule="evenodd"/>
<path transform="matrix(2.7777777,0,0,-2.7777777,0,2338.889)" d="M 266.7 371 L 267.2 370.5 L 267.7 370 L 267.7 405.5 L 267.2 405 L 266.7 404.4 L 266.7 371 Z " fill-rule="evenodd"/>
<path transform="matrix(2.7777777,0,0,-2.7777777,0,2338.889)" d="M 266.7 302.1 L 267.2 301.5 L 267.7 301 L 267.7 336.5 L 267.2 336 L 266.7 335.5 L 266.7 302.1 Z " fill-rule="evenodd"/>
<path transform="matrix(2.7777777,0,0,-2.7777777,0,2338.889)" d="M 288.4 491.6 L 288.9 491.1 L 289.4 490.6 L 289.4 525.1 L 288.9 525.6 L 288.4 526.1 L 288.4 491.6 Z " fill-rule="evenodd"/>
<path transform="matrix(2.7777777,0,0,-2.7777777,0,2338.889)" d="M 288.4 438.9 L 288.9 439.4 L 289.4 439.9 L 289.4 473.4 L 288.9 473.9 L 288.4 474.4 L 288.4 438.9 Z " fill-rule="evenodd"/>
<path transform="matrix(2.7777777,0,0,-2.7777777,0,2338.889)" d="M 288.4 370 L 288.9 370.5 L 289.4 371 L 289.4 404.4 L 288.9 405 L 288.4 405.5 L 288.4 370 Z " fill-rule="evenodd"/>
<path transform="matrix(2.7777777,0,0,-2.7777777,0,2338.889)" d="M 288.4 301 L 288.9 301.5 L 289.4 302.1 L 289.4 335.5 L 288.9 336 L 288.4 336.5 L 288.4 301 Z " fill-rule="evenodd"/>
<path transform="matrix(2.7777777,0,0,-2.7777777,0,2338.889)" d="M 310.1 508.9 L 310.6 508.4 L 311.1 507.9 L 311.1 543.3 L 310.6 542.8 L 310.1 542.3 L 310.1 508.9 Z " fill-rule="evenodd"/>
<path transform="matrix(2.7777777,0,0,-2.7777777,0,2338.889)" d="M 310.1 457.2 L 310.6 456.7 L 311.1 456.1 L 311.1 490.6 L 310.6 491.1 L 310.1 491.6 L 310.1 457.2 Z " fill-rule="evenodd"/>
<path transform="matrix(2.7777777,0,0,-2.7777777,0,2338.889)" d="M 331.8 474.4 L 332.3 473.9 L 332.8 473.4 L 332.8 526.1 L 332.3 525.6 L 331.8 525.1 L 331.8 474.4 Z " fill-rule="evenodd"/>
<path transform="matrix(2.7777777,0,0,-2.7777777,0,2338.889)" d="M 331.8 422.7 L 332.3 422.2 L 332.8 421.7 L 332.8 456.1 L 332.3 456.7 L 331.8 457.2 L 331.8 422.7 Z " fill-rule="evenodd"/>
<path transform="matrix(2.7777777,0,0,-2.7777777,0,2338.889)" d="M 353.5 439.9 L 354 439.4 L 354.5 438.9 L 354.5 508.9 L 354 508.4 L 353.5 507.9 L 353.5 439.9 Z " fill-rule="evenodd"/>
<path transform="matrix(2.7777777,0,0,-2.7777777,0,2338.889)" d="M 353.5 388.2 L 354 387.7 L 354.5 387.2 L 354.5 421.7 L 354 422.2 L 353.5 422.7 L 353.5 388.2 Z " fill-rule="evenodd"/>
<path transform="matrix(2.7777777,0,0,-2.7777777,0,2338.889)" d="M 375.1 405.5 L 375.6 405 L 376.2 404.4 L 376.2 491.6 L 375.6 491.1 L 375.1 490.6 L 375.1 405.5 Z " fill-rule="evenodd"/>
<path transform="matrix(2.7777777,0,0,-2.7777777,0,2338.889)" d="M 375.1 353.8 L 375.6 353.3 L 376.2 352.7 L 376.2 387.2 L 375.6 387.7 L 375.1 388.2 L 375.1 353.8 Z " fill-rule="evenodd"/>
<path transform="matrix(2.7777777,0,0,-2.7777777,0,2338.889)" d="M 396.8 371 L 397.3 370.5 L 397.8 370 L 397.8 474.4 L 397.3 473.9 L 396.8 473.4 L 396.8 371 Z " fill-rule="evenodd"/>
<path transform="matrix(2.7777777,0,0,-2.7777777,0,2338.889)" d="M 396.8 319.3 L 397.3 318.8 L 397.8 318.3 L 397.8 352.7 L 397.3 353.3 L 396.8 353.8 L 396.8 319.3 Z " fill-rule="evenodd"/>
<path transform="matrix(2.7777777,0,0,-2.7777777,0,2338.889)" d="M 418.5 336.5 L 419 336 L 419.5 335.5 L 419.5 457.2 L 419 456.7 L 418.5 456.1 L 418.5 336.5 Z " fill-rule="evenodd"/>
<path transform="matrix(2.7777777,0,0,-2.7777777,0,2338.889)" d="M 418.5 284.8 L 419 284.3 L 419.5 283.8 L 419.5 318.3 L 419 318.8 L 418.5 319.3 L 418.5 284.8 Z " fill-rule="evenodd"/>
<path transform="matrix(2.7777777,0,0,-2.7777777,0,2338.889)" d="M 440.2 302.1 L 440.7 301.5 L 441.2 301 L 441.2 439.9 L 440.7 439.4 L 440.2 438.9 L 440.2 302.1 Z " fill-rule="evenodd"/>
<g opacity=".5">
</g>
</g>
</g>
</svg>
