<?xml version="1.0" encoding="UTF-8" standalone="no"?>
<!DOCTYPE svg PUBLIC "-//W3C//DTD SVG 1.1//EN" "http://www.w3.org/Graphics/SVG/1.1/DTD/svg11.dtd">
<svg xmlns="http://www.w3.org/2000/svg" xmlns:xlink="http://www.w3.org/1999/xlink" version="1.1" width="1652.7777pt" height="2338.889pt" viewBox="0 0 1652.7777 2338.889">
<g enable-background="new">
<g>
<clipPath id="cp0">
<path transform="matrix(2.7777777,0,0,-2.7777777,0,2338.889)" d="M 54 770 L 541.2 770 L 541.2 806 L 54 806 Z " fill-rule="evenodd"/>
</clipPath>
<g clip-path="url(#cp0)">
<symbol id="font_1_1">
<path d="M .014160156 .08300781 L .17529297 .08300781 L .17529297 .63916018 L 0 .6040039 L 0 .69384768 L .1743164 .7290039 L .27294923 .7290039 L .27294923 .08300781 L .43408204 .08300781 L .43408204 0 L .014160156 0 L .014160156 .08300781 Z "/>
</symbol>
<symbol id="font_1_9">
<path d="M .118652347 .08300781 L .46289063 .08300781 L .46289063 0 L 0 0 L 0 .08300781 C .037434896 .12174479 .088378909 .17366536 .15283203 .23876953 C .21761067 .30419923 .25830079 .34635417 .27490235 .36523438 C .30647788 .40071617 .32845054 .43066407 .3408203 .45507813 C .35351563 .47981773 .35986329 .50406906 .35986329 .52783206 C .35986329 .56656906 .3461914 .59814456 .31884767 .6225586 C .29182945 .64697268 .2565104 .6591797 .21289063 .6591797 C .18196614 .6591797 .1492513 .6538086 .114746097 .6430664 C .080566409 .6323242 .043945314 .61604818 .0048828127 .5942383 L .0048828127 .69384768 C .044596357 .70979818 .08170573 .72184249 .11621094 .72998049 C .15071614 .73811849 .18229167 .7421875 .2109375 .7421875 C .28645835 .7421875 .3466797 .7233073 .39160157 .6855469 C .43652345 .64778646 .45898438 .59733077 .45898438 .5341797 C .45898438 .50423178 .45328776 .4757487 .44189454 .44873048 C .4308268 .42203776 .41048179 .39046226 .38085938 .3540039 C .37272135 .3445638 .34684245 .31722007 .30322267 .27197267 C .25960288 .22705078 .19807942 .1640625 .118652347 .08300781 Z "/>
</symbol>
<use xlink:href="#font_1_1" transform="matrix(27.777777,0,0,-27.777777,812.2184,159.72241)"/>
<use xlink:href="#font_1_9" transform="matrix(27.777777,0,0,-27.777777,828.70108,159.72241)"/>
</g>
<clipPath id="cp2">
<path transform="matrix(2.7777777,0,0,-2.7777777,0,2338.889)" d="M 54 36.2 L 541.2 36.2 L 541.2 72.2 L 54 72.2 Z " fill-rule="evenodd"/>
</clipPath>
<g clip-path="url(#cp2)">
<symbol id="font_1_3">
<path d="M .09863281 .6479492 L .09863281 .37402345 L .22265625 .37402345 C .2685547 .37402345 .30403648 .38590495 .32910157 .40966798 C .35416667 .433431 .36669923 .46728517 .36669923 .51123049 C .36669923 .5548503 .35416667 .5885417 .32910157 .6123047 C .30403648 .6360677 .2685547 .6479492 .22265625 .6479492 L .09863281 .6479492 M 0 .7290039 L .22265625 .7290039 C .30436198 .7290039 .3660482 .7104492 .40771485 .67333987 C .44970704 .63655599 .47070313 .58251956 .47070313 .51123049 C .47070313 .43929038 .44970704 .38492839 .40771485 .34814454 C .3660482 .3113607 .30436198 .29296876 .22265625 .29296876 L .09863281 .29296876 L .09863281 0 L 0 0 L 0 .7290039 Z "/>
</symbol>
<symbol id="font_1_4">
<path d="M .28271485 .2890625 C .2101237 .2890625 .15983074 .28076173 .13183594 .26416017 C .10384115 .2475586 .08984375 .21923828 .08984375 .17919922 C .08984375 .14729817 .100260417 .121907558 .12109375 .103027347 C .14225261 .084472659 .17089844 .07519531 .20703125 .07519531 C .25683595 .07519531 .29671226 .09277344 .32666017 .12792969 C .3569336 .16341146 .3720703 .21044922 .3720703 .26904298 L .3720703 .2890625 L .28271485 .2890625 M .46191407 .32617188 L .46191407 .014160156 L .3720703 .014160156 L .3720703 .09716797 C .3515625 .063964847 .32600913 .03938802 .29541017 .0234375 C .2648112 .0078125 .2273763 0 .18310547 0 C .12711589 0 .08251953 .015625 .049316408 .046875 C .016438803 .07845052 0 .12060547 0 .17333985 C 0 .23486328 .020507813 .28125 .061523439 .3125 C .102864589 .34375 .16438802 .359375 .24609375 .359375 L .3720703 .359375 L .3720703 .36816407 C .3720703 .40950523 .35839845 .44140626 .3310547 .4638672 C .30403648 .48665367 .26595054 .49804688 .21679688 .49804688 C .18554688 .49804688 .15511067 .49430339 .12548828 .4868164 C .09586588 .47932945 .06738281 .46809898 .040039064 .453125 L .040039064 .5361328 C .072916667 .5488281 .10481771 .55826827 .13574219 .5644531 C .16666667 .57096359 .19677735 .57421877 .22607422 .57421877 C .30517579 .57421877 .3642578 .55371096 .4033203 .5126953 C .4423828 .4716797 .46191407 .40950523 .46191407 .32617188 Z "/>
</symbol>
<symbol id="font_1_5">
<path d="M .39892579 .48779298 C .39892579 .55289718 .38541667 .60335287 .35839845 .63916018 C .33170573 .67496749 .29410807 .6928711 .24560547 .6928711 C .19742839 .6928711 .15983074 .67496749 .1328125 .63916018 C .10611979 .60335287 .09277344 .55289718 .09277344 .48779298 C .09277344 .4230143 .10611979 .37272135 .1328125 .33691407 C .15983074 .30110679 .19742839 .28320313 .24560547 .28320313 C .29410807 .28320313 .33170573 .30110679 .35839845 .33691407 C .38541667 .37272135 .39892579 .4230143 .39892579 .48779298 M .48876954 .2758789 C .48876954 .18277996 .46809898 .11360677 .4267578 .068359378 C .38541667 .022786459 .32210288 0 .2368164 0 C .20524089 0 .17545574 .0024414063 .14746094 .0073242189 C .11946615 .011881511 .092285159 .019042969 .06591797 .028808594 L .06591797 .11621094 C .092285159 .10188802 .11832682 .091308597 .14404297 .084472659 C .16975911 .07763672 .19596355 .07421875 .22265625 .07421875 C .28157554 .07421875 .3256836 .08968099 .35498048 .12060547 C .38427735 .15120442 .39892579 .19759114 .39892579 .25976563 L .39892579 .30419923 C .3803711 .27197267 .35660807 .24788411 .32763673 .2319336 C .29866538 .21598308 .2639974 .20800781 .22363281 .20800781 C .15657552 .20800781 .10253906 .2335612 .061523439 .28466798 C .020507813 .33577476 0 .40348307 0 .48779298 C 0 .5724284 .020507813 .6402995 .061523439 .69140627 C .10253906 .742513 .15657552 .7680664 .22363281 .7680664 C .2639974 .7680664 .29866538 .7600911 .32763673 .7441406 C .35660807 .7281901 .3803711 .70410159 .39892579 .671875 L .39892579 .7548828 L .48876954 .7548828 L .48876954 .2758789 Z "/>
</symbol>
<symbol id="font_1_6">
<path d="M .50683596 .3100586 L .50683596 .26611329 L .09375 .26611329 C .09765625 .20426433 .11621094 .1570638 .14941406 .12451172 C .1829427 .092285159 .22949219 .076171878 .2890625 .076171878 C .32356773 .076171878 .3569336 .08040365 .38916017 .08886719 C .42171226 .09733073 .4539388 .11002604 .48583985 .12695313 L .48583985 .041992189 C .45361329 .028320313 .4205729 .017903647 .38671876 .0107421879 C .3528646 .0035807293 .31852214 0 .2836914 0 C .19645183 0 .12727864 .025390625 .076171878 .076171878 C .025390625 .12695313 0 .19563802 0 .28222657 C 0 .37174479 .024088541 .44270835 .072265628 .4951172 C .12076823 .54785159 .18603516 .57421877 .2680664 .57421877 C .34163413 .57421877 .3997396 .55045577 .4423828 .5029297 C .48535157 .45572917 .50683596 .3914388 .50683596 .3100586 M .4169922 .33642579 C .41634117 .38557945 .4025065 .4248047 .37548829 .45410157 C .34879557 .48339845 .3133138 .49804688 .26904298 .49804688 C .21891277 .49804688 .17871094 .48388673 .1484375 .4555664 C .118489589 .4272461 .10123698 .38736979 .09667969 .3359375 L .4169922 .33642579 Z "/>
</symbol>
<symbol id="font_1_7">
<path d="M 0 0 Z "/>
</symbol>
<use xlink:href="#font_1_3" transform="matrix(27.777777,0,0,-27.777777,782.7262,2198.0557)"/>
<use xlink:href="#font_1_4" transform="matrix(27.777777,0,0,-27.777777,797.22378,2198.449)"/>
<use xlink:href="#font_1_5" transform="matrix(27.777777,0,0,-27.777777,814.0326,2203.8338)"/>
<use xlink:href="#font_1_6" transform="matrix(27.777777,0,0,-27.777777,831.7826,2198.449)"/>
<use xlink:href="#font_1_7" transform="matrix(27.777777,0,0,-27.777777,847.1944,2198.0557)"/>
<use xlink:href="#font_1_1" transform="matrix(27.777777,0,0,-27.777777,859.16287,2198.0557)"/>
</g>
<path transform="matrix(2.7777777,0,0,-2.7777777,0,2338.889)" d="M 206.3 544.4 L 227.3 544.4 L 227.3 565.4 L 206.3 565.4 Z " fill="#c0c0c0" fill-rule="evenodd"/>
<path transform="matrix(2.7777777,0,0,-2.7777777,0,2338.889)" d="M 227.3 523.4 L 248.3 523.4 L 248.3 544.4 L 227.3 544.4 Z " fill="#c0c0c0" fill-rule="evenodd"/>
<path transform="matrix(2.7777777,0,0,-2.7777777,0,2338.889)" d="M 206.3 502.4 L 269.2 502.4 L 269.2 523.4 L 206.3 523.4 Z " fill="#c0c0c0" fill-rule="evenodd"/>
<path transform="matrix(2.7777777,0,0,-2.7777777,0,2338.889)" d="M 269.2 481.5 L 290.2 481.5 L 290.2 502.5 L 269.2 502.5 Z " fill="#c0c0c0" fill-rule="evenodd"/>
<path transform="matrix(2.7777777,0,0,-2.7777777,0,2338.889)" d="M 206.3 460.5 L 227.3 460.5 L 227.3 481.5 L 206.3 481.5 Z " fill="#c0c0c0" fill-rule="evenodd"/>
<path transform="matrix(2.7777777,0,0,-2.7777777,0,2338.889)" d="M 248.2 460.5 L 311.1 460.5 L 311.1 481.5 L 248.2 481.5 Z " fill="#c0c0c0" fill-rule="evenodd"/>
<path transform="matrix(2.7777777,0,0,-2.7777777,0,2338.889)" d="M 227.3 439.5 L 290.2 439.5 L 290.2 460.5 L 227.3 460.5 Z " fill="#c0c0c0" fill-rule="evenodd"/>
<path transform="matrix(2.7777777,0,0,-2.7777777,0,2338.889)" d="M 311.1 439.5 L 332.1 439.5 L 332.1 460.5 L 311.1 460.5 Z " fill="#c0c0c0" fill-rule="evenodd"/>
<path transform="matrix(2.7777777,0,0,-2.7777777,0,2338.889)" d="M 206.3 418.5 L 353 418.5 L 353 439.5 L 206.3 439.5 Z " fill="#c0c0c0" fill-rule="evenodd"/>
<path transform="matrix(2.7777777,0,0,-2.7777777,0,2338.889)" d="M 206.3 376.6 L 227.3 376.6 L 227.3 397.6 L 206.3 397.6 Z " fill="#c0c0c0" fill-rule="evenodd"/>
<path transform="matrix(2.7777777,0,0,-2.7777777,0,2338.889)" d="M 290.1 376.6 L 311.1 376.6 L 311.1 397.6 L 290.1 397.6 Z " fill="#c0c0c0" fill-rule="evenodd"/>
<path transform="matrix(2.7777777,0,0,-2.7777777,0,2338.889)" d="M 227.3 355.6 L 248.3 355.6 L 248.3 376.6 L 227.3 376.6 Z " fill="#c0c0c0" fill-rule="evenodd"/>
<path transform="matrix(2.7777777,0,0,-2.7777777,0,2338.889)" d="M 206.3 334.6 L 269.2 334.6 L 269.2 355.6 L 206.3 355.6 Z " fill="#c0c0c0" fill-rule="evenodd"/>
<path transform="matrix(2.7777777,0,0,-2.7777777,0,2338.889)" d="M 206.3 292.7 L 227.3 292.7 L 227.3 313.7 L 206.3 313.7 Z " fill="#c0c0c0" fill-rule="evenodd"/>
<path transform="matrix(2.7777777,0,0,-2.7777777,0,2338.889)" d="M 205.9 565.8 L 206.4 565.3 L 206.9 564.8 L 226.9 564.8 L 227.4 565.3 L 227.9 565.8 L 205.9 565.8 Z " fill-rule="evenodd"/>
<path transform="matrix(2.7777777,0,0,-2.7777777,0,2338.889)" d="M 206.9 544.8 L 206.4 544.3 L 206.9 543.8 L 247.8 543.8 L 248.3 544.3 L 248.8 544.8 L 206.9 544.8 Z " fill-rule="evenodd"/>
<path transform="matrix(2.7777777,0,0,-2.7777777,0,2338.889)" d="M 206.9 523.9 L 206.4 523.4 L 206.9 522.8 L 227.9 522.8 L 227.4 523.4 L 226.9 523.9 L 206.9 523.9 Z " fill-rule="evenodd"/>
<path transform="matrix(2.7777777,0,0,-2.7777777,0,2338.889)" d="M 248.8 523.9 L 248.3 523.4 L 248.8 522.8 L 268.8 522.8 L 269.3 523.4 L 269.8 523.9 L 248.8 523.9 Z " fill-rule="evenodd"/>
<path transform="matrix(2.7777777,0,0,-2.7777777,0,2338.889)" d="M 206.9 502.9 L 206.4 502.4 L 206.9 501.9 L 289.7 501.9 L 290.2 502.4 L 290.7 502.9 L 206.9 502.9 Z " fill-rule="evenodd"/>
<path transform="matrix(2.7777777,0,0,-2.7777777,0,2338.889)" d="M 206.9 481.9 L 206.4 481.4 L 206.9 480.9 L 226.9 480.9 L 227.4 481.4 L 227.9 481.9 L 206.9 481.9 Z " fill-rule="evenodd"/>
<path transform="matrix(2.7777777,0,0,-2.7777777,0,2338.889)" d="M 248.8 481.9 L 248.3 481.4 L 248.8 480.9 L 269.8 480.9 L 269.3 481.4 L 268.8 481.9 L 248.8 481.9 Z " fill-rule="evenodd"/>
<path transform="matrix(2.7777777,0,0,-2.7777777,0,2338.889)" d="M 290.7 481.9 L 290.2 481.4 L 290.7 480.9 L 310.6 480.9 L 311.2 481.4 L 311.7 481.9 L 290.7 481.9 Z " fill-rule="evenodd"/>
<path transform="matrix(2.7777777,0,0,-2.7777777,0,2338.889)" d="M 206.9 460.9 L 206.4 460.4 L 206.9 459.9 L 248.8 459.9 L 248.3 460.4 L 247.8 460.9 L 206.9 460.9 Z " fill-rule="evenodd"/>
<path transform="matrix(2.7777777,0,0,-2.7777777,0,2338.889)" d="M 290.7 460.9 L 290.2 460.4 L 290.7 459.9 L 331.6 459.9 L 332.1 460.4 L 332.6 460.9 L 290.7 460.9 Z " fill-rule="evenodd"/>
<path transform="matrix(2.7777777,0,0,-2.7777777,0,2338.889)" d="M 206.9 440 L 206.4 439.5 L 206.9 438.9 L 227.9 438.9 L 227.4 439.5 L 226.9 440 L 206.9 440 Z " fill-rule="evenodd"/>
<path transform="matrix(2.7777777,0,0,-2.7777777,0,2338.889)" d="M 290.7 440 L 290.2 439.5 L 290.7 438.9 L 311.7 438.9 L 311.2 439.5 L 310.6 440 L 290.7 440 Z " fill-rule="evenodd"/>
<path transform="matrix(2.7777777,0,0,-2.7777777,0,2338.889)" d="M 332.6 440 L 332.1 439.5 L 332.6 438.9 L 352.5 438.9 L 353.1 439.5 L 353.6 440 L 332.6 440 Z " fill-rule="evenodd"/>
<path transform="matrix(2.7777777,0,0,-2.7777777,0,2338.889)" d="M 53.9 419 L 505.5 419 L 505.5 418 L 53.9 418 L 53.9 419 Z " fill-rule="evenodd"/>
<path transform="matrix(2.7777777,0,0,-2.7777777,0,2338.889)" d="M 206.9 398 L 206.4 397.5 L 206.9 397 L 226.9 397 L 227.4 397.5 L 227.9 398 L 206.9 398 Z " fill-rule="evenodd"/>
<path transform="matrix(2.7777777,0,0,-2.7777777,0,2338.889)" d="M 290.7 398 L 290.2 397.5 L 290.7 397 L 310.6 397 L 311.2 397.5 L 311.7 398 L 290.7 398 Z " fill-rule="evenodd"/>
<path transform="matrix(2.7777777,0,0,-2.7777777,0,2338.889)" d="M 332.6 398 L 332.1 397.5 L 332.6 397 L 353.6 397 L 353.1 397.5 L 352.5 398 L 332.6 398 Z " fill-rule="evenodd"/>
<path transform="matrix(2.7777777,0,0,-2.7777777,0,2338.889)" d="M 206.9 377 L 206.4 376.5 L 206.9 376 L 247.8 376 L 248.3 376.5 L 248.8 377 L 206.9 377 Z " fill-rule="evenodd"/>
<path transform="matrix(2.7777777,0,0,-2.7777777,0,2338.889)" d="M 290.7 377 L 290.2 376.5 L 290.7 376 L 332.6 376 L 332.1 376.5 L 331.6 377 L 290.7 377 Z " fill-rule="evenodd"/>
<path transform="matrix(2.7777777,0,0,-2.7777777,0,2338.889)" d="M 206.9 356.1 L 206.4 355.5 L 206.9 355 L 227.9 355 L 227.4 355.5 L 226.9 356.1 L 206.9 356.1 Z " fill-rule="evenodd"/>
<path transform="matrix(2.7777777,0,0,-2.7777777,0,2338.889)" d="M 248.8 356.1 L 248.3 355.5 L 248.8 355 L 268.8 355 L 269.3 355.5 L 269.8 356.1 L 248.8 356.1 Z " fill-rule="evenodd"/>
<path transform="matrix(2.7777777,0,0,-2.7777777,0,2338.889)" d="M 290.7 356.1 L 290.2 355.5 L 290.7 355 L 311.7 355 L 311.2 355.5 L 310.6 356.1 L 290.7 356.1 Z " fill-rule="evenodd"/>
<path transform="matrix(2.7777777,0,0,-2.7777777,0,2338.889)" d="M 206.9 335.1 L 206.4 334.6 L 206.9 334.1 L 290.7 334.1 L 290.2 334.6 L 289.7 335.1 L 206.9 335.1 Z " fill-rule="evenodd"/>
<path transform="matrix(2.7777777,0,0,-2.7777777,0,2338.889)" d="M 206.9 314.1 L 206.4 313.6 L 206.9 313.1 L 226.9 313.1 L 227.4 313.6 L 227.9 314.1 L 206.9 314.1 Z " fill-rule="evenodd"/>
<path transform="matrix(2.7777777,0,0,-2.7777777,0,2338.889)" d="M 248.8 314.1 L 248.3 313.6 L 248.8 313.1 L 269.8 313.1 L 269.3 313.6 L 268.8 314.1 L 248.8 314.1 Z " fill-rule="evenodd"/>
<path transform="matrix(2.7777777,0,0,-2.7777777,0,2338.889)" d="M 206.9 293.1 L 206.4 292.6 L 206.9 292.1 L 248.8 292.1 L 248.3 292.6 L 247.8 293.1 L 206.9 293.1 Z " fill-rule="evenodd"/>
<path transform="matrix(2.7777777,0,0,-2.7777777,0,2338.889)" d="M 206.9 272.2 L 206.4 271.6 L 205.9 271.1 L 227.9 271.1 L 227.4 271.6 L 226.9 272.2 L 206.9 272.2 Z " fill-rule="evenodd"/>
<path transform="matrix(2.7777777,0,0,-2.7777777,0,2338.889)" d="M 205.9 271.1 L 206.4 271.6 L 206.9 272.2 L 206.9 564.8 L 206.4 565.3 L 205.9 565.8 L 205.9 271.1 Z " fill-rule="evenodd"/>
<path transform="matrix(2.7777777,0,0,-2.7777777,0,2338.889)" d="M 226.9 523.9 L 227.4 523.4 L 227.9 522.8 L 227.9 565.8 L 227.4 565.3 L 226.9 564.8 L 226.9 523.9 Z " fill-rule="evenodd"/>
<path transform="matrix(2.7777777,0,0,-2.7777777,0,2338.889)" d="M 226.9 440 L 227.4 439.5 L 227.9 438.9 L 227.9 481.9 L 227.4 481.4 L 226.9 480.9 L 226.9 440 Z " fill-rule="evenodd"/>
<path transform="matrix(2.7777777,0,0,-2.7777777,0,2338.889)" d="M 226.9 356.1 L 227.4 355.5 L 227.9 355 L 227.9 398 L 227.4 397.5 L 226.9 397 L 226.9 356.1 Z " fill-rule="evenodd"/>
<path transform="matrix(2.7777777,0,0,-2.7777777,0,2338.889)" d="M 226.9 272.2 L 227.4 271.6 L 227.9 271.1 L 227.9 314.1 L 227.4 313.6 L 226.9 313.1 L 226.9 272.2 Z " fill-rule="evenodd"/>
<path transform="matrix(2.7777777,0,0,-2.7777777,0,2338.889)" d="M 247.8 460.9 L 248.3 460.4 L 248.8 459.9 L 248.8 544.8 L 248.3 544.3 L 247.8 543.8 L 247.8 460.9 Z " fill-rule="evenodd"/>
<path transform="matrix(2.7777777,0,0,-2.7777777,0,2338.889)" d="M 247.8 293.1 L 248.3 292.6 L 248.8 292.1 L 248.8 377 L 248.3 376.5 L 247.8 376 L 247.8 293.1 Z " fill-rule="evenodd"/>
<path transform="matrix(2.7777777,0,0,-2.7777777,0,2338.889)" d="M 268.8 481.9 L 269.3 481.4 L 269.8 480.9 L 269.8 523.9 L 269.3 523.4 L 268.8 522.8 L 268.8 481.9 Z " fill-rule="evenodd"/>
<path transform="matrix(2.7777777,0,0,-2.7777777,0,2338.889)" d="M 268.8 314.1 L 269.3 313.6 L 269.8 313.1 L 269.8 356.1 L 269.3 355.5 L 268.8 355 L 268.8 314.1 Z " fill-rule="evenodd"/>
<path transform="matrix(2.7777777,0,0,-2.7777777,0,2338.889)" d="M 289.7 335.1 L 290.2 334.6 L 290.7 334.1 L 290.7 502.9 L 290.2 502.4 L 289.7 501.9 L 289.7 335.1 Z " fill-rule="evenodd"/>
<path transform="matrix(2.7777777,0,0,-2.7777777,0,2338.889)" d="M 310.6 440 L 311.2 439.5 L 311.7 438.9 L 311.7 481.9 L 311.2 481.4 L 310.6 480.9 L 310.6 440 Z " fill-rule="evenodd"/>
<path transform="matrix(2.7777777,0,0,-2.7777777,0,2338.889)" d="M 310.6 356.1 L 311.2 355.5 L 311.7 355 L 311.7 398 L 311.2 397.5 L 310.6 397 L 310.6 356.1 Z " fill-rule="evenodd"/>
<path transform="matrix(2.7777777,0,0,-2.7777777,0,2338.889)" d="M 331.6 377 L 332.1 376.5 L 332.6 376 L 332.6 460.9 L 332.1 460.4 L 331.6 459.9 L 331.6 377 Z " fill-rule="evenodd"/>
<path transform="matrix(2.7777777,0,0,-2.7777777,0,2338.889)" d="M 352.5 398 L 353.1 397.5 L 353.6 397 L 353.6 440 L 353.1 439.5 L 352.5 438.9 L 352.5 398 Z " fill-rule="evenodd"/>
<g opacity=".5">
</g>
</g>
</g>
</svg>
