<?xml version="1.0" encoding="UTF-8" standalone="no"?>
<!DOCTYPE svg PUBLIC "-//W3C//DTD SVG 1.1//EN" "http://www.w3.org/Graphics/SVG/1.1/DTD/svg11.dtd">
<svg xmlns="http://www.w3.org/2000/svg" xmlns:xlink="http://www.w3.org/1999/xlink" version="1.1" width="1652.7777pt" height="2338.889pt" viewBox="0 0 1652.7777 2338.889">
<g enable-background="new">
<g>
<clipPath id="cp0">
<path transform="matrix(2.7777777,0,0,-2.7777777,0,2338.889)" d="M 54 770 L 541.2 770 L 541.2 806 L 54 806 Z " fill-rule="evenodd"/>
</clipPath>
<g clip-path="url(#cp0)">
<symbol id="font_1_b">
<path d="M .046875 .029296875 L .046875 .119140628 C .071614589 .107421878 .09667969 .098470058 .12207031 .092285159 C .14746094 .08610026 .17236328 .08300781 .19677735 .08300781 C .2618815 .08300781 .31152345 .10481771 .34570313 .1484375 C .38020835 .19238281 .39990235 .2589518 .40478517 .34814454 C .38590495 .32014976 .36197917 .29866538 .3330078 .2836914 C .30403648 .26871745 .27197267 .26123048 .2368164 .26123048 C .16389974 .26123048 .10611979 .28320313 .06347656 .32714845 C .021158854 .37141929 0 .43180339 0 .5083008 C 0 .5831706 .022135416 .6432292 .06640625 .68847659 C .110677089 .73372396 .16959636 .75634768 .24316406 .75634768 C .32747398 .75634768 .3917643 .7239583 .43603517 .6591797 C .4806315 .59472659 .5029297 .50097659 .5029297 .3779297 C .5029297 .26302085 .47558595 .17122396 .42089845 .10253906 C .36653648 .034179689 .29329429 0 .20117188 0 C .1764323 0 .15136719 .0024414063 .12597656 .0073242189 C .10058594 .012207031 .07421875 .01953125 .046875 .029296875 M .24316406 .3383789 C .2874349 .3383789 .32242839 .35351563 .34814454 .38378907 C .3741862 .4140625 .38720704 .4555664 .38720704 .5083008 C .38720704 .56070968 .3741862 .6020508 .34814454 .6323242 C .32242839 .66292318 .2874349 .67822268 .24316406 .67822268 C .19889324 .67822268 .16373699 .66292318 .13769531 .6323242 C .111979167 .6020508 .099121097 .56070968 .099121097 .5083008 C .099121097 .4555664 .111979167 .4140625 .13769531 .38378907 C .16373699 .35351563 .19889324 .3383789 .24316406 .3383789 Z "/>
</symbol>
<use xlink:href="#font_1_b" transform="matrix(27.777777,0,0,-27.777777,819.80526,160.11576)"/>
</g>
<clipPath id="cp2">
<path transform="matrix(2.7777777,0,0,-2.7777777,0,2338.889)" d="M 54 36.2 L 541.2 36.2 L 541.2 72.2 L 54 72.2 Z " fill-rule="evenodd"/>
</clipPath>
<g clip-path="url(#cp2)">
<symbol id="font_1_3">
<path d="M .09863281 .6479492 L .09863281 .37402345 L .22265625 .37402345 C .2685547 .37402345 .30403648 .38590495 .32910157 .40966798 C .35416667 .433431 .36669923 .46728517 .36669923 .51123049 C .36669923 .5548503 .35416667 .5885417 .32910157 .6123047 C .30403648 .6360677 .2685547 .6479492 .22265625 .6479492 L .09863281 .6479492 M 0 .7290039 L .22265625 .7290039 C .30436198 .7290039 .3660482 .7104492 .40771485 .67333987 C .44970704 .63655599 .47070313 .58251956 .47070313 .51123049 C .47070313 .43929038 .44970704 .38492839 .40771485 .34814454 C .3660482 .3113607 .30436198 .29296876 .22265625 .29296876 L .09863281 .29296876 L .09863281 0 L 0 0 L 0 .7290039 Z "/>
</symbol>
<symbol id="font_1_4">
<path d="M .28271485 .2890625 C .2101237 .2890625 .15983074 .28076173 .13183594 .26416017 C .10384115 .2475586 .08984375 .21923828 .08984375 .17919922 C .08984375 .14729817 .100260417 .121907558 .12109375 .103027347 C .14225261 .084472659 .17089844 .07519531 .20703125 .07519531 C .25683595 .07519531 .29671226 .09277344 .32666017 .12792969 C .3569336 .16341146 .3720703 .21044922 .3720703 .26904298 L .3720703 .2890625 L .28271485 .2890625 M .46191407 .32617188 L .46191407 .014160156 L .3720703 .014160156 L .3720703 .09716797 C .3515625 .063964847 .32600913 .03938802 .29541017 .0234375 C .2648112 .0078125 .2273763 0 .18310547 0 C .12711589 0 .08251953 .015625 .049316408 .046875 C .016438803 .07845052 0 .12060547 0 .17333985 C 0 .23486328 .020507813 .28125 .061523439 .3125 C .102864589 .34375 .16438802 .359375 .24609375 .359375 L .3720703 .359375 L .3720703 .36816407 C .3720703 .40950523 .35839845 .44140626 .3310547 .4638672 C .30403648 .48665367 .26595054 .49804688 .21679688 .49804688 C .18554688 .49804688 .15511067 .49430339 .12548828 .4868164 C .09586588 .47932945 .06738281 .46809898 .040039064 .453125 L .040039064 .5361328 C .072916667 .5488281 .10481771 .55826827 .13574219 .5644531 C .16666667 .57096359 .19677735 .57421877 .22607422 .57421877 C .30517579 .57421877 .3642578 .55371096 .4033203 .5126953 C .4423828 .4716797 .46191407 .40950523 .46191407 .32617188 Z "/>
</symbol>
<symbol id="font_1_5">
<path d="M .39892579 .48779298 C .39892579 .55289718 .38541667 .60335287 .35839845 .63916018 C .33170573 .67496749 .29410807 .6928711 .24560547 .6928711 C .19742839 .6928711 .15983074 .67496749 .1328125 .63916018 C .10611979 .60335287 .09277344 .55289718 .09277344 .48779298 C .09277344 .4230143 .10611979 .37272135 .1328125 .33691407 C .15983074 .30110679 .19742839 .28320313 .24560547 .28320313 C .29410807 .28320313 .33170573 .30110679 .35839845 .33691407 C .38541667 .37272135 .39892579 .4230143 .39892579 .48779298 M .48876954 .2758789 C .48876954 .18277996 .46809898 .11360677 .4267578 .068359378 C .38541667 .022786459 .32210288 0 .2368164 0 C .20524089 0 .17545574 .0024414063 .14746094 .0073242189 C .11946615 .011881511 .092285159 .019042969 .06591797 .028808594 L .06591797 .11621094 C .092285159 .10188802 .11832682 .091308597 .14404297 .084472659 C .16975911 .07763672 .19596355 .07421875 .22265625 .07421875 C .28157554 .07421875 .3256836 .08968099 .35498048 .12060547 C .38427735 .15120442 .39892579 .19759114 .39892579 .25976563 L .39892579 .30419923 C .3803711 .27197267 .35660807 .24788411 .32763673 .2319336 C .29866538 .21598308 .2639974 .20800781 .22363281 .20800781 C .15657552 .20800781 .10253906 .2335612 .061523439 .28466798 C .020507813 .33577476 0 .40348307 0 .48779298 C 0 .5724284 .020507813 .6402995 .061523439 .69140627 C .10253906 .742513 .15657552 .7680664 .22363281 .7680664 C .2639974 .7680664 .29866538 .7600911 .32763673 .7441406 C .35660807 .7281901 .3803711 .70410159 .39892579 .671875 L .39892579 .7548828 L .48876954 .7548828 L .48876954 .2758789 Z "/>
</symbol>
<symbol id="font_1_6">
<path d="M .50683596 .3100586 L .50683596 .26611329 L .09375 .26611329 C .09765625 .20426433 .11621094 .1570638 .14941406 .12451172 C .1829427 .092285159 .22949219 .076171878 .2890625 .076171878 C .32356773 .076171878 .3569336 .08040365 .38916017 .08886719 C .42171226 .09733073 .4539388 .11002604 .48583985 .12695313 L .48583985 .041992189 C .45361329 .028320313 .4205729 .017903647 .38671876 .0107421879 C .3528646 .0035807293 .31852214 0 .2836914 0 C .19645183 0 .12727864 .025390625 .076171878 .076171878 C .025390625 .12695313 0 .19563802 0 .28222657 C 0 .37174479 .024088541 .44270835 .072265628 .4951172 C .12076823 .54785159 .18603516 .57421877 .2680664 .57421877 C .34163413 .57421877 .3997396 .55045577 .4423828 .5029297 C .48535157 .45572917 .50683596 .3914388 .50683596 .3100586 M .4169922 .33642579 C .41634117 .38557945 .4025065 .4248047 .37548829 .45410157 C .34879557 .48339845 .3133138 .49804688 .26904298 .49804688 C .21891277 .49804688 .17871094 .48388673 .1484375 .4555664 C .118489589 .4272461 .10123698 .38736979 .09667969 .3359375 L .4169922 .33642579 Z "/>
</symbol>
<symbol id="font_1_7">
<path d="M 0 0 Z "/>
</symbol>
<use xlink:href="#font_1_3" transform="matrix(27.777777,0,0,-27.777777,782.7262,2198.0557)"/>
<use xlink:href="#font_1_4" transform="matrix(27.777777,0,0,-27.777777,797.22378,2198.449)"/>
<use xlink:href="#font_1_5" transform="matrix(27.777777,0,0,-27.777777,814.0326,2203.8338)"/>
<use xlink:href="#font_1_6" transform="matrix(27.777777,0,0,-27.777777,831.7826,2198.449)"/>
<use xlink:href="#font_1_7" transform="matrix(27.777777,0,0,-27.777777,847.1944,2198.0557)"/>
<symbol id="font_1_1">
<path d="M .014160156 .08300781 L .17529297 .08300781 L .17529297 .63916018 L 0 .6040039 L 0 .69384768 L .1743164 .7290039 L .27294923 .7290039 L .27294923 .08300781 L .43408204 .08300781 L .43408204 0 L .014160156 0 L .014160156 .08300781 Z "/>
</symbol>
<use xlink:href="#font_1_1" transform="matrix(27.777777,0,0,-27.777777,859.16287,2198.0557)"/>
</g>
<path transform="matrix(2.7777777,0,0,-2.7777777,0,2338.889)" d="M 307.1 511.4 L 334.80003 511.4 L 334.80003 536.9 L 307.1 536.9 Z " fill="#c0c0c0" fill-rule="evenodd"/>
<path transform="matrix(2.7777777,0,0,-2.7777777,0,2338.889)" d="M 251.7 485.9 L 334.8 485.9 L 334.8 511.4 L 251.7 511.4 Z " fill="#c0c0c0" fill-rule="evenodd"/>
<path transform="matrix(2.7777777,0,0,-2.7777777,0,2338.889)" d="M 251.7 460.5 L 307.1 460.5 L 307.1 486 L 251.7 486 Z " fill="#c0c0c0" fill-rule="evenodd"/>
<path transform="matrix(2.7777777,0,0,-2.7777777,0,2338.889)" d="M 196.3 435 L 362.5 435 L 362.5 460.5 L 196.3 460.5 Z " fill="#c0c0c0" fill-rule="evenodd"/>
<path transform="matrix(2.7777777,0,0,-2.7777777,0,2338.889)" d="M 168.6 409.5 L 224 409.5 L 224 435 L 168.6 435 Z " fill="#c0c0c0" fill-rule="evenodd"/>
<path transform="matrix(2.7777777,0,0,-2.7777777,0,2338.889)" d="M 251.7 409.5 L 279.4 409.5 L 279.4 435 L 251.7 435 Z " fill="#c0c0c0" fill-rule="evenodd"/>
<path transform="matrix(2.7777777,0,0,-2.7777777,0,2338.889)" d="M 334.8 409.5 L 390.19999 409.5 L 390.19999 435 L 334.8 435 Z " fill="#c0c0c0" fill-rule="evenodd"/>
<path transform="matrix(2.7777777,0,0,-2.7777777,0,2338.889)" d="M 140.9 384 L 196.29999 384 L 196.29999 409.5 L 140.9 409.5 Z " fill="#c0c0c0" fill-rule="evenodd"/>
<path transform="matrix(2.7777777,0,0,-2.7777777,0,2338.889)" d="M 224 384 L 251.7 384 L 251.7 409.5 L 224 409.5 Z " fill="#c0c0c0" fill-rule="evenodd"/>
<path transform="matrix(2.7777777,0,0,-2.7777777,0,2338.889)" d="M 279.4 384 L 417.9 384 L 417.9 409.5 L 279.4 409.5 Z " fill="#c0c0c0" fill-rule="evenodd"/>
<path transform="matrix(2.7777777,0,0,-2.7777777,0,2338.889)" d="M 140.9 358.5 L 168.59999 358.5 L 168.59999 384 L 140.9 384 Z " fill="#c0c0c0" fill-rule="evenodd"/>
<path transform="matrix(2.7777777,0,0,-2.7777777,0,2338.889)" d="M 196.3 358.5 L 334.8 358.5 L 334.8 384 L 196.3 384 Z " fill="#c0c0c0" fill-rule="evenodd"/>
<path transform="matrix(2.7777777,0,0,-2.7777777,0,2338.889)" d="M 362.5 358.5 L 417.9 358.5 L 417.9 384 L 362.5 384 Z " fill="#c0c0c0" fill-rule="evenodd"/>
<path transform="matrix(2.7777777,0,0,-2.7777777,0,2338.889)" d="M 140.9 333 L 224 333 L 224 358.5 L 140.9 358.5 Z " fill="#c0c0c0" fill-rule="evenodd"/>
<path transform="matrix(2.7777777,0,0,-2.7777777,0,2338.889)" d="M 251.7 333 L 307.1 333 L 307.1 358.5 L 251.7 358.5 Z " fill="#c0c0c0" fill-rule="evenodd"/>
<path transform="matrix(2.7777777,0,0,-2.7777777,0,2338.889)" d="M 390.2 333 L 417.90003 333 L 417.90003 358.5 L 390.2 358.5 Z " fill="#c0c0c0" fill-rule="evenodd"/>
<path transform="matrix(2.7777777,0,0,-2.7777777,0,2338.889)" d="M 168.6 307.6 L 196.3 307.6 L 196.3 333.1 L 168.6 333.1 Z " fill="#c0c0c0" fill-rule="evenodd"/>
<path transform="matrix(2.7777777,0,0,-2.7777777,0,2338.889)" d="M 224 307.6 L 390.2 307.6 L 390.2 333.1 L 224 333.1 Z " fill="#c0c0c0" fill-rule="evenodd"/>
<path transform="matrix(2.7777777,0,0,-2.7777777,0,2338.889)" d="M 196.3 282.1 L 251.70001 282.1 L 251.70001 307.6 L 196.3 307.6 Z " fill="#c0c0c0" fill-rule="evenodd"/>
<path transform="matrix(2.7777777,0,0,-2.7777777,0,2338.889)" d="M 307.1 282.1 L 362.5 282.1 L 362.5 307.6 L 307.1 307.6 Z " fill="#c0c0c0" fill-rule="evenodd"/>
<path transform="matrix(2.7777777,0,0,-2.7777777,0,2338.889)" d="M 251.3 562.8 L 251.8 562.3 L 252.3 561.8 L 334.4 561.8 L 334.9 562.3 L 335.4 562.8 L 251.3 562.8 Z " fill-rule="evenodd"/>
<path transform="matrix(2.7777777,0,0,-2.7777777,0,2338.889)" d="M 306.7 537.4 L 307.2 536.9 L 307.7 536.3 L 334.4 536.3 L 334.9 536.9 L 334.4 537.4 L 306.7 537.4 Z " fill-rule="evenodd"/>
<path transform="matrix(2.7777777,0,0,-2.7777777,0,2338.889)" d="M 195.9 511.9 L 196.4 511.4 L 196.9 510.9 L 306.7 510.9 L 307.2 511.4 L 306.7 511.9 L 195.9 511.9 Z " fill-rule="evenodd"/>
<path transform="matrix(2.7777777,0,0,-2.7777777,0,2338.889)" d="M 335.4 511.9 L 334.9 511.4 L 335.4 510.9 L 362.1 510.9 L 362.6 511.4 L 363.1 511.9 L 335.4 511.9 Z " fill-rule="evenodd"/>
<path transform="matrix(2.7777777,0,0,-2.7777777,0,2338.889)" d="M 168.2 486.4 L 168.7 485.9 L 169.2 485.4 L 195.9 485.4 L 196.4 485.9 L 195.9 486.4 L 168.2 486.4 Z " fill-rule="evenodd"/>
<path transform="matrix(2.7777777,0,0,-2.7777777,0,2338.889)" d="M 307.7 486.4 L 307.2 485.9 L 307.7 485.4 L 335.4 485.4 L 334.9 485.9 L 334.4 486.4 L 307.7 486.4 Z " fill-rule="evenodd"/>
<path transform="matrix(2.7777777,0,0,-2.7777777,0,2338.889)" d="M 363.1 486.4 L 362.6 485.9 L 363.1 485.4 L 389.8 485.4 L 390.3 485.9 L 390.8 486.4 L 363.1 486.4 Z " fill-rule="evenodd"/>
<path transform="matrix(2.7777777,0,0,-2.7777777,0,2338.889)" d="M 140.5 460.9 L 141 460.4 L 141.5 459.9 L 168.2 459.9 L 168.7 460.4 L 168.2 460.9 L 140.5 460.9 Z " fill-rule="evenodd"/>
<path transform="matrix(2.7777777,0,0,-2.7777777,0,2338.889)" d="M 196.9 460.9 L 196.4 460.4 L 196.9 459.9 L 252.3 459.9 L 251.8 460.4 L 251.3 460.9 L 196.9 460.9 Z " fill-rule="evenodd"/>
<path transform="matrix(2.7777777,0,0,-2.7777777,0,2338.889)" d="M 307.7 460.9 L 307.2 460.4 L 306.7 459.9 L 362.1 459.9 L 362.6 460.4 L 362.1 460.9 L 307.7 460.9 Z " fill-rule="evenodd"/>
<path transform="matrix(2.7777777,0,0,-2.7777777,0,2338.889)" d="M 390.8 460.9 L 390.3 460.4 L 390.8 459.9 L 417.5 459.9 L 418 460.4 L 418.5 460.9 L 390.8 460.9 Z " fill-rule="evenodd"/>
<path transform="matrix(2.7777777,0,0,-2.7777777,0,2338.889)" d="M 169.2 435.4 L 168.7 434.9 L 169.2 434.4 L 196.9 434.4 L 196.4 434.9 L 195.9 435.4 L 169.2 435.4 Z " fill-rule="evenodd"/>
<path transform="matrix(2.7777777,0,0,-2.7777777,0,2338.889)" d="M 223.6 435.4 L 224.1 434.9 L 224.6 434.4 L 251.3 434.4 L 251.8 434.9 L 252.3 435.4 L 223.6 435.4 Z " fill-rule="evenodd"/>
<path transform="matrix(2.7777777,0,0,-2.7777777,0,2338.889)" d="M 279 435.4 L 279.5 434.9 L 280 434.4 L 334.4 434.4 L 334.9 434.9 L 335.4 435.4 L 279 435.4 Z " fill-rule="evenodd"/>
<path transform="matrix(2.7777777,0,0,-2.7777777,0,2338.889)" d="M 363.1 435.4 L 362.6 434.9 L 362.1 434.4 L 389.8 434.4 L 390.3 434.9 L 389.8 435.4 L 363.1 435.4 Z " fill-rule="evenodd"/>
<path transform="matrix(2.7777777,0,0,-2.7777777,0,2338.889)" d="M 141.5 409.9 L 141 409.4 L 141.5 408.9 L 169.2 408.9 L 168.7 409.4 L 168.2 409.9 L 141.5 409.9 Z " fill-rule="evenodd"/>
<path transform="matrix(2.7777777,0,0,-2.7777777,0,2338.889)" d="M 195.9 409.9 L 196.4 409.4 L 196.9 408.9 L 334.4 408.9 L 334.9 409.4 L 334.4 409.9 L 195.9 409.9 Z " fill-rule="evenodd"/>
<path transform="matrix(2.7777777,0,0,-2.7777777,0,2338.889)" d="M 390.8 409.9 L 390.3 409.4 L 389.8 408.9 L 417.5 408.9 L 418 409.4 L 417.5 409.9 L 390.8 409.9 Z " fill-rule="evenodd"/>
<path transform="matrix(2.7777777,0,0,-2.7777777,0,2338.889)" d="M 53.9 384.5 L 53.9 383.9 L 53.9 383.4 L 140.5 383.4 L 141 383.9 L 140.5 384.5 L 53.9 384.5 Z " fill-rule="evenodd"/>
<path transform="matrix(2.7777777,0,0,-2.7777777,0,2338.889)" d="M 168.2 384.5 L 168.7 383.9 L 169.2 383.4 L 224.6 383.4 L 224.1 383.9 L 223.6 384.5 L 168.2 384.5 Z " fill-rule="evenodd"/>
<path transform="matrix(2.7777777,0,0,-2.7777777,0,2338.889)" d="M 252.3 384.5 L 251.8 383.9 L 251.3 383.4 L 280 383.4 L 279.5 383.9 L 279 384.5 L 252.3 384.5 Z " fill-rule="evenodd"/>
<path transform="matrix(2.7777777,0,0,-2.7777777,0,2338.889)" d="M 335.4 384.5 L 334.9 383.9 L 335.4 383.4 L 362.1 383.4 L 362.6 383.9 L 363.1 384.5 L 335.4 384.5 Z " fill-rule="evenodd"/>
<path transform="matrix(2.7777777,0,0,-2.7777777,0,2338.889)" d="M 418.5 384.5 L 418 383.9 L 418.5 383.4 L 505 383.4 L 505 383.9 L 505 384.5 L 418.5 384.5 Z " fill-rule="evenodd"/>
<path transform="matrix(2.7777777,0,0,-2.7777777,0,2338.889)" d="M 169.2 359 L 168.7 358.5 L 169.2 358 L 196.9 358 L 196.4 358.5 L 195.9 359 L 169.2 359 Z " fill-rule="evenodd"/>
<path transform="matrix(2.7777777,0,0,-2.7777777,0,2338.889)" d="M 223.6 359 L 224.1 358.5 L 224.6 358 L 251.3 358 L 251.8 358.5 L 252.3 359 L 223.6 359 Z " fill-rule="evenodd"/>
<path transform="matrix(2.7777777,0,0,-2.7777777,0,2338.889)" d="M 306.7 359 L 307.2 358.5 L 307.7 358 L 335.4 358 L 334.9 358.5 L 334.4 359 L 306.7 359 Z " fill-rule="evenodd"/>
<path transform="matrix(2.7777777,0,0,-2.7777777,0,2338.889)" d="M 363.1 359 L 362.6 358.5 L 363.1 358 L 389.8 358 L 390.3 358.5 L 390.8 359 L 363.1 359 Z " fill-rule="evenodd"/>
<path transform="matrix(2.7777777,0,0,-2.7777777,0,2338.889)" d="M 141.5 333.5 L 141 333 L 140.5 332.5 L 168.2 332.5 L 168.7 333 L 168.2 333.5 L 141.5 333.5 Z " fill-rule="evenodd"/>
<path transform="matrix(2.7777777,0,0,-2.7777777,0,2338.889)" d="M 195.9 333.5 L 196.4 333 L 196.9 332.5 L 251.3 332.5 L 251.8 333 L 251.3 333.5 L 195.9 333.5 Z " fill-rule="evenodd"/>
<path transform="matrix(2.7777777,0,0,-2.7777777,0,2338.889)" d="M 307.7 333.5 L 307.2 333 L 307.7 332.5 L 418.5 332.5 L 418 333 L 417.5 333.5 L 307.7 333.5 Z " fill-rule="evenodd"/>
<path transform="matrix(2.7777777,0,0,-2.7777777,0,2338.889)" d="M 169.2 308 L 168.7 307.5 L 168.2 307 L 224.6 307 L 224.1 307.5 L 223.6 308 L 169.2 308 Z " fill-rule="evenodd"/>
<path transform="matrix(2.7777777,0,0,-2.7777777,0,2338.889)" d="M 252.3 308 L 251.8 307.5 L 252.3 307 L 306.7 307 L 307.2 307.5 L 306.7 308 L 252.3 308 Z " fill-rule="evenodd"/>
<path transform="matrix(2.7777777,0,0,-2.7777777,0,2338.889)" d="M 363.1 308 L 362.6 307.5 L 363.1 307 L 390.8 307 L 390.3 307.5 L 389.8 308 L 363.1 308 Z " fill-rule="evenodd"/>
<path transform="matrix(2.7777777,0,0,-2.7777777,0,2338.889)" d="M 196.9 282.5 L 196.4 282 L 195.9 281.5 L 252.3 281.5 L 251.8 282 L 251.3 282.5 L 196.9 282.5 Z " fill-rule="evenodd"/>
<path transform="matrix(2.7777777,0,0,-2.7777777,0,2338.889)" d="M 307.7 282.5 L 307.2 282 L 306.7 281.5 L 363.1 281.5 L 362.6 282 L 362.1 282.5 L 307.7 282.5 Z " fill-rule="evenodd"/>
<path transform="matrix(2.7777777,0,0,-2.7777777,0,2338.889)" d="M 140.5 332.5 L 141 333 L 141.5 333.5 L 141.5 459.9 L 141 460.4 L 140.5 460.9 L 140.5 332.5 Z " fill-rule="evenodd"/>
<path transform="matrix(2.7777777,0,0,-2.7777777,0,2338.889)" d="M 168.2 409.9 L 168.7 409.4 L 169.2 408.9 L 169.2 485.4 L 168.7 485.9 L 168.2 486.4 L 168.2 409.9 Z " fill-rule="evenodd"/>
<path transform="matrix(2.7777777,0,0,-2.7777777,0,2338.889)" d="M 168.2 307 L 168.7 307.5 L 169.2 308 L 169.2 383.4 L 168.7 383.9 L 168.2 384.5 L 168.2 307 Z " fill-rule="evenodd"/>
<path transform="matrix(2.7777777,0,0,-2.7777777,0,2338.889)" d="M 195.9 435.4 L 196.4 434.9 L 196.9 434.4 L 196.9 510.9 L 196.4 511.4 L 195.9 511.9 L 195.9 435.4 Z " fill-rule="evenodd"/>
<path transform="matrix(2.7777777,0,0,-2.7777777,0,2338.889)" d="M 195.9 359 L 196.4 358.5 L 196.9 358 L 196.9 408.9 L 196.4 409.4 L 195.9 409.9 L 195.9 359 Z " fill-rule="evenodd"/>
<path transform="matrix(2.7777777,0,0,-2.7777777,0,2338.889)" d="M 195.9 281.5 L 196.4 282 L 196.9 282.5 L 196.9 332.5 L 196.4 333 L 195.9 333.5 L 195.9 281.5 Z " fill-rule="evenodd"/>
<path transform="matrix(2.7777777,0,0,-2.7777777,0,2338.889)" d="M 223.6 384.5 L 224.1 383.9 L 224.6 383.4 L 224.6 434.4 L 224.1 434.9 L 223.6 435.4 L 223.6 384.5 Z " fill-rule="evenodd"/>
<path transform="matrix(2.7777777,0,0,-2.7777777,0,2338.889)" d="M 223.6 308 L 224.1 307.5 L 224.6 307 L 224.6 358 L 224.1 358.5 L 223.6 359 L 223.6 308 Z " fill-rule="evenodd"/>
<path transform="matrix(2.7777777,0,0,-2.7777777,0,2338.889)" d="M 251.3 460.9 L 251.8 460.4 L 252.3 459.9 L 252.3 561.8 L 251.8 562.3 L 251.3 562.8 L 251.3 460.9 Z " fill-rule="evenodd"/>
<path transform="matrix(2.7777777,0,0,-2.7777777,0,2338.889)" d="M 251.3 383.4 L 251.8 383.9 L 252.3 384.5 L 252.3 435.4 L 251.8 434.9 L 251.3 434.4 L 251.3 383.4 Z " fill-rule="evenodd"/>
<path transform="matrix(2.7777777,0,0,-2.7777777,0,2338.889)" d="M 251.3 282.5 L 251.8 282 L 252.3 281.5 L 252.3 359 L 251.8 358.5 L 251.3 358 L 251.3 282.5 Z " fill-rule="evenodd"/>
<path transform="matrix(2.7777777,0,0,-2.7777777,0,2338.889)" d="M 279 384.5 L 279.5 383.9 L 280 383.4 L 280 434.4 L 279.5 434.9 L 279 435.4 L 279 384.5 Z " fill-rule="evenodd"/>
<path transform="matrix(2.7777777,0,0,-2.7777777,0,2338.889)" d="M 306.7 459.9 L 307.2 460.4 L 307.7 460.9 L 307.7 536.3 L 307.2 536.9 L 306.7 537.4 L 306.7 459.9 Z " fill-rule="evenodd"/>
<path transform="matrix(2.7777777,0,0,-2.7777777,0,2338.889)" d="M 306.7 281.5 L 307.2 282 L 307.7 282.5 L 307.7 358 L 307.2 358.5 L 306.7 359 L 306.7 281.5 Z " fill-rule="evenodd"/>
<path transform="matrix(2.7777777,0,0,-2.7777777,0,2338.889)" d="M 334.4 486.4 L 334.9 485.9 L 335.4 485.4 L 335.4 562.8 L 334.9 562.3 L 334.4 561.8 L 334.4 486.4 Z " fill-rule="evenodd"/>
<path transform="matrix(2.7777777,0,0,-2.7777777,0,2338.889)" d="M 334.4 359 L 334.9 358.5 L 335.4 358 L 335.4 435.4 L 334.9 434.9 L 334.4 434.4 L 334.4 359 Z " fill-rule="evenodd"/>
<path transform="matrix(2.7777777,0,0,-2.7777777,0,2338.889)" d="M 362.1 434.4 L 362.6 434.9 L 363.1 435.4 L 363.1 511.9 L 362.6 511.4 L 362.1 510.9 L 362.1 434.4 Z " fill-rule="evenodd"/>
<path transform="matrix(2.7777777,0,0,-2.7777777,0,2338.889)" d="M 362.1 282.5 L 362.6 282 L 363.1 281.5 L 363.1 384.5 L 362.6 383.9 L 362.1 383.4 L 362.1 282.5 Z " fill-rule="evenodd"/>
<path transform="matrix(2.7777777,0,0,-2.7777777,0,2338.889)" d="M 389.8 408.9 L 390.3 409.4 L 390.8 409.9 L 390.8 486.4 L 390.3 485.9 L 389.8 485.4 L 389.8 408.9 Z " fill-rule="evenodd"/>
<path transform="matrix(2.7777777,0,0,-2.7777777,0,2338.889)" d="M 389.8 308 L 390.3 307.5 L 390.8 307 L 390.8 359 L 390.3 358.5 L 389.8 358 L 389.8 308 Z " fill-rule="evenodd"/>
<path transform="matrix(2.7777777,0,0,-2.7777777,0,2338.889)" d="M 417.5 333.5 L 418 333 L 418.5 332.5 L 418.5 460.9 L 418 460.4 L 417.5 459.9 L 417.5 333.5 Z " fill-rule="evenodd"/>
<g opacity=".5">
</g>
</g>
</g>
</svg>
