<?xml version="1.0" encoding="UTF-8" standalone="no"?>
<!DOCTYPE svg PUBLIC "-//W3C//DTD SVG 1.1//EN" "http://www.w3.org/Graphics/SVG/1.1/DTD/svg11.dtd">
<svg xmlns="http://www.w3.org/2000/svg" xmlns:xlink="http://www.w3.org/1999/xlink" version="1.1" width="1652.7777pt" height="2338.889pt" viewBox="0 0 1652.7777 2338.889">
<g enable-background="new">
<g>
<clipPath id="cp0">
<path transform="matrix(2.7777777,0,0,-2.7777777,0,2338.889)" d="M 54 770 L 541.2 770 L 541.2 806 L 54 806 Z " fill-rule="evenodd"/>
</clipPath>
<g clip-path="url(#cp0)">
<symbol id="font_1_1">
<path d="M .014160156 .08300781 L .17529297 .08300781 L .17529297 .63916018 L 0 .6040039 L 0 .69384768 L .1743164 .7290039 L .27294923 .7290039 L .27294923 .08300781 L .43408204 .08300781 L .43408204 0 L .014160156 0 L .014160156 .08300781 Z "/>
</symbol>
<use xlink:href="#font_1_1" transform="matrix(27.777777,0,0,-27.777777,821.1073,159.72241)"/>
</g>
<clipPath id="cp2">
<path transform="matrix(2.7777777,0,0,-2.7777777,0,2338.889)" d="M 54 36.2 L 541.2 36.2 L 541.2 72.2 L 54 72.2 Z " fill-rule="evenodd"/>
</clipPath>
<g clip-path="url(#cp2)">
<symbol id="font_1_3">
<path d="M .09863281 .6479492 L .09863281 .37402345 L .22265625 .37402345 C .2685547 .37402345 .30403648 .38590495 .32910157 .40966798 C .35416667 .433431 .36669923 .46728517 .36669923 .51123049 C .36669923 .5548503 .35416667 .5885417 .32910157 .6123047 C .30403648 .6360677 .2685547 .6479492 .22265625 .6479492 L .09863281 .6479492 M 0 .7290039 L .22265625 .7290039 C .30436198 .7290039 .3660482 .7104492 .40771485 .67333987 C .44970704 .63655599 .47070313 .58251956 .47070313 .51123049 C .47070313 .43929038 .44970704 .38492839 .40771485 .34814454 C .3660482 .3113607 .30436198 .29296876 .22265625 .29296876 L .09863281 .29296876 L .09863281 0 L 0 0 L 0 .7290039 Z "/>
</symbol>
<symbol id="font_1_4">
<path d="M .28271485 .2890625 C .2101237 .2890625 .15983074 .28076173 .13183594 .26416017 C .10384115 .2475586 .08984375 .21923828 .08984375 .17919922 C .08984375 .14729817 .100260417 .121907558 .12109375 .103027347 C .14225261 .084472659 .17089844 .07519531 .20703125 .07519531 C .25683595 .07519531 .29671226 .09277344 .32666017 .12792969 C .3569336 .16341146 .3720703 .21044922 .3720703 .26904298 L .3720703 .2890625 L .28271485 .2890625 M .46191407 .32617188 L .46191407 .014160156 L .3720703 .014160156 L .3720703 .09716797 C .3515625 .063964847 .32600913 .03938802 .29541017 .0234375 C .2648112 .0078125 .2273763 0 .18310547 0 C .12711589 0 .08251953 .015625 .049316408 .046875 C .016438803 .07845052 0 .12060547 0 .17333985 C 0 .23486328 .020507813 .28125 .061523439 .3125 C .102864589 .34375 .16438802 .359375 .24609375 .359375 L .3720703 .359375 L .3720703 .36816407 C .3720703 .40950523 .35839845 .44140626 .3310547 .4638672 C .30403648 .48665367 .26595054 .49804688 .21679688 .49804688 C .18554688 .49804688 .15511067 .49430339 .12548828 .4868164 C .09586588 .47932945 .06738281 .46809898 .040039064 .453125 L .040039064 .5361328 C .072916667 .5488281 .10481771 .55826827 .13574219 .5644531 C .16666667 .57096359 .19677735 .57421877 .22607422 .57421877 C .30517579 .57421877 .3642578 .55371096 .4033203 .5126953 C .4423828 .4716797 .46191407 .40950523 .46191407 .32617188 Z "/>
</symbol>
<symbol id="font_1_5">
<path d="M .39892579 .48779298 C .39892579 .55289718 .38541667 .60335287 .35839845 .63916018 C .33170573 .67496749 .29410807 .6928711 .24560547 .6928711 C .19742839 .6928711 .15983074 .67496749 .1328125 .63916018 C .10611979 .60335287 .09277344 .55289718 .09277344 .48779298 C .09277344 .4230143 .10611979 .37272135 .1328125 .33691407 C .15983074 .30110679 .19742839 .28320313 .24560547 .28320313 C .29410807 .28320313 .33170573 .30110679 .35839845 .33691407 C .38541667 .37272135 .39892579 .4230143 .39892579 .48779298 M .48876954 .2758789 C .48876954 .18277996 .46809898 .11360677 .4267578 .068359378 C .38541667 .022786459 .32210288 0 .2368164 0 C .20524089 0 .17545574 .0024414063 .14746094 .0073242189 C .11946615 .011881511 .092285159 .019042969 .06591797 .028808594 L .06591797 .11621094 C .092285159 .10188802 .11832682 .091308597 .14404297 .084472659 C .16975911 .07763672 .19596355 .07421875 .22265625 .07421875 C .28157554 .07421875 .3256836 .08968099 .35498048 .12060547 C .38427735 .15120442 .39892579 .19759114 .39892579 .25976563 L .39892579 .30419923 C .3803711 .27197267 .35660807 .24788411 .32763673 .2319336 C .29866538 .21598308 .2639974 .20800781 .22363281 .20800781 C .15657552 .20800781 .10253906 .2335612 .061523439 .28466798 C .020507813 .33577476 0 .40348307 0 .48779298 C 0 .5724284 .020507813 .6402995 .061523439 .69140627 C .10253906 .742513 .15657552 .7680664 .22363281 .7680664 C .2639974 .7680664 .29866538 .7600911 .32763673 .7441406 C .35660807 .7281901 .3803711 .70410159 .39892579 .671875 L .39892579 .7548828 L .48876954 .7548828 L .48876954 .2758789 Z "/>
</symbol>
<symbol id="font_1_6">
<path d="M .50683596 .3100586 L .50683596 .26611329 L .09375 .26611329 C .09765625 .20426433 .11621094 .1570638 .14941406 .12451172 C .1829427 .092285159 .22949219 .076171878 .2890625 .076171878 C .32356773 .076171878 .3569336 .08040365 .38916017 .08886719 C .42171226 .09733073 .4539388 .11002604 .48583985 .12695313 L .48583985 .041992189 C .45361329 .028320313 .4205729 .017903647 .38671876 .0107421879 C .3528646 .0035807293 .31852214 0 .2836914 0 C .19645183 0 .12727864 .025390625 .076171878 .076171878 C .025390625 .12695313 0 .19563802 0 .28222657 C 0 .37174479 .024088541 .44270835 .072265628 .4951172 C .12076823 .54785159 .18603516 .57421877 .2680664 .57421877 C .34163413 .57421877 .3997396 .55045577 .4423828 .5029297 C .48535157 .45572917 .50683596 .3914388 .50683596 .3100586 M .4169922 .33642579 C .41634117 .38557945 .4025065 .4248047 .37548829 .45410157 C .34879557 .48339845 .3133138 .49804688 .26904298 .49804688 C .21891277 .49804688 .17871094 .48388673 .1484375 .4555664 C .118489589 .4272461 .10123698 .38736979 .09667969 .3359375 L .4169922 .33642579 Z "/>
</symbol>
<symbol id="font_1_7">
<path d="M 0 0 Z "/>
</symbol>
<use xlink:href="#font_1_3" transform="matrix(27.777777,0,0,-27.777777,782.7262,2198.0557)"/>
<use xlink:href="#font_1_4" transform="matrix(27.777777,0,0,-27.777777,797.22378,2198.449)"/>
<use xlink:href="#font_1_5" transform="matrix(27.777777,0,0,-27.777777,814.0326,2203.8338)"/>
<use xlink:href="#font_1_6" transform="matrix(27.777777,0,0,-27.777777,831.7826,2198.449)"/>
<use xlink:href="#font_1_7" transform="matrix(27.777777,0,0,-27.777777,847.1944,2198.0557)"/>
<use xlink:href="#font_1_1" transform="matrix(27.777777,0,0,-27.777777,859.16287,2198.0557)"/>
</g>
<path transform="matrix(2.7777777,0,0,-2.7777777,0,2338.889)" d="M 239.6 556.4 L 309.2 556.4 L 309.2 573.7 L 239.6 573.7 Z " fill="#c0c0c0" fill-rule="evenodd"/>
<path transform="matrix(2.7777777,0,0,-2.7777777,0,2338.889)" d="M 216.4 539.1 L 239.59999 539.1 L 239.59999 556.39999 L 216.4 556.39999 Z " fill="#c0c0c0" fill-rule="evenodd"/>
<path transform="matrix(2.7777777,0,0,-2.7777777,0,2338.889)" d="M 262.8 539.1 L 286 539.1 L 286 556.39999 L 262.8 556.39999 Z " fill="#c0c0c0" fill-rule="evenodd"/>
<path transform="matrix(2.7777777,0,0,-2.7777777,0,2338.889)" d="M 309.1 539.1 L 332.30003 539.1 L 332.30003 556.39999 L 309.1 556.39999 Z " fill="#c0c0c0" fill-rule="evenodd"/>
<path transform="matrix(2.7777777,0,0,-2.7777777,0,2338.889)" d="M 193.2 521.9 L 262.8 521.9 L 262.8 539.2 L 193.2 539.2 Z " fill="#c0c0c0" fill-rule="evenodd"/>
<path transform="matrix(2.7777777,0,0,-2.7777777,0,2338.889)" d="M 286 521.9 L 355.6 521.9 L 355.6 539.2 L 286 539.2 Z " fill="#c0c0c0" fill-rule="evenodd"/>
<path transform="matrix(2.7777777,0,0,-2.7777777,0,2338.889)" d="M 170 504.7 L 216.4 504.7 L 216.4 522 L 170 522 Z " fill="#c0c0c0" fill-rule="evenodd"/>
<path transform="matrix(2.7777777,0,0,-2.7777777,0,2338.889)" d="M 239.6 504.7 L 309.2 504.7 L 309.2 522 L 239.6 522 Z " fill="#c0c0c0" fill-rule="evenodd"/>
<path transform="matrix(2.7777777,0,0,-2.7777777,0,2338.889)" d="M 332.3 504.7 L 378.69999 504.7 L 378.69999 522 L 332.3 522 Z " fill="#c0c0c0" fill-rule="evenodd"/>
<path transform="matrix(2.7777777,0,0,-2.7777777,0,2338.889)" d="M 146.8 487.4 L 239.6 487.4 L 239.6 504.69999 L 146.8 504.69999 Z " fill="#c0c0c0" fill-rule="evenodd"/>
<path transform="matrix(2.7777777,0,0,-2.7777777,0,2338.889)" d="M 262.8 487.4 L 286 487.4 L 286 504.69999 L 262.8 504.69999 Z " fill="#c0c0c0" fill-rule="evenodd"/>
<path transform="matrix(2.7777777,0,0,-2.7777777,0,2338.889)" d="M 309.1 487.4 L 401.90003 487.4 L 401.90003 504.69999 L 309.1 504.69999 Z " fill="#c0c0c0" fill-rule="evenodd"/>
<path transform="matrix(2.7777777,0,0,-2.7777777,0,2338.889)" d="M 123.6 470.2 L 193.2 470.2 L 193.2 487.5 L 123.6 487.5 Z " fill="#c0c0c0" fill-rule="evenodd"/>
<path transform="matrix(2.7777777,0,0,-2.7777777,0,2338.889)" d="M 216.4 470.2 L 262.8 470.2 L 262.8 487.5 L 216.4 487.5 Z " fill="#c0c0c0" fill-rule="evenodd"/>
<path transform="matrix(2.7777777,0,0,-2.7777777,0,2338.889)" d="M 286 470.2 L 332.4 470.2 L 332.4 487.5 L 286 487.5 Z " fill="#c0c0c0" fill-rule="evenodd"/>
<path transform="matrix(2.7777777,0,0,-2.7777777,0,2338.889)" d="M 355.5 470.2 L 425.1 470.2 L 425.1 487.5 L 355.5 487.5 Z " fill="#c0c0c0" fill-rule="evenodd"/>
<path transform="matrix(2.7777777,0,0,-2.7777777,0,2338.889)" d="M 123.6 453 L 216.4 453 L 216.4 470.3 L 123.6 470.3 Z " fill="#c0c0c0" fill-rule="evenodd"/>
<path transform="matrix(2.7777777,0,0,-2.7777777,0,2338.889)" d="M 239.6 453 L 309.2 453 L 309.2 470.3 L 239.6 470.3 Z " fill="#c0c0c0" fill-rule="evenodd"/>
<path transform="matrix(2.7777777,0,0,-2.7777777,0,2338.889)" d="M 332.3 453 L 425.09999 453 L 425.09999 470.3 L 332.3 470.3 Z " fill="#c0c0c0" fill-rule="evenodd"/>
<path transform="matrix(2.7777777,0,0,-2.7777777,0,2338.889)" d="M 123.6 435.7 L 170 435.7 L 170 453 L 123.6 453 Z " fill="#c0c0c0" fill-rule="evenodd"/>
<path transform="matrix(2.7777777,0,0,-2.7777777,0,2338.889)" d="M 193.2 435.7 L 239.6 435.7 L 239.6 453 L 193.2 453 Z " fill="#c0c0c0" fill-rule="evenodd"/>
<path transform="matrix(2.7777777,0,0,-2.7777777,0,2338.889)" d="M 262.8 435.7 L 286 435.7 L 286 453 L 262.8 453 Z " fill="#c0c0c0" fill-rule="evenodd"/>
<path transform="matrix(2.7777777,0,0,-2.7777777,0,2338.889)" d="M 309.1 435.7 L 355.5 435.7 L 355.5 453 L 309.1 453 Z " fill="#c0c0c0" fill-rule="evenodd"/>
<path transform="matrix(2.7777777,0,0,-2.7777777,0,2338.889)" d="M 378.7 435.7 L 425.1 435.7 L 425.1 453 L 378.7 453 Z " fill="#c0c0c0" fill-rule="evenodd"/>
<path transform="matrix(2.7777777,0,0,-2.7777777,0,2338.889)" d="M 123.6 418.5 L 193.2 418.5 L 193.2 435.8 L 123.6 435.8 Z " fill="#c0c0c0" fill-rule="evenodd"/>
<path transform="matrix(2.7777777,0,0,-2.7777777,0,2338.889)" d="M 216.4 418.5 L 262.8 418.5 L 262.8 435.8 L 216.4 435.8 Z " fill="#c0c0c0" fill-rule="evenodd"/>
<path transform="matrix(2.7777777,0,0,-2.7777777,0,2338.889)" d="M 286 418.5 L 332.4 418.5 L 332.4 435.8 L 286 435.8 Z " fill="#c0c0c0" fill-rule="evenodd"/>
<path transform="matrix(2.7777777,0,0,-2.7777777,0,2338.889)" d="M 355.5 418.5 L 425.1 418.5 L 425.1 435.8 L 355.5 435.8 Z " fill="#c0c0c0" fill-rule="evenodd"/>
<path transform="matrix(2.7777777,0,0,-2.7777777,0,2338.889)" d="M 123.6 401.3 L 146.8 401.3 L 146.8 418.59999 L 123.6 418.59999 Z " fill="#c0c0c0" fill-rule="evenodd"/>
<path transform="matrix(2.7777777,0,0,-2.7777777,0,2338.889)" d="M 170 401.3 L 216.4 401.3 L 216.4 418.59999 L 170 418.59999 Z " fill="#c0c0c0" fill-rule="evenodd"/>
<path transform="matrix(2.7777777,0,0,-2.7777777,0,2338.889)" d="M 239.6 401.3 L 309.2 401.3 L 309.2 418.59999 L 239.6 418.59999 Z " fill="#c0c0c0" fill-rule="evenodd"/>
<path transform="matrix(2.7777777,0,0,-2.7777777,0,2338.889)" d="M 332.3 401.3 L 378.69999 401.3 L 378.69999 418.59999 L 332.3 418.59999 Z " fill="#c0c0c0" fill-rule="evenodd"/>
<path transform="matrix(2.7777777,0,0,-2.7777777,0,2338.889)" d="M 401.9 401.3 L 425.1 401.3 L 425.1 418.59999 L 401.9 418.59999 Z " fill="#c0c0c0" fill-rule="evenodd"/>
<path transform="matrix(2.7777777,0,0,-2.7777777,0,2338.889)" d="M 123.6 384 L 170 384 L 170 401.3 L 123.6 401.3 Z " fill="#c0c0c0" fill-rule="evenodd"/>
<path transform="matrix(2.7777777,0,0,-2.7777777,0,2338.889)" d="M 193.2 384 L 239.6 384 L 239.6 401.3 L 193.2 401.3 Z " fill="#c0c0c0" fill-rule="evenodd"/>
<path transform="matrix(2.7777777,0,0,-2.7777777,0,2338.889)" d="M 262.8 384 L 286 384 L 286 401.3 L 262.8 401.3 Z " fill="#c0c0c0" fill-rule="evenodd"/>
<path transform="matrix(2.7777777,0,0,-2.7777777,0,2338.889)" d="M 309.1 384 L 355.5 384 L 355.5 401.3 L 309.1 401.3 Z " fill="#c0c0c0" fill-rule="evenodd"/>
<path transform="matrix(2.7777777,0,0,-2.7777777,0,2338.889)" d="M 378.7 384 L 425.1 384 L 425.1 401.3 L 378.7 401.3 Z " fill="#c0c0c0" fill-rule="evenodd"/>
<path transform="matrix(2.7777777,0,0,-2.7777777,0,2338.889)" d="M 146.8 366.8 L 193.20001 366.8 L 193.20001 384.09999 L 146.8 384.09999 Z " fill="#c0c0c0" fill-rule="evenodd"/>
<path transform="matrix(2.7777777,0,0,-2.7777777,0,2338.889)" d="M 216.4 366.8 L 262.8 366.8 L 262.8 384.09999 L 216.4 384.09999 Z " fill="#c0c0c0" fill-rule="evenodd"/>
<path transform="matrix(2.7777777,0,0,-2.7777777,0,2338.889)" d="M 286 366.8 L 332.4 366.8 L 332.4 384.09999 L 286 384.09999 Z " fill="#c0c0c0" fill-rule="evenodd"/>
<path transform="matrix(2.7777777,0,0,-2.7777777,0,2338.889)" d="M 355.5 366.8 L 401.9 366.8 L 401.9 384.09999 L 355.5 384.09999 Z " fill="#c0c0c0" fill-rule="evenodd"/>
<path transform="matrix(2.7777777,0,0,-2.7777777,0,2338.889)" d="M 170 349.6 L 216.4 349.6 L 216.4 366.9 L 170 366.9 Z " fill="#c0c0c0" fill-rule="evenodd"/>
<path transform="matrix(2.7777777,0,0,-2.7777777,0,2338.889)" d="M 239.6 349.6 L 309.2 349.6 L 309.2 366.9 L 239.6 366.9 Z " fill="#c0c0c0" fill-rule="evenodd"/>
<path transform="matrix(2.7777777,0,0,-2.7777777,0,2338.889)" d="M 332.3 349.6 L 378.69999 349.6 L 378.69999 366.9 L 332.3 366.9 Z " fill="#c0c0c0" fill-rule="evenodd"/>
<path transform="matrix(2.7777777,0,0,-2.7777777,0,2338.889)" d="M 193.2 332.3 L 239.6 332.3 L 239.6 349.59999 L 193.2 349.59999 Z " fill="#c0c0c0" fill-rule="evenodd"/>
<path transform="matrix(2.7777777,0,0,-2.7777777,0,2338.889)" d="M 262.8 332.3 L 286 332.3 L 286 349.59999 L 262.8 349.59999 Z " fill="#c0c0c0" fill-rule="evenodd"/>
<path transform="matrix(2.7777777,0,0,-2.7777777,0,2338.889)" d="M 309.1 332.3 L 355.5 332.3 L 355.5 349.59999 L 309.1 349.59999 Z " fill="#c0c0c0" fill-rule="evenodd"/>
<path transform="matrix(2.7777777,0,0,-2.7777777,0,2338.889)" d="M 216.4 315.1 L 262.8 315.1 L 262.8 332.4 L 216.4 332.4 Z " fill="#c0c0c0" fill-rule="evenodd"/>
<path transform="matrix(2.7777777,0,0,-2.7777777,0,2338.889)" d="M 286 315.1 L 332.4 315.1 L 332.4 332.4 L 286 332.4 Z " fill="#c0c0c0" fill-rule="evenodd"/>
<path transform="matrix(2.7777777,0,0,-2.7777777,0,2338.889)" d="M 239.6 297.9 L 309.2 297.9 L 309.2 315.19999 L 239.6 315.19999 Z " fill="#c0c0c0" fill-rule="evenodd"/>
<path transform="matrix(2.7777777,0,0,-2.7777777,0,2338.889)" d="M 262.8 280.6 L 286 280.6 L 286 297.9 L 262.8 297.9 Z " fill="#c0c0c0" fill-rule="evenodd"/>
<path transform="matrix(2.7777777,0,0,-2.7777777,0,2338.889)" d="M 239.2 574.1 L 239.7 573.6 L 240.2 573 L 308.7 573 L 309.2 573.6 L 309.7 574.1 L 239.2 574.1 Z " fill-rule="evenodd"/>
<path transform="matrix(2.7777777,0,0,-2.7777777,0,2338.889)" d="M 216 556.8 L 216.5 556.3 L 217 555.8 L 262.3 555.8 L 262.9 556.3 L 263.4 556.8 L 216 556.8 Z " fill-rule="evenodd"/>
<path transform="matrix(2.7777777,0,0,-2.7777777,0,2338.889)" d="M 285.5 556.8 L 286 556.3 L 286.6 555.8 L 331.9 555.8 L 332.4 556.3 L 332.9 556.8 L 285.5 556.8 Z " fill-rule="evenodd"/>
<path transform="matrix(2.7777777,0,0,-2.7777777,0,2338.889)" d="M 192.8 539.6 L 193.3 539.1 L 193.8 538.6 L 216 538.6 L 216.5 539.1 L 216 539.6 L 192.8 539.6 Z " fill-rule="evenodd"/>
<path transform="matrix(2.7777777,0,0,-2.7777777,0,2338.889)" d="M 240.2 539.6 L 239.7 539.1 L 239.2 538.6 L 309.7 538.6 L 309.2 539.1 L 308.7 539.6 L 240.2 539.6 Z " fill-rule="evenodd"/>
<path transform="matrix(2.7777777,0,0,-2.7777777,0,2338.889)" d="M 332.9 539.6 L 332.4 539.1 L 332.9 538.6 L 355.1 538.6 L 355.6 539.1 L 356.1 539.6 L 332.9 539.6 Z " fill-rule="evenodd"/>
<path transform="matrix(2.7777777,0,0,-2.7777777,0,2338.889)" d="M 169.6 522.4 L 170.1 521.9 L 170.6 521.3 L 192.8 521.3 L 193.3 521.9 L 192.8 522.4 L 169.6 522.4 Z " fill-rule="evenodd"/>
<path transform="matrix(2.7777777,0,0,-2.7777777,0,2338.889)" d="M 217 522.4 L 216.5 521.9 L 217 521.3 L 239.2 521.3 L 239.7 521.9 L 240.2 522.4 L 217 522.4 Z " fill-rule="evenodd"/>
<path transform="matrix(2.7777777,0,0,-2.7777777,0,2338.889)" d="M 263.4 522.4 L 262.9 521.9 L 262.3 521.3 L 286.6 521.3 L 286 521.9 L 285.5 522.4 L 263.4 522.4 Z " fill-rule="evenodd"/>
<path transform="matrix(2.7777777,0,0,-2.7777777,0,2338.889)" d="M 308.7 522.4 L 309.2 521.9 L 309.7 521.3 L 331.9 521.3 L 332.4 521.9 L 331.9 522.4 L 308.7 522.4 Z " fill-rule="evenodd"/>
<path transform="matrix(2.7777777,0,0,-2.7777777,0,2338.889)" d="M 356.1 522.4 L 355.6 521.9 L 356.1 521.3 L 378.3 521.3 L 378.8 521.9 L 379.3 522.4 L 356.1 522.4 Z " fill-rule="evenodd"/>
<path transform="matrix(2.7777777,0,0,-2.7777777,0,2338.889)" d="M 146.4 505.1 L 146.9 504.6 L 147.4 504.1 L 169.6 504.1 L 170.1 504.6 L 169.6 505.1 L 146.4 505.1 Z " fill-rule="evenodd"/>
<path transform="matrix(2.7777777,0,0,-2.7777777,0,2338.889)" d="M 217 505.1 L 216.5 504.6 L 216 504.1 L 262.3 504.1 L 262.9 504.6 L 263.4 505.1 L 217 505.1 Z " fill-rule="evenodd"/>
<path transform="matrix(2.7777777,0,0,-2.7777777,0,2338.889)" d="M 285.5 505.1 L 286 504.6 L 286.6 504.1 L 332.9 504.1 L 332.4 504.6 L 331.9 505.1 L 285.5 505.1 Z " fill-rule="evenodd"/>
<path transform="matrix(2.7777777,0,0,-2.7777777,0,2338.889)" d="M 379.3 505.1 L 378.8 504.6 L 379.3 504.1 L 401.5 504.1 L 402 504.6 L 402.5 505.1 L 379.3 505.1 Z " fill-rule="evenodd"/>
<path transform="matrix(2.7777777,0,0,-2.7777777,0,2338.889)" d="M 123.2 487.9 L 123.7 487.4 L 124.2 486.9 L 146.4 486.9 L 146.9 487.4 L 146.4 487.9 L 123.2 487.9 Z " fill-rule="evenodd"/>
<path transform="matrix(2.7777777,0,0,-2.7777777,0,2338.889)" d="M 193.8 487.9 L 193.3 487.4 L 193.8 486.9 L 216 486.9 L 216.5 487.4 L 217 487.9 L 193.8 487.9 Z " fill-rule="evenodd"/>
<path transform="matrix(2.7777777,0,0,-2.7777777,0,2338.889)" d="M 240.2 487.9 L 239.7 487.4 L 239.2 486.9 L 309.7 486.9 L 309.2 487.4 L 308.7 487.9 L 240.2 487.9 Z " fill-rule="evenodd"/>
<path transform="matrix(2.7777777,0,0,-2.7777777,0,2338.889)" d="M 331.9 487.9 L 332.4 487.4 L 332.9 486.9 L 355.1 486.9 L 355.6 487.4 L 355.1 487.9 L 331.9 487.9 Z " fill-rule="evenodd"/>
<path transform="matrix(2.7777777,0,0,-2.7777777,0,2338.889)" d="M 402.5 487.9 L 402 487.4 L 402.5 486.9 L 424.7 486.9 L 425.2 487.4 L 425.7 487.9 L 402.5 487.9 Z " fill-rule="evenodd"/>
<path transform="matrix(2.7777777,0,0,-2.7777777,0,2338.889)" d="M 53.9 470.7 L 53.9 470.2 L 53.9 469.6 L 123.2 469.6 L 123.7 470.2 L 123.2 470.7 L 53.9 470.7 Z " fill-rule="evenodd"/>
<path transform="matrix(2.7777777,0,0,-2.7777777,0,2338.889)" d="M 193.8 470.7 L 193.3 470.2 L 192.8 469.6 L 239.2 469.6 L 239.7 470.2 L 240.2 470.7 L 193.8 470.7 Z " fill-rule="evenodd"/>
<path transform="matrix(2.7777777,0,0,-2.7777777,0,2338.889)" d="M 263.4 470.7 L 262.9 470.2 L 262.3 469.6 L 286.6 469.6 L 286 470.2 L 285.5 470.7 L 263.4 470.7 Z " fill-rule="evenodd"/>
<path transform="matrix(2.7777777,0,0,-2.7777777,0,2338.889)" d="M 308.7 470.7 L 309.2 470.2 L 309.7 469.6 L 356.1 469.6 L 355.6 470.2 L 355.1 470.7 L 308.7 470.7 Z " fill-rule="evenodd"/>
<path transform="matrix(2.7777777,0,0,-2.7777777,0,2338.889)" d="M 425.7 470.7 L 425.2 470.2 L 425.7 469.6 L 495 469.6 L 495 470.2 L 495 470.7 L 425.7 470.7 Z " fill-rule="evenodd"/>
<path transform="matrix(2.7777777,0,0,-2.7777777,0,2338.889)" d="M 170.6 453.4 L 170.1 452.9 L 170.6 452.4 L 192.8 452.4 L 193.3 452.9 L 193.8 453.4 L 170.6 453.4 Z " fill-rule="evenodd"/>
<path transform="matrix(2.7777777,0,0,-2.7777777,0,2338.889)" d="M 217 453.4 L 216.5 452.9 L 216 452.4 L 262.3 452.4 L 262.9 452.9 L 263.4 453.4 L 217 453.4 Z " fill-rule="evenodd"/>
<path transform="matrix(2.7777777,0,0,-2.7777777,0,2338.889)" d="M 285.5 453.4 L 286 452.9 L 286.6 452.4 L 332.9 452.4 L 332.4 452.9 L 331.9 453.4 L 285.5 453.4 Z " fill-rule="evenodd"/>
<path transform="matrix(2.7777777,0,0,-2.7777777,0,2338.889)" d="M 355.1 453.4 L 355.6 452.9 L 356.1 452.4 L 378.3 452.4 L 378.8 452.9 L 378.3 453.4 L 355.1 453.4 Z " fill-rule="evenodd"/>
<path transform="matrix(2.7777777,0,0,-2.7777777,0,2338.889)" d="M 170.6 436.2 L 170.1 435.7 L 169.6 435.2 L 216 435.2 L 216.5 435.7 L 217 436.2 L 170.6 436.2 Z " fill-rule="evenodd"/>
<path transform="matrix(2.7777777,0,0,-2.7777777,0,2338.889)" d="M 240.2 436.2 L 239.7 435.7 L 239.2 435.2 L 309.7 435.2 L 309.2 435.7 L 308.7 436.2 L 240.2 436.2 Z " fill-rule="evenodd"/>
<path transform="matrix(2.7777777,0,0,-2.7777777,0,2338.889)" d="M 331.9 436.2 L 332.4 435.7 L 332.9 435.2 L 379.3 435.2 L 378.8 435.7 L 378.3 436.2 L 331.9 436.2 Z " fill-rule="evenodd"/>
<path transform="matrix(2.7777777,0,0,-2.7777777,0,2338.889)" d="M 147.4 419 L 146.9 418.4 L 147.4 417.9 L 169.6 417.9 L 170.1 418.4 L 170.6 419 L 147.4 419 Z " fill-rule="evenodd"/>
<path transform="matrix(2.7777777,0,0,-2.7777777,0,2338.889)" d="M 193.8 419 L 193.3 418.4 L 192.8 417.9 L 239.2 417.9 L 239.7 418.4 L 240.2 419 L 193.8 419 Z " fill-rule="evenodd"/>
<path transform="matrix(2.7777777,0,0,-2.7777777,0,2338.889)" d="M 263.4 419 L 262.9 418.4 L 262.3 417.9 L 286.6 417.9 L 286 418.4 L 285.5 419 L 263.4 419 Z " fill-rule="evenodd"/>
<path transform="matrix(2.7777777,0,0,-2.7777777,0,2338.889)" d="M 308.7 419 L 309.2 418.4 L 309.7 417.9 L 356.1 417.9 L 355.6 418.4 L 355.1 419 L 308.7 419 Z " fill-rule="evenodd"/>
<path transform="matrix(2.7777777,0,0,-2.7777777,0,2338.889)" d="M 378.3 419 L 378.8 418.4 L 379.3 417.9 L 401.5 417.9 L 402 418.4 L 401.5 419 L 378.3 419 Z " fill-rule="evenodd"/>
<path transform="matrix(2.7777777,0,0,-2.7777777,0,2338.889)" d="M 147.4 401.7 L 146.9 401.2 L 146.4 400.7 L 192.8 400.7 L 193.3 401.2 L 193.8 401.7 L 147.4 401.7 Z " fill-rule="evenodd"/>
<path transform="matrix(2.7777777,0,0,-2.7777777,0,2338.889)" d="M 217 401.7 L 216.5 401.2 L 216 400.7 L 262.3 400.7 L 262.9 401.2 L 263.4 401.7 L 217 401.7 Z " fill-rule="evenodd"/>
<path transform="matrix(2.7777777,0,0,-2.7777777,0,2338.889)" d="M 285.5 401.7 L 286 401.2 L 286.6 400.7 L 332.9 400.7 L 332.4 401.2 L 331.9 401.7 L 285.5 401.7 Z " fill-rule="evenodd"/>
<path transform="matrix(2.7777777,0,0,-2.7777777,0,2338.889)" d="M 355.1 401.7 L 355.6 401.2 L 356.1 400.7 L 402.5 400.7 L 402 401.2 L 401.5 401.7 L 355.1 401.7 Z " fill-rule="evenodd"/>
<path transform="matrix(2.7777777,0,0,-2.7777777,0,2338.889)" d="M 124.2 384.5 L 123.7 384 L 124.2 383.5 L 146.4 383.5 L 146.9 384 L 147.4 384.5 L 124.2 384.5 Z " fill-rule="evenodd"/>
<path transform="matrix(2.7777777,0,0,-2.7777777,0,2338.889)" d="M 170.6 384.5 L 170.1 384 L 169.6 383.5 L 216 383.5 L 216.5 384 L 217 384.5 L 170.6 384.5 Z " fill-rule="evenodd"/>
<path transform="matrix(2.7777777,0,0,-2.7777777,0,2338.889)" d="M 240.2 384.5 L 239.7 384 L 239.2 383.5 L 309.7 383.5 L 309.2 384 L 308.7 384.5 L 240.2 384.5 Z " fill-rule="evenodd"/>
<path transform="matrix(2.7777777,0,0,-2.7777777,0,2338.889)" d="M 331.9 384.5 L 332.4 384 L 332.9 383.5 L 379.3 383.5 L 378.8 384 L 378.3 384.5 L 331.9 384.5 Z " fill-rule="evenodd"/>
<path transform="matrix(2.7777777,0,0,-2.7777777,0,2338.889)" d="M 401.5 384.5 L 402 384 L 402.5 383.5 L 424.7 383.5 L 425.2 384 L 424.7 384.5 L 401.5 384.5 Z " fill-rule="evenodd"/>
<path transform="matrix(2.7777777,0,0,-2.7777777,0,2338.889)" d="M 124.2 367.3 L 123.7 366.7 L 123.2 366.2 L 169.6 366.2 L 170.1 366.7 L 170.6 367.3 L 124.2 367.3 Z " fill-rule="evenodd"/>
<path transform="matrix(2.7777777,0,0,-2.7777777,0,2338.889)" d="M 193.8 367.3 L 193.3 366.7 L 192.8 366.2 L 239.2 366.2 L 239.7 366.7 L 240.2 367.3 L 193.8 367.3 Z " fill-rule="evenodd"/>
<path transform="matrix(2.7777777,0,0,-2.7777777,0,2338.889)" d="M 263.4 367.3 L 262.9 366.7 L 262.3 366.2 L 286.6 366.2 L 286 366.7 L 285.5 367.3 L 263.4 367.3 Z " fill-rule="evenodd"/>
<path transform="matrix(2.7777777,0,0,-2.7777777,0,2338.889)" d="M 308.7 367.3 L 309.2 366.7 L 309.7 366.2 L 356.1 366.2 L 355.6 366.7 L 355.1 367.3 L 308.7 367.3 Z " fill-rule="evenodd"/>
<path transform="matrix(2.7777777,0,0,-2.7777777,0,2338.889)" d="M 378.3 367.3 L 378.8 366.7 L 379.3 366.2 L 425.7 366.2 L 425.2 366.7 L 424.7 367.3 L 378.3 367.3 Z " fill-rule="evenodd"/>
<path transform="matrix(2.7777777,0,0,-2.7777777,0,2338.889)" d="M 147.4 350 L 146.9 349.5 L 146.4 349 L 192.8 349 L 193.3 349.5 L 193.8 350 L 147.4 350 Z " fill-rule="evenodd"/>
<path transform="matrix(2.7777777,0,0,-2.7777777,0,2338.889)" d="M 217 350 L 216.5 349.5 L 216 349 L 262.3 349 L 262.9 349.5 L 263.4 350 L 217 350 Z " fill-rule="evenodd"/>
<path transform="matrix(2.7777777,0,0,-2.7777777,0,2338.889)" d="M 285.5 350 L 286 349.5 L 286.6 349 L 332.9 349 L 332.4 349.5 L 331.9 350 L 285.5 350 Z " fill-rule="evenodd"/>
<path transform="matrix(2.7777777,0,0,-2.7777777,0,2338.889)" d="M 355.1 350 L 355.6 349.5 L 356.1 349 L 402.5 349 L 402 349.5 L 401.5 350 L 355.1 350 Z " fill-rule="evenodd"/>
<path transform="matrix(2.7777777,0,0,-2.7777777,0,2338.889)" d="M 170.6 332.8 L 170.1 332.3 L 169.6 331.8 L 216 331.8 L 216.5 332.3 L 217 332.8 L 170.6 332.8 Z " fill-rule="evenodd"/>
<path transform="matrix(2.7777777,0,0,-2.7777777,0,2338.889)" d="M 240.2 332.8 L 239.7 332.3 L 239.2 331.8 L 309.7 331.8 L 309.2 332.3 L 308.7 332.8 L 240.2 332.8 Z " fill-rule="evenodd"/>
<path transform="matrix(2.7777777,0,0,-2.7777777,0,2338.889)" d="M 331.9 332.8 L 332.4 332.3 L 332.9 331.8 L 379.3 331.8 L 378.8 332.3 L 378.3 332.8 L 331.9 332.8 Z " fill-rule="evenodd"/>
<path transform="matrix(2.7777777,0,0,-2.7777777,0,2338.889)" d="M 193.8 315.5 L 193.3 315 L 192.8 314.5 L 239.2 314.5 L 239.7 315 L 240.2 315.5 L 193.8 315.5 Z " fill-rule="evenodd"/>
<path transform="matrix(2.7777777,0,0,-2.7777777,0,2338.889)" d="M 263.4 315.5 L 262.9 315 L 262.3 314.5 L 286.6 314.5 L 286 315 L 285.5 315.5 L 263.4 315.5 Z " fill-rule="evenodd"/>
<path transform="matrix(2.7777777,0,0,-2.7777777,0,2338.889)" d="M 308.7 315.5 L 309.2 315 L 309.7 314.5 L 356.1 314.5 L 355.6 315 L 355.1 315.5 L 308.7 315.5 Z " fill-rule="evenodd"/>
<path transform="matrix(2.7777777,0,0,-2.7777777,0,2338.889)" d="M 217 298.3 L 216.5 297.8 L 216 297.3 L 262.3 297.3 L 262.9 297.8 L 263.4 298.3 L 217 298.3 Z " fill-rule="evenodd"/>
<path transform="matrix(2.7777777,0,0,-2.7777777,0,2338.889)" d="M 285.5 298.3 L 286 297.8 L 286.6 297.3 L 332.9 297.3 L 332.4 297.8 L 331.9 298.3 L 285.5 298.3 Z " fill-rule="evenodd"/>
<path transform="matrix(2.7777777,0,0,-2.7777777,0,2338.889)" d="M 240.2 281.1 L 239.7 280.6 L 239.2 280.1 L 309.7 280.1 L 309.2 280.6 L 308.7 281.1 L 240.2 281.1 Z " fill-rule="evenodd"/>
<path transform="matrix(2.7777777,0,0,-2.7777777,0,2338.889)" d="M 263.4 263.8 L 262.9 263.3 L 262.3 262.8 L 286.6 262.8 L 286 263.3 L 285.5 263.8 L 263.4 263.8 Z " fill-rule="evenodd"/>
<path transform="matrix(2.7777777,0,0,-2.7777777,0,2338.889)" d="M 123.2 366.2 L 123.7 366.7 L 124.2 367.3 L 124.2 486.9 L 123.7 487.4 L 123.2 487.9 L 123.2 366.2 Z " fill-rule="evenodd"/>
<path transform="matrix(2.7777777,0,0,-2.7777777,0,2338.889)" d="M 146.4 400.7 L 146.9 401.2 L 147.4 401.7 L 147.4 504.1 L 146.9 504.6 L 146.4 505.1 L 146.4 400.7 Z " fill-rule="evenodd"/>
<path transform="matrix(2.7777777,0,0,-2.7777777,0,2338.889)" d="M 146.4 349 L 146.9 349.5 L 147.4 350 L 147.4 384.5 L 146.9 384 L 146.4 383.5 L 146.4 349 Z " fill-rule="evenodd"/>
<path transform="matrix(2.7777777,0,0,-2.7777777,0,2338.889)" d="M 169.6 435.2 L 170.1 435.7 L 170.6 436.2 L 170.6 521.3 L 170.1 521.9 L 169.6 522.4 L 169.6 435.2 Z " fill-rule="evenodd"/>
<path transform="matrix(2.7777777,0,0,-2.7777777,0,2338.889)" d="M 169.6 383.5 L 170.1 384 L 170.6 384.5 L 170.6 419 L 170.1 418.4 L 169.6 417.9 L 169.6 383.5 Z " fill-rule="evenodd"/>
<path transform="matrix(2.7777777,0,0,-2.7777777,0,2338.889)" d="M 169.6 331.8 L 170.1 332.3 L 170.6 332.8 L 170.6 367.3 L 170.1 366.7 L 169.6 366.2 L 169.6 331.8 Z " fill-rule="evenodd"/>
<path transform="matrix(2.7777777,0,0,-2.7777777,0,2338.889)" d="M 192.8 469.6 L 193.3 470.2 L 193.8 470.7 L 193.8 538.6 L 193.3 539.1 L 192.8 539.6 L 192.8 469.6 Z " fill-rule="evenodd"/>
<path transform="matrix(2.7777777,0,0,-2.7777777,0,2338.889)" d="M 192.8 417.9 L 193.3 418.4 L 193.8 419 L 193.8 453.4 L 193.3 452.9 L 192.8 452.4 L 192.8 417.9 Z " fill-rule="evenodd"/>
<path transform="matrix(2.7777777,0,0,-2.7777777,0,2338.889)" d="M 192.8 366.2 L 193.3 366.7 L 193.8 367.3 L 193.8 401.7 L 193.3 401.2 L 192.8 400.7 L 192.8 366.2 Z " fill-rule="evenodd"/>
<path transform="matrix(2.7777777,0,0,-2.7777777,0,2338.889)" d="M 192.8 314.5 L 193.3 315 L 193.8 315.5 L 193.8 350 L 193.3 349.5 L 192.8 349 L 192.8 314.5 Z " fill-rule="evenodd"/>
<path transform="matrix(2.7777777,0,0,-2.7777777,0,2338.889)" d="M 216 504.1 L 216.5 504.6 L 217 505.1 L 217 555.8 L 216.5 556.3 L 216 556.8 L 216 504.1 Z " fill-rule="evenodd"/>
<path transform="matrix(2.7777777,0,0,-2.7777777,0,2338.889)" d="M 216 452.4 L 216.5 452.9 L 217 453.4 L 217 487.9 L 216.5 487.4 L 216 486.9 L 216 452.4 Z " fill-rule="evenodd"/>
<path transform="matrix(2.7777777,0,0,-2.7777777,0,2338.889)" d="M 216 400.7 L 216.5 401.2 L 217 401.7 L 217 436.2 L 216.5 435.7 L 216 435.2 L 216 400.7 Z " fill-rule="evenodd"/>
<path transform="matrix(2.7777777,0,0,-2.7777777,0,2338.889)" d="M 216 349 L 216.5 349.5 L 217 350 L 217 384.5 L 216.5 384 L 216 383.5 L 216 349 Z " fill-rule="evenodd"/>
<path transform="matrix(2.7777777,0,0,-2.7777777,0,2338.889)" d="M 216 297.3 L 216.5 297.8 L 217 298.3 L 217 332.8 L 216.5 332.3 L 216 331.8 L 216 297.3 Z " fill-rule="evenodd"/>
<path transform="matrix(2.7777777,0,0,-2.7777777,0,2338.889)" d="M 239.2 538.6 L 239.7 539.1 L 240.2 539.6 L 240.2 573 L 239.7 573.6 L 239.2 574.1 L 239.2 538.6 Z " fill-rule="evenodd"/>
<path transform="matrix(2.7777777,0,0,-2.7777777,0,2338.889)" d="M 239.2 486.9 L 239.7 487.4 L 240.2 487.9 L 240.2 522.4 L 239.7 521.9 L 239.2 521.3 L 239.2 486.9 Z " fill-rule="evenodd"/>
<path transform="matrix(2.7777777,0,0,-2.7777777,0,2338.889)" d="M 239.2 435.2 L 239.7 435.7 L 240.2 436.2 L 240.2 470.7 L 239.7 470.2 L 239.2 469.6 L 239.2 435.2 Z " fill-rule="evenodd"/>
<path transform="matrix(2.7777777,0,0,-2.7777777,0,2338.889)" d="M 239.2 383.5 L 239.7 384 L 240.2 384.5 L 240.2 419 L 239.7 418.4 L 239.2 417.9 L 239.2 383.5 Z " fill-rule="evenodd"/>
<path transform="matrix(2.7777777,0,0,-2.7777777,0,2338.889)" d="M 239.2 331.8 L 239.7 332.3 L 240.2 332.8 L 240.2 367.3 L 239.7 366.7 L 239.2 366.2 L 239.2 331.8 Z " fill-rule="evenodd"/>
<path transform="matrix(2.7777777,0,0,-2.7777777,0,2338.889)" d="M 239.2 280.1 L 239.7 280.6 L 240.2 281.1 L 240.2 315.5 L 239.7 315 L 239.2 314.5 L 239.2 280.1 Z " fill-rule="evenodd"/>
<path transform="matrix(2.7777777,0,0,-2.7777777,0,2338.889)" d="M 262.3 521.3 L 262.9 521.9 L 263.4 522.4 L 263.4 556.8 L 262.9 556.3 L 262.3 555.8 L 262.3 521.3 Z " fill-rule="evenodd"/>
<path transform="matrix(2.7777777,0,0,-2.7777777,0,2338.889)" d="M 262.3 469.6 L 262.9 470.2 L 263.4 470.7 L 263.4 505.1 L 262.9 504.6 L 262.3 504.1 L 262.3 469.6 Z " fill-rule="evenodd"/>
<path transform="matrix(2.7777777,0,0,-2.7777777,0,2338.889)" d="M 262.3 417.9 L 262.9 418.4 L 263.4 419 L 263.4 453.4 L 262.9 452.9 L 262.3 452.4 L 262.3 417.9 Z " fill-rule="evenodd"/>
<path transform="matrix(2.7777777,0,0,-2.7777777,0,2338.889)" d="M 262.3 366.2 L 262.9 366.7 L 263.4 367.3 L 263.4 401.7 L 262.9 401.2 L 262.3 400.7 L 262.3 366.2 Z " fill-rule="evenodd"/>
<path transform="matrix(2.7777777,0,0,-2.7777777,0,2338.889)" d="M 262.3 314.5 L 262.9 315 L 263.4 315.5 L 263.4 350 L 262.9 349.5 L 262.3 349 L 262.3 314.5 Z " fill-rule="evenodd"/>
<path transform="matrix(2.7777777,0,0,-2.7777777,0,2338.889)" d="M 262.3 262.8 L 262.9 263.3 L 263.4 263.8 L 263.4 298.3 L 262.9 297.8 L 262.3 297.3 L 262.3 262.8 Z " fill-rule="evenodd"/>
<path transform="matrix(2.7777777,0,0,-2.7777777,0,2338.889)" d="M 285.5 522.4 L 286 521.9 L 286.6 521.3 L 286.6 555.8 L 286 556.3 L 285.5 556.8 L 285.5 522.4 Z " fill-rule="evenodd"/>
<path transform="matrix(2.7777777,0,0,-2.7777777,0,2338.889)" d="M 285.5 470.7 L 286 470.2 L 286.6 469.6 L 286.6 504.1 L 286 504.6 L 285.5 505.1 L 285.5 470.7 Z " fill-rule="evenodd"/>
<path transform="matrix(2.7777777,0,0,-2.7777777,0,2338.889)" d="M 285.5 419 L 286 418.4 L 286.6 417.9 L 286.6 452.4 L 286 452.9 L 285.5 453.4 L 285.5 419 Z " fill-rule="evenodd"/>
<path transform="matrix(2.7777777,0,0,-2.7777777,0,2338.889)" d="M 285.5 367.3 L 286 366.7 L 286.6 366.2 L 286.6 400.7 L 286 401.2 L 285.5 401.7 L 285.5 367.3 Z " fill-rule="evenodd"/>
<path transform="matrix(2.7777777,0,0,-2.7777777,0,2338.889)" d="M 285.5 315.5 L 286 315 L 286.6 314.5 L 286.6 349 L 286 349.5 L 285.5 350 L 285.5 315.5 Z " fill-rule="evenodd"/>
<path transform="matrix(2.7777777,0,0,-2.7777777,0,2338.889)" d="M 285.5 263.8 L 286 263.3 L 286.6 262.8 L 286.6 297.3 L 286 297.8 L 285.5 298.3 L 285.5 263.8 Z " fill-rule="evenodd"/>
<path transform="matrix(2.7777777,0,0,-2.7777777,0,2338.889)" d="M 308.7 539.6 L 309.2 539.1 L 309.7 538.6 L 309.7 574.1 L 309.2 573.6 L 308.7 573 L 308.7 539.6 Z " fill-rule="evenodd"/>
<path transform="matrix(2.7777777,0,0,-2.7777777,0,2338.889)" d="M 308.7 487.9 L 309.2 487.4 L 309.7 486.9 L 309.7 521.3 L 309.2 521.9 L 308.7 522.4 L 308.7 487.9 Z " fill-rule="evenodd"/>
<path transform="matrix(2.7777777,0,0,-2.7777777,0,2338.889)" d="M 308.7 436.2 L 309.2 435.7 L 309.7 435.2 L 309.7 469.6 L 309.2 470.2 L 308.7 470.7 L 308.7 436.2 Z " fill-rule="evenodd"/>
<path transform="matrix(2.7777777,0,0,-2.7777777,0,2338.889)" d="M 308.7 384.5 L 309.2 384 L 309.7 383.5 L 309.7 417.9 L 309.2 418.4 L 308.7 419 L 308.7 384.5 Z " fill-rule="evenodd"/>
<path transform="matrix(2.7777777,0,0,-2.7777777,0,2338.889)" d="M 308.7 332.8 L 309.2 332.3 L 309.7 331.8 L 309.7 366.2 L 309.2 366.7 L 308.7 367.3 L 308.7 332.8 Z " fill-rule="evenodd"/>
<path transform="matrix(2.7777777,0,0,-2.7777777,0,2338.889)" d="M 308.7 281.1 L 309.2 280.6 L 309.7 280.1 L 309.7 314.5 L 309.2 315 L 308.7 315.5 L 308.7 281.1 Z " fill-rule="evenodd"/>
<path transform="matrix(2.7777777,0,0,-2.7777777,0,2338.889)" d="M 331.9 505.1 L 332.4 504.6 L 332.9 504.1 L 332.9 556.8 L 332.4 556.3 L 331.9 555.8 L 331.9 505.1 Z " fill-rule="evenodd"/>
<path transform="matrix(2.7777777,0,0,-2.7777777,0,2338.889)" d="M 331.9 453.4 L 332.4 452.9 L 332.9 452.4 L 332.9 486.9 L 332.4 487.4 L 331.9 487.9 L 331.9 453.4 Z " fill-rule="evenodd"/>
<path transform="matrix(2.7777777,0,0,-2.7777777,0,2338.889)" d="M 331.9 401.7 L 332.4 401.2 L 332.9 400.7 L 332.9 435.2 L 332.4 435.7 L 331.9 436.2 L 331.9 401.7 Z " fill-rule="evenodd"/>
<path transform="matrix(2.7777777,0,0,-2.7777777,0,2338.889)" d="M 331.9 350 L 332.4 349.5 L 332.9 349 L 332.9 383.5 L 332.4 384 L 331.9 384.5 L 331.9 350 Z " fill-rule="evenodd"/>
<path transform="matrix(2.7777777,0,0,-2.7777777,0,2338.889)" d="M 331.9 298.3 L 332.4 297.8 L 332.9 297.3 L 332.9 331.8 L 332.4 332.3 L 331.9 332.8 L 331.9 298.3 Z " fill-rule="evenodd"/>
<path transform="matrix(2.7777777,0,0,-2.7777777,0,2338.889)" d="M 355.1 470.7 L 355.6 470.2 L 356.1 469.6 L 356.1 539.6 L 355.6 539.1 L 355.1 538.6 L 355.1 470.7 Z " fill-rule="evenodd"/>
<path transform="matrix(2.7777777,0,0,-2.7777777,0,2338.889)" d="M 355.1 419 L 355.6 418.4 L 356.1 417.9 L 356.1 452.4 L 355.6 452.9 L 355.1 453.4 L 355.1 419 Z " fill-rule="evenodd"/>
<path transform="matrix(2.7777777,0,0,-2.7777777,0,2338.889)" d="M 355.1 367.3 L 355.6 366.7 L 356.1 366.2 L 356.1 400.7 L 355.6 401.2 L 355.1 401.7 L 355.1 367.3 Z " fill-rule="evenodd"/>
<path transform="matrix(2.7777777,0,0,-2.7777777,0,2338.889)" d="M 355.1 315.5 L 355.6 315 L 356.1 314.5 L 356.1 349 L 355.6 349.5 L 355.1 350 L 355.1 315.5 Z " fill-rule="evenodd"/>
<path transform="matrix(2.7777777,0,0,-2.7777777,0,2338.889)" d="M 378.3 436.2 L 378.8 435.7 L 379.3 435.2 L 379.3 522.4 L 378.8 521.9 L 378.3 521.3 L 378.3 436.2 Z " fill-rule="evenodd"/>
<path transform="matrix(2.7777777,0,0,-2.7777777,0,2338.889)" d="M 378.3 384.5 L 378.8 384 L 379.3 383.5 L 379.3 417.9 L 378.8 418.4 L 378.3 419 L 378.3 384.5 Z " fill-rule="evenodd"/>
<path transform="matrix(2.7777777,0,0,-2.7777777,0,2338.889)" d="M 378.3 332.8 L 378.8 332.3 L 379.3 331.8 L 379.3 366.2 L 378.8 366.7 L 378.3 367.3 L 378.3 332.8 Z " fill-rule="evenodd"/>
<path transform="matrix(2.7777777,0,0,-2.7777777,0,2338.889)" d="M 401.5 401.7 L 402 401.2 L 402.5 400.7 L 402.5 505.1 L 402 504.6 L 401.5 504.1 L 401.5 401.7 Z " fill-rule="evenodd"/>
<path transform="matrix(2.7777777,0,0,-2.7777777,0,2338.889)" d="M 401.5 350 L 402 349.5 L 402.5 349 L 402.5 383.5 L 402 384 L 401.5 384.5 L 401.5 350 Z " fill-rule="evenodd"/>
<path transform="matrix(2.7777777,0,0,-2.7777777,0,2338.889)" d="M 424.7 367.3 L 425.2 366.7 L 425.7 366.2 L 425.7 487.9 L 425.2 487.4 L 424.7 486.9 L 424.7 367.3 Z " fill-rule="evenodd"/>
<g opacity=".5">
</g>
</g>
</g>
</svg>
