<?xml version="1.0" encoding="UTF-8" standalone="no"?>
<!DOCTYPE svg PUBLIC "-//W3C//DTD SVG 1.1//EN" "http://www.w3.org/Graphics/SVG/1.1/DTD/svg11.dtd">
<svg xmlns="http://www.w3.org/2000/svg" xmlns:xlink="http://www.w3.org/1999/xlink" version="1.1" width="1652.7777pt" height="2338.889pt" viewBox="0 0 1652.7777 2338.889">
<g enable-background="new">
<g>
<clipPath id="cp0">
<path transform="matrix(2.7777777,0,0,-2.7777777,0,2338.889)" d="M 54 770 L 541.2 770 L 541.2 806 L 54 806 Z " fill-rule="evenodd"/>
</clipPath>
<g clip-path="url(#cp0)">
<symbol id="font_1_1">
<path d="M .014160156 .08300781 L .17529297 .08300781 L .17529297 .63916018 L 0 .6040039 L 0 .69384768 L .1743164 .7290039 L .27294923 .7290039 L .27294923 .08300781 L .43408204 .08300781 L .43408204 0 L .014160156 0 L .014160156 .08300781 Z "/>
</symbol>
<symbol id="font_1_a">
<path d="M .25195313 .67822268 C .20117188 .67822268 .16292317 .65315756 .13720703 .60302737 C .111816409 .55322268 .099121097 .4781901 .099121097 .3779297 C .099121097 .27799479 .111816409 .20296224 .13720703 .15283203 C .16292317 .103027347 .20117188 .078125 .25195313 .078125 C .3030599 .078125 .3413086 .103027347 .36669923 .15283203 C .39241538 .20296224 .40527345 .27799479 .40527345 .3779297 C .40527345 .4781901 .39241538 .55322268 .36669923 .60302737 C .3413086 .65315756 .3030599 .67822268 .25195313 .67822268 M .25195313 .75634768 C .33365885 .75634768 .3959961 .7239583 .43896485 .6591797 C .48225913 .59472659 .50390627 .50097659 .50390627 .3779297 C .50390627 .25520835 .48225913 .16145833 .43896485 .09667969 C .3959961 .032226564 .33365885 0 .25195313 0 C .17024739 0 .1077474 .032226564 .064453128 .09667969 C .021484375 .16145833 0 .25520835 0 .3779297 C 0 .50097659 .021484375 .59472659 .064453128 .6591797 C .1077474 .7239583 .17024739 .75634768 .25195313 .75634768 Z "/>
</symbol>
<use xlink:href="#font_1_1" transform="matrix(27.777777,0,0,-27.777777,812.2184,159.72241)"/>
<use xlink:href="#font_1_a" transform="matrix(27.777777,0,0,-27.777777,828.4976,160.11576)"/>
</g>
<clipPath id="cp2">
<path transform="matrix(2.7777777,0,0,-2.7777777,0,2338.889)" d="M 54 36.2 L 541.2 36.2 L 541.2 72.2 L 54 72.2 Z " fill-rule="evenodd"/>
</clipPath>
<g clip-path="url(#cp2)">
<symbol id="font_1_3">
<path d="M .09863281 .6479492 L .09863281 .37402345 L .22265625 .37402345 C .2685547 .37402345 .30403648 .38590495 .32910157 .40966798 C .35416667 .433431 .36669923 .46728517 .36669923 .51123049 C .36669923 .5548503 .35416667 .5885417 .32910157 .6123047 C .30403648 .6360677 .2685547 .6479492 .22265625 .6479492 L .09863281 .6479492 M 0 .7290039 L .22265625 .7290039 C .30436198 .7290039 .3660482 .7104492 .40771485 .67333987 C .44970704 .63655599 .47070313 .58251956 .47070313 .51123049 C .47070313 .43929038 .44970704 .38492839 .40771485 .34814454 C .3660482 .3113607 .30436198 .29296876 .22265625 .29296876 L .09863281 .29296876 L .09863281 0 L 0 0 L 0 .7290039 Z "/>
</symbol>
<symbol id="font_1_4">
<path d="M .28271485 .2890625 C .2101237 .2890625 .15983074 .28076173 .13183594 .26416017 C .10384115 .2475586 .08984375 .21923828 .08984375 .17919922 C .08984375 .14729817 .100260417 .121907558 .12109375 .103027347 C .14225261 .084472659 .17089844 .07519531 .20703125 .07519531 C .25683595 .07519531 .29671226 .09277344 .32666017 .12792969 C .3569336 .16341146 .3720703 .21044922 .3720703 .26904298 L .3720703 .2890625 L .28271485 .2890625 M .46191407 .32617188 L .46191407 .014160156 L .3720703 .014160156 L .3720703 .09716797 C .3515625 .063964847 .32600913 .03938802 .29541017 .0234375 C .2648112 .0078125 .2273763 0 .18310547 0 C .12711589 0 .08251953 .015625 .049316408 .046875 C .016438803 .07845052 0 .12060547 0 .17333985 C 0 .23486328 .020507813 .28125 .061523439 .3125 C .102864589 .34375 .16438802 .359375 .24609375 .359375 L .3720703 .359375 L .3720703 .36816407 C .3720703 .40950523 .35839845 .44140626 .3310547 .4638672 C .30403648 .48665367 .26595054 .49804688 .21679688 .49804688 C .18554688 .49804688 .15511067 .49430339 .12548828 .4868164 C .09586588 .47932945 .06738281 .46809898 .040039064 .453125 L .040039064 .5361328 C .072916667 .5488281 .10481771 .55826827 .13574219 .5644531 C .16666667 .57096359 .19677735 .57421877 .22607422 .57421877 C .30517579 .57421877 .3642578 .55371096 .4033203 .5126953 C .4423828 .4716797 .46191407 .40950523 .46191407 .32617188 Z "/>
</symbol>
<symbol id="font_1_5">
<path d="M .39892579 .48779298 C .39892579 .55289718 .38541667 .60335287 .35839845 .63916018 C .33170573 .67496749 .29410807 .6928711 .24560547 .6928711 C .19742839 .6928711 .15983074 .67496749 .1328125 .63916018 C .10611979 .60335287 .09277344 .55289718 .09277344 .48779298 C .09277344 .4230143 .10611979 .37272135 .1328125 .33691407 C .15983074 .30110679 .19742839 .28320313 .24560547 .28320313 C .29410807 .28320313 .33170573 .30110679 .35839845 .33691407 C .38541667 .37272135 .39892579 .4230143 .39892579 .48779298 M .48876954 .2758789 C .48876954 .18277996 .46809898 .11360677 .4267578 .068359378 C .38541667 .022786459 .32210288 0 .2368164 0 C .20524089 0 .17545574 .0024414063 .14746094 .0073242189 C .11946615 .011881511 .092285159 .019042969 .06591797 .028808594 L .06591797 .11621094 C .092285159 .10188802 .11832682 .091308597 .14404297 .084472659 C .16975911 .07763672 .19596355 .07421875 .22265625 .07421875 C .28157554 .07421875 .3256836 .08968099 .35498048 .12060547 C .38427735 .15120442 .39892579 .19759114 .39892579 .25976563 L .39892579 .30419923 C .3803711 .27197267 .35660807 .24788411 .32763673 .2319336 C .29866538 .21598308 .2639974 .20800781 .22363281 .20800781 C .15657552 .20800781 .10253906 .2335612 .061523439 .28466798 C .020507813 .33577476 0 .40348307 0 .48779298 C 0 .5724284 .020507813 .6402995 .061523439 .69140627 C .10253906 .742513 .15657552 .7680664 .22363281 .7680664 C .2639974 .7680664 .29866538 .7600911 .32763673 .7441406 C .35660807 .7281901 .3803711 .70410159 .39892579 .671875 L .39892579 .7548828 L .48876954 .7548828 L .48876954 .2758789 Z "/>
</symbol>
<symbol id="font_1_6">
<path d="M .50683596 .3100586 L .50683596 .26611329 L .09375 .26611329 C .09765625 .20426433 .11621094 .1570638 .14941406 .12451172 C .1829427 .092285159 .22949219 .076171878 .2890625 .076171878 C .32356773 .076171878 .3569336 .08040365 .38916017 .08886719 C .42171226 .09733073 .4539388 .11002604 .48583985 .12695313 L .48583985 .041992189 C .45361329 .028320313 .4205729 .017903647 .38671876 .0107421879 C .3528646 .0035807293 .31852214 0 .2836914 0 C .19645183 0 .12727864 .025390625 .076171878 .076171878 C .025390625 .12695313 0 .19563802 0 .28222657 C 0 .37174479 .024088541 .44270835 .072265628 .4951172 C .12076823 .54785159 .18603516 .57421877 .2680664 .57421877 C .34163413 .57421877 .3997396 .55045577 .4423828 .5029297 C .48535157 .45572917 .50683596 .3914388 .50683596 .3100586 M .4169922 .33642579 C .41634117 .38557945 .4025065 .4248047 .37548829 .45410157 C .34879557 .48339845 .3133138 .49804688 .26904298 .49804688 C .21891277 .49804688 .17871094 .48388673 .1484375 .4555664 C .118489589 .4272461 .10123698 .38736979 .09667969 .3359375 L .4169922 .33642579 Z "/>
</symbol>
<symbol id="font_1_7">
<path d="M 0 0 Z "/>
</symbol>
<use xlink:href="#font_1_3" transform="matrix(27.777777,0,0,-27.777777,782.7262,2198.0557)"/>
<use xlink:href="#font_1_4" transform="matrix(27.777777,0,0,-27.777777,797.22378,2198.449)"/>
<use xlink:href="#font_1_5" transform="matrix(27.777777,0,0,-27.777777,814.0326,2203.8338)"/>
<use xlink:href="#font_1_6" transform="matrix(27.777777,0,0,-27.777777,831.7826,2198.449)"/>
<use xlink:href="#font_1_7" transform="matrix(27.777777,0,0,-27.777777,847.1944,2198.0557)"/>
<use xlink:href="#font_1_1" transform="matrix(27.777777,0,0,-27.777777,859.16287,2198.0557)"/>
</g>
<path transform="matrix(2.7777777,0,0,-2.7777777,0,2338.889)" d="M 209.7 517.4 L 366.9 517.4 L 366.9 539.9 L 209.7 539.9 Z " fill="#c0c0c0" fill-rule="evenodd"/>
<path transform="matrix(2.7777777,0,0,-2.7777777,0,2338.889)" d="M 183.5 495 L 262.1 495 L 262.1 517.5 L 183.5 517.5 Z " fill="#c0c0c0" fill-rule="evenodd"/>
<path transform="matrix(2.7777777,0,0,-2.7777777,0,2338.889)" d="M 288.3 495 L 393.09999 495 L 393.09999 517.5 L 288.3 517.5 Z " fill="#c0c0c0" fill-rule="evenodd"/>
<path transform="matrix(2.7777777,0,0,-2.7777777,0,2338.889)" d="M 157.3 472.5 L 209.70001 472.5 L 209.70001 495 L 157.3 495 Z " fill="#c0c0c0" fill-rule="evenodd"/>
<path transform="matrix(2.7777777,0,0,-2.7777777,0,2338.889)" d="M 262.1 472.5 L 288.30003 472.5 L 288.30003 495 L 262.1 495 Z " fill="#c0c0c0" fill-rule="evenodd"/>
<path transform="matrix(2.7777777,0,0,-2.7777777,0,2338.889)" d="M 340.7 472.5 L 393.1 472.5 L 393.1 495 L 340.7 495 Z " fill="#c0c0c0" fill-rule="evenodd"/>
<path transform="matrix(2.7777777,0,0,-2.7777777,0,2338.889)" d="M 157.3 450 L 183.5 450 L 183.5 472.5 L 157.3 472.5 Z " fill="#c0c0c0" fill-rule="evenodd"/>
<path transform="matrix(2.7777777,0,0,-2.7777777,0,2338.889)" d="M 209.7 450 L 235.9 450 L 235.9 472.5 L 209.7 472.5 Z " fill="#c0c0c0" fill-rule="evenodd"/>
<path transform="matrix(2.7777777,0,0,-2.7777777,0,2338.889)" d="M 314.5 450 L 393.1 450 L 393.1 472.5 L 314.5 472.5 Z " fill="#c0c0c0" fill-rule="evenodd"/>
<path transform="matrix(2.7777777,0,0,-2.7777777,0,2338.889)" d="M 183.5 427.5 L 209.7 427.5 L 209.7 450 L 183.5 450 Z " fill="#c0c0c0" fill-rule="evenodd"/>
<path transform="matrix(2.7777777,0,0,-2.7777777,0,2338.889)" d="M 235.9 427.5 L 314.5 427.5 L 314.5 450 L 235.9 450 Z " fill="#c0c0c0" fill-rule="evenodd"/>
<path transform="matrix(2.7777777,0,0,-2.7777777,0,2338.889)" d="M 209.7 405 L 262.1 405 L 262.1 427.5 L 209.7 427.5 Z " fill="#c0c0c0" fill-rule="evenodd"/>
<path transform="matrix(2.7777777,0,0,-2.7777777,0,2338.889)" d="M 393.1 405 L 419.30003 405 L 419.30003 427.5 L 393.1 427.5 Z " fill="#c0c0c0" fill-rule="evenodd"/>
<path transform="matrix(2.7777777,0,0,-2.7777777,0,2338.889)" d="M 157.3 382.6 L 183.5 382.6 L 183.5 405.1 L 157.3 405.1 Z " fill="#c0c0c0" fill-rule="evenodd"/>
<path transform="matrix(2.7777777,0,0,-2.7777777,0,2338.889)" d="M 262.1 382.6 L 288.30003 382.6 L 288.30003 405.1 L 262.1 405.1 Z " fill="#c0c0c0" fill-rule="evenodd"/>
<path transform="matrix(2.7777777,0,0,-2.7777777,0,2338.889)" d="M 366.9 382.6 L 393.1 382.6 L 393.1 405.1 L 366.9 405.1 Z " fill="#c0c0c0" fill-rule="evenodd"/>
<path transform="matrix(2.7777777,0,0,-2.7777777,0,2338.889)" d="M 131.1 360.1 L 209.70001 360.1 L 209.70001 382.6 L 131.1 382.6 Z " fill="#c0c0c0" fill-rule="evenodd"/>
<path transform="matrix(2.7777777,0,0,-2.7777777,0,2338.889)" d="M 314.5 360.1 L 340.7 360.1 L 340.7 382.6 L 314.5 382.6 Z " fill="#c0c0c0" fill-rule="evenodd"/>
<path transform="matrix(2.7777777,0,0,-2.7777777,0,2338.889)" d="M 366.9 360.1 L 393.1 360.1 L 393.1 382.6 L 366.9 382.6 Z " fill="#c0c0c0" fill-rule="evenodd"/>
<path transform="matrix(2.7777777,0,0,-2.7777777,0,2338.889)" d="M 183.5 337.6 L 262.1 337.6 L 262.1 360.1 L 183.5 360.1 Z " fill="#c0c0c0" fill-rule="evenodd"/>
<path transform="matrix(2.7777777,0,0,-2.7777777,0,2338.889)" d="M 288.3 337.6 L 314.5 337.6 L 314.5 360.1 L 288.3 360.1 Z " fill="#c0c0c0" fill-rule="evenodd"/>
<path transform="matrix(2.7777777,0,0,-2.7777777,0,2338.889)" d="M 209.7 315.1 L 262.1 315.1 L 262.1 337.6 L 209.7 337.6 Z " fill="#c0c0c0" fill-rule="evenodd"/>
<path transform="matrix(2.7777777,0,0,-2.7777777,0,2338.889)" d="M 262.1 292.6 L 288.30003 292.6 L 288.30003 315.1 L 262.1 315.1 Z " fill="#c0c0c0" fill-rule="evenodd"/>
<path transform="matrix(2.7777777,0,0,-2.7777777,0,2338.889)" d="M 314.5 292.6 L 366.9 292.6 L 366.9 315.1 L 314.5 315.1 Z " fill="#c0c0c0" fill-rule="evenodd"/>
<path transform="matrix(2.7777777,0,0,-2.7777777,0,2338.889)" d="M 262.1 270.2 L 366.90003 270.2 L 366.90003 292.7 L 262.1 292.7 Z " fill="#c0c0c0" fill-rule="evenodd"/>
<path transform="matrix(2.7777777,0,0,-2.7777777,0,2338.889)" d="M 288.3 247.7 L 314.5 247.7 L 314.5 270.2 L 288.3 270.2 Z " fill="#c0c0c0" fill-rule="evenodd"/>
<path transform="matrix(2.7777777,0,0,-2.7777777,0,2338.889)" d="M 209.3 585.3 L 209.8 584.8 L 210.3 584.3 L 366.4 584.3 L 366.9 584.8 L 367.5 585.3 L 209.3 585.3 Z " fill-rule="evenodd"/>
<path transform="matrix(2.7777777,0,0,-2.7777777,0,2338.889)" d="M 183.1 562.8 L 183.6 562.3 L 184.1 561.8 L 209.3 561.8 L 209.8 562.3 L 209.3 562.8 L 183.1 562.8 Z " fill-rule="evenodd"/>
<path transform="matrix(2.7777777,0,0,-2.7777777,0,2338.889)" d="M 367.5 562.8 L 366.9 562.3 L 367.5 561.8 L 392.6 561.8 L 393.1 562.3 L 393.6 562.8 L 367.5 562.8 Z " fill-rule="evenodd"/>
<path transform="matrix(2.7777777,0,0,-2.7777777,0,2338.889)" d="M 156.9 540.4 L 157.4 539.9 L 157.9 539.3 L 183.1 539.3 L 183.6 539.9 L 183.1 540.4 L 156.9 540.4 Z " fill-rule="evenodd"/>
<path transform="matrix(2.7777777,0,0,-2.7777777,0,2338.889)" d="M 210.3 540.4 L 209.8 539.9 L 210.3 539.3 L 366.4 539.3 L 366.9 539.9 L 366.4 540.4 L 210.3 540.4 Z " fill-rule="evenodd"/>
<path transform="matrix(2.7777777,0,0,-2.7777777,0,2338.889)" d="M 184.1 517.9 L 183.6 517.4 L 184.1 516.9 L 210.3 516.9 L 209.8 517.4 L 209.3 517.9 L 184.1 517.9 Z " fill-rule="evenodd"/>
<path transform="matrix(2.7777777,0,0,-2.7777777,0,2338.889)" d="M 261.7 517.9 L 262.2 517.4 L 262.7 516.9 L 287.9 516.9 L 288.4 517.4 L 288.9 517.9 L 261.7 517.9 Z " fill-rule="evenodd"/>
<path transform="matrix(2.7777777,0,0,-2.7777777,0,2338.889)" d="M 367.5 517.9 L 366.9 517.4 L 366.4 516.9 L 392.6 516.9 L 393.1 517.4 L 392.6 517.9 L 367.5 517.9 Z " fill-rule="evenodd"/>
<path transform="matrix(2.7777777,0,0,-2.7777777,0,2338.889)" d="M 157.9 495.4 L 157.4 494.9 L 157.9 494.4 L 184.1 494.4 L 183.6 494.9 L 183.1 495.4 L 157.9 495.4 Z " fill-rule="evenodd"/>
<path transform="matrix(2.7777777,0,0,-2.7777777,0,2338.889)" d="M 209.3 495.4 L 209.8 494.9 L 210.3 494.4 L 340.2 494.4 L 340.8 494.9 L 341.3 495.4 L 209.3 495.4 Z " fill-rule="evenodd"/>
<path transform="matrix(2.7777777,0,0,-2.7777777,0,2338.889)" d="M 130.7 472.9 L 131.2 472.4 L 131.7 471.9 L 156.9 471.9 L 157.4 472.4 L 156.9 472.9 L 130.7 472.9 Z " fill-rule="evenodd"/>
<path transform="matrix(2.7777777,0,0,-2.7777777,0,2338.889)" d="M 183.1 472.9 L 183.6 472.4 L 184.1 471.9 L 235.5 471.9 L 236 472.4 L 236.5 472.9 L 183.1 472.9 Z " fill-rule="evenodd"/>
<path transform="matrix(2.7777777,0,0,-2.7777777,0,2338.889)" d="M 262.7 472.9 L 262.2 472.4 L 261.7 471.9 L 288.9 471.9 L 288.4 472.4 L 287.9 472.9 L 262.7 472.9 Z " fill-rule="evenodd"/>
<path transform="matrix(2.7777777,0,0,-2.7777777,0,2338.889)" d="M 314.1 472.9 L 314.6 472.4 L 315.1 471.9 L 340.2 471.9 L 340.8 472.4 L 340.2 472.9 L 314.1 472.9 Z " fill-rule="evenodd"/>
<path transform="matrix(2.7777777,0,0,-2.7777777,0,2338.889)" d="M 393.6 472.9 L 393.1 472.4 L 393.6 471.9 L 418.8 471.9 L 419.3 472.4 L 419.8 472.9 L 393.6 472.9 Z " fill-rule="evenodd"/>
<path transform="matrix(2.7777777,0,0,-2.7777777,0,2338.889)" d="M 53.9 450.5 L 53.9 449.9 L 53.9 449.4 L 130.7 449.4 L 131.2 449.9 L 130.7 450.5 L 53.9 450.5 Z " fill-rule="evenodd"/>
<path transform="matrix(2.7777777,0,0,-2.7777777,0,2338.889)" d="M 157.9 450.5 L 157.4 449.9 L 157.9 449.4 L 392.6 449.4 L 393.1 449.9 L 392.6 450.5 L 157.9 450.5 Z " fill-rule="evenodd"/>
<path transform="matrix(2.7777777,0,0,-2.7777777,0,2338.889)" d="M 419.8 450.5 L 419.3 449.9 L 419.8 449.4 L 496.6 449.4 L 496.6 449.9 L 496.6 450.5 L 419.8 450.5 Z " fill-rule="evenodd"/>
<path transform="matrix(2.7777777,0,0,-2.7777777,0,2338.889)" d="M 184.1 428 L 183.6 427.5 L 183.1 427 L 236.5 427 L 236 427.5 L 235.5 428 L 184.1 428 Z " fill-rule="evenodd"/>
<path transform="matrix(2.7777777,0,0,-2.7777777,0,2338.889)" d="M 261.7 428 L 262.2 427.5 L 262.7 427 L 315.1 427 L 314.6 427.5 L 314.1 428 L 261.7 428 Z " fill-rule="evenodd"/>
<path transform="matrix(2.7777777,0,0,-2.7777777,0,2338.889)" d="M 393.6 428 L 393.1 427.5 L 393.6 427 L 418.8 427 L 419.3 427.5 L 418.8 428 L 393.6 428 Z " fill-rule="evenodd"/>
<path transform="matrix(2.7777777,0,0,-2.7777777,0,2338.889)" d="M 157.9 405.5 L 157.4 405 L 157.9 404.5 L 183.1 404.5 L 183.6 405 L 184.1 405.5 L 157.9 405.5 Z " fill-rule="evenodd"/>
<path transform="matrix(2.7777777,0,0,-2.7777777,0,2338.889)" d="M 210.3 405.5 L 209.8 405 L 209.3 404.5 L 287.9 404.5 L 288.4 405 L 288.9 405.5 L 210.3 405.5 Z " fill-rule="evenodd"/>
<path transform="matrix(2.7777777,0,0,-2.7777777,0,2338.889)" d="M 366.4 405.5 L 366.9 405 L 367.5 404.5 L 419.8 404.5 L 419.3 405 L 418.8 405.5 L 366.4 405.5 Z " fill-rule="evenodd"/>
<path transform="matrix(2.7777777,0,0,-2.7777777,0,2338.889)" d="M 131.7 383 L 131.2 382.5 L 131.7 382 L 157.9 382 L 157.4 382.5 L 156.9 383 L 131.7 383 Z " fill-rule="evenodd"/>
<path transform="matrix(2.7777777,0,0,-2.7777777,0,2338.889)" d="M 184.1 383 L 183.6 382.5 L 184.1 382 L 209.3 382 L 209.8 382.5 L 210.3 383 L 184.1 383 Z " fill-rule="evenodd"/>
<path transform="matrix(2.7777777,0,0,-2.7777777,0,2338.889)" d="M 262.7 383 L 262.2 382.5 L 261.7 382 L 287.9 382 L 288.4 382.5 L 287.9 383 L 262.7 383 Z " fill-rule="evenodd"/>
<path transform="matrix(2.7777777,0,0,-2.7777777,0,2338.889)" d="M 314.1 383 L 314.6 382.5 L 315.1 382 L 340.2 382 L 340.8 382.5 L 340.2 383 L 314.1 383 Z " fill-rule="evenodd"/>
<path transform="matrix(2.7777777,0,0,-2.7777777,0,2338.889)" d="M 131.7 360.5 L 131.2 360 L 130.7 359.5 L 183.1 359.5 L 183.6 360 L 183.1 360.5 L 131.7 360.5 Z " fill-rule="evenodd"/>
<path transform="matrix(2.7777777,0,0,-2.7777777,0,2338.889)" d="M 210.3 360.5 L 209.8 360 L 210.3 359.5 L 261.7 359.5 L 262.2 360 L 262.7 360.5 L 210.3 360.5 Z " fill-rule="evenodd"/>
<path transform="matrix(2.7777777,0,0,-2.7777777,0,2338.889)" d="M 288.9 360.5 L 288.4 360 L 288.9 359.5 L 341.3 359.5 L 340.8 360 L 340.2 360.5 L 288.9 360.5 Z " fill-rule="evenodd"/>
<path transform="matrix(2.7777777,0,0,-2.7777777,0,2338.889)" d="M 367.5 360.5 L 366.9 360 L 367.5 359.5 L 393.6 359.5 L 393.1 360 L 392.6 360.5 L 367.5 360.5 Z " fill-rule="evenodd"/>
<path transform="matrix(2.7777777,0,0,-2.7777777,0,2338.889)" d="M 184.1 338.1 L 183.6 337.5 L 183.1 337 L 209.3 337 L 209.8 337.5 L 209.3 338.1 L 184.1 338.1 Z " fill-rule="evenodd"/>
<path transform="matrix(2.7777777,0,0,-2.7777777,0,2338.889)" d="M 288.9 338.1 L 288.4 337.5 L 287.9 337 L 315.1 337 L 314.6 337.5 L 314.1 338.1 L 288.9 338.1 Z " fill-rule="evenodd"/>
<path transform="matrix(2.7777777,0,0,-2.7777777,0,2338.889)" d="M 210.3 315.6 L 209.8 315.1 L 209.3 314.6 L 287.9 314.6 L 288.4 315.1 L 288.9 315.6 L 210.3 315.6 Z " fill-rule="evenodd"/>
<path transform="matrix(2.7777777,0,0,-2.7777777,0,2338.889)" d="M 314.1 315.6 L 314.6 315.1 L 315.1 314.6 L 366.4 314.6 L 366.9 315.1 L 366.4 315.6 L 314.1 315.6 Z " fill-rule="evenodd"/>
<path transform="matrix(2.7777777,0,0,-2.7777777,0,2338.889)" d="M 288.9 293.1 L 288.4 292.6 L 288.9 292.1 L 314.1 292.1 L 314.6 292.6 L 314.1 293.1 L 288.9 293.1 Z " fill-rule="evenodd"/>
<path transform="matrix(2.7777777,0,0,-2.7777777,0,2338.889)" d="M 262.7 270.6 L 262.2 270.1 L 261.7 269.6 L 287.9 269.6 L 288.4 270.1 L 287.9 270.6 L 262.7 270.6 Z " fill-rule="evenodd"/>
<path transform="matrix(2.7777777,0,0,-2.7777777,0,2338.889)" d="M 315.1 270.6 L 314.6 270.1 L 315.1 269.6 L 367.5 269.6 L 366.9 270.1 L 366.4 270.6 L 315.1 270.6 Z " fill-rule="evenodd"/>
<path transform="matrix(2.7777777,0,0,-2.7777777,0,2338.889)" d="M 288.9 248.1 L 288.4 247.6 L 287.9 247.1 L 315.1 247.1 L 314.6 247.6 L 314.1 248.1 L 288.9 248.1 Z " fill-rule="evenodd"/>
<path transform="matrix(2.7777777,0,0,-2.7777777,0,2338.889)" d="M 130.7 359.5 L 131.2 360 L 131.7 360.5 L 131.7 471.9 L 131.2 472.4 L 130.7 472.9 L 130.7 359.5 Z " fill-rule="evenodd"/>
<path transform="matrix(2.7777777,0,0,-2.7777777,0,2338.889)" d="M 156.9 383 L 157.4 382.5 L 157.9 382 L 157.9 539.3 L 157.4 539.9 L 156.9 540.4 L 156.9 383 Z " fill-rule="evenodd"/>
<path transform="matrix(2.7777777,0,0,-2.7777777,0,2338.889)" d="M 183.1 495.4 L 183.6 494.9 L 184.1 494.4 L 184.1 561.8 L 183.6 562.3 L 183.1 562.8 L 183.1 495.4 Z " fill-rule="evenodd"/>
<path transform="matrix(2.7777777,0,0,-2.7777777,0,2338.889)" d="M 183.1 427 L 183.6 427.5 L 184.1 428 L 184.1 471.9 L 183.6 472.4 L 183.1 472.9 L 183.1 427 Z " fill-rule="evenodd"/>
<path transform="matrix(2.7777777,0,0,-2.7777777,0,2338.889)" d="M 183.1 337 L 183.6 337.5 L 184.1 338.1 L 184.1 405.5 L 183.6 405 L 183.1 404.5 L 183.1 337 Z " fill-rule="evenodd"/>
<path transform="matrix(2.7777777,0,0,-2.7777777,0,2338.889)" d="M 209.3 517.9 L 209.8 517.4 L 210.3 516.9 L 210.3 584.3 L 209.8 584.8 L 209.3 585.3 L 209.3 517.9 Z " fill-rule="evenodd"/>
<path transform="matrix(2.7777777,0,0,-2.7777777,0,2338.889)" d="M 209.3 404.5 L 209.8 405 L 210.3 405.5 L 210.3 494.4 L 209.8 494.9 L 209.3 495.4 L 209.3 404.5 Z " fill-rule="evenodd"/>
<path transform="matrix(2.7777777,0,0,-2.7777777,0,2338.889)" d="M 209.3 314.6 L 209.8 315.1 L 210.3 315.6 L 210.3 383 L 209.8 382.5 L 209.3 382 L 209.3 314.6 Z " fill-rule="evenodd"/>
<path transform="matrix(2.7777777,0,0,-2.7777777,0,2338.889)" d="M 235.5 428 L 236 427.5 L 236.5 427 L 236.5 472.9 L 236 472.4 L 235.5 471.9 L 235.5 428 Z " fill-rule="evenodd"/>
<path transform="matrix(2.7777777,0,0,-2.7777777,0,2338.889)" d="M 261.7 471.9 L 262.2 472.4 L 262.7 472.9 L 262.7 516.9 L 262.2 517.4 L 261.7 517.9 L 261.7 471.9 Z " fill-rule="evenodd"/>
<path transform="matrix(2.7777777,0,0,-2.7777777,0,2338.889)" d="M 261.7 382 L 262.2 382.5 L 262.7 383 L 262.7 427 L 262.2 427.5 L 261.7 428 L 261.7 382 Z " fill-rule="evenodd"/>
<path transform="matrix(2.7777777,0,0,-2.7777777,0,2338.889)" d="M 261.7 269.6 L 262.2 270.1 L 262.7 270.6 L 262.7 360.5 L 262.2 360 L 261.7 359.5 L 261.7 269.6 Z " fill-rule="evenodd"/>
<path transform="matrix(2.7777777,0,0,-2.7777777,0,2338.889)" d="M 287.9 472.9 L 288.4 472.4 L 288.9 471.9 L 288.9 517.9 L 288.4 517.4 L 287.9 516.9 L 287.9 472.9 Z " fill-rule="evenodd"/>
<path transform="matrix(2.7777777,0,0,-2.7777777,0,2338.889)" d="M 287.9 337 L 288.4 337.5 L 288.9 338.1 L 288.9 405.5 L 288.4 405 L 287.9 404.5 L 287.9 337 Z " fill-rule="evenodd"/>
<path transform="matrix(2.7777777,0,0,-2.7777777,0,2338.889)" d="M 287.9 247.1 L 288.4 247.6 L 288.9 248.1 L 288.9 315.6 L 288.4 315.1 L 287.9 314.6 L 287.9 247.1 Z " fill-rule="evenodd"/>
<path transform="matrix(2.7777777,0,0,-2.7777777,0,2338.889)" d="M 314.1 428 L 314.6 427.5 L 315.1 427 L 315.1 471.9 L 314.6 472.4 L 314.1 472.9 L 314.1 428 Z " fill-rule="evenodd"/>
<path transform="matrix(2.7777777,0,0,-2.7777777,0,2338.889)" d="M 314.1 338.1 L 314.6 337.5 L 315.1 337 L 315.1 382 L 314.6 382.5 L 314.1 383 L 314.1 338.1 Z " fill-rule="evenodd"/>
<path transform="matrix(2.7777777,0,0,-2.7777777,0,2338.889)" d="M 314.1 248.1 L 314.6 247.6 L 315.1 247.1 L 315.1 314.6 L 314.6 315.1 L 314.1 315.6 L 314.1 248.1 Z " fill-rule="evenodd"/>
<path transform="matrix(2.7777777,0,0,-2.7777777,0,2338.889)" d="M 340.2 360.5 L 340.8 360 L 341.3 359.5 L 341.3 495.4 L 340.8 494.9 L 340.2 494.4 L 340.2 360.5 Z " fill-rule="evenodd"/>
<path transform="matrix(2.7777777,0,0,-2.7777777,0,2338.889)" d="M 366.4 516.9 L 366.9 517.4 L 367.5 517.9 L 367.5 585.3 L 366.9 584.8 L 366.4 584.3 L 366.4 516.9 Z " fill-rule="evenodd"/>
<path transform="matrix(2.7777777,0,0,-2.7777777,0,2338.889)" d="M 366.4 270.6 L 366.9 270.1 L 367.5 269.6 L 367.5 404.5 L 366.9 405 L 366.4 405.5 L 366.4 270.6 Z " fill-rule="evenodd"/>
<path transform="matrix(2.7777777,0,0,-2.7777777,0,2338.889)" d="M 392.6 360.5 L 393.1 360 L 393.6 359.5 L 393.6 562.8 L 393.1 562.3 L 392.6 561.8 L 392.6 360.5 Z " fill-rule="evenodd"/>
<path transform="matrix(2.7777777,0,0,-2.7777777,0,2338.889)" d="M 418.8 405.5 L 419.3 405 L 419.8 404.5 L 419.8 472.9 L 419.3 472.4 L 418.8 471.9 L 418.8 405.5 Z " fill-rule="evenodd"/>
<g opacity=".5">
</g>
</g>
</g>
</svg>
