<?xml version="1.0" encoding="UTF-8" standalone="no"?>
<!DOCTYPE svg PUBLIC "-//W3C//DTD SVG 1.1//EN" "http://www.w3.org/Graphics/SVG/1.1/DTD/svg11.dtd">
<svg xmlns="http://www.w3.org/2000/svg" xmlns:xlink="http://www.w3.org/1999/xlink" version="1.1" width="1652.7777pt" height="2338.889pt" viewBox="0 0 1652.7777 2338.889">
<g enable-background="new">
<g>
<clipPath id="cp0">
<path transform="matrix(2.7777777,0,0,-2.7777777,0,2338.889)" d="M 54 770 L 541.2 770 L 541.2 806 L 54 806 Z " fill-rule="evenodd"/>
</clipPath>
<g clip-path="url(#cp0)">
<symbol id="font_1_c">
<path d="M .25 .36035157 C .203125 .36035157 .16617839 .347819 .13916016 .3227539 C .112467449 .2976888 .099121097 .2631836 .099121097 .21923828 C .099121097 .17529297 .112467449 .14078777 .13916016 .115722659 C .16617839 .090657558 .203125 .078125 .25 .078125 C .296875 .078125 .33382163 .090657558 .36083985 .115722659 C .38785807 .14111328 .4013672 .17561849 .4013672 .21923828 C .4013672 .2631836 .38785807 .2976888 .36083985 .3227539 C .33414714 .347819 .29720054 .36035157 .25 .36035157 M .15136719 .40234376 C .10904948 .4127604 .07600912 .43245445 .052246095 .46142579 C .028808594 .49039714 .017089844 .5257161 .017089844 .5673828 C .017089844 .62565109 .037760419 .6717122 .07910156 .7055664 C .12076823 .7394206 .17773438 .75634768 .25 .75634768 C .32259117 .75634768 .37955729 .7394206 .42089845 .7055664 C .4622396 .6717122 .48291017 .62565109 .48291017 .5673828 C .48291017 .5257161 .47102867 .49039714 .44726563 .46142579 C .42382813 .43245445 .39111329 .4127604 .3491211 .40234376 C .39664714 .39127604 .43359376 .3696289 .45996095 .33740235 C .48665367 .30517579 .5 .26578776 .5 .21923828 C .5 .14860027 .47835288 .09440104 .4350586 .056640626 C .39208985 .018880209 .33040367 0 .25 0 C .16959636 0 .1077474 .018880209 .064453128 .056640626 C .021484375 .09440104 0 .14860027 0 .21923828 C 0 .26578776 .0133463549 .30517579 .040039064 .33740235 C .06673177 .3696289 .10384115 .39127604 .15136719 .40234376 M .115234378 .55810549 C .115234378 .52034506 .12695313 .4908854 .15039063 .46972657 C .17415364 .44856773 .20735677 .43798829 .25 .43798829 C .29231773 .43798829 .32535807 .44856773 .3491211 .46972657 C .37320964 .4908854 .3852539 .52034506 .3852539 .55810549 C .3852539 .5958659 .37320964 .6253255 .3491211 .6464844 C .32535807 .66764327 .29231773 .67822268 .25 .67822268 C .20735677 .67822268 .17415364 .66764327 .15039063 .6464844 C .12695313 .6253255 .115234378 .5958659 .115234378 .55810549 Z "/>
</symbol>
<use xlink:href="#font_1_c" transform="matrix(27.777777,0,0,-27.777777,819.94088,160.11576)"/>
</g>
<clipPath id="cp2">
<path transform="matrix(2.7777777,0,0,-2.7777777,0,2338.889)" d="M 54 36.2 L 541.2 36.2 L 541.2 72.2 L 54 72.2 Z " fill-rule="evenodd"/>
</clipPath>
<g clip-path="url(#cp2)">
<symbol id="font_1_3">
<path d="M .09863281 .6479492 L .09863281 .37402345 L .22265625 .37402345 C .2685547 .37402345 .30403648 .38590495 .32910157 .40966798 C .35416667 .433431 .36669923 .46728517 .36669923 .51123049 C .36669923 .5548503 .35416667 .5885417 .32910157 .6123047 C .30403648 .6360677 .2685547 .6479492 .22265625 .6479492 L .09863281 .6479492 M 0 .7290039 L .22265625 .7290039 C .30436198 .7290039 .3660482 .7104492 .40771485 .67333987 C .44970704 .63655599 .47070313 .58251956 .47070313 .51123049 C .47070313 .43929038 .44970704 .38492839 .40771485 .34814454 C .3660482 .3113607 .30436198 .29296876 .22265625 .29296876 L .09863281 .29296876 L .09863281 0 L 0 0 L 0 .7290039 Z "/>
</symbol>
<symbol id="font_1_4">
<path d="M .28271485 .2890625 C .2101237 .2890625 .15983074 .28076173 .13183594 .26416017 C .10384115 .2475586 .08984375 .21923828 .08984375 .17919922 C .08984375 .14729817 .100260417 .121907558 .12109375 .103027347 C .14225261 .084472659 .17089844 .07519531 .20703125 .07519531 C .25683595 .07519531 .29671226 .09277344 .32666017 .12792969 C .3569336 .16341146 .3720703 .21044922 .3720703 .26904298 L .3720703 .2890625 L .28271485 .2890625 M .46191407 .32617188 L .46191407 .014160156 L .3720703 .014160156 L .3720703 .09716797 C .3515625 .063964847 .32600913 .03938802 .29541017 .0234375 C .2648112 .0078125 .2273763 0 .18310547 0 C .12711589 0 .08251953 .015625 .049316408 .046875 C .016438803 .07845052 0 .12060547 0 .17333985 C 0 .23486328 .020507813 .28125 .061523439 .3125 C .102864589 .34375 .16438802 .359375 .24609375 .359375 L .3720703 .359375 L .3720703 .36816407 C .3720703 .40950523 .35839845 .44140626 .3310547 .4638672 C .30403648 .48665367 .26595054 .49804688 .21679688 .49804688 C .18554688 .49804688 .15511067 .49430339 .12548828 .4868164 C .09586588 .47932945 .06738281 .46809898 .040039064 .453125 L .040039064 .5361328 C .072916667 .5488281 .10481771 .55826827 .13574219 .5644531 C .16666667 .57096359 .19677735 .57421877 .22607422 .57421877 C .30517579 .57421877 .3642578 .55371096 .4033203 .5126953 C .4423828 .4716797 .46191407 .40950523 .46191407 .32617188 Z "/>
</symbol>
<symbol id="font_1_5">
<path d="M .39892579 .48779298 C .39892579 .55289718 .38541667 .60335287 .35839845 .63916018 C .33170573 .67496749 .29410807 .6928711 .24560547 .6928711 C .19742839 .6928711 .15983074 .67496749 .1328125 .63916018 C .10611979 .60335287 .09277344 .55289718 .09277344 .48779298 C .09277344 .4230143 .10611979 .37272135 .1328125 .33691407 C .15983074 .30110679 .19742839 .28320313 .24560547 .28320313 C .29410807 .28320313 .33170573 .30110679 .35839845 .33691407 C .38541667 .37272135 .39892579 .4230143 .39892579 .48779298 M .48876954 .2758789 C .48876954 .18277996 .46809898 .11360677 .4267578 .068359378 C .38541667 .022786459 .32210288 0 .2368164 0 C .20524089 0 .17545574 .0024414063 .14746094 .0073242189 C .11946615 .011881511 .092285159 .019042969 .06591797 .028808594 L .06591797 .11621094 C .092285159 .10188802 .11832682 .091308597 .14404297 .084472659 C .16975911 .07763672 .19596355 .07421875 .22265625 .07421875 C .28157554 .07421875 .3256836 .08968099 .35498048 .12060547 C .38427735 .15120442 .39892579 .19759114 .39892579 .25976563 L .39892579 .30419923 C .3803711 .27197267 .35660807 .24788411 .32763673 .2319336 C .29866538 .21598308 .2639974 .20800781 .22363281 .20800781 C .15657552 .20800781 .10253906 .2335612 .061523439 .28466798 C .020507813 .33577476 0 .40348307 0 .48779298 C 0 .5724284 .020507813 .6402995 .061523439 .69140627 C .10253906 .742513 .15657552 .7680664 .22363281 .7680664 C .2639974 .7680664 .29866538 .7600911 .32763673 .7441406 C .35660807 .7281901 .3803711 .70410159 .39892579 .671875 L .39892579 .7548828 L .48876954 .7548828 L .48876954 .2758789 Z "/>
</symbol>
<symbol id="font_1_6">
<path d="M .50683596 .3100586 L .50683596 .26611329 L .09375 .26611329 C .09765625 .20426433 .11621094 .1570638 .14941406 .12451172 C .1829427 .092285159 .22949219 .076171878 .2890625 .076171878 C .32356773 .076171878 .3569336 .08040365 .38916017 .08886719 C .42171226 .09733073 .4539388 .11002604 .48583985 .12695313 L .48583985 .041992189 C .45361329 .028320313 .4205729 .017903647 .38671876 .0107421879 C .3528646 .0035807293 .31852214 0 .2836914 0 C .19645183 0 .12727864 .025390625 .076171878 .076171878 C .025390625 .12695313 0 .19563802 0 .28222657 C 0 .37174479 .024088541 .44270835 .072265628 .4951172 C .12076823 .54785159 .18603516 .57421877 .2680664 .57421877 C .34163413 .57421877 .3997396 .55045577 .4423828 .5029297 C .48535157 .45572917 .50683596 .3914388 .50683596 .3100586 M .4169922 .33642579 C .41634117 .38557945 .4025065 .4248047 .37548829 .45410157 C .34879557 .48339845 .3133138 .49804688 .26904298 .49804688 C .21891277 .49804688 .17871094 .48388673 .1484375 .4555664 C .118489589 .4272461 .10123698 .38736979 .09667969 .3359375 L .4169922 .33642579 Z "/>
</symbol>
<symbol id="font_1_7">
<path d="M 0 0 Z "/>
</symbol>
<use xlink:href="#font_1_3" transform="matrix(27.777777,0,0,-27.777777,782.7262,2198.0557)"/>
<use xlink:href="#font_1_4" transform="matrix(27.777777,0,0,-27.777777,797.22378,2198.449)"/>
<use xlink:href="#font_1_5" transform="matrix(27.777777,0,0,-27.777777,814.0326,2203.8338)"/>
<use xlink:href="#font_1_6" transform="matrix(27.777777,0,0,-27.777777,831.7826,2198.449)"/>
<use xlink:href="#font_1_7" transform="matrix(27.777777,0,0,-27.777777,847.1944,2198.0557)"/>
<symbol id="font_1_1">
<path d="M .014160156 .08300781 L .17529297 .08300781 L .17529297 .63916018 L 0 .6040039 L 0 .69384768 L .1743164 .7290039 L .27294923 .7290039 L .27294923 .08300781 L .43408204 .08300781 L .43408204 0 L .014160156 0 L .014160156 .08300781 Z "/>
</symbol>
<use xlink:href="#font_1_1" transform="matrix(27.777777,0,0,-27.777777,859.16287,2198.0557)"/>
</g>
<path transform="matrix(2.7777777,0,0,-2.7777777,0,2338.889)" d="M 253.8 529.4 L 312.2 529.4 L 312.2 551.9 L 253.8 551.9 Z " fill="#c0c0c0" fill-rule="evenodd"/>
<path transform="matrix(2.7777777,0,0,-2.7777777,0,2338.889)" d="M 234.3 506.9 L 331.6 506.9 L 331.6 529.4 L 234.3 529.4 Z " fill="#c0c0c0" fill-rule="evenodd"/>
<path transform="matrix(2.7777777,0,0,-2.7777777,0,2338.889)" d="M 195.4 484.4 L 253.79999 484.4 L 253.79999 506.9 L 195.4 506.9 Z " fill="#c0c0c0" fill-rule="evenodd"/>
<path transform="matrix(2.7777777,0,0,-2.7777777,0,2338.889)" d="M 312.1 484.4 L 370.5 484.4 L 370.5 506.9 L 312.1 506.9 Z " fill="#c0c0c0" fill-rule="evenodd"/>
<path transform="matrix(2.7777777,0,0,-2.7777777,0,2338.889)" d="M 176 462 L 234.4 462 L 234.4 484.5 L 176 484.5 Z " fill="#c0c0c0" fill-rule="evenodd"/>
<path transform="matrix(2.7777777,0,0,-2.7777777,0,2338.889)" d="M 331.5 462 L 389.9 462 L 389.9 484.5 L 331.5 484.5 Z " fill="#c0c0c0" fill-rule="evenodd"/>
<path transform="matrix(2.7777777,0,0,-2.7777777,0,2338.889)" d="M 137.1 439.5 L 253.8 439.5 L 253.8 462 L 137.1 462 Z " fill="#c0c0c0" fill-rule="evenodd"/>
<path transform="matrix(2.7777777,0,0,-2.7777777,0,2338.889)" d="M 312.1 439.5 L 428.8 439.5 L 428.8 462 L 312.1 462 Z " fill="#c0c0c0" fill-rule="evenodd"/>
<path transform="matrix(2.7777777,0,0,-2.7777777,0,2338.889)" d="M 117.6 417 L 273.2 417 L 273.2 439.5 L 117.6 439.5 Z " fill="#c0c0c0" fill-rule="evenodd"/>
<path transform="matrix(2.7777777,0,0,-2.7777777,0,2338.889)" d="M 292.6 417 L 448.2 417 L 448.2 439.5 L 292.6 439.5 Z " fill="#c0c0c0" fill-rule="evenodd"/>
<path transform="matrix(2.7777777,0,0,-2.7777777,0,2338.889)" d="M 117.6 394.5 L 195.4 394.5 L 195.4 417 L 117.6 417 Z " fill="#c0c0c0" fill-rule="evenodd"/>
<path transform="matrix(2.7777777,0,0,-2.7777777,0,2338.889)" d="M 253.8 394.5 L 312.2 394.5 L 312.2 417 L 253.8 417 Z " fill="#c0c0c0" fill-rule="evenodd"/>
<path transform="matrix(2.7777777,0,0,-2.7777777,0,2338.889)" d="M 370.4 394.5 L 448.2 394.5 L 448.2 417 L 370.4 417 Z " fill="#c0c0c0" fill-rule="evenodd"/>
<path transform="matrix(2.7777777,0,0,-2.7777777,0,2338.889)" d="M 117.6 372 L 176 372 L 176 394.5 L 117.6 394.5 Z " fill="#c0c0c0" fill-rule="evenodd"/>
<path transform="matrix(2.7777777,0,0,-2.7777777,0,2338.889)" d="M 273.2 372 L 292.7 372 L 292.7 394.5 L 273.2 394.5 Z " fill="#c0c0c0" fill-rule="evenodd"/>
<path transform="matrix(2.7777777,0,0,-2.7777777,0,2338.889)" d="M 389.9 372 L 448.3 372 L 448.3 394.5 L 389.9 394.5 Z " fill="#c0c0c0" fill-rule="evenodd"/>
<path transform="matrix(2.7777777,0,0,-2.7777777,0,2338.889)" d="M 117.6 349.6 L 195.4 349.6 L 195.4 372.1 L 117.6 372.1 Z " fill="#c0c0c0" fill-rule="evenodd"/>
<path transform="matrix(2.7777777,0,0,-2.7777777,0,2338.889)" d="M 253.8 349.6 L 312.2 349.6 L 312.2 372.1 L 253.8 372.1 Z " fill="#c0c0c0" fill-rule="evenodd"/>
<path transform="matrix(2.7777777,0,0,-2.7777777,0,2338.889)" d="M 370.4 349.6 L 448.2 349.6 L 448.2 372.1 L 370.4 372.1 Z " fill="#c0c0c0" fill-rule="evenodd"/>
<path transform="matrix(2.7777777,0,0,-2.7777777,0,2338.889)" d="M 117.6 327.1 L 214.9 327.1 L 214.9 349.6 L 117.6 349.6 Z " fill="#c0c0c0" fill-rule="evenodd"/>
<path transform="matrix(2.7777777,0,0,-2.7777777,0,2338.889)" d="M 234.3 327.1 L 331.6 327.1 L 331.6 349.6 L 234.3 349.6 Z " fill="#c0c0c0" fill-rule="evenodd"/>
<path transform="matrix(2.7777777,0,0,-2.7777777,0,2338.889)" d="M 351 327.1 L 448.3 327.1 L 448.3 349.6 L 351 349.6 Z " fill="#c0c0c0" fill-rule="evenodd"/>
<path transform="matrix(2.7777777,0,0,-2.7777777,0,2338.889)" d="M 117.6 304.6 L 137.1 304.6 L 137.1 327.1 L 117.6 327.1 Z " fill="#c0c0c0" fill-rule="evenodd"/>
<path transform="matrix(2.7777777,0,0,-2.7777777,0,2338.889)" d="M 195.4 304.6 L 214.9 304.6 L 214.9 327.1 L 195.4 327.1 Z " fill="#c0c0c0" fill-rule="evenodd"/>
<path transform="matrix(2.7777777,0,0,-2.7777777,0,2338.889)" d="M 234.3 304.6 L 253.8 304.6 L 253.8 327.1 L 234.3 327.1 Z " fill="#c0c0c0" fill-rule="evenodd"/>
<path transform="matrix(2.7777777,0,0,-2.7777777,0,2338.889)" d="M 312.1 304.6 L 331.6 304.6 L 331.6 327.1 L 312.1 327.1 Z " fill="#c0c0c0" fill-rule="evenodd"/>
<path transform="matrix(2.7777777,0,0,-2.7777777,0,2338.889)" d="M 351 304.6 L 370.5 304.6 L 370.5 327.1 L 351 327.1 Z " fill="#c0c0c0" fill-rule="evenodd"/>
<path transform="matrix(2.7777777,0,0,-2.7777777,0,2338.889)" d="M 428.8 304.6 L 448.3 304.6 L 448.3 327.1 L 428.8 327.1 Z " fill="#c0c0c0" fill-rule="evenodd"/>
<path transform="matrix(2.7777777,0,0,-2.7777777,0,2338.889)" d="M 253.3 552.3 L 253.8 551.8 L 254.4 551.3 L 311.7 551.3 L 312.2 551.8 L 312.7 552.3 L 253.3 552.3 Z " fill-rule="evenodd"/>
<path transform="matrix(2.7777777,0,0,-2.7777777,0,2338.889)" d="M 233.9 529.8 L 234.4 529.3 L 234.9 528.8 L 253.3 528.8 L 253.8 529.3 L 253.3 529.8 L 233.9 529.8 Z " fill-rule="evenodd"/>
<path transform="matrix(2.7777777,0,0,-2.7777777,0,2338.889)" d="M 312.7 529.8 L 312.2 529.3 L 312.7 528.8 L 331.1 528.8 L 331.6 529.3 L 332.1 529.8 L 312.7 529.8 Z " fill-rule="evenodd"/>
<path transform="matrix(2.7777777,0,0,-2.7777777,0,2338.889)" d="M 195 507.4 L 195.5 506.9 L 196 506.3 L 233.9 506.3 L 234.4 506.9 L 233.9 507.4 L 195 507.4 Z " fill-rule="evenodd"/>
<path transform="matrix(2.7777777,0,0,-2.7777777,0,2338.889)" d="M 254.4 507.4 L 253.8 506.9 L 254.4 506.3 L 311.7 506.3 L 312.2 506.9 L 311.7 507.4 L 254.4 507.4 Z " fill-rule="evenodd"/>
<path transform="matrix(2.7777777,0,0,-2.7777777,0,2338.889)" d="M 332.1 507.4 L 331.6 506.9 L 332.1 506.3 L 370 506.3 L 370.5 506.9 L 371 507.4 L 332.1 507.4 Z " fill-rule="evenodd"/>
<path transform="matrix(2.7777777,0,0,-2.7777777,0,2338.889)" d="M 175.5 484.9 L 176.1 484.4 L 176.6 483.9 L 195 483.9 L 195.5 484.4 L 195 484.9 L 175.5 484.9 Z " fill-rule="evenodd"/>
<path transform="matrix(2.7777777,0,0,-2.7777777,0,2338.889)" d="M 234.9 484.9 L 234.4 484.4 L 234.9 483.9 L 254.4 483.9 L 253.8 484.4 L 253.3 484.9 L 234.9 484.9 Z " fill-rule="evenodd"/>
<path transform="matrix(2.7777777,0,0,-2.7777777,0,2338.889)" d="M 312.7 484.9 L 312.2 484.4 L 311.7 483.9 L 331.1 483.9 L 331.6 484.4 L 331.1 484.9 L 312.7 484.9 Z " fill-rule="evenodd"/>
<path transform="matrix(2.7777777,0,0,-2.7777777,0,2338.889)" d="M 371 484.9 L 370.5 484.4 L 371 483.9 L 389.5 483.9 L 390 484.4 L 390.5 484.9 L 371 484.9 Z " fill-rule="evenodd"/>
<path transform="matrix(2.7777777,0,0,-2.7777777,0,2338.889)" d="M 136.7 462.4 L 137.2 461.9 L 137.7 461.4 L 175.5 461.4 L 176.1 461.9 L 175.5 462.4 L 136.7 462.4 Z " fill-rule="evenodd"/>
<path transform="matrix(2.7777777,0,0,-2.7777777,0,2338.889)" d="M 234.9 462.4 L 234.4 461.9 L 233.9 461.4 L 253.3 461.4 L 253.8 461.9 L 254.4 462.4 L 234.9 462.4 Z " fill-rule="evenodd"/>
<path transform="matrix(2.7777777,0,0,-2.7777777,0,2338.889)" d="M 311.7 462.4 L 312.2 461.9 L 312.7 461.4 L 332.1 461.4 L 331.6 461.9 L 331.1 462.4 L 311.7 462.4 Z " fill-rule="evenodd"/>
<path transform="matrix(2.7777777,0,0,-2.7777777,0,2338.889)" d="M 390.5 462.4 L 390 461.9 L 390.5 461.4 L 428.3 461.4 L 428.9 461.9 L 429.4 462.4 L 390.5 462.4 Z " fill-rule="evenodd"/>
<path transform="matrix(2.7777777,0,0,-2.7777777,0,2338.889)" d="M 117.2 439.9 L 117.7 439.4 L 118.2 438.9 L 136.7 438.9 L 137.2 439.4 L 136.7 439.9 L 117.2 439.9 Z " fill-rule="evenodd"/>
<path transform="matrix(2.7777777,0,0,-2.7777777,0,2338.889)" d="M 254.4 439.9 L 253.8 439.4 L 254.4 438.9 L 272.8 438.9 L 273.3 439.4 L 273.8 439.9 L 254.4 439.9 Z " fill-rule="evenodd"/>
<path transform="matrix(2.7777777,0,0,-2.7777777,0,2338.889)" d="M 292.2 439.9 L 292.7 439.4 L 293.2 438.9 L 311.7 438.9 L 312.2 439.4 L 311.7 439.9 L 292.2 439.9 Z " fill-rule="evenodd"/>
<path transform="matrix(2.7777777,0,0,-2.7777777,0,2338.889)" d="M 429.4 439.9 L 428.9 439.4 L 429.4 438.9 L 447.8 438.9 L 448.3 439.4 L 448.8 439.9 L 429.4 439.9 Z " fill-rule="evenodd"/>
<path transform="matrix(2.7777777,0,0,-2.7777777,0,2338.889)" d="M 53.9 417.5 L 53.9 416.9 L 53.9 416.4 L 117.2 416.4 L 117.7 416.9 L 117.2 417.5 L 53.9 417.5 Z " fill-rule="evenodd"/>
<path transform="matrix(2.7777777,0,0,-2.7777777,0,2338.889)" d="M 196 417.5 L 195.5 416.9 L 196 416.4 L 253.3 416.4 L 253.8 416.9 L 253.3 417.5 L 196 417.5 Z " fill-rule="evenodd"/>
<path transform="matrix(2.7777777,0,0,-2.7777777,0,2338.889)" d="M 273.8 417.5 L 273.3 416.9 L 273.8 416.4 L 292.2 416.4 L 292.7 416.9 L 292.2 417.5 L 273.8 417.5 Z " fill-rule="evenodd"/>
<path transform="matrix(2.7777777,0,0,-2.7777777,0,2338.889)" d="M 312.7 417.5 L 312.2 416.9 L 312.7 416.4 L 370 416.4 L 370.5 416.9 L 370 417.5 L 312.7 417.5 Z " fill-rule="evenodd"/>
<path transform="matrix(2.7777777,0,0,-2.7777777,0,2338.889)" d="M 448.8 417.5 L 448.3 416.9 L 448.8 416.4 L 512.1 416.4 L 512.1 416.9 L 512.1 417.5 L 448.8 417.5 Z " fill-rule="evenodd"/>
<path transform="matrix(2.7777777,0,0,-2.7777777,0,2338.889)" d="M 176.6 395 L 176.1 394.5 L 176.6 394 L 196 394 L 195.5 394.5 L 195 395 L 176.6 395 Z " fill-rule="evenodd"/>
<path transform="matrix(2.7777777,0,0,-2.7777777,0,2338.889)" d="M 254.4 395 L 253.8 394.5 L 253.3 394 L 272.8 394 L 273.3 394.5 L 272.8 395 L 254.4 395 Z " fill-rule="evenodd"/>
<path transform="matrix(2.7777777,0,0,-2.7777777,0,2338.889)" d="M 293.2 395 L 292.7 394.5 L 293.2 394 L 312.7 394 L 312.2 394.5 L 311.7 395 L 293.2 395 Z " fill-rule="evenodd"/>
<path transform="matrix(2.7777777,0,0,-2.7777777,0,2338.889)" d="M 371 395 L 370.5 394.5 L 370 394 L 389.5 394 L 390 394.5 L 389.5 395 L 371 395 Z " fill-rule="evenodd"/>
<path transform="matrix(2.7777777,0,0,-2.7777777,0,2338.889)" d="M 176.6 372.5 L 176.1 372 L 175.5 371.5 L 195 371.5 L 195.5 372 L 196 372.5 L 176.6 372.5 Z " fill-rule="evenodd"/>
<path transform="matrix(2.7777777,0,0,-2.7777777,0,2338.889)" d="M 253.3 372.5 L 253.8 372 L 254.4 371.5 L 273.8 371.5 L 273.3 372 L 272.8 372.5 L 253.3 372.5 Z " fill-rule="evenodd"/>
<path transform="matrix(2.7777777,0,0,-2.7777777,0,2338.889)" d="M 293.2 372.5 L 292.7 372 L 292.2 371.5 L 311.7 371.5 L 312.2 372 L 312.7 372.5 L 293.2 372.5 Z " fill-rule="evenodd"/>
<path transform="matrix(2.7777777,0,0,-2.7777777,0,2338.889)" d="M 370 372.5 L 370.5 372 L 371 371.5 L 390.5 371.5 L 390 372 L 389.5 372.5 L 370 372.5 Z " fill-rule="evenodd"/>
<path transform="matrix(2.7777777,0,0,-2.7777777,0,2338.889)" d="M 196 350 L 195.5 349.5 L 196 349 L 214.4 349 L 215 349.5 L 215.5 350 L 196 350 Z " fill-rule="evenodd"/>
<path transform="matrix(2.7777777,0,0,-2.7777777,0,2338.889)" d="M 233.9 350 L 234.4 349.5 L 234.9 349 L 253.3 349 L 253.8 349.5 L 253.3 350 L 233.9 350 Z " fill-rule="evenodd"/>
<path transform="matrix(2.7777777,0,0,-2.7777777,0,2338.889)" d="M 312.7 350 L 312.2 349.5 L 312.7 349 L 331.1 349 L 331.6 349.5 L 332.1 350 L 312.7 350 Z " fill-rule="evenodd"/>
<path transform="matrix(2.7777777,0,0,-2.7777777,0,2338.889)" d="M 350.6 350 L 351.1 349.5 L 351.6 349 L 370 349 L 370.5 349.5 L 370 350 L 350.6 350 Z " fill-rule="evenodd"/>
<path transform="matrix(2.7777777,0,0,-2.7777777,0,2338.889)" d="M 137.7 327.5 L 137.2 327 L 137.7 326.5 L 195 326.5 L 195.5 327 L 195 327.5 L 137.7 327.5 Z " fill-rule="evenodd"/>
<path transform="matrix(2.7777777,0,0,-2.7777777,0,2338.889)" d="M 215.5 327.5 L 215 327 L 215.5 326.5 L 233.9 326.5 L 234.4 327 L 233.9 327.5 L 215.5 327.5 Z " fill-rule="evenodd"/>
<path transform="matrix(2.7777777,0,0,-2.7777777,0,2338.889)" d="M 254.4 327.5 L 253.8 327 L 254.4 326.5 L 311.7 326.5 L 312.2 327 L 311.7 327.5 L 254.4 327.5 Z " fill-rule="evenodd"/>
<path transform="matrix(2.7777777,0,0,-2.7777777,0,2338.889)" d="M 332.1 327.5 L 331.6 327 L 332.1 326.5 L 350.6 326.5 L 351.1 327 L 350.6 327.5 L 332.1 327.5 Z " fill-rule="evenodd"/>
<path transform="matrix(2.7777777,0,0,-2.7777777,0,2338.889)" d="M 371 327.5 L 370.5 327 L 371 326.5 L 428.3 326.5 L 428.9 327 L 428.3 327.5 L 371 327.5 Z " fill-rule="evenodd"/>
<path transform="matrix(2.7777777,0,0,-2.7777777,0,2338.889)" d="M 118.2 305.1 L 117.7 304.6 L 118.2 304 L 137.7 304 L 137.2 304.6 L 136.7 305.1 L 118.2 305.1 Z " fill-rule="evenodd"/>
<path transform="matrix(2.7777777,0,0,-2.7777777,0,2338.889)" d="M 196 305.1 L 195.5 304.6 L 195 304 L 214.4 304 L 215 304.6 L 214.4 305.1 L 196 305.1 Z " fill-rule="evenodd"/>
<path transform="matrix(2.7777777,0,0,-2.7777777,0,2338.889)" d="M 234.9 305.1 L 234.4 304.6 L 234.9 304 L 254.4 304 L 253.8 304.6 L 253.3 305.1 L 234.9 305.1 Z " fill-rule="evenodd"/>
<path transform="matrix(2.7777777,0,0,-2.7777777,0,2338.889)" d="M 312.7 305.1 L 312.2 304.6 L 311.7 304 L 331.1 304 L 331.6 304.6 L 331.1 305.1 L 312.7 305.1 Z " fill-rule="evenodd"/>
<path transform="matrix(2.7777777,0,0,-2.7777777,0,2338.889)" d="M 351.6 305.1 L 351.1 304.6 L 351.6 304 L 371 304 L 370.5 304.6 L 370 305.1 L 351.6 305.1 Z " fill-rule="evenodd"/>
<path transform="matrix(2.7777777,0,0,-2.7777777,0,2338.889)" d="M 429.4 305.1 L 428.9 304.6 L 428.3 304 L 447.8 304 L 448.3 304.6 L 447.8 305.1 L 429.4 305.1 Z " fill-rule="evenodd"/>
<path transform="matrix(2.7777777,0,0,-2.7777777,0,2338.889)" d="M 118.2 282.6 L 117.7 282.1 L 117.2 281.6 L 215.5 281.6 L 215 282.1 L 214.4 282.6 L 118.2 282.6 Z " fill-rule="evenodd"/>
<path transform="matrix(2.7777777,0,0,-2.7777777,0,2338.889)" d="M 234.9 282.6 L 234.4 282.1 L 233.9 281.6 L 332.1 281.6 L 331.6 282.1 L 331.1 282.6 L 234.9 282.6 Z " fill-rule="evenodd"/>
<path transform="matrix(2.7777777,0,0,-2.7777777,0,2338.889)" d="M 351.6 282.6 L 351.1 282.1 L 350.6 281.6 L 448.8 281.6 L 448.3 282.1 L 447.8 282.6 L 351.6 282.6 Z " fill-rule="evenodd"/>
<path transform="matrix(2.7777777,0,0,-2.7777777,0,2338.889)" d="M 117.2 281.6 L 117.7 282.1 L 118.2 282.6 L 118.2 438.9 L 117.7 439.4 L 117.2 439.9 L 117.2 281.6 Z " fill-rule="evenodd"/>
<path transform="matrix(2.7777777,0,0,-2.7777777,0,2338.889)" d="M 136.7 305.1 L 137.2 304.6 L 137.7 304 L 137.7 461.4 L 137.2 461.9 L 136.7 462.4 L 136.7 305.1 Z " fill-rule="evenodd"/>
<path transform="matrix(2.7777777,0,0,-2.7777777,0,2338.889)" d="M 175.5 371.5 L 176.1 372 L 176.6 372.5 L 176.6 483.9 L 176.1 484.4 L 175.5 484.9 L 175.5 371.5 Z " fill-rule="evenodd"/>
<path transform="matrix(2.7777777,0,0,-2.7777777,0,2338.889)" d="M 195 395 L 195.5 394.5 L 196 394 L 196 506.3 L 195.5 506.9 L 195 507.4 L 195 395 Z " fill-rule="evenodd"/>
<path transform="matrix(2.7777777,0,0,-2.7777777,0,2338.889)" d="M 195 304 L 195.5 304.6 L 196 305.1 L 196 372.5 L 195.5 372 L 195 371.5 L 195 304 Z " fill-rule="evenodd"/>
<path transform="matrix(2.7777777,0,0,-2.7777777,0,2338.889)" d="M 214.4 282.6 L 215 282.1 L 215.5 281.6 L 215.5 350 L 215 349.5 L 214.4 349 L 214.4 282.6 Z " fill-rule="evenodd"/>
<path transform="matrix(2.7777777,0,0,-2.7777777,0,2338.889)" d="M 233.9 461.4 L 234.4 461.9 L 234.9 462.4 L 234.9 528.8 L 234.4 529.3 L 233.9 529.8 L 233.9 461.4 Z " fill-rule="evenodd"/>
<path transform="matrix(2.7777777,0,0,-2.7777777,0,2338.889)" d="M 233.9 281.6 L 234.4 282.1 L 234.9 282.6 L 234.9 349 L 234.4 349.5 L 233.9 350 L 233.9 281.6 Z " fill-rule="evenodd"/>
<path transform="matrix(2.7777777,0,0,-2.7777777,0,2338.889)" d="M 253.3 484.9 L 253.8 484.4 L 254.4 483.9 L 254.4 551.3 L 253.8 551.8 L 253.3 552.3 L 253.3 484.9 Z " fill-rule="evenodd"/>
<path transform="matrix(2.7777777,0,0,-2.7777777,0,2338.889)" d="M 253.3 394 L 253.8 394.5 L 254.4 395 L 254.4 462.4 L 253.8 461.9 L 253.3 461.4 L 253.3 394 Z " fill-rule="evenodd"/>
<path transform="matrix(2.7777777,0,0,-2.7777777,0,2338.889)" d="M 253.3 305.1 L 253.8 304.6 L 254.4 304 L 254.4 371.5 L 253.8 372 L 253.3 372.5 L 253.3 305.1 Z " fill-rule="evenodd"/>
<path transform="matrix(2.7777777,0,0,-2.7777777,0,2338.889)" d="M 272.8 372.5 L 273.3 372 L 273.8 371.5 L 273.8 439.9 L 273.3 439.4 L 272.8 438.9 L 272.8 372.5 Z " fill-rule="evenodd"/>
<path transform="matrix(2.7777777,0,0,-2.7777777,0,2338.889)" d="M 292.2 371.5 L 292.7 372 L 293.2 372.5 L 293.2 438.9 L 292.7 439.4 L 292.2 439.9 L 292.2 371.5 Z " fill-rule="evenodd"/>
<path transform="matrix(2.7777777,0,0,-2.7777777,0,2338.889)" d="M 311.7 483.9 L 312.2 484.4 L 312.7 484.9 L 312.7 552.3 L 312.2 551.8 L 311.7 551.3 L 311.7 483.9 Z " fill-rule="evenodd"/>
<path transform="matrix(2.7777777,0,0,-2.7777777,0,2338.889)" d="M 311.7 395 L 312.2 394.5 L 312.7 394 L 312.7 461.4 L 312.2 461.9 L 311.7 462.4 L 311.7 395 Z " fill-rule="evenodd"/>
<path transform="matrix(2.7777777,0,0,-2.7777777,0,2338.889)" d="M 311.7 304 L 312.2 304.6 L 312.7 305.1 L 312.7 372.5 L 312.2 372 L 311.7 371.5 L 311.7 304 Z " fill-rule="evenodd"/>
<path transform="matrix(2.7777777,0,0,-2.7777777,0,2338.889)" d="M 331.1 462.4 L 331.6 461.9 L 332.1 461.4 L 332.1 529.8 L 331.6 529.3 L 331.1 528.8 L 331.1 462.4 Z " fill-rule="evenodd"/>
<path transform="matrix(2.7777777,0,0,-2.7777777,0,2338.889)" d="M 331.1 282.6 L 331.6 282.1 L 332.1 281.6 L 332.1 350 L 331.6 349.5 L 331.1 349 L 331.1 282.6 Z " fill-rule="evenodd"/>
<path transform="matrix(2.7777777,0,0,-2.7777777,0,2338.889)" d="M 350.6 281.6 L 351.1 282.1 L 351.6 282.6 L 351.6 349 L 351.1 349.5 L 350.6 350 L 350.6 281.6 Z " fill-rule="evenodd"/>
<path transform="matrix(2.7777777,0,0,-2.7777777,0,2338.889)" d="M 370 394 L 370.5 394.5 L 371 395 L 371 507.4 L 370.5 506.9 L 370 506.3 L 370 394 Z " fill-rule="evenodd"/>
<path transform="matrix(2.7777777,0,0,-2.7777777,0,2338.889)" d="M 370 305.1 L 370.5 304.6 L 371 304 L 371 371.5 L 370.5 372 L 370 372.5 L 370 305.1 Z " fill-rule="evenodd"/>
<path transform="matrix(2.7777777,0,0,-2.7777777,0,2338.889)" d="M 389.5 372.5 L 390 372 L 390.5 371.5 L 390.5 484.9 L 390 484.4 L 389.5 483.9 L 389.5 372.5 Z " fill-rule="evenodd"/>
<path transform="matrix(2.7777777,0,0,-2.7777777,0,2338.889)" d="M 428.3 304 L 428.9 304.6 L 429.4 305.1 L 429.4 462.4 L 428.9 461.9 L 428.3 461.4 L 428.3 304 Z " fill-rule="evenodd"/>
<path transform="matrix(2.7777777,0,0,-2.7777777,0,2338.889)" d="M 447.8 282.6 L 448.3 282.1 L 448.8 281.6 L 448.8 439.9 L 448.3 439.4 L 447.8 438.9 L 447.8 282.6 Z " fill-rule="evenodd"/>
<g opacity=".5">
</g>
</g>
</g>
</svg>
