<?xml version="1.0" encoding="UTF-8" standalone="no"?>
<svg
   version="1.1"
   width="1652.7777pt"
   height="2338.889pt"
   viewBox="0 0 1652.7777 2338.889"
   id="svg187"
   sodipodi:docname="1.svg"
   inkscape:version="1.2.2 (b0a8486541, 2022-12-01)"
   xmlns:inkscape="http://www.inkscape.org/namespaces/inkscape"
   xmlns:sodipodi="http://sodipodi.sourceforge.net/DTD/sodipodi-0.dtd"
   xmlns="http://www.w3.org/2000/svg"
   xmlns:svg="http://www.w3.org/2000/svg">
  <defs
     id="defs191" />
  <sodipodi:namedview
     id="namedview189"
     pagecolor="#ffffff"
     bordercolor="#000000"
     borderopacity="0.25"
     inkscape:showpageshadow="2"
     inkscape:pageopacity="0.0"
     inkscape:pagecheckerboard="0"
     inkscape:deskcolor="#d1d1d1"
     inkscape:document-units="pt"
     showgrid="false"
     inkscape:zoom="0.74673416"
     inkscape:cx="980.26854"
     inkscape:cy="1455.0024"
     inkscape:window-width="1854"
     inkscape:window-height="1011"
     inkscape:window-x="0"
     inkscape:window-y="0"
     inkscape:window-maximized="1"
     inkscape:current-layer="svg187" />
  <g
     id="g183">
    <clipPath
       id="cp0">
      <path
         transform="matrix(2.7777777,0,0,-2.7777777,0,2338.889)"
         d="m 54,770 h 487.2 v 36 H 54 Z"
         fill-rule="evenodd"
         id="path2" />
    </clipPath>
    <g
       clip-path="url(#cp0)"
       id="g15">
      <symbol
         id="font_1_1">
        <path
           d="M 0.01416016,0.08300781 H 0.17529297 V 0.63916018 L 0,0.6040039 V 0.6938477 L 0.1743164,0.7290039 H 0.2729492 V 0.08300781 H 0.43408204 V 0 H 0.01416016 Z"
           id="path5" />
      </symbol>
      <symbol
         id="font_1_2">
        <path
           d="M 0.32910157,0.6430664 0.08007813,0.25390626 H 0.32910157 V 0.6430664 M 0.30322267,0.7290039 H 0.4272461 V 0.25390626 H 0.53125 V 0.171875 H 0.4272461 V 0 H 0.32910157 V 0.171875 H 0 v 0.0952149 z"
           id="path8" />
      </symbol>
      <g
         id="use11"
         transform="matrix(27.777777,0,0,-27.777777,812.2184,159.72241)">
        <path
           d="M 0.01416016,0.08300781 H 0.17529297 V 0.63916018 L 0,0.6040039 V 0.6938477 L 0.1743164,0.7290039 H 0.2729492 V 0.08300781 H 0.43408204 V 0 H 0.01416016 Z"
           id="path474" />
      </g>
      <g
         id="use13"
         transform="matrix(27.777777,0,0,-27.777777,828.0229,159.72241)">
        <path
           d="M 0.32910157,0.6430664 0.08007813,0.25390626 H 0.32910157 V 0.6430664 M 0.30322267,0.7290039 H 0.4272461 V 0.25390626 H 0.53125 V 0.171875 H 0.4272461 V 0 H 0.32910157 V 0.171875 H 0 v 0.0952149 z"
           id="path478" />
      </g>
    </g>
    <clipPath
       id="cp2">
      <path
         transform="matrix(2.7777777,0,0,-2.7777777,0,2338.889)"
         d="m 54,36.2 h 487.2 v 36 H 54 Z"
         fill-rule="evenodd"
         id="path17" />
    </clipPath>
    <g
       clip-path="url(#cp2)"
       id="g47">
      <symbol
         id="font_1_3">
        <path
           d="M 0.09863281,0.6479492 V 0.37402345 h 0.12402344 c 0.0458984,0 0.0813802,0.0118815 0.10644532,0.0356445 0.0250651,0.023763 0.0375977,0.0576172 0.0375977,0.10156251 0,0.0436198 -0.0125326,0.0773112 -0.0375977,0.10107421 -0.0250651,0.023763 -0.0605469,0.0356445 -0.10644532,0.0356445 H 0.09863281 M 0,0.7290039 h 0.22265625 c 0.0817057,0 0.14339195,-0.0185547 0.1850586,-0.055664 0.0419922,-0.0367839 0.0629883,-0.0908203 0.0629883,-0.16210938 0,-0.0719401 -0.0209961,-0.1263021 -0.0629883,-0.16308595 C 0.3660482,0.3113607 0.30436198,0.29296876 0.22265625,0.29296876 H 0.09863281 V 0 H 0 Z"
           id="path20" />
      </symbol>
      <symbol
         id="font_1_4">
        <path
           d="m 0.28271485,0.2890625 c -0.0725912,0 -0.12288411,-0.008301 -0.15087891,-0.0249023 -0.0279948,-0.0166016 -0.04199219,-0.0449219 -0.04199219,-0.084961 0,-0.031901 0.01041667,-0.0572917 0.03125,-0.0761719 0.0211589,-0.01855469 0.0498047,-0.02783204 0.0859375,-0.02783204 0.0498047,0 0.089681,0.01757813 0.11962892,0.05273438 0.0302734,0.0354818 0.0454101,0.0825195 0.0454101,0.14111329 v 0.0200195 h -0.0893555 m 0.17919922,0.0371094 V 0.01416016 H 0.3720703 V 0.09716797 C 0.3515625,0.06396485 0.32600913,0.03938802 0.29541017,0.0234375 0.2648112,0.0078125 0.2273763,0 0.18310547,0 0.12711589,0 0.08251953,0.015625 0.04931641,0.046875 0.0164388,0.07845052 0,0.12060547 0,0.17333985 0,0.23486328 0.02050781,0.28125 0.06152344,0.3125 0.10286459,0.34375 0.16438802,0.359375 0.24609375,0.359375 H 0.3720703 v 0.008789 c 0,0.0413412 -0.0136719,0.0732422 -0.0410156,0.0957031 -0.0270182,0.0227865 -0.0651042,0.0341797 -0.11425782,0.0341797 -0.03125,0 -0.0616862,-0.003743 -0.0913086,-0.0112305 C 0.09586588,0.47932945 0.06738281,0.46809898 0.04003906,0.453125 v 0.0830078 c 0.03287761,0.0126953 0.06477865,0.0221355 0.09570313,0.0283203 0.0309245,0.00651 0.0610352,0.009766 0.090332,0.009766 0.0791016,0 0.13818358,-0.0205078 0.17724608,-0.0615235 0.0390625,-0.0410156 0.0585938,-0.10319007 0.0585937,-0.18652377 z"
           id="path23" />
      </symbol>
      <symbol
         id="font_1_5">
        <path
           d="m 0.39892579,0.48779298 c 0,0.0651042 -0.0135091,0.11555989 -0.0405273,0.1513672 -0.0266927,0.0358073 -0.0642904,0.0537109 -0.11279298,0.0537109 -0.0481771,0 -0.0857747,-0.0179036 -0.11279297,-0.0537109 -0.0266927,-0.0358073 -0.04003906,-0.086263 -0.04003906,-0.1513672 0,-0.0647787 0.01334635,-0.11507163 0.04003906,-0.15087891 0.0270182,-0.0358073 0.0646159,-0.0537109 0.11279297,-0.0537109 0.0485026,0 0.0861003,0.0179037 0.11279298,0.0537109 0.0270182,0.0358073 0.0405273,0.0861002 0.0405273,0.15087891 M 0.48876954,0.2758789 c 0,-0.0930989 -0.0206706,-0.16227213 -0.0620117,-0.20751952 C 0.38541667,0.02278646 0.32210288,0 0.2368164,0 0.20524089,0 0.17545574,0.00244141 0.14746094,0.00732422 0.11946615,0.01188151 0.09228516,0.01904297 0.06591797,0.02880859 v 0.08740235 c 0.02636719,-0.0143229 0.05240885,-0.02490234 0.078125,-0.03173828 0.0257161,-0.0068359 0.0519206,-0.01025391 0.0786133,-0.01025391 0.0589193,0 0.10302735,0.01546224 0.13232423,0.04638672 0.0292969,0.0305989 0.0439453,0.0769857 0.0439453,0.13916016 v 0.0444336 C 0.3803711,0.27197267 0.35660807,0.24788411 0.32763673,0.2319336 0.29866538,0.21598308 0.2639974,0.20800781 0.22363281,0.20800781 c -0.0670573,0 -0.12109375,0.0255534 -0.16210937,0.0766602 C 0.02050781,0.33577476 0,0.40348307 0,0.48779298 0,0.5724284 0.02050781,0.6402995 0.06152344,0.69140627 0.10253906,0.742513 0.15657552,0.7680664 0.22363281,0.7680664 c 0.0403646,0 0.0750326,-0.007975 0.10400392,-0.0239258 0.0289713,-0.0159505 0.0527344,-0.040039 0.0712891,-0.0722656 v 0.0830078 h 0.0898438 z"
           id="path26" />
      </symbol>
      <symbol
         id="font_1_6">
        <path
           d="M 0.50683596,0.3100586 V 0.26611329 H 0.09375 C 0.09765625,0.20426433 0.11621094,0.1570638 0.14941406,0.12451172 0.1829427,0.09228516 0.22949219,0.07617188 0.2890625,0.07617188 c 0.0345052,0 0.0678711,0.0042318 0.10009767,0.01269531 0.0325521,0.0084635 0.0647786,0.02115885 0.0966797,0.03808594 V 0.04199219 C 0.45361329,0.02832031 0.4205729,0.01790365 0.38671876,0.01074219 0.3528646,0.00358073 0.31852214,0 0.2836914,0 0.19645183,0 0.12727864,0.02539063 0.07617188,0.07617188 0.02539063,0.12695313 0,0.19563802 0,0.28222657 c 0,0.0895182 0.02408854,0.16048178 0.07226563,0.21289063 0.0485026,0.0527344 0.11376953,0.0791016 0.19580077,0.0791016 0.0735677,0 0.1316732,-0.023763 0.1743164,-0.0712891 C 0.4853516,0.4557292 0.506836,0.3914388 0.506836,0.3100586 M 0.4169922,0.3364258 c -6.5103e-4,0.0491537 -0.0144857,0.0883789 -0.0415039,0.11767578 -0.0266927,0.0292969 -0.0621745,0.0439453 -0.10644531,0.0439453 -0.0501302,0 -0.090332,-0.0141602 -0.12060548,-0.0424805 C 0.11848959,0.4272461 0.10123698,0.38736979 0.09667969,0.3359375 Z"
           id="path29" />
      </symbol>
      <symbol
         id="font_1_7">
        <path
           d="M 0,0 Z"
           id="path32" />
      </symbol>
      <g
         id="use35"
         transform="matrix(27.777777,0,0,-27.777777,782.7262,2198.0557)">
        <path
           d="M 0.09863281,0.6479492 V 0.37402345 h 0.12402344 c 0.0458984,0 0.0813802,0.0118815 0.10644532,0.0356445 0.0250651,0.023763 0.0375977,0.0576172 0.0375977,0.10156251 0,0.0436198 -0.0125326,0.0773112 -0.0375977,0.10107421 -0.0250651,0.023763 -0.0605469,0.0356445 -0.10644532,0.0356445 H 0.09863281 M 0,0.7290039 h 0.22265625 c 0.0817057,0 0.14339195,-0.0185547 0.1850586,-0.055664 0.0419922,-0.0367839 0.0629883,-0.0908203 0.0629883,-0.16210938 0,-0.0719401 -0.0209961,-0.1263021 -0.0629883,-0.16308595 C 0.3660482,0.3113607 0.30436198,0.29296876 0.22265625,0.29296876 H 0.09863281 V 0 H 0 Z"
           id="path482" />
      </g>
      <g
         id="use37"
         transform="matrix(27.777777,0,0,-27.777777,797.22378,2198.449)">
        <path
           d="m 0.28271485,0.2890625 c -0.0725912,0 -0.12288411,-0.008301 -0.15087891,-0.0249023 -0.0279948,-0.0166016 -0.04199219,-0.0449219 -0.04199219,-0.084961 0,-0.031901 0.01041667,-0.0572917 0.03125,-0.0761719 0.0211589,-0.01855469 0.0498047,-0.02783204 0.0859375,-0.02783204 0.0498047,0 0.089681,0.01757813 0.11962892,0.05273438 0.0302734,0.0354818 0.0454101,0.0825195 0.0454101,0.14111329 v 0.0200195 h -0.0893555 m 0.17919922,0.0371094 V 0.01416016 H 0.3720703 V 0.09716797 C 0.3515625,0.06396485 0.32600913,0.03938802 0.29541017,0.0234375 0.2648112,0.0078125 0.2273763,0 0.18310547,0 0.12711589,0 0.08251953,0.015625 0.04931641,0.046875 0.0164388,0.07845052 0,0.12060547 0,0.17333985 0,0.23486328 0.02050781,0.28125 0.06152344,0.3125 0.10286459,0.34375 0.16438802,0.359375 0.24609375,0.359375 H 0.3720703 v 0.008789 c 0,0.0413412 -0.0136719,0.0732422 -0.0410156,0.0957031 -0.0270182,0.0227865 -0.0651042,0.0341797 -0.11425782,0.0341797 -0.03125,0 -0.0616862,-0.003743 -0.0913086,-0.0112305 C 0.09586588,0.47932945 0.06738281,0.46809898 0.04003906,0.453125 v 0.0830078 c 0.03287761,0.0126953 0.06477865,0.0221355 0.09570313,0.0283203 0.0309245,0.00651 0.0610352,0.009766 0.090332,0.009766 0.0791016,0 0.13818358,-0.0205078 0.17724608,-0.0615235 0.0390625,-0.0410156 0.0585938,-0.10319007 0.0585937,-0.18652377 z"
           id="path486" />
      </g>
      <g
         id="use39"
         transform="matrix(27.777777,0,0,-27.777777,814.0326,2203.8338)">
        <path
           d="m 0.39892579,0.48779298 c 0,0.0651042 -0.0135091,0.11555989 -0.0405273,0.1513672 -0.0266927,0.0358073 -0.0642904,0.0537109 -0.11279298,0.0537109 -0.0481771,0 -0.0857747,-0.0179036 -0.11279297,-0.0537109 -0.0266927,-0.0358073 -0.04003906,-0.086263 -0.04003906,-0.1513672 0,-0.0647787 0.01334635,-0.11507163 0.04003906,-0.15087891 0.0270182,-0.0358073 0.0646159,-0.0537109 0.11279297,-0.0537109 0.0485026,0 0.0861003,0.0179037 0.11279298,0.0537109 0.0270182,0.0358073 0.0405273,0.0861002 0.0405273,0.15087891 M 0.48876954,0.2758789 c 0,-0.0930989 -0.0206706,-0.16227213 -0.0620117,-0.20751952 C 0.38541667,0.02278646 0.32210288,0 0.2368164,0 0.20524089,0 0.17545574,0.00244141 0.14746094,0.00732422 0.11946615,0.01188151 0.09228516,0.01904297 0.06591797,0.02880859 v 0.08740235 c 0.02636719,-0.0143229 0.05240885,-0.02490234 0.078125,-0.03173828 0.0257161,-0.0068359 0.0519206,-0.01025391 0.0786133,-0.01025391 0.0589193,0 0.10302735,0.01546224 0.13232423,0.04638672 0.0292969,0.0305989 0.0439453,0.0769857 0.0439453,0.13916016 v 0.0444336 C 0.3803711,0.27197267 0.35660807,0.24788411 0.32763673,0.2319336 0.29866538,0.21598308 0.2639974,0.20800781 0.22363281,0.20800781 c -0.0670573,0 -0.12109375,0.0255534 -0.16210937,0.0766602 C 0.02050781,0.33577476 0,0.40348307 0,0.48779298 0,0.5724284 0.02050781,0.6402995 0.06152344,0.69140627 0.10253906,0.742513 0.15657552,0.7680664 0.22363281,0.7680664 c 0.0403646,0 0.0750326,-0.007975 0.10400392,-0.0239258 0.0289713,-0.0159505 0.0527344,-0.040039 0.0712891,-0.0722656 v 0.0830078 h 0.0898438 z"
           id="path490" />
      </g>
      <g
         id="use41"
         transform="matrix(27.777777,0,0,-27.777777,831.7826,2198.449)">
        <path
           d="M 0.50683596,0.3100586 V 0.26611329 H 0.09375 C 0.09765625,0.20426433 0.11621094,0.1570638 0.14941406,0.12451172 0.1829427,0.09228516 0.22949219,0.07617188 0.2890625,0.07617188 c 0.0345052,0 0.0678711,0.0042318 0.10009767,0.01269531 0.0325521,0.0084635 0.0647786,0.02115885 0.0966797,0.03808594 V 0.04199219 C 0.45361329,0.02832031 0.4205729,0.01790365 0.38671876,0.01074219 0.3528646,0.00358073 0.31852214,0 0.2836914,0 0.19645183,0 0.12727864,0.02539063 0.07617188,0.07617188 0.02539063,0.12695313 0,0.19563802 0,0.28222657 c 0,0.0895182 0.02408854,0.16048178 0.07226563,0.21289063 0.0485026,0.0527344 0.11376953,0.0791016 0.19580077,0.0791016 0.0735677,0 0.1316732,-0.023763 0.1743164,-0.0712891 C 0.4853516,0.4557292 0.506836,0.3914388 0.506836,0.3100586 M 0.4169922,0.3364258 c -6.5103e-4,0.0491537 -0.0144857,0.0883789 -0.0415039,0.11767578 -0.0266927,0.0292969 -0.0621745,0.0439453 -0.10644531,0.0439453 -0.0501302,0 -0.090332,-0.0141602 -0.12060548,-0.0424805 C 0.11848959,0.4272461 0.10123698,0.38736979 0.09667969,0.3359375 Z"
           id="path494" />
      </g>
      <g
         id="use43"
         transform="matrix(27.777777,0,0,-27.777777,847.1944,2198.0557)">
        <path
           d="M 0,0 Z"
           id="path498" />
      </g>
      <g
         id="use45"
         transform="matrix(27.777777,0,0,-27.777777,859.16287,2198.0557)">
        <path
           d="M 0.01416016,0.08300781 H 0.17529297 V 0.63916018 L 0,0.6040039 V 0.6938477 L 0.1743164,0.7290039 H 0.2729492 V 0.08300781 H 0.43408204 V 0 H 0.01416016 Z"
           id="path502" />
      </g>
    </g>
    <path
       transform="matrix(2.7777777,0,0,-2.7777777,0,2338.889)"
       d="m 157.2,433.4 h 21.7 v 16.5 h -21.7 z"
       fill="#c0c0c0"
       fill-rule="evenodd"
       id="path49" />
    <path
       transform="matrix(2.7777777,0,0,-2.7777777,0,2338.889)"
       d="M 287.3,433.4 H 309 v 16.5 h -21.7 z"
       fill="#c0c0c0"
       fill-rule="evenodd"
       id="path51" />
    <path
       transform="matrix(2.7777777,0,0,-2.7777777,0,2338.889)"
       d="m 417.4,433.4 h 21.7 v 16.5 h -21.7 z"
       fill="#c0c0c0"
       fill-rule="evenodd"
       id="path53" />
    <path
       transform="matrix(2.7777777,0,0,-2.7777777,0,2338.889)"
       d="m 157.2,416.9 h 43.4 v 16.5 h -43.4 z"
       fill="#c0c0c0"
       fill-rule="evenodd"
       id="path55" />
    <path
       transform="matrix(2.7777777,0,0,-2.7777777,0,2338.889)"
       d="m 287.3,416.9 h 43.39999 v 16.5 H 287.3 Z"
       fill="#c0c0c0"
       fill-rule="evenodd"
       id="path57" />
    <path
       transform="matrix(2.7777777,0,0,-2.7777777,0,2338.889)"
       d="m 417.4,416.9 h 21.7 v 16.5 h -21.7 z"
       fill="#c0c0c0"
       fill-rule="evenodd"
       id="path59" />
    <path
       transform="matrix(2.7777777,0,0,-2.7777777,0,2338.889)"
       d="m 135.5,400.4 h 86.8 v 16.5 h -86.8 z"
       fill="#c0c0c0"
       fill-rule="evenodd"
       id="path61" />
    <path
       transform="matrix(2.7777777,0,0,-2.7777777,0,2338.889)"
       d="m 265.6,400.4 h 86.80003 v 16.5 H 265.6 Z"
       fill="#c0c0c0"
       fill-rule="evenodd"
       id="path63" />
    <path
       transform="matrix(2.7777777,0,0,-2.7777777,0,2338.889)"
       d="m 395.7,400.4 h 43.4 v 16.5 h -43.4 z"
       fill="#c0c0c0"
       fill-rule="evenodd"
       id="path65" />
    <path
       transform="matrix(2.7777777,0,0,-2.7777777,0,2338.889)"
       d="m 135.5,383.9 h 21.7 v 16.5 h -21.7 z"
       fill="#c0c0c0"
       fill-rule="evenodd"
       id="path67" />
    <path
       transform="matrix(2.7777777,0,0,-2.7777777,0,2338.889)"
       d="M 178.9,383.9 H 244 v 16.5 h -65.1 z"
       fill="#c0c0c0"
       fill-rule="evenodd"
       id="path69" />
    <path
       transform="matrix(2.7777777,0,0,-2.7777777,0,2338.889)"
       d="m 265.6,383.9 h 21.70003 v 16.5 H 265.6 Z"
       fill="#c0c0c0"
       fill-rule="evenodd"
       id="path71" />
    <path
       transform="matrix(2.7777777,0,0,-2.7777777,0,2338.889)"
       d="m 309,383.9 h 65.1 v 16.5 H 309 Z"
       fill="#c0c0c0"
       fill-rule="evenodd"
       id="path73" />
    <path
       transform="matrix(2.7777777,0,0,-2.7777777,0,2338.889)"
       d="m 395.7,383.9 h 21.70003 v 16.5 H 395.7 Z"
       fill="#c0c0c0"
       fill-rule="evenodd"
       id="path75" />
    <path
       transform="matrix(2.7777777,0,0,-2.7777777,0,2338.889)"
       d="m 113.8,367.4 h 21.7 v 16.5 h -21.7 z"
       fill="#c0c0c0"
       fill-rule="evenodd"
       id="path77" />
    <path
       transform="matrix(2.7777777,0,0,-2.7777777,0,2338.889)"
       d="m 200.6,367.4 h 65.1 v 16.5 h -65.1 z"
       fill="#c0c0c0"
       fill-rule="evenodd"
       id="path79" />
    <path
       transform="matrix(2.7777777,0,0,-2.7777777,0,2338.889)"
       d="m 330.7,367.4 h 65.10003 v 16.5 H 330.7 Z"
       fill="#c0c0c0"
       fill-rule="evenodd"
       id="path81" />
    <path
       transform="matrix(2.7777777,0,0,-2.7777777,0,2338.889)"
       d="m 156.8,466.8 0.5,-0.5 0.5,-0.5 h 64 l 0.5,0.5 0.6,0.5 z"
       fill-rule="evenodd"
       id="path83" />
    <path
       transform="matrix(2.7777777,0,0,-2.7777777,0,2338.889)"
       d="m 286.9,466.8 0.5,-0.5 0.5,-0.5 h 64 l 0.6,0.5 0.5,0.5 z"
       fill-rule="evenodd"
       id="path85" />
    <path
       transform="matrix(2.7777777,0,0,-2.7777777,0,2338.889)"
       d="m 417,466.8 0.5,-0.5 0.5,-0.5 h 20.7 l 0.5,0.5 0.5,0.5 z"
       fill-rule="evenodd"
       id="path87" />
    <path
       transform="matrix(2.7777777,0,0,-2.7777777,0,2338.889)"
       d="m 135.1,450.3 0.5,-0.5 0.5,-0.5 h 42.4 l 0.5,0.5 0.5,0.5 z"
       fill-rule="evenodd"
       id="path89" />
    <path
       transform="matrix(2.7777777,0,0,-2.7777777,0,2338.889)"
       d="m 222.9,450.3 -0.6,-0.5 0.6,-0.5 h 20.6 l 0.5,0.5 0.5,0.5 z"
       fill-rule="evenodd"
       id="path91" />
    <path
       transform="matrix(2.7777777,0,0,-2.7777777,0,2338.889)"
       d="m 265.2,450.3 0.5,-0.5 0.5,-0.5 h 42.4 l 0.5,0.5 0.5,0.5 z"
       fill-rule="evenodd"
       id="path93" />
    <path
       transform="matrix(2.7777777,0,0,-2.7777777,0,2338.889)"
       d="m 353,450.3 -0.5,-0.5 0.5,-0.5 h 20.6 l 0.5,0.5 0.6,0.5 z"
       fill-rule="evenodd"
       id="path95" />
    <path
       transform="matrix(2.7777777,0,0,-2.7777777,0,2338.889)"
       d="m 395.3,450.3 0.5,-0.5 0.5,-0.5 h 42.4 l 0.5,0.5 -0.5,0.5 z"
       fill-rule="evenodd"
       id="path97" />
    <path
       transform="matrix(2.7777777,0,0,-2.7777777,0,2338.889)"
       d="m 113.4,433.8 0.5,-0.5 0.5,-0.5 h 20.7 l 0.5,0.5 -0.5,0.5 z"
       fill-rule="evenodd"
       id="path99" />
    <path
       transform="matrix(2.7777777,0,0,-2.7777777,0,2338.889)"
       d="m 179.5,433.8 -0.5,-0.5 0.5,-0.5 h 20.7 l 0.5,0.5 0.5,0.5 z"
       fill-rule="evenodd"
       id="path101" />
    <path
       transform="matrix(2.7777777,0,0,-2.7777777,0,2338.889)"
       d="m 244.5,433.8 -0.5,-0.5 0.5,-0.5 h 20.7 l 0.5,0.5 -0.5,0.5 z"
       fill-rule="evenodd"
       id="path103" />
    <path
       transform="matrix(2.7777777,0,0,-2.7777777,0,2338.889)"
       d="m 309.6,433.8 -0.5,-0.5 0.5,-0.5 h 20.7 l 0.5,0.5 0.5,0.5 z"
       fill-rule="evenodd"
       id="path105" />
    <path
       transform="matrix(2.7777777,0,0,-2.7777777,0,2338.889)"
       d="m 374.7,433.8 -0.6,-0.5 0.6,-0.5 h 20.6 l 0.5,0.5 -0.5,0.5 z"
       fill-rule="evenodd"
       id="path107" />
    <path
       transform="matrix(2.7777777,0,0,-2.7777777,0,2338.889)"
       d="m 53.9,417.3 v -0.5 -0.5 h 59.5 l 0.5,0.5 -0.5,0.5 z"
       fill-rule="evenodd"
       id="path109" />
    <path
       transform="matrix(2.7777777,0,0,-2.7777777,0,2338.889)"
       d="m 136.1,417.3 -0.5,-0.5 0.5,-0.5 h 20.7 l 0.5,0.5 -0.5,0.5 z"
       fill-rule="evenodd"
       id="path111" />
    <path
       transform="matrix(2.7777777,0,0,-2.7777777,0,2338.889)"
       d="m 201.2,417.3 -0.5,-0.5 0.5,-0.5 h 20.6 l 0.5,0.5 -0.5,0.5 z"
       fill-rule="evenodd"
       id="path113" />
    <path
       transform="matrix(2.7777777,0,0,-2.7777777,0,2338.889)"
       d="m 266.2,417.3 -0.5,-0.5 0.5,-0.5 h 20.7 l 0.5,0.5 -0.5,0.5 z"
       fill-rule="evenodd"
       id="path115" />
    <path
       transform="matrix(2.7777777,0,0,-2.7777777,0,2338.889)"
       d="m 331.3,417.3 -0.5,-0.5 0.5,-0.5 h 20.6 l 0.6,0.5 -0.6,0.5 z"
       fill-rule="evenodd"
       id="path117" />
    <path
       transform="matrix(2.7777777,0,0,-2.7777777,0,2338.889)"
       d="m 396.3,417.3 -0.5,-0.5 0.5,-0.5 H 417 l 0.5,0.5 -0.5,0.5 z"
       fill-rule="evenodd"
       id="path119" />
    <path
       transform="matrix(2.7777777,0,0,-2.7777777,0,2338.889)"
       d="m 439.7,417.3 -0.5,-0.5 0.5,-0.5 h 59.5 v 0.5 0.5 z"
       fill-rule="evenodd"
       id="path121" />
    <path
       transform="matrix(2.7777777,0,0,-2.7777777,0,2338.889)"
       d="m 157.8,400.8 -0.5,-0.5 0.5,-0.5 h 20.7 l 0.5,0.5 -0.5,0.5 z"
       fill-rule="evenodd"
       id="path123" />
    <path
       transform="matrix(2.7777777,0,0,-2.7777777,0,2338.889)"
       d="m 222.9,400.8 -0.6,-0.5 -0.5,-0.5 h 21.7 l 0.5,0.5 -0.5,0.5 z"
       fill-rule="evenodd"
       id="path125" />
    <path
       transform="matrix(2.7777777,0,0,-2.7777777,0,2338.889)"
       d="m 287.9,400.8 -0.5,-0.5 0.5,-0.5 h 20.7 l 0.5,0.5 -0.5,0.5 z"
       fill-rule="evenodd"
       id="path127" />
    <path
       transform="matrix(2.7777777,0,0,-2.7777777,0,2338.889)"
       d="m 353,400.8 -0.5,-0.5 -0.6,-0.5 h 21.7 l 0.5,0.5 -0.5,0.5 z"
       fill-rule="evenodd"
       id="path129" />
    <path
       transform="matrix(2.7777777,0,0,-2.7777777,0,2338.889)"
       d="m 418,400.8 -0.5,-0.5 0.5,-0.5 h 21.7 l -0.5,0.5 -0.5,0.5 z"
       fill-rule="evenodd"
       id="path131" />
    <path
       transform="matrix(2.7777777,0,0,-2.7777777,0,2338.889)"
       d="m 114.4,384.3 -0.5,-0.5 0.5,-0.5 h 43.4 l -0.5,0.5 -0.5,0.5 z"
       fill-rule="evenodd"
       id="path133" />
    <path
       transform="matrix(2.7777777,0,0,-2.7777777,0,2338.889)"
       d="m 179.5,384.3 -0.5,-0.5 -0.5,-0.5 h 21.7 l 0.5,0.5 -0.5,0.5 z"
       fill-rule="evenodd"
       id="path135" />
    <path
       transform="matrix(2.7777777,0,0,-2.7777777,0,2338.889)"
       d="m 244.5,384.3 -0.5,-0.5 -0.5,-0.5 h 44.4 l -0.5,0.5 -0.5,0.5 z"
       fill-rule="evenodd"
       id="path137" />
    <path
       transform="matrix(2.7777777,0,0,-2.7777777,0,2338.889)"
       d="m 309.6,384.3 -0.5,-0.5 -0.5,-0.5 h 21.7 l 0.5,0.5 -0.5,0.5 z"
       fill-rule="evenodd"
       id="path139" />
    <path
       transform="matrix(2.7777777,0,0,-2.7777777,0,2338.889)"
       d="m 374.7,384.3 -0.6,-0.5 -0.5,-0.5 H 418 l -0.5,0.5 -0.5,0.5 z"
       fill-rule="evenodd"
       id="path141" />
    <path
       transform="matrix(2.7777777,0,0,-2.7777777,0,2338.889)"
       d="m 114.4,367.8 -0.5,-0.5 -0.5,-0.5 h 22.7 l -0.5,0.5 -0.5,0.5 z"
       fill-rule="evenodd"
       id="path143" />
    <path
       transform="matrix(2.7777777,0,0,-2.7777777,0,2338.889)"
       d="m 201.2,367.8 -0.5,-0.5 -0.5,-0.5 h 66 l -0.5,0.5 -0.5,0.5 z"
       fill-rule="evenodd"
       id="path145" />
    <path
       transform="matrix(2.7777777,0,0,-2.7777777,0,2338.889)"
       d="m 331.3,367.8 -0.5,-0.5 -0.5,-0.5 h 66 l -0.5,0.5 -0.5,0.5 z"
       fill-rule="evenodd"
       id="path147" />
    <path
       transform="matrix(2.7777777,0,0,-2.7777777,0,2338.889)"
       d="m 113.4,366.8 0.5,0.5 0.5,0.5 v 65 l -0.5,0.5 -0.5,0.5 z"
       fill-rule="evenodd"
       id="path149" />
    <path
       transform="matrix(2.7777777,0,0,-2.7777777,0,2338.889)"
       d="m 135.1,367.8 0.5,-0.5 0.5,-0.5 v 82.5 l -0.5,0.5 -0.5,0.5 z"
       fill-rule="evenodd"
       id="path151" />
    <path
       transform="matrix(2.7777777,0,0,-2.7777777,0,2338.889)"
       d="m 156.8,384.3 0.5,-0.5 0.5,-0.5 v 82.5 l -0.5,0.5 -0.5,0.5 z"
       fill-rule="evenodd"
       id="path153" />
    <path
       transform="matrix(2.7777777,0,0,-2.7777777,0,2338.889)"
       d="m 178.5,383.3 0.5,0.5 0.5,0.5 v 66 l -0.5,-0.5 -0.5,-0.5 z"
       fill-rule="evenodd"
       id="path155" />
    <path
       transform="matrix(2.7777777,0,0,-2.7777777,0,2338.889)"
       d="m 200.2,366.8 0.5,0.5 0.5,0.5 v 66 l -0.5,-0.5 -0.5,-0.5 z"
       fill-rule="evenodd"
       id="path157" />
    <path
       transform="matrix(2.7777777,0,0,-2.7777777,0,2338.889)"
       d="m 221.8,399.8 0.5,0.5 0.6,0.5 v 66 l -0.6,-0.5 -0.5,-0.5 z"
       fill-rule="evenodd"
       id="path159" />
    <path
       transform="matrix(2.7777777,0,0,-2.7777777,0,2338.889)"
       d="m 243.5,383.3 0.5,0.5 0.5,0.5 v 66 l -0.5,-0.5 -0.5,-0.5 z"
       fill-rule="evenodd"
       id="path161" />
    <path
       transform="matrix(2.7777777,0,0,-2.7777777,0,2338.889)"
       d="m 265.2,367.8 0.5,-0.5 0.5,-0.5 v 82.5 l -0.5,0.5 -0.5,0.5 z"
       fill-rule="evenodd"
       id="path163" />
    <path
       transform="matrix(2.7777777,0,0,-2.7777777,0,2338.889)"
       d="m 286.9,384.3 0.5,-0.5 0.5,-0.5 v 82.5 l -0.5,0.5 -0.5,0.5 z"
       fill-rule="evenodd"
       id="path165" />
    <path
       transform="matrix(2.7777777,0,0,-2.7777777,0,2338.889)"
       d="m 308.6,383.3 0.5,0.5 0.5,0.5 v 66 l -0.5,-0.5 -0.5,-0.5 z"
       fill-rule="evenodd"
       id="path167" />
    <path
       transform="matrix(2.7777777,0,0,-2.7777777,0,2338.889)"
       d="m 330.3,366.8 0.5,0.5 0.5,0.5 v 66 l -0.5,-0.5 -0.5,-0.5 z"
       fill-rule="evenodd"
       id="path169" />
    <path
       transform="matrix(2.7777777,0,0,-2.7777777,0,2338.889)"
       d="m 351.9,399.8 0.6,0.5 0.5,0.5 v 66 l -0.5,-0.5 -0.6,-0.5 z"
       fill-rule="evenodd"
       id="path171" />
    <path
       transform="matrix(2.7777777,0,0,-2.7777777,0,2338.889)"
       d="m 373.6,383.3 0.5,0.5 0.6,0.5 v 66 l -0.6,-0.5 -0.5,-0.5 z"
       fill-rule="evenodd"
       id="path173" />
    <path
       transform="matrix(2.7777777,0,0,-2.7777777,0,2338.889)"
       d="m 395.3,367.8 0.5,-0.5 0.5,-0.5 v 82.5 l -0.5,0.5 -0.5,0.5 z"
       fill-rule="evenodd"
       id="path175" />
    <path
       transform="matrix(2.7777777,0,0,-2.7777777,0,2338.889)"
       d="m 417,384.3 0.5,-0.5 0.5,-0.5 v 82.5 l -0.5,0.5 -0.5,0.5 z"
       fill-rule="evenodd"
       id="path177" />
    <path
       transform="matrix(2.7777777,0,0,-2.7777777,0,2338.889)"
       d="m 438.7,400.8 0.5,-0.5 0.5,-0.5 v 67 l -0.5,-0.5 -0.5,-0.5 z"
       fill-rule="evenodd"
       id="path179" />
    <g
       opacity="0.5"
       id="g181" />
  </g>
</svg>
