<?xml version="1.0" encoding="UTF-8" standalone="no"?>
<!DOCTYPE svg PUBLIC "-//W3C//DTD SVG 1.1//EN" "http://www.w3.org/Graphics/SVG/1.1/DTD/svg11.dtd">
<svg xmlns="http://www.w3.org/2000/svg" xmlns:xlink="http://www.w3.org/1999/xlink" version="1.1" width="1652.7777pt" height="2338.889pt" viewBox="0 0 1652.7777 2338.889">
<g enable-background="new">
<g>
<clipPath id="cp0">
<path transform="matrix(2.7777777,0,0,-2.7777777,0,2338.889)" d="M 54 770 L 541.2 770 L 541.2 806 L 54 806 Z " fill-rule="evenodd"/>
</clipPath>
<g clip-path="url(#cp0)">
<symbol id="font_1_f">
<path d="M .030761719 .74316409 L .41796876 .74316409 L .41796876 .66015627 L .12109375 .66015627 L .12109375 .4814453 C .13541667 .48632813 .14973958 .48990885 .1640625 .4921875 C .17838542 .49479167 .19270833 .49609376 .20703125 .49609376 C .28841148 .49609376 .3528646 .47379557 .40039063 .42919923 C .44791667 .38460288 .4716797 .32421876 .4716797 .24804688 C .4716797 .16959636 .44726563 .108561199 .3984375 .064941409 C .34960938 .021647135 .28076173 0 .19189453 0 C .16129558 0 .13004558 .0026041668 .09814453 .0078125 C .06656901 .013020833 .033854169 .020833334 0 .03125 L 0 .1303711 C .029296875 .11442057 .059570314 .10253906 .09082031 .09472656 C .12207031 .08691406 .15511067 .08300781 .1899414 .08300781 C .24625652 .08300781 .29085288 .09781901 .32373048 .1274414 C .35660807 .1570638 .37304688 .19726563 .37304688 .24804688 C .37304688 .29882813 .35660807 .33902995 .32373048 .36865235 C .29085288 .39827476 .24625652 .41308595 .1899414 .41308595 C .16357422 .41308595 .13720703 .41015626 .110839847 .40429688 C .08479818 .3984375 .05810547 .3893229 .030761719 .37695313 L .030761719 .74316409 Z "/>
</symbol>
<use xlink:href="#font_1_f" transform="matrix(27.777777,0,0,-27.777777,820.19857,160.11576)"/>
</g>
<clipPath id="cp2">
<path transform="matrix(2.7777777,0,0,-2.7777777,0,2338.889)" d="M 54 36.2 L 541.2 36.2 L 541.2 72.2 L 54 72.2 Z " fill-rule="evenodd"/>
</clipPath>
<g clip-path="url(#cp2)">
<symbol id="font_1_3">
<path d="M .09863281 .6479492 L .09863281 .37402345 L .22265625 .37402345 C .2685547 .37402345 .30403648 .38590495 .32910157 .40966798 C .35416667 .433431 .36669923 .46728517 .36669923 .51123049 C .36669923 .5548503 .35416667 .5885417 .32910157 .6123047 C .30403648 .6360677 .2685547 .6479492 .22265625 .6479492 L .09863281 .6479492 M 0 .7290039 L .22265625 .7290039 C .30436198 .7290039 .3660482 .7104492 .40771485 .67333987 C .44970704 .63655599 .47070313 .58251956 .47070313 .51123049 C .47070313 .43929038 .44970704 .38492839 .40771485 .34814454 C .3660482 .3113607 .30436198 .29296876 .22265625 .29296876 L .09863281 .29296876 L .09863281 0 L 0 0 L 0 .7290039 Z "/>
</symbol>
<symbol id="font_1_4">
<path d="M .28271485 .2890625 C .2101237 .2890625 .15983074 .28076173 .13183594 .26416017 C .10384115 .2475586 .08984375 .21923828 .08984375 .17919922 C .08984375 .14729817 .100260417 .121907558 .12109375 .103027347 C .14225261 .084472659 .17089844 .07519531 .20703125 .07519531 C .25683595 .07519531 .29671226 .09277344 .32666017 .12792969 C .3569336 .16341146 .3720703 .21044922 .3720703 .26904298 L .3720703 .2890625 L .28271485 .2890625 M .46191407 .32617188 L .46191407 .014160156 L .3720703 .014160156 L .3720703 .09716797 C .3515625 .063964847 .32600913 .03938802 .29541017 .0234375 C .2648112 .0078125 .2273763 0 .18310547 0 C .12711589 0 .08251953 .015625 .049316408 .046875 C .016438803 .07845052 0 .12060547 0 .17333985 C 0 .23486328 .020507813 .28125 .061523439 .3125 C .102864589 .34375 .16438802 .359375 .24609375 .359375 L .3720703 .359375 L .3720703 .36816407 C .3720703 .40950523 .35839845 .44140626 .3310547 .4638672 C .30403648 .48665367 .26595054 .49804688 .21679688 .49804688 C .18554688 .49804688 .15511067 .49430339 .12548828 .4868164 C .09586588 .47932945 .06738281 .46809898 .040039064 .453125 L .040039064 .5361328 C .072916667 .5488281 .10481771 .55826827 .13574219 .5644531 C .16666667 .57096359 .19677735 .57421877 .22607422 .57421877 C .30517579 .57421877 .3642578 .55371096 .4033203 .5126953 C .4423828 .4716797 .46191407 .40950523 .46191407 .32617188 Z "/>
</symbol>
<symbol id="font_1_5">
<path d="M .39892579 .48779298 C .39892579 .55289718 .38541667 .60335287 .35839845 .63916018 C .33170573 .67496749 .29410807 .6928711 .24560547 .6928711 C .19742839 .6928711 .15983074 .67496749 .1328125 .63916018 C .10611979 .60335287 .09277344 .55289718 .09277344 .48779298 C .09277344 .4230143 .10611979 .37272135 .1328125 .33691407 C .15983074 .30110679 .19742839 .28320313 .24560547 .28320313 C .29410807 .28320313 .33170573 .30110679 .35839845 .33691407 C .38541667 .37272135 .39892579 .4230143 .39892579 .48779298 M .48876954 .2758789 C .48876954 .18277996 .46809898 .11360677 .4267578 .068359378 C .38541667 .022786459 .32210288 0 .2368164 0 C .20524089 0 .17545574 .0024414063 .14746094 .0073242189 C .11946615 .011881511 .092285159 .019042969 .06591797 .028808594 L .06591797 .11621094 C .092285159 .10188802 .11832682 .091308597 .14404297 .084472659 C .16975911 .07763672 .19596355 .07421875 .22265625 .07421875 C .28157554 .07421875 .3256836 .08968099 .35498048 .12060547 C .38427735 .15120442 .39892579 .19759114 .39892579 .25976563 L .39892579 .30419923 C .3803711 .27197267 .35660807 .24788411 .32763673 .2319336 C .29866538 .21598308 .2639974 .20800781 .22363281 .20800781 C .15657552 .20800781 .10253906 .2335612 .061523439 .28466798 C .020507813 .33577476 0 .40348307 0 .48779298 C 0 .5724284 .020507813 .6402995 .061523439 .69140627 C .10253906 .742513 .15657552 .7680664 .22363281 .7680664 C .2639974 .7680664 .29866538 .7600911 .32763673 .7441406 C .35660807 .7281901 .3803711 .70410159 .39892579 .671875 L .39892579 .7548828 L .48876954 .7548828 L .48876954 .2758789 Z "/>
</symbol>
<symbol id="font_1_6">
<path d="M .50683596 .3100586 L .50683596 .26611329 L .09375 .26611329 C .09765625 .20426433 .11621094 .1570638 .14941406 .12451172 C .1829427 .092285159 .22949219 .076171878 .2890625 .076171878 C .32356773 .076171878 .3569336 .08040365 .38916017 .08886719 C .42171226 .09733073 .4539388 .11002604 .48583985 .12695313 L .48583985 .041992189 C .45361329 .028320313 .4205729 .017903647 .38671876 .0107421879 C .3528646 .0035807293 .31852214 0 .2836914 0 C .19645183 0 .12727864 .025390625 .076171878 .076171878 C .025390625 .12695313 0 .19563802 0 .28222657 C 0 .37174479 .024088541 .44270835 .072265628 .4951172 C .12076823 .54785159 .18603516 .57421877 .2680664 .57421877 C .34163413 .57421877 .3997396 .55045577 .4423828 .5029297 C .48535157 .45572917 .50683596 .3914388 .50683596 .3100586 M .4169922 .33642579 C .41634117 .38557945 .4025065 .4248047 .37548829 .45410157 C .34879557 .48339845 .3133138 .49804688 .26904298 .49804688 C .21891277 .49804688 .17871094 .48388673 .1484375 .4555664 C .118489589 .4272461 .10123698 .38736979 .09667969 .3359375 L .4169922 .33642579 Z "/>
</symbol>
<symbol id="font_1_7">
<path d="M 0 0 Z "/>
</symbol>
<use xlink:href="#font_1_3" transform="matrix(27.777777,0,0,-27.777777,782.7262,2198.0557)"/>
<use xlink:href="#font_1_4" transform="matrix(27.777777,0,0,-27.777777,797.22378,2198.449)"/>
<use xlink:href="#font_1_5" transform="matrix(27.777777,0,0,-27.777777,814.0326,2203.8338)"/>
<use xlink:href="#font_1_6" transform="matrix(27.777777,0,0,-27.777777,831.7826,2198.449)"/>
<use xlink:href="#font_1_7" transform="matrix(27.777777,0,0,-27.777777,847.1944,2198.0557)"/>
<symbol id="font_1_1">
<path d="M .014160156 .08300781 L .17529297 .08300781 L .17529297 .63916018 L 0 .6040039 L 0 .69384768 L .1743164 .7290039 L .27294923 .7290039 L .27294923 .08300781 L .43408204 .08300781 L .43408204 0 L .014160156 0 L .014160156 .08300781 Z "/>
</symbol>
<use xlink:href="#font_1_1" transform="matrix(27.777777,0,0,-27.777777,859.16287,2198.0557)"/>
</g>
<path transform="matrix(2.7777777,0,0,-2.7777777,0,2338.889)" d="M 264.1 575.9 L 285.80003 575.9 L 285.80003 598.4 L 264.1 598.4 Z " fill="#c0c0c0" fill-rule="evenodd"/>
<path transform="matrix(2.7777777,0,0,-2.7777777,0,2338.889)" d="M 242.4 553.4 L 264.1 553.4 L 264.1 575.9 L 242.4 575.9 Z " fill="#c0c0c0" fill-rule="evenodd"/>
<path transform="matrix(2.7777777,0,0,-2.7777777,0,2338.889)" d="M 285.8 553.4 L 307.5 553.4 L 307.5 575.9 L 285.8 575.9 Z " fill="#c0c0c0" fill-rule="evenodd"/>
<path transform="matrix(2.7777777,0,0,-2.7777777,0,2338.889)" d="M 220.8 531 L 329.3 531 L 329.3 553.5 L 220.8 553.5 Z " fill="#c0c0c0" fill-rule="evenodd"/>
<path transform="matrix(2.7777777,0,0,-2.7777777,0,2338.889)" d="M 199.1 508.5 L 242.5 508.5 L 242.5 531 L 199.1 531 Z " fill="#c0c0c0" fill-rule="evenodd"/>
<path transform="matrix(2.7777777,0,0,-2.7777777,0,2338.889)" d="M 307.5 508.5 L 350.9 508.5 L 350.9 531 L 307.5 531 Z " fill="#c0c0c0" fill-rule="evenodd"/>
<path transform="matrix(2.7777777,0,0,-2.7777777,0,2338.889)" d="M 177.4 486 L 372.59999 486 L 372.59999 508.5 L 177.4 508.5 Z " fill="#c0c0c0" fill-rule="evenodd"/>
<path transform="matrix(2.7777777,0,0,-2.7777777,0,2338.889)" d="M 155.7 463.5 L 220.79999 463.5 L 220.79999 486 L 155.7 486 Z " fill="#c0c0c0" fill-rule="evenodd"/>
<path transform="matrix(2.7777777,0,0,-2.7777777,0,2338.889)" d="M 329.2 463.5 L 394.30003 463.5 L 394.30003 486 L 329.2 486 Z " fill="#c0c0c0" fill-rule="evenodd"/>
<path transform="matrix(2.7777777,0,0,-2.7777777,0,2338.889)" d="M 134 441 L 415.9 441 L 415.9 463.5 L 134 463.5 Z " fill="#c0c0c0" fill-rule="evenodd"/>
<path transform="matrix(2.7777777,0,0,-2.7777777,0,2338.889)" d="M 112.3 418.6 L 199.1 418.6 L 199.1 441.1 L 112.3 441.1 Z " fill="#c0c0c0" fill-rule="evenodd"/>
<path transform="matrix(2.7777777,0,0,-2.7777777,0,2338.889)" d="M 350.9 418.6 L 437.7 418.6 L 437.7 441.1 L 350.9 441.1 Z " fill="#c0c0c0" fill-rule="evenodd"/>
<path transform="matrix(2.7777777,0,0,-2.7777777,0,2338.889)" d="M 112.3 396.1 L 437.59999 396.1 L 437.59999 418.6 L 112.3 418.6 Z " fill="#c0c0c0" fill-rule="evenodd"/>
<path transform="matrix(2.7777777,0,0,-2.7777777,0,2338.889)" d="M 112.3 373.6 L 177.4 373.6 L 177.4 396.1 L 112.3 396.1 Z " fill="#c0c0c0" fill-rule="evenodd"/>
<path transform="matrix(2.7777777,0,0,-2.7777777,0,2338.889)" d="M 372.6 373.6 L 437.7 373.6 L 437.7 396.1 L 372.6 396.1 Z " fill="#c0c0c0" fill-rule="evenodd"/>
<path transform="matrix(2.7777777,0,0,-2.7777777,0,2338.889)" d="M 112.3 351.1 L 437.59999 351.1 L 437.59999 373.6 L 112.3 373.6 Z " fill="#c0c0c0" fill-rule="evenodd"/>
<path transform="matrix(2.7777777,0,0,-2.7777777,0,2338.889)" d="M 112.3 328.6 L 155.70001 328.6 L 155.70001 351.1 L 112.3 351.1 Z " fill="#c0c0c0" fill-rule="evenodd"/>
<path transform="matrix(2.7777777,0,0,-2.7777777,0,2338.889)" d="M 394.2 328.6 L 437.6 328.6 L 437.6 351.1 L 394.2 351.1 Z " fill="#c0c0c0" fill-rule="evenodd"/>
<path transform="matrix(2.7777777,0,0,-2.7777777,0,2338.889)" d="M 112.3 306.2 L 437.59999 306.2 L 437.59999 328.7 L 112.3 328.7 Z " fill="#c0c0c0" fill-rule="evenodd"/>
<path transform="matrix(2.7777777,0,0,-2.7777777,0,2338.889)" d="M 112.3 283.7 L 134 283.7 L 134 306.2 L 112.3 306.2 Z " fill="#c0c0c0" fill-rule="evenodd"/>
<path transform="matrix(2.7777777,0,0,-2.7777777,0,2338.889)" d="M 415.9 283.7 L 437.6 283.7 L 437.6 306.2 L 415.9 306.2 Z " fill="#c0c0c0" fill-rule="evenodd"/>
<path transform="matrix(2.7777777,0,0,-2.7777777,0,2338.889)" d="M 112.3 261.2 L 437.59999 261.2 L 437.59999 283.7 L 112.3 283.7 Z " fill="#c0c0c0" fill-rule="evenodd"/>
<path transform="matrix(2.7777777,0,0,-2.7777777,0,2338.889)" d="M 263.7 598.8 L 264.2 598.3 L 264.7 597.8 L 285.4 597.8 L 285.9 598.3 L 286.4 598.8 L 263.7 598.8 Z " fill-rule="evenodd"/>
<path transform="matrix(2.7777777,0,0,-2.7777777,0,2338.889)" d="M 242 576.4 L 242.5 575.9 L 243 575.3 L 307.1 575.3 L 307.6 575.9 L 308.1 576.4 L 242 576.4 Z " fill-rule="evenodd"/>
<path transform="matrix(2.7777777,0,0,-2.7777777,0,2338.889)" d="M 220.3 553.9 L 220.8 553.4 L 221.4 552.9 L 242 552.9 L 242.5 553.4 L 242 553.9 L 220.3 553.9 Z " fill-rule="evenodd"/>
<path transform="matrix(2.7777777,0,0,-2.7777777,0,2338.889)" d="M 264.7 553.9 L 264.2 553.4 L 263.7 552.9 L 286.4 552.9 L 285.9 553.4 L 285.4 553.9 L 264.7 553.9 Z " fill-rule="evenodd"/>
<path transform="matrix(2.7777777,0,0,-2.7777777,0,2338.889)" d="M 308.1 553.9 L 307.6 553.4 L 308.1 552.9 L 328.8 552.9 L 329.3 553.4 L 329.8 553.9 L 308.1 553.9 Z " fill-rule="evenodd"/>
<path transform="matrix(2.7777777,0,0,-2.7777777,0,2338.889)" d="M 198.7 531.4 L 199.2 530.9 L 199.7 530.4 L 220.3 530.4 L 220.8 530.9 L 220.3 531.4 L 198.7 531.4 Z " fill-rule="evenodd"/>
<path transform="matrix(2.7777777,0,0,-2.7777777,0,2338.889)" d="M 243 531.4 L 242.5 530.9 L 243 530.4 L 307.1 530.4 L 307.6 530.9 L 307.1 531.4 L 243 531.4 Z " fill-rule="evenodd"/>
<path transform="matrix(2.7777777,0,0,-2.7777777,0,2338.889)" d="M 329.8 531.4 L 329.3 530.9 L 329.8 530.4 L 350.4 530.4 L 351 530.9 L 351.5 531.4 L 329.8 531.4 Z " fill-rule="evenodd"/>
<path transform="matrix(2.7777777,0,0,-2.7777777,0,2338.889)" d="M 177 508.9 L 177.5 508.4 L 178 507.9 L 198.7 507.9 L 199.2 508.4 L 198.7 508.9 L 177 508.9 Z " fill-rule="evenodd"/>
<path transform="matrix(2.7777777,0,0,-2.7777777,0,2338.889)" d="M 243 508.9 L 242.5 508.4 L 242 507.9 L 308.1 507.9 L 307.6 508.4 L 307.1 508.9 L 243 508.9 Z " fill-rule="evenodd"/>
<path transform="matrix(2.7777777,0,0,-2.7777777,0,2338.889)" d="M 351.5 508.9 L 351 508.4 L 351.5 507.9 L 372.1 507.9 L 372.6 508.4 L 373.2 508.9 L 351.5 508.9 Z " fill-rule="evenodd"/>
<path transform="matrix(2.7777777,0,0,-2.7777777,0,2338.889)" d="M 155.3 486.5 L 155.8 485.9 L 156.3 485.4 L 177 485.4 L 177.5 485.9 L 177 486.5 L 155.3 486.5 Z " fill-rule="evenodd"/>
<path transform="matrix(2.7777777,0,0,-2.7777777,0,2338.889)" d="M 221.4 486.5 L 220.8 485.9 L 221.4 485.4 L 328.8 485.4 L 329.3 485.9 L 328.8 486.5 L 221.4 486.5 Z " fill-rule="evenodd"/>
<path transform="matrix(2.7777777,0,0,-2.7777777,0,2338.889)" d="M 373.2 486.5 L 372.6 485.9 L 373.2 485.4 L 393.8 485.4 L 394.3 485.9 L 394.8 486.5 L 373.2 486.5 Z " fill-rule="evenodd"/>
<path transform="matrix(2.7777777,0,0,-2.7777777,0,2338.889)" d="M 133.6 464 L 134.1 463.5 L 134.6 463 L 155.3 463 L 155.8 463.5 L 155.3 464 L 133.6 464 Z " fill-rule="evenodd"/>
<path transform="matrix(2.7777777,0,0,-2.7777777,0,2338.889)" d="M 221.4 464 L 220.8 463.5 L 220.3 463 L 329.8 463 L 329.3 463.5 L 328.8 464 L 221.4 464 Z " fill-rule="evenodd"/>
<path transform="matrix(2.7777777,0,0,-2.7777777,0,2338.889)" d="M 394.8 464 L 394.3 463.5 L 394.8 463 L 415.5 463 L 416 463.5 L 416.5 464 L 394.8 464 Z " fill-rule="evenodd"/>
<path transform="matrix(2.7777777,0,0,-2.7777777,0,2338.889)" d="M 111.9 441.5 L 112.4 441 L 112.9 440.5 L 133.6 440.5 L 134.1 441 L 133.6 441.5 L 111.9 441.5 Z " fill-rule="evenodd"/>
<path transform="matrix(2.7777777,0,0,-2.7777777,0,2338.889)" d="M 199.7 441.5 L 199.2 441 L 199.7 440.5 L 350.4 440.5 L 351 441 L 350.4 441.5 L 199.7 441.5 Z " fill-rule="evenodd"/>
<path transform="matrix(2.7777777,0,0,-2.7777777,0,2338.889)" d="M 416.5 441.5 L 416 441 L 416.5 440.5 L 437.2 440.5 L 437.7 441 L 438.2 441.5 L 416.5 441.5 Z " fill-rule="evenodd"/>
<path transform="matrix(2.7777777,0,0,-2.7777777,0,2338.889)" d="M 53.9 419 L 53.9 418.5 L 53.9 418 L 111.9 418 L 112.4 418.5 L 111.9 419 L 53.9 419 Z " fill-rule="evenodd"/>
<path transform="matrix(2.7777777,0,0,-2.7777777,0,2338.889)" d="M 199.7 419 L 199.2 418.5 L 198.7 418 L 351.5 418 L 351 418.5 L 350.4 419 L 199.7 419 Z " fill-rule="evenodd"/>
<path transform="matrix(2.7777777,0,0,-2.7777777,0,2338.889)" d="M 438.2 419 L 437.7 418.5 L 438.2 418 L 496.2 418 L 496.2 418.5 L 496.2 419 L 438.2 419 Z " fill-rule="evenodd"/>
<path transform="matrix(2.7777777,0,0,-2.7777777,0,2338.889)" d="M 178 396.5 L 177.5 396 L 178 395.5 L 372.1 395.5 L 372.6 396 L 372.1 396.5 L 178 396.5 Z " fill-rule="evenodd"/>
<path transform="matrix(2.7777777,0,0,-2.7777777,0,2338.889)" d="M 178 374.1 L 177.5 373.5 L 177 373 L 373.2 373 L 372.6 373.5 L 372.1 374.1 L 178 374.1 Z " fill-rule="evenodd"/>
<path transform="matrix(2.7777777,0,0,-2.7777777,0,2338.889)" d="M 156.3 351.6 L 155.8 351.1 L 156.3 350.6 L 393.8 350.6 L 394.3 351.1 L 393.8 351.6 L 156.3 351.6 Z " fill-rule="evenodd"/>
<path transform="matrix(2.7777777,0,0,-2.7777777,0,2338.889)" d="M 156.3 329.1 L 155.8 328.6 L 155.3 328.1 L 394.8 328.1 L 394.3 328.6 L 393.8 329.1 L 156.3 329.1 Z " fill-rule="evenodd"/>
<path transform="matrix(2.7777777,0,0,-2.7777777,0,2338.889)" d="M 134.6 306.6 L 134.1 306.1 L 134.6 305.6 L 415.5 305.6 L 416 306.1 L 415.5 306.6 L 134.6 306.6 Z " fill-rule="evenodd"/>
<path transform="matrix(2.7777777,0,0,-2.7777777,0,2338.889)" d="M 134.6 284.1 L 134.1 283.6 L 133.6 283.1 L 416.5 283.1 L 416 283.6 L 415.5 284.1 L 134.6 284.1 Z " fill-rule="evenodd"/>
<path transform="matrix(2.7777777,0,0,-2.7777777,0,2338.889)" d="M 112.9 261.7 L 112.4 261.2 L 112.9 260.6 L 437.2 260.6 L 437.7 261.2 L 437.2 261.7 L 112.9 261.7 Z " fill-rule="evenodd"/>
<path transform="matrix(2.7777777,0,0,-2.7777777,0,2338.889)" d="M 112.9 239.2 L 112.4 238.7 L 111.9 238.2 L 438.2 238.2 L 437.7 238.7 L 437.2 239.2 L 112.9 239.2 Z " fill-rule="evenodd"/>
<path transform="matrix(2.7777777,0,0,-2.7777777,0,2338.889)" d="M 111.9 238.2 L 112.4 238.7 L 112.9 239.2 L 112.9 440.5 L 112.4 441 L 111.9 441.5 L 111.9 238.2 Z " fill-rule="evenodd"/>
<path transform="matrix(2.7777777,0,0,-2.7777777,0,2338.889)" d="M 133.6 283.1 L 134.1 283.6 L 134.6 284.1 L 134.6 463 L 134.1 463.5 L 133.6 464 L 133.6 283.1 Z " fill-rule="evenodd"/>
<path transform="matrix(2.7777777,0,0,-2.7777777,0,2338.889)" d="M 155.3 328.1 L 155.8 328.6 L 156.3 329.1 L 156.3 485.4 L 155.8 485.9 L 155.3 486.5 L 155.3 328.1 Z " fill-rule="evenodd"/>
<path transform="matrix(2.7777777,0,0,-2.7777777,0,2338.889)" d="M 177 373 L 177.5 373.5 L 178 374.1 L 178 507.9 L 177.5 508.4 L 177 508.9 L 177 373 Z " fill-rule="evenodd"/>
<path transform="matrix(2.7777777,0,0,-2.7777777,0,2338.889)" d="M 198.7 418 L 199.2 418.5 L 199.7 419 L 199.7 530.4 L 199.2 530.9 L 198.7 531.4 L 198.7 418 Z " fill-rule="evenodd"/>
<path transform="matrix(2.7777777,0,0,-2.7777777,0,2338.889)" d="M 220.3 463 L 220.8 463.5 L 221.4 464 L 221.4 552.9 L 220.8 553.4 L 220.3 553.9 L 220.3 463 Z " fill-rule="evenodd"/>
<path transform="matrix(2.7777777,0,0,-2.7777777,0,2338.889)" d="M 242 507.9 L 242.5 508.4 L 243 508.9 L 243 575.3 L 242.5 575.9 L 242 576.4 L 242 507.9 Z " fill-rule="evenodd"/>
<path transform="matrix(2.7777777,0,0,-2.7777777,0,2338.889)" d="M 263.7 552.9 L 264.2 553.4 L 264.7 553.9 L 264.7 597.8 L 264.2 598.3 L 263.7 598.8 L 263.7 552.9 Z " fill-rule="evenodd"/>
<path transform="matrix(2.7777777,0,0,-2.7777777,0,2338.889)" d="M 285.4 553.9 L 285.9 553.4 L 286.4 552.9 L 286.4 598.8 L 285.9 598.3 L 285.4 597.8 L 285.4 553.9 Z " fill-rule="evenodd"/>
<path transform="matrix(2.7777777,0,0,-2.7777777,0,2338.889)" d="M 307.1 508.9 L 307.6 508.4 L 308.1 507.9 L 308.1 576.4 L 307.6 575.9 L 307.1 575.3 L 307.1 508.9 Z " fill-rule="evenodd"/>
<path transform="matrix(2.7777777,0,0,-2.7777777,0,2338.889)" d="M 328.8 464 L 329.3 463.5 L 329.8 463 L 329.8 553.9 L 329.3 553.4 L 328.8 552.9 L 328.8 464 Z " fill-rule="evenodd"/>
<path transform="matrix(2.7777777,0,0,-2.7777777,0,2338.889)" d="M 350.4 419 L 351 418.5 L 351.5 418 L 351.5 531.4 L 351 530.9 L 350.4 530.4 L 350.4 419 Z " fill-rule="evenodd"/>
<path transform="matrix(2.7777777,0,0,-2.7777777,0,2338.889)" d="M 372.1 374.1 L 372.6 373.5 L 373.2 373 L 373.2 508.9 L 372.6 508.4 L 372.1 507.9 L 372.1 374.1 Z " fill-rule="evenodd"/>
<path transform="matrix(2.7777777,0,0,-2.7777777,0,2338.889)" d="M 393.8 329.1 L 394.3 328.6 L 394.8 328.1 L 394.8 486.5 L 394.3 485.9 L 393.8 485.4 L 393.8 329.1 Z " fill-rule="evenodd"/>
<path transform="matrix(2.7777777,0,0,-2.7777777,0,2338.889)" d="M 415.5 284.1 L 416 283.6 L 416.5 283.1 L 416.5 464 L 416 463.5 L 415.5 463 L 415.5 284.1 Z " fill-rule="evenodd"/>
<path transform="matrix(2.7777777,0,0,-2.7777777,0,2338.889)" d="M 437.2 239.2 L 437.7 238.7 L 438.2 238.2 L 438.2 441.5 L 437.7 441 L 437.2 440.5 L 437.2 239.2 Z " fill-rule="evenodd"/>
<g opacity=".5">
</g>
</g>
</g>
</svg>
