<?xml version="1.0" encoding="UTF-8" standalone="no"?>
<!DOCTYPE svg PUBLIC "-//W3C//DTD SVG 1.1//EN" "http://www.w3.org/Graphics/SVG/1.1/DTD/svg11.dtd">
<svg xmlns="http://www.w3.org/2000/svg" xmlns:xlink="http://www.w3.org/1999/xlink" version="1.1" width="1652.7777pt" height="2338.889pt" viewBox="0 0 1652.7777 2338.889">
<g enable-background="new">
<g>
<clipPath id="cp0">
<path transform="matrix(2.7777777,0,0,-2.7777777,0,2338.889)" d="M 54 770 L 541.2 770 L 541.2 806 L 54 806 Z " fill-rule="evenodd"/>
</clipPath>
<g clip-path="url(#cp0)">
<symbol id="font_1_2">
<path d="M .32910157 .6430664 L .080078128 .25390626 L .32910157 .25390626 L .32910157 .6430664 M .30322267 .7290039 L .4272461 .7290039 L .4272461 .25390626 L .53125 .25390626 L .53125 .171875 L .4272461 .171875 L .4272461 0 L .32910157 0 L .32910157 .171875 L 0 .171875 L 0 .26708985 L .30322267 .7290039 Z "/>
</symbol>
<use xlink:href="#font_1_2" transform="matrix(27.777777,0,0,-27.777777,819.41189,159.72241)"/>
</g>
<clipPath id="cp2">
<path transform="matrix(2.7777777,0,0,-2.7777777,0,2338.889)" d="M 54 36.2 L 541.2 36.2 L 541.2 72.2 L 54 72.2 Z " fill-rule="evenodd"/>
</clipPath>
<g clip-path="url(#cp2)">
<symbol id="font_1_3">
<path d="M .09863281 .6479492 L .09863281 .37402345 L .22265625 .37402345 C .2685547 .37402345 .30403648 .38590495 .32910157 .40966798 C .35416667 .433431 .36669923 .46728517 .36669923 .51123049 C .36669923 .5548503 .35416667 .5885417 .32910157 .6123047 C .30403648 .6360677 .2685547 .6479492 .22265625 .6479492 L .09863281 .6479492 M 0 .7290039 L .22265625 .7290039 C .30436198 .7290039 .3660482 .7104492 .40771485 .67333987 C .44970704 .63655599 .47070313 .58251956 .47070313 .51123049 C .47070313 .43929038 .44970704 .38492839 .40771485 .34814454 C .3660482 .3113607 .30436198 .29296876 .22265625 .29296876 L .09863281 .29296876 L .09863281 0 L 0 0 L 0 .7290039 Z "/>
</symbol>
<symbol id="font_1_4">
<path d="M .28271485 .2890625 C .2101237 .2890625 .15983074 .28076173 .13183594 .26416017 C .10384115 .2475586 .08984375 .21923828 .08984375 .17919922 C .08984375 .14729817 .100260417 .121907558 .12109375 .103027347 C .14225261 .084472659 .17089844 .07519531 .20703125 .07519531 C .25683595 .07519531 .29671226 .09277344 .32666017 .12792969 C .3569336 .16341146 .3720703 .21044922 .3720703 .26904298 L .3720703 .2890625 L .28271485 .2890625 M .46191407 .32617188 L .46191407 .014160156 L .3720703 .014160156 L .3720703 .09716797 C .3515625 .063964847 .32600913 .03938802 .29541017 .0234375 C .2648112 .0078125 .2273763 0 .18310547 0 C .12711589 0 .08251953 .015625 .049316408 .046875 C .016438803 .07845052 0 .12060547 0 .17333985 C 0 .23486328 .020507813 .28125 .061523439 .3125 C .102864589 .34375 .16438802 .359375 .24609375 .359375 L .3720703 .359375 L .3720703 .36816407 C .3720703 .40950523 .35839845 .44140626 .3310547 .4638672 C .30403648 .48665367 .26595054 .49804688 .21679688 .49804688 C .18554688 .49804688 .15511067 .49430339 .12548828 .4868164 C .09586588 .47932945 .06738281 .46809898 .040039064 .453125 L .040039064 .5361328 C .072916667 .5488281 .10481771 .55826827 .13574219 .5644531 C .16666667 .57096359 .19677735 .57421877 .22607422 .57421877 C .30517579 .57421877 .3642578 .55371096 .4033203 .5126953 C .4423828 .4716797 .46191407 .40950523 .46191407 .32617188 Z "/>
</symbol>
<symbol id="font_1_5">
<path d="M .39892579 .48779298 C .39892579 .55289718 .38541667 .60335287 .35839845 .63916018 C .33170573 .67496749 .29410807 .6928711 .24560547 .6928711 C .19742839 .6928711 .15983074 .67496749 .1328125 .63916018 C .10611979 .60335287 .09277344 .55289718 .09277344 .48779298 C .09277344 .4230143 .10611979 .37272135 .1328125 .33691407 C .15983074 .30110679 .19742839 .28320313 .24560547 .28320313 C .29410807 .28320313 .33170573 .30110679 .35839845 .33691407 C .38541667 .37272135 .39892579 .4230143 .39892579 .48779298 M .48876954 .2758789 C .48876954 .18277996 .46809898 .11360677 .4267578 .068359378 C .38541667 .022786459 .32210288 0 .2368164 0 C .20524089 0 .17545574 .0024414063 .14746094 .0073242189 C .11946615 .011881511 .092285159 .019042969 .06591797 .028808594 L .06591797 .11621094 C .092285159 .10188802 .11832682 .091308597 .14404297 .084472659 C .16975911 .07763672 .19596355 .07421875 .22265625 .07421875 C .28157554 .07421875 .3256836 .08968099 .35498048 .12060547 C .38427735 .15120442 .39892579 .19759114 .39892579 .25976563 L .39892579 .30419923 C .3803711 .27197267 .35660807 .24788411 .32763673 .2319336 C .29866538 .21598308 .2639974 .20800781 .22363281 .20800781 C .15657552 .20800781 .10253906 .2335612 .061523439 .28466798 C .020507813 .33577476 0 .40348307 0 .48779298 C 0 .5724284 .020507813 .6402995 .061523439 .69140627 C .10253906 .742513 .15657552 .7680664 .22363281 .7680664 C .2639974 .7680664 .29866538 .7600911 .32763673 .7441406 C .35660807 .7281901 .3803711 .70410159 .39892579 .671875 L .39892579 .7548828 L .48876954 .7548828 L .48876954 .2758789 Z "/>
</symbol>
<symbol id="font_1_6">
<path d="M .50683596 .3100586 L .50683596 .26611329 L .09375 .26611329 C .09765625 .20426433 .11621094 .1570638 .14941406 .12451172 C .1829427 .092285159 .22949219 .076171878 .2890625 .076171878 C .32356773 .076171878 .3569336 .08040365 .38916017 .08886719 C .42171226 .09733073 .4539388 .11002604 .48583985 .12695313 L .48583985 .041992189 C .45361329 .028320313 .4205729 .017903647 .38671876 .0107421879 C .3528646 .0035807293 .31852214 0 .2836914 0 C .19645183 0 .12727864 .025390625 .076171878 .076171878 C .025390625 .12695313 0 .19563802 0 .28222657 C 0 .37174479 .024088541 .44270835 .072265628 .4951172 C .12076823 .54785159 .18603516 .57421877 .2680664 .57421877 C .34163413 .57421877 .3997396 .55045577 .4423828 .5029297 C .48535157 .45572917 .50683596 .3914388 .50683596 .3100586 M .4169922 .33642579 C .41634117 .38557945 .4025065 .4248047 .37548829 .45410157 C .34879557 .48339845 .3133138 .49804688 .26904298 .49804688 C .21891277 .49804688 .17871094 .48388673 .1484375 .4555664 C .118489589 .4272461 .10123698 .38736979 .09667969 .3359375 L .4169922 .33642579 Z "/>
</symbol>
<symbol id="font_1_7">
<path d="M 0 0 Z "/>
</symbol>
<use xlink:href="#font_1_3" transform="matrix(27.777777,0,0,-27.777777,782.7262,2198.0557)"/>
<use xlink:href="#font_1_4" transform="matrix(27.777777,0,0,-27.777777,797.22378,2198.449)"/>
<use xlink:href="#font_1_5" transform="matrix(27.777777,0,0,-27.777777,814.0326,2203.8338)"/>
<use xlink:href="#font_1_6" transform="matrix(27.777777,0,0,-27.777777,831.7826,2198.449)"/>
<use xlink:href="#font_1_7" transform="matrix(27.777777,0,0,-27.777777,847.1944,2198.0557)"/>
<symbol id="font_1_1">
<path d="M .014160156 .08300781 L .17529297 .08300781 L .17529297 .63916018 L 0 .6040039 L 0 .69384768 L .1743164 .7290039 L .27294923 .7290039 L .27294923 .08300781 L .43408204 .08300781 L .43408204 0 L .014160156 0 L .014160156 .08300781 Z "/>
</symbol>
<use xlink:href="#font_1_1" transform="matrix(27.777777,0,0,-27.777777,859.16287,2198.0557)"/>
</g>
<path transform="matrix(2.7777777,0,0,-2.7777777,0,2338.889)" d="M 406.3 589.4 L 428 589.4 L 428 609.7 L 406.3 609.7 Z " fill="#c0c0c0" fill-rule="evenodd"/>
<path transform="matrix(2.7777777,0,0,-2.7777777,0,2338.889)" d="M 384.6 569.1 L 406.30003 569.1 L 406.30003 589.39999 L 384.6 589.39999 Z " fill="#c0c0c0" fill-rule="evenodd"/>
<path transform="matrix(2.7777777,0,0,-2.7777777,0,2338.889)" d="M 362.9 548.9 L 384.6 548.9 L 384.6 569.2 L 362.9 569.2 Z " fill="#c0c0c0" fill-rule="evenodd"/>
<path transform="matrix(2.7777777,0,0,-2.7777777,0,2338.889)" d="M 341.2 528.7 L 362.90003 528.7 L 362.90003 549 L 341.2 549 Z " fill="#c0c0c0" fill-rule="evenodd"/>
<path transform="matrix(2.7777777,0,0,-2.7777777,0,2338.889)" d="M 319.5 508.4 L 341.2 508.4 L 341.2 528.7 L 319.5 528.7 Z " fill="#c0c0c0" fill-rule="evenodd"/>
<path transform="matrix(2.7777777,0,0,-2.7777777,0,2338.889)" d="M 384.6 508.4 L 406.30003 508.4 L 406.30003 528.7 L 384.6 528.7 Z " fill="#c0c0c0" fill-rule="evenodd"/>
<path transform="matrix(2.7777777,0,0,-2.7777777,0,2338.889)" d="M 297.9 488.2 L 319.6 488.2 L 319.6 508.5 L 297.9 508.5 Z " fill="#c0c0c0" fill-rule="evenodd"/>
<path transform="matrix(2.7777777,0,0,-2.7777777,0,2338.889)" d="M 362.9 488.2 L 384.6 488.2 L 384.6 508.5 L 362.9 508.5 Z " fill="#c0c0c0" fill-rule="evenodd"/>
<path transform="matrix(2.7777777,0,0,-2.7777777,0,2338.889)" d="M 276.2 467.9 L 297.90003 467.9 L 297.90003 488.19999 L 276.2 488.19999 Z " fill="#c0c0c0" fill-rule="evenodd"/>
<path transform="matrix(2.7777777,0,0,-2.7777777,0,2338.889)" d="M 341.2 467.9 L 362.90003 467.9 L 362.90003 488.19999 L 341.2 488.19999 Z " fill="#c0c0c0" fill-rule="evenodd"/>
<path transform="matrix(2.7777777,0,0,-2.7777777,0,2338.889)" d="M 254.5 447.7 L 276.2 447.7 L 276.2 468 L 254.5 468 Z " fill="#c0c0c0" fill-rule="evenodd"/>
<path transform="matrix(2.7777777,0,0,-2.7777777,0,2338.889)" d="M 319.5 447.7 L 341.2 447.7 L 341.2 468 L 319.5 468 Z " fill="#c0c0c0" fill-rule="evenodd"/>
<path transform="matrix(2.7777777,0,0,-2.7777777,0,2338.889)" d="M 232.8 427.5 L 254.5 427.5 L 254.5 447.8 L 232.8 447.8 Z " fill="#c0c0c0" fill-rule="evenodd"/>
<path transform="matrix(2.7777777,0,0,-2.7777777,0,2338.889)" d="M 297.9 427.5 L 319.6 427.5 L 319.6 447.8 L 297.9 447.8 Z " fill="#c0c0c0" fill-rule="evenodd"/>
<path transform="matrix(2.7777777,0,0,-2.7777777,0,2338.889)" d="M 362.9 427.5 L 384.6 427.5 L 384.6 447.8 L 362.9 447.8 Z " fill="#c0c0c0" fill-rule="evenodd"/>
<path transform="matrix(2.7777777,0,0,-2.7777777,0,2338.889)" d="M 211.1 407.2 L 232.8 407.2 L 232.8 427.5 L 211.1 427.5 Z " fill="#c0c0c0" fill-rule="evenodd"/>
<path transform="matrix(2.7777777,0,0,-2.7777777,0,2338.889)" d="M 276.2 407.2 L 297.90003 407.2 L 297.90003 427.5 L 276.2 427.5 Z " fill="#c0c0c0" fill-rule="evenodd"/>
<path transform="matrix(2.7777777,0,0,-2.7777777,0,2338.889)" d="M 341.2 407.2 L 362.90003 407.2 L 362.90003 427.5 L 341.2 427.5 Z " fill="#c0c0c0" fill-rule="evenodd"/>
<path transform="matrix(2.7777777,0,0,-2.7777777,0,2338.889)" d="M 189.4 387 L 211.09999 387 L 211.09999 407.3 L 189.4 407.3 Z " fill="#c0c0c0" fill-rule="evenodd"/>
<path transform="matrix(2.7777777,0,0,-2.7777777,0,2338.889)" d="M 254.5 387 L 276.2 387 L 276.2 407.3 L 254.5 407.3 Z " fill="#c0c0c0" fill-rule="evenodd"/>
<path transform="matrix(2.7777777,0,0,-2.7777777,0,2338.889)" d="M 319.5 387 L 341.2 387 L 341.2 407.3 L 319.5 407.3 Z " fill="#c0c0c0" fill-rule="evenodd"/>
<path transform="matrix(2.7777777,0,0,-2.7777777,0,2338.889)" d="M 167.8 366.7 L 189.5 366.7 L 189.5 387 L 167.8 387 Z " fill="#c0c0c0" fill-rule="evenodd"/>
<path transform="matrix(2.7777777,0,0,-2.7777777,0,2338.889)" d="M 232.8 366.7 L 254.5 366.7 L 254.5 387 L 232.8 387 Z " fill="#c0c0c0" fill-rule="evenodd"/>
<path transform="matrix(2.7777777,0,0,-2.7777777,0,2338.889)" d="M 297.9 366.7 L 319.6 366.7 L 319.6 387 L 297.9 387 Z " fill="#c0c0c0" fill-rule="evenodd"/>
<path transform="matrix(2.7777777,0,0,-2.7777777,0,2338.889)" d="M 146.1 346.5 L 167.8 346.5 L 167.8 366.8 L 146.1 366.8 Z " fill="#c0c0c0" fill-rule="evenodd"/>
<path transform="matrix(2.7777777,0,0,-2.7777777,0,2338.889)" d="M 211.1 346.5 L 232.8 346.5 L 232.8 366.8 L 211.1 366.8 Z " fill="#c0c0c0" fill-rule="evenodd"/>
<path transform="matrix(2.7777777,0,0,-2.7777777,0,2338.889)" d="M 276.2 346.5 L 297.90003 346.5 L 297.90003 366.8 L 276.2 366.8 Z " fill="#c0c0c0" fill-rule="evenodd"/>
<path transform="matrix(2.7777777,0,0,-2.7777777,0,2338.889)" d="M 341.2 346.5 L 362.90003 346.5 L 362.90003 366.8 L 341.2 366.8 Z " fill="#c0c0c0" fill-rule="evenodd"/>
<path transform="matrix(2.7777777,0,0,-2.7777777,0,2338.889)" d="M 124.4 326.3 L 146.1 326.3 L 146.1 346.59999 L 124.4 346.59999 Z " fill="#c0c0c0" fill-rule="evenodd"/>
<path transform="matrix(2.7777777,0,0,-2.7777777,0,2338.889)" d="M 189.4 326.3 L 211.09999 326.3 L 211.09999 346.59999 L 189.4 346.59999 Z " fill="#c0c0c0" fill-rule="evenodd"/>
<path transform="matrix(2.7777777,0,0,-2.7777777,0,2338.889)" d="M 254.5 326.3 L 276.2 326.3 L 276.2 346.59999 L 254.5 346.59999 Z " fill="#c0c0c0" fill-rule="evenodd"/>
<path transform="matrix(2.7777777,0,0,-2.7777777,0,2338.889)" d="M 319.5 326.3 L 341.2 326.3 L 341.2 346.59999 L 319.5 346.59999 Z " fill="#c0c0c0" fill-rule="evenodd"/>
<path transform="matrix(2.7777777,0,0,-2.7777777,0,2338.889)" d="M 167.8 306 L 189.5 306 L 189.5 326.3 L 167.8 326.3 Z " fill="#c0c0c0" fill-rule="evenodd"/>
<path transform="matrix(2.7777777,0,0,-2.7777777,0,2338.889)" d="M 232.8 306 L 254.5 306 L 254.5 326.3 L 232.8 326.3 Z " fill="#c0c0c0" fill-rule="evenodd"/>
<path transform="matrix(2.7777777,0,0,-2.7777777,0,2338.889)" d="M 297.9 306 L 319.6 306 L 319.6 326.3 L 297.9 326.3 Z " fill="#c0c0c0" fill-rule="evenodd"/>
<path transform="matrix(2.7777777,0,0,-2.7777777,0,2338.889)" d="M 211.1 285.8 L 232.8 285.8 L 232.8 306.09999 L 211.1 306.09999 Z " fill="#c0c0c0" fill-rule="evenodd"/>
<path transform="matrix(2.7777777,0,0,-2.7777777,0,2338.889)" d="M 276.2 285.8 L 297.90003 285.8 L 297.90003 306.09999 L 276.2 306.09999 Z " fill="#c0c0c0" fill-rule="evenodd"/>
<path transform="matrix(2.7777777,0,0,-2.7777777,0,2338.889)" d="M 254.5 265.5 L 276.2 265.5 L 276.2 285.8 L 254.5 285.8 Z " fill="#c0c0c0" fill-rule="evenodd"/>
<path transform="matrix(2.7777777,0,0,-2.7777777,0,2338.889)" d="M 319.5 265.5 L 341.2 265.5 L 341.2 285.8 L 319.5 285.8 Z " fill="#c0c0c0" fill-rule="evenodd"/>
<path transform="matrix(2.7777777,0,0,-2.7777777,0,2338.889)" d="M 297.9 245.3 L 319.6 245.3 L 319.6 265.6 L 297.9 265.6 Z " fill="#c0c0c0" fill-rule="evenodd"/>
<path transform="matrix(2.7777777,0,0,-2.7777777,0,2338.889)" d="M 405.9 610.1 L 406.4 609.6 L 406.9 609 L 427.5 609 L 428.1 609.6 L 428.6 610.1 L 405.9 610.1 Z " fill-rule="evenodd"/>
<path transform="matrix(2.7777777,0,0,-2.7777777,0,2338.889)" d="M 384.2 589.8 L 384.7 589.3 L 385.2 588.8 L 427.5 588.8 L 428.1 589.3 L 427.5 589.8 L 384.2 589.8 Z " fill-rule="evenodd"/>
<path transform="matrix(2.7777777,0,0,-2.7777777,0,2338.889)" d="M 362.5 569.6 L 363 569.1 L 363.5 568.6 L 406.9 568.6 L 406.4 569.1 L 405.9 569.6 L 362.5 569.6 Z " fill-rule="evenodd"/>
<path transform="matrix(2.7777777,0,0,-2.7777777,0,2338.889)" d="M 340.8 549.4 L 341.3 548.8 L 341.8 548.3 L 385.2 548.3 L 384.7 548.8 L 384.2 549.4 L 340.8 549.4 Z " fill-rule="evenodd"/>
<path transform="matrix(2.7777777,0,0,-2.7777777,0,2338.889)" d="M 319.1 529.1 L 319.6 528.6 L 320.1 528.1 L 363.5 528.1 L 363 528.6 L 362.5 529.1 L 319.1 529.1 Z " fill-rule="evenodd"/>
<path transform="matrix(2.7777777,0,0,-2.7777777,0,2338.889)" d="M 384.2 529.1 L 384.7 528.6 L 385.2 528.1 L 405.9 528.1 L 406.4 528.6 L 406.9 529.1 L 384.2 529.1 Z " fill-rule="evenodd"/>
<path transform="matrix(2.7777777,0,0,-2.7777777,0,2338.889)" d="M 297.4 508.9 L 297.9 508.4 L 298.5 507.9 L 341.8 507.9 L 341.3 508.4 L 340.8 508.9 L 297.4 508.9 Z " fill-rule="evenodd"/>
<path transform="matrix(2.7777777,0,0,-2.7777777,0,2338.889)" d="M 362.5 508.9 L 363 508.4 L 363.5 507.9 L 405.9 507.9 L 406.4 508.4 L 405.9 508.9 L 362.5 508.9 Z " fill-rule="evenodd"/>
<path transform="matrix(2.7777777,0,0,-2.7777777,0,2338.889)" d="M 275.8 488.6 L 276.3 488.1 L 276.8 487.6 L 320.1 487.6 L 319.6 488.1 L 319.1 488.6 L 275.8 488.6 Z " fill-rule="evenodd"/>
<path transform="matrix(2.7777777,0,0,-2.7777777,0,2338.889)" d="M 340.8 488.6 L 341.3 488.1 L 341.8 487.6 L 385.2 487.6 L 384.7 488.1 L 384.2 488.6 L 340.8 488.6 Z " fill-rule="evenodd"/>
<path transform="matrix(2.7777777,0,0,-2.7777777,0,2338.889)" d="M 254.1 468.4 L 254.6 467.9 L 255.1 467.4 L 298.5 467.4 L 297.9 467.9 L 297.4 468.4 L 254.1 468.4 Z " fill-rule="evenodd"/>
<path transform="matrix(2.7777777,0,0,-2.7777777,0,2338.889)" d="M 319.1 468.4 L 319.6 467.9 L 320.1 467.4 L 363.5 467.4 L 363 467.9 L 362.5 468.4 L 319.1 468.4 Z " fill-rule="evenodd"/>
<path transform="matrix(2.7777777,0,0,-2.7777777,0,2338.889)" d="M 232.4 448.2 L 232.9 447.6 L 233.4 447.1 L 276.8 447.1 L 276.3 447.6 L 275.8 448.2 L 232.4 448.2 Z " fill-rule="evenodd"/>
<path transform="matrix(2.7777777,0,0,-2.7777777,0,2338.889)" d="M 297.4 448.2 L 297.9 447.6 L 298.5 447.1 L 341.8 447.1 L 341.3 447.6 L 340.8 448.2 L 297.4 448.2 Z " fill-rule="evenodd"/>
<path transform="matrix(2.7777777,0,0,-2.7777777,0,2338.889)" d="M 362.5 448.2 L 363 447.6 L 363.5 447.1 L 384.2 447.1 L 384.7 447.6 L 385.2 448.2 L 362.5 448.2 Z " fill-rule="evenodd"/>
<path transform="matrix(2.7777777,0,0,-2.7777777,0,2338.889)" d="M 210.7 427.9 L 211.2 427.4 L 211.7 426.9 L 255.1 426.9 L 254.6 427.4 L 254.1 427.9 L 210.7 427.9 Z " fill-rule="evenodd"/>
<path transform="matrix(2.7777777,0,0,-2.7777777,0,2338.889)" d="M 275.8 427.9 L 276.3 427.4 L 276.8 426.9 L 320.1 426.9 L 319.6 427.4 L 319.1 427.9 L 275.8 427.9 Z " fill-rule="evenodd"/>
<path transform="matrix(2.7777777,0,0,-2.7777777,0,2338.889)" d="M 340.8 427.9 L 341.3 427.4 L 341.8 426.9 L 384.2 426.9 L 384.7 427.4 L 384.2 427.9 L 340.8 427.9 Z " fill-rule="evenodd"/>
<path transform="matrix(2.7777777,0,0,-2.7777777,0,2338.889)" d="M 189 407.7 L 189.5 407.2 L 190 406.7 L 233.4 406.7 L 232.9 407.2 L 232.4 407.7 L 189 407.7 Z " fill-rule="evenodd"/>
<path transform="matrix(2.7777777,0,0,-2.7777777,0,2338.889)" d="M 254.1 407.7 L 254.6 407.2 L 255.1 406.7 L 298.5 406.7 L 297.9 407.2 L 297.4 407.7 L 254.1 407.7 Z " fill-rule="evenodd"/>
<path transform="matrix(2.7777777,0,0,-2.7777777,0,2338.889)" d="M 319.1 407.7 L 319.6 407.2 L 320.1 406.7 L 363.5 406.7 L 363 407.2 L 362.5 407.7 L 319.1 407.7 Z " fill-rule="evenodd"/>
<path transform="matrix(2.7777777,0,0,-2.7777777,0,2338.889)" d="M 167.3 387.4 L 167.8 386.9 L 168.3 386.4 L 211.7 386.4 L 211.2 386.9 L 210.7 387.4 L 167.3 387.4 Z " fill-rule="evenodd"/>
<path transform="matrix(2.7777777,0,0,-2.7777777,0,2338.889)" d="M 232.4 387.4 L 232.9 386.9 L 233.4 386.4 L 276.8 386.4 L 276.3 386.9 L 275.8 387.4 L 232.4 387.4 Z " fill-rule="evenodd"/>
<path transform="matrix(2.7777777,0,0,-2.7777777,0,2338.889)" d="M 297.4 387.4 L 297.9 386.9 L 298.5 386.4 L 341.8 386.4 L 341.3 386.9 L 340.8 387.4 L 297.4 387.4 Z " fill-rule="evenodd"/>
<path transform="matrix(2.7777777,0,0,-2.7777777,0,2338.889)" d="M 145.6 367.2 L 146.2 366.7 L 146.7 366.2 L 190 366.2 L 189.5 366.7 L 189 367.2 L 145.6 367.2 Z " fill-rule="evenodd"/>
<path transform="matrix(2.7777777,0,0,-2.7777777,0,2338.889)" d="M 210.7 367.2 L 211.2 366.7 L 211.7 366.2 L 255.1 366.2 L 254.6 366.7 L 254.1 367.2 L 210.7 367.2 Z " fill-rule="evenodd"/>
<path transform="matrix(2.7777777,0,0,-2.7777777,0,2338.889)" d="M 275.8 367.2 L 276.3 366.7 L 276.8 366.2 L 320.1 366.2 L 319.6 366.7 L 319.1 367.2 L 275.8 367.2 Z " fill-rule="evenodd"/>
<path transform="matrix(2.7777777,0,0,-2.7777777,0,2338.889)" d="M 340.8 367.2 L 341.3 366.7 L 341.8 366.2 L 362.5 366.2 L 363 366.7 L 363.5 367.2 L 340.8 367.2 Z " fill-rule="evenodd"/>
<path transform="matrix(2.7777777,0,0,-2.7777777,0,2338.889)" d="M 124 347 L 124.5 346.4 L 125 345.9 L 168.3 345.9 L 167.8 346.4 L 167.3 347 L 124 347 Z " fill-rule="evenodd"/>
<path transform="matrix(2.7777777,0,0,-2.7777777,0,2338.889)" d="M 189 347 L 189.5 346.4 L 190 345.9 L 233.4 345.9 L 232.9 346.4 L 232.4 347 L 189 347 Z " fill-rule="evenodd"/>
<path transform="matrix(2.7777777,0,0,-2.7777777,0,2338.889)" d="M 254.1 347 L 254.6 346.4 L 255.1 345.9 L 298.5 345.9 L 297.9 346.4 L 297.4 347 L 254.1 347 Z " fill-rule="evenodd"/>
<path transform="matrix(2.7777777,0,0,-2.7777777,0,2338.889)" d="M 319.1 347 L 319.6 346.4 L 320.1 345.9 L 362.5 345.9 L 363 346.4 L 362.5 347 L 319.1 347 Z " fill-rule="evenodd"/>
<path transform="matrix(2.7777777,0,0,-2.7777777,0,2338.889)" d="M 53.9 326.7 L 53.9 326.2 L 53.9 325.7 L 146.7 325.7 L 146.2 326.2 L 145.6 326.7 L 53.9 326.7 Z " fill-rule="evenodd"/>
<path transform="matrix(2.7777777,0,0,-2.7777777,0,2338.889)" d="M 167.3 326.7 L 167.8 326.2 L 168.3 325.7 L 211.7 325.7 L 211.2 326.2 L 210.7 326.7 L 167.3 326.7 Z " fill-rule="evenodd"/>
<path transform="matrix(2.7777777,0,0,-2.7777777,0,2338.889)" d="M 232.4 326.7 L 232.9 326.2 L 233.4 325.7 L 276.8 325.7 L 276.3 326.2 L 275.8 326.7 L 232.4 326.7 Z " fill-rule="evenodd"/>
<path transform="matrix(2.7777777,0,0,-2.7777777,0,2338.889)" d="M 297.4 326.7 L 297.9 326.2 L 298.5 325.7 L 341.8 325.7 L 341.3 326.2 L 340.8 326.7 L 297.4 326.7 Z " fill-rule="evenodd"/>
<path transform="matrix(2.7777777,0,0,-2.7777777,0,2338.889)" d="M 428.6 326.7 L 428.1 326.2 L 428.6 325.7 L 498.6 325.7 L 498.6 326.2 L 498.6 326.7 L 428.6 326.7 Z " fill-rule="evenodd"/>
<path transform="matrix(2.7777777,0,0,-2.7777777,0,2338.889)" d="M 125 306.5 L 124.5 306 L 124 305.5 L 190 305.5 L 189.5 306 L 189 306.5 L 125 306.5 Z " fill-rule="evenodd"/>
<path transform="matrix(2.7777777,0,0,-2.7777777,0,2338.889)" d="M 210.7 306.5 L 211.2 306 L 211.7 305.5 L 255.1 305.5 L 254.6 306 L 254.1 306.5 L 210.7 306.5 Z " fill-rule="evenodd"/>
<path transform="matrix(2.7777777,0,0,-2.7777777,0,2338.889)" d="M 275.8 306.5 L 276.3 306 L 276.8 305.5 L 320.1 305.5 L 319.6 306 L 319.1 306.5 L 275.8 306.5 Z " fill-rule="evenodd"/>
<path transform="matrix(2.7777777,0,0,-2.7777777,0,2338.889)" d="M 406.9 306.5 L 406.4 306 L 406.9 305.5 L 428.6 305.5 L 428.1 306 L 427.5 306.5 L 406.9 306.5 Z " fill-rule="evenodd"/>
<path transform="matrix(2.7777777,0,0,-2.7777777,0,2338.889)" d="M 168.3 286.2 L 167.8 285.7 L 167.3 285.2 L 233.4 285.2 L 232.9 285.7 L 232.4 286.2 L 168.3 286.2 Z " fill-rule="evenodd"/>
<path transform="matrix(2.7777777,0,0,-2.7777777,0,2338.889)" d="M 254.1 286.2 L 254.6 285.7 L 255.1 285.2 L 298.5 285.2 L 297.9 285.7 L 297.4 286.2 L 254.1 286.2 Z " fill-rule="evenodd"/>
<path transform="matrix(2.7777777,0,0,-2.7777777,0,2338.889)" d="M 319.1 286.2 L 319.6 285.7 L 320.1 285.2 L 340.8 285.2 L 341.3 285.7 L 341.8 286.2 L 319.1 286.2 Z " fill-rule="evenodd"/>
<path transform="matrix(2.7777777,0,0,-2.7777777,0,2338.889)" d="M 385.2 286.2 L 384.7 285.7 L 385.2 285.2 L 406.9 285.2 L 406.4 285.7 L 405.9 286.2 L 385.2 286.2 Z " fill-rule="evenodd"/>
<path transform="matrix(2.7777777,0,0,-2.7777777,0,2338.889)" d="M 211.7 266 L 211.2 265.5 L 210.7 265 L 276.8 265 L 276.3 265.5 L 275.8 266 L 211.7 266 Z " fill-rule="evenodd"/>
<path transform="matrix(2.7777777,0,0,-2.7777777,0,2338.889)" d="M 297.4 266 L 297.9 265.5 L 298.5 265 L 340.8 265 L 341.3 265.5 L 340.8 266 L 297.4 266 Z " fill-rule="evenodd"/>
<path transform="matrix(2.7777777,0,0,-2.7777777,0,2338.889)" d="M 363.5 266 L 363 265.5 L 363.5 265 L 385.2 265 L 384.7 265.5 L 384.2 266 L 363.5 266 Z " fill-rule="evenodd"/>
<path transform="matrix(2.7777777,0,0,-2.7777777,0,2338.889)" d="M 255.1 245.8 L 254.6 245.3 L 254.1 244.7 L 320.1 244.7 L 319.6 245.3 L 319.1 245.8 L 255.1 245.8 Z " fill-rule="evenodd"/>
<path transform="matrix(2.7777777,0,0,-2.7777777,0,2338.889)" d="M 341.8 245.8 L 341.3 245.3 L 341.8 244.7 L 363.5 244.7 L 363 245.3 L 362.5 245.8 L 341.8 245.8 Z " fill-rule="evenodd"/>
<path transform="matrix(2.7777777,0,0,-2.7777777,0,2338.889)" d="M 298.5 225.5 L 297.9 225 L 297.4 224.5 L 341.8 224.5 L 341.3 225 L 340.8 225.5 L 298.5 225.5 Z " fill-rule="evenodd"/>
<path transform="matrix(2.7777777,0,0,-2.7777777,0,2338.889)" d="M 124 305.5 L 124.5 306 L 125 306.5 L 125 345.9 L 124.5 346.4 L 124 347 L 124 305.5 Z " fill-rule="evenodd"/>
<path transform="matrix(2.7777777,0,0,-2.7777777,0,2338.889)" d="M 145.6 326.7 L 146.2 326.2 L 146.7 325.7 L 146.7 366.2 L 146.2 366.7 L 145.6 367.2 L 145.6 326.7 Z " fill-rule="evenodd"/>
<path transform="matrix(2.7777777,0,0,-2.7777777,0,2338.889)" d="M 167.3 347 L 167.8 346.4 L 168.3 345.9 L 168.3 386.4 L 167.8 386.9 L 167.3 387.4 L 167.3 347 Z " fill-rule="evenodd"/>
<path transform="matrix(2.7777777,0,0,-2.7777777,0,2338.889)" d="M 167.3 285.2 L 167.8 285.7 L 168.3 286.2 L 168.3 325.7 L 167.8 326.2 L 167.3 326.7 L 167.3 285.2 Z " fill-rule="evenodd"/>
<path transform="matrix(2.7777777,0,0,-2.7777777,0,2338.889)" d="M 189 367.2 L 189.5 366.7 L 190 366.2 L 190 406.7 L 189.5 407.2 L 189 407.7 L 189 367.2 Z " fill-rule="evenodd"/>
<path transform="matrix(2.7777777,0,0,-2.7777777,0,2338.889)" d="M 189 306.5 L 189.5 306 L 190 305.5 L 190 345.9 L 189.5 346.4 L 189 347 L 189 306.5 Z " fill-rule="evenodd"/>
<path transform="matrix(2.7777777,0,0,-2.7777777,0,2338.889)" d="M 210.7 387.4 L 211.2 386.9 L 211.7 386.4 L 211.7 426.9 L 211.2 427.4 L 210.7 427.9 L 210.7 387.4 Z " fill-rule="evenodd"/>
<path transform="matrix(2.7777777,0,0,-2.7777777,0,2338.889)" d="M 210.7 326.7 L 211.2 326.2 L 211.7 325.7 L 211.7 366.2 L 211.2 366.7 L 210.7 367.2 L 210.7 326.7 Z " fill-rule="evenodd"/>
<path transform="matrix(2.7777777,0,0,-2.7777777,0,2338.889)" d="M 210.7 265 L 211.2 265.5 L 211.7 266 L 211.7 305.5 L 211.2 306 L 210.7 306.5 L 210.7 265 Z " fill-rule="evenodd"/>
<path transform="matrix(2.7777777,0,0,-2.7777777,0,2338.889)" d="M 232.4 407.7 L 232.9 407.2 L 233.4 406.7 L 233.4 447.1 L 232.9 447.6 L 232.4 448.2 L 232.4 407.7 Z " fill-rule="evenodd"/>
<path transform="matrix(2.7777777,0,0,-2.7777777,0,2338.889)" d="M 232.4 347 L 232.9 346.4 L 233.4 345.9 L 233.4 386.4 L 232.9 386.9 L 232.4 387.4 L 232.4 347 Z " fill-rule="evenodd"/>
<path transform="matrix(2.7777777,0,0,-2.7777777,0,2338.889)" d="M 232.4 286.2 L 232.9 285.7 L 233.4 285.2 L 233.4 325.7 L 232.9 326.2 L 232.4 326.7 L 232.4 286.2 Z " fill-rule="evenodd"/>
<path transform="matrix(2.7777777,0,0,-2.7777777,0,2338.889)" d="M 254.1 427.9 L 254.6 427.4 L 255.1 426.9 L 255.1 467.4 L 254.6 467.9 L 254.1 468.4 L 254.1 427.9 Z " fill-rule="evenodd"/>
<path transform="matrix(2.7777777,0,0,-2.7777777,0,2338.889)" d="M 254.1 367.2 L 254.6 366.7 L 255.1 366.2 L 255.1 406.7 L 254.6 407.2 L 254.1 407.7 L 254.1 367.2 Z " fill-rule="evenodd"/>
<path transform="matrix(2.7777777,0,0,-2.7777777,0,2338.889)" d="M 254.1 306.5 L 254.6 306 L 255.1 305.5 L 255.1 345.9 L 254.6 346.4 L 254.1 347 L 254.1 306.5 Z " fill-rule="evenodd"/>
<path transform="matrix(2.7777777,0,0,-2.7777777,0,2338.889)" d="M 254.1 244.7 L 254.6 245.3 L 255.1 245.8 L 255.1 285.2 L 254.6 285.7 L 254.1 286.2 L 254.1 244.7 Z " fill-rule="evenodd"/>
<path transform="matrix(2.7777777,0,0,-2.7777777,0,2338.889)" d="M 275.8 448.2 L 276.3 447.6 L 276.8 447.1 L 276.8 487.6 L 276.3 488.1 L 275.8 488.6 L 275.8 448.2 Z " fill-rule="evenodd"/>
<path transform="matrix(2.7777777,0,0,-2.7777777,0,2338.889)" d="M 275.8 387.4 L 276.3 386.9 L 276.8 386.4 L 276.8 426.9 L 276.3 427.4 L 275.8 427.9 L 275.8 387.4 Z " fill-rule="evenodd"/>
<path transform="matrix(2.7777777,0,0,-2.7777777,0,2338.889)" d="M 275.8 326.7 L 276.3 326.2 L 276.8 325.7 L 276.8 366.2 L 276.3 366.7 L 275.8 367.2 L 275.8 326.7 Z " fill-rule="evenodd"/>
<path transform="matrix(2.7777777,0,0,-2.7777777,0,2338.889)" d="M 275.8 266 L 276.3 265.5 L 276.8 265 L 276.8 305.5 L 276.3 306 L 275.8 306.5 L 275.8 266 Z " fill-rule="evenodd"/>
<path transform="matrix(2.7777777,0,0,-2.7777777,0,2338.889)" d="M 297.4 468.4 L 297.9 467.9 L 298.5 467.4 L 298.5 507.9 L 297.9 508.4 L 297.4 508.9 L 297.4 468.4 Z " fill-rule="evenodd"/>
<path transform="matrix(2.7777777,0,0,-2.7777777,0,2338.889)" d="M 297.4 407.7 L 297.9 407.2 L 298.5 406.7 L 298.5 447.1 L 297.9 447.6 L 297.4 448.2 L 297.4 407.7 Z " fill-rule="evenodd"/>
<path transform="matrix(2.7777777,0,0,-2.7777777,0,2338.889)" d="M 297.4 347 L 297.9 346.4 L 298.5 345.9 L 298.5 386.4 L 297.9 386.9 L 297.4 387.4 L 297.4 347 Z " fill-rule="evenodd"/>
<path transform="matrix(2.7777777,0,0,-2.7777777,0,2338.889)" d="M 297.4 286.2 L 297.9 285.7 L 298.5 285.2 L 298.5 325.7 L 297.9 326.2 L 297.4 326.7 L 297.4 286.2 Z " fill-rule="evenodd"/>
<path transform="matrix(2.7777777,0,0,-2.7777777,0,2338.889)" d="M 297.4 224.5 L 297.9 225 L 298.5 225.5 L 298.5 265 L 297.9 265.5 L 297.4 266 L 297.4 224.5 Z " fill-rule="evenodd"/>
<path transform="matrix(2.7777777,0,0,-2.7777777,0,2338.889)" d="M 319.1 488.6 L 319.6 488.1 L 320.1 487.6 L 320.1 528.1 L 319.6 528.6 L 319.1 529.1 L 319.1 488.6 Z " fill-rule="evenodd"/>
<path transform="matrix(2.7777777,0,0,-2.7777777,0,2338.889)" d="M 319.1 427.9 L 319.6 427.4 L 320.1 426.9 L 320.1 467.4 L 319.6 467.9 L 319.1 468.4 L 319.1 427.9 Z " fill-rule="evenodd"/>
<path transform="matrix(2.7777777,0,0,-2.7777777,0,2338.889)" d="M 319.1 367.2 L 319.6 366.7 L 320.1 366.2 L 320.1 406.7 L 319.6 407.2 L 319.1 407.7 L 319.1 367.2 Z " fill-rule="evenodd"/>
<path transform="matrix(2.7777777,0,0,-2.7777777,0,2338.889)" d="M 319.1 306.5 L 319.6 306 L 320.1 305.5 L 320.1 345.9 L 319.6 346.4 L 319.1 347 L 319.1 306.5 Z " fill-rule="evenodd"/>
<path transform="matrix(2.7777777,0,0,-2.7777777,0,2338.889)" d="M 319.1 245.8 L 319.6 245.3 L 320.1 244.7 L 320.1 285.2 L 319.6 285.7 L 319.1 286.2 L 319.1 245.8 Z " fill-rule="evenodd"/>
<path transform="matrix(2.7777777,0,0,-2.7777777,0,2338.889)" d="M 340.8 508.9 L 341.3 508.4 L 341.8 507.9 L 341.8 548.3 L 341.3 548.8 L 340.8 549.4 L 340.8 508.9 Z " fill-rule="evenodd"/>
<path transform="matrix(2.7777777,0,0,-2.7777777,0,2338.889)" d="M 340.8 448.2 L 341.3 447.6 L 341.8 447.1 L 341.8 487.6 L 341.3 488.1 L 340.8 488.6 L 340.8 448.2 Z " fill-rule="evenodd"/>
<path transform="matrix(2.7777777,0,0,-2.7777777,0,2338.889)" d="M 340.8 387.4 L 341.3 386.9 L 341.8 386.4 L 341.8 426.9 L 341.3 427.4 L 340.8 427.9 L 340.8 387.4 Z " fill-rule="evenodd"/>
<path transform="matrix(2.7777777,0,0,-2.7777777,0,2338.889)" d="M 340.8 326.7 L 341.3 326.2 L 341.8 325.7 L 341.8 366.2 L 341.3 366.7 L 340.8 367.2 L 340.8 326.7 Z " fill-rule="evenodd"/>
<path transform="matrix(2.7777777,0,0,-2.7777777,0,2338.889)" d="M 340.8 225.5 L 341.3 225 L 341.8 224.5 L 341.8 286.2 L 341.3 285.7 L 340.8 285.2 L 340.8 225.5 Z " fill-rule="evenodd"/>
<path transform="matrix(2.7777777,0,0,-2.7777777,0,2338.889)" d="M 362.5 529.1 L 363 528.6 L 363.5 528.1 L 363.5 568.6 L 363 569.1 L 362.5 569.6 L 362.5 529.1 Z " fill-rule="evenodd"/>
<path transform="matrix(2.7777777,0,0,-2.7777777,0,2338.889)" d="M 362.5 468.4 L 363 467.9 L 363.5 467.4 L 363.5 507.9 L 363 508.4 L 362.5 508.9 L 362.5 468.4 Z " fill-rule="evenodd"/>
<path transform="matrix(2.7777777,0,0,-2.7777777,0,2338.889)" d="M 362.5 407.7 L 363 407.2 L 363.5 406.7 L 363.5 447.1 L 363 447.6 L 362.5 448.2 L 362.5 407.7 Z " fill-rule="evenodd"/>
<path transform="matrix(2.7777777,0,0,-2.7777777,0,2338.889)" d="M 362.5 245.8 L 363 245.3 L 363.5 244.7 L 363.5 367.2 L 363 366.7 L 362.5 366.2 L 362.5 245.8 Z " fill-rule="evenodd"/>
<path transform="matrix(2.7777777,0,0,-2.7777777,0,2338.889)" d="M 384.2 549.4 L 384.7 548.8 L 385.2 548.3 L 385.2 588.8 L 384.7 589.3 L 384.2 589.8 L 384.2 549.4 Z " fill-rule="evenodd"/>
<path transform="matrix(2.7777777,0,0,-2.7777777,0,2338.889)" d="M 384.2 488.6 L 384.7 488.1 L 385.2 487.6 L 385.2 528.1 L 384.7 528.6 L 384.2 529.1 L 384.2 488.6 Z " fill-rule="evenodd"/>
<path transform="matrix(2.7777777,0,0,-2.7777777,0,2338.889)" d="M 384.2 266 L 384.7 265.5 L 385.2 265 L 385.2 448.2 L 384.7 447.6 L 384.2 447.1 L 384.2 266 Z " fill-rule="evenodd"/>
<path transform="matrix(2.7777777,0,0,-2.7777777,0,2338.889)" d="M 405.9 569.6 L 406.4 569.1 L 406.9 568.6 L 406.9 609 L 406.4 609.6 L 405.9 610.1 L 405.9 569.6 Z " fill-rule="evenodd"/>
<path transform="matrix(2.7777777,0,0,-2.7777777,0,2338.889)" d="M 405.9 286.2 L 406.4 285.7 L 406.9 285.2 L 406.9 529.1 L 406.4 528.6 L 405.9 528.1 L 405.9 286.2 Z " fill-rule="evenodd"/>
<path transform="matrix(2.7777777,0,0,-2.7777777,0,2338.889)" d="M 427.5 306.5 L 428.1 306 L 428.6 305.5 L 428.6 610.1 L 428.1 609.6 L 427.5 609 L 427.5 306.5 Z " fill-rule="evenodd"/>
<g opacity=".5">
</g>
</g>
</g>
</svg>
