<?xml version="1.0" encoding="UTF-8" standalone="no"?>
<!DOCTYPE svg PUBLIC "-//W3C//DTD SVG 1.1//EN" "http://www.w3.org/Graphics/SVG/1.1/DTD/svg11.dtd">
<svg xmlns="http://www.w3.org/2000/svg" xmlns:xlink="http://www.w3.org/1999/xlink" version="1.1" width="1652.7777pt" height="2338.889pt" viewBox="0 0 1652.7777 2338.889">
<g enable-background="new">
<g>
<clipPath id="cp0">
<path transform="matrix(2.7777777,0,0,-2.7777777,0,2338.889)" d="M 54 770 L 541.2 770 L 541.2 806 L 54 806 Z " fill-rule="evenodd"/>
</clipPath>
<g clip-path="url(#cp0)">
<symbol id="font_1_1">
<path d="M .014160156 .08300781 L .17529297 .08300781 L .17529297 .63916018 L 0 .6040039 L 0 .69384768 L .1743164 .7290039 L .27294923 .7290039 L .27294923 .08300781 L .43408204 .08300781 L .43408204 0 L .014160156 0 L .014160156 .08300781 Z "/>
</symbol>
<symbol id="font_1_8">
<path d="M .32958985 .40722657 C .37679038 .3971354 .41357423 .3761393 .4399414 .34423829 C .46663413 .31233726 .47998048 .27294923 .47998048 .22607422 C .47998048 .15413411 .45524089 .098470058 .40576173 .05908203 C .35628257 .01969401 .28597007 0 .19482422 0 C .16422527 0 .13264974 .003092448 .100097659 .009277344 C .067871097 .015136719 .034505208 .024088541 0 .036132814 L 0 .13134766 C .02734375 .11539713 .057291669 .10335287 .08984375 .095214847 C .122395839 .08707682 .15641277 .08300781 .19189453 .08300781 C .2537435 .08300781 .30078126 .095214847 .3330078 .119628909 C .3655599 .14404297 .38183595 .17952474 .38183595 .22607422 C .38183595 .26904298 .36669923 .30257163 .33642579 .32666017 C .30647788 .35107423 .26464845 .36328126 .2109375 .36328126 L .12597656 .36328126 L .12597656 .44433595 L .21484375 .44433595 C .26334635 .44433595 .30045573 .4539388 .32617188 .47314454 C .35188804 .49267579 .3647461 .5206706 .3647461 .5571289 C .3647461 .5945638 .35139976 .62320968 .32470704 .6430664 C .29833985 .6632487 .26041667 .67333987 .2109375 .67333987 C .18391927 .67333987 .15494792 .67041018 .12402344 .6645508 C .09309896 .6586914 .05908203 .64957687 .021972657 .63720706 L .021972657 .72509768 C .05940755 .73551437 .09440104 .74332687 .12695313 .74853518 C .15983074 .75374349 .1907552 .75634768 .21972656 .75634768 C .29459635 .75634768 .35384117 .7392578 .39746095 .7050781 C .44108073 .67122396 .46289063 .6253255 .46289063 .5673828 C .46289063 .52701827 .45133464 .49283854 .42822267 .46484376 C .4051107 .43717448 .37223307 .41796876 .32958985 .40722657 Z "/>
</symbol>
<use xlink:href="#font_1_1" transform="matrix(27.777777,0,0,-27.777777,812.2184,159.72241)"/>
<use xlink:href="#font_1_8" transform="matrix(27.777777,0,0,-27.777777,828.7825,160.11576)"/>
</g>
<clipPath id="cp2">
<path transform="matrix(2.7777777,0,0,-2.7777777,0,2338.889)" d="M 54 36.2 L 541.2 36.2 L 541.2 72.2 L 54 72.2 Z " fill-rule="evenodd"/>
</clipPath>
<g clip-path="url(#cp2)">
<symbol id="font_1_3">
<path d="M .09863281 .6479492 L .09863281 .37402345 L .22265625 .37402345 C .2685547 .37402345 .30403648 .38590495 .32910157 .40966798 C .35416667 .433431 .36669923 .46728517 .36669923 .51123049 C .36669923 .5548503 .35416667 .5885417 .32910157 .6123047 C .30403648 .6360677 .2685547 .6479492 .22265625 .6479492 L .09863281 .6479492 M 0 .7290039 L .22265625 .7290039 C .30436198 .7290039 .3660482 .7104492 .40771485 .67333987 C .44970704 .63655599 .47070313 .58251956 .47070313 .51123049 C .47070313 .43929038 .44970704 .38492839 .40771485 .34814454 C .3660482 .3113607 .30436198 .29296876 .22265625 .29296876 L .09863281 .29296876 L .09863281 0 L 0 0 L 0 .7290039 Z "/>
</symbol>
<symbol id="font_1_4">
<path d="M .28271485 .2890625 C .2101237 .2890625 .15983074 .28076173 .13183594 .26416017 C .10384115 .2475586 .08984375 .21923828 .08984375 .17919922 C .08984375 .14729817 .100260417 .121907558 .12109375 .103027347 C .14225261 .084472659 .17089844 .07519531 .20703125 .07519531 C .25683595 .07519531 .29671226 .09277344 .32666017 .12792969 C .3569336 .16341146 .3720703 .21044922 .3720703 .26904298 L .3720703 .2890625 L .28271485 .2890625 M .46191407 .32617188 L .46191407 .014160156 L .3720703 .014160156 L .3720703 .09716797 C .3515625 .063964847 .32600913 .03938802 .29541017 .0234375 C .2648112 .0078125 .2273763 0 .18310547 0 C .12711589 0 .08251953 .015625 .049316408 .046875 C .016438803 .07845052 0 .12060547 0 .17333985 C 0 .23486328 .020507813 .28125 .061523439 .3125 C .102864589 .34375 .16438802 .359375 .24609375 .359375 L .3720703 .359375 L .3720703 .36816407 C .3720703 .40950523 .35839845 .44140626 .3310547 .4638672 C .30403648 .48665367 .26595054 .49804688 .21679688 .49804688 C .18554688 .49804688 .15511067 .49430339 .12548828 .4868164 C .09586588 .47932945 .06738281 .46809898 .040039064 .453125 L .040039064 .5361328 C .072916667 .5488281 .10481771 .55826827 .13574219 .5644531 C .16666667 .57096359 .19677735 .57421877 .22607422 .57421877 C .30517579 .57421877 .3642578 .55371096 .4033203 .5126953 C .4423828 .4716797 .46191407 .40950523 .46191407 .32617188 Z "/>
</symbol>
<symbol id="font_1_5">
<path d="M .39892579 .48779298 C .39892579 .55289718 .38541667 .60335287 .35839845 .63916018 C .33170573 .67496749 .29410807 .6928711 .24560547 .6928711 C .19742839 .6928711 .15983074 .67496749 .1328125 .63916018 C .10611979 .60335287 .09277344 .55289718 .09277344 .48779298 C .09277344 .4230143 .10611979 .37272135 .1328125 .33691407 C .15983074 .30110679 .19742839 .28320313 .24560547 .28320313 C .29410807 .28320313 .33170573 .30110679 .35839845 .33691407 C .38541667 .37272135 .39892579 .4230143 .39892579 .48779298 M .48876954 .2758789 C .48876954 .18277996 .46809898 .11360677 .4267578 .068359378 C .38541667 .022786459 .32210288 0 .2368164 0 C .20524089 0 .17545574 .0024414063 .14746094 .0073242189 C .11946615 .011881511 .092285159 .019042969 .06591797 .028808594 L .06591797 .11621094 C .092285159 .10188802 .11832682 .091308597 .14404297 .084472659 C .16975911 .07763672 .19596355 .07421875 .22265625 .07421875 C .28157554 .07421875 .3256836 .08968099 .35498048 .12060547 C .38427735 .15120442 .39892579 .19759114 .39892579 .25976563 L .39892579 .30419923 C .3803711 .27197267 .35660807 .24788411 .32763673 .2319336 C .29866538 .21598308 .2639974 .20800781 .22363281 .20800781 C .15657552 .20800781 .10253906 .2335612 .061523439 .28466798 C .020507813 .33577476 0 .40348307 0 .48779298 C 0 .5724284 .020507813 .6402995 .061523439 .69140627 C .10253906 .742513 .15657552 .7680664 .22363281 .7680664 C .2639974 .7680664 .29866538 .7600911 .32763673 .7441406 C .35660807 .7281901 .3803711 .70410159 .39892579 .671875 L .39892579 .7548828 L .48876954 .7548828 L .48876954 .2758789 Z "/>
</symbol>
<symbol id="font_1_6">
<path d="M .50683596 .3100586 L .50683596 .26611329 L .09375 .26611329 C .09765625 .20426433 .11621094 .1570638 .14941406 .12451172 C .1829427 .092285159 .22949219 .076171878 .2890625 .076171878 C .32356773 .076171878 .3569336 .08040365 .38916017 .08886719 C .42171226 .09733073 .4539388 .11002604 .48583985 .12695313 L .48583985 .041992189 C .45361329 .028320313 .4205729 .017903647 .38671876 .0107421879 C .3528646 .0035807293 .31852214 0 .2836914 0 C .19645183 0 .12727864 .025390625 .076171878 .076171878 C .025390625 .12695313 0 .19563802 0 .28222657 C 0 .37174479 .024088541 .44270835 .072265628 .4951172 C .12076823 .54785159 .18603516 .57421877 .2680664 .57421877 C .34163413 .57421877 .3997396 .55045577 .4423828 .5029297 C .48535157 .45572917 .50683596 .3914388 .50683596 .3100586 M .4169922 .33642579 C .41634117 .38557945 .4025065 .4248047 .37548829 .45410157 C .34879557 .48339845 .3133138 .49804688 .26904298 .49804688 C .21891277 .49804688 .17871094 .48388673 .1484375 .4555664 C .118489589 .4272461 .10123698 .38736979 .09667969 .3359375 L .4169922 .33642579 Z "/>
</symbol>
<symbol id="font_1_7">
<path d="M 0 0 Z "/>
</symbol>
<use xlink:href="#font_1_3" transform="matrix(27.777777,0,0,-27.777777,782.7262,2198.0557)"/>
<use xlink:href="#font_1_4" transform="matrix(27.777777,0,0,-27.777777,797.22378,2198.449)"/>
<use xlink:href="#font_1_5" transform="matrix(27.777777,0,0,-27.777777,814.0326,2203.8338)"/>
<use xlink:href="#font_1_6" transform="matrix(27.777777,0,0,-27.777777,831.7826,2198.449)"/>
<use xlink:href="#font_1_7" transform="matrix(27.777777,0,0,-27.777777,847.1944,2198.0557)"/>
<use xlink:href="#font_1_1" transform="matrix(27.777777,0,0,-27.777777,859.16287,2198.0557)"/>
</g>
<path transform="matrix(2.7777777,0,0,-2.7777777,0,2338.889)" d="M 128.9 519.6 L 282.59999 519.6 L 282.59999 545.89999 L 128.9 545.89999 Z " fill="#c0c0c0" fill-rule="evenodd"/>
<path transform="matrix(2.7777777,0,0,-2.7777777,0,2338.889)" d="M 282.5 493.4 L 344 493.4 L 344 519.7 L 282.5 519.7 Z " fill="#c0c0c0" fill-rule="evenodd"/>
<path transform="matrix(2.7777777,0,0,-2.7777777,0,2338.889)" d="M 159.6 467.1 L 221.1 467.1 L 221.1 493.4 L 159.6 493.4 Z " fill="#c0c0c0" fill-rule="evenodd"/>
<path transform="matrix(2.7777777,0,0,-2.7777777,0,2338.889)" d="M 344 467.1 L 405.5 467.1 L 405.5 493.4 L 344 493.4 Z " fill="#c0c0c0" fill-rule="evenodd"/>
<path transform="matrix(2.7777777,0,0,-2.7777777,0,2338.889)" d="M 190.3 440.9 L 282.5 440.9 L 282.5 467.19999 L 190.3 467.19999 Z " fill="#c0c0c0" fill-rule="evenodd"/>
<path transform="matrix(2.7777777,0,0,-2.7777777,0,2338.889)" d="M 405.4 440.9 L 436.19999 440.9 L 436.19999 467.19999 L 405.4 467.19999 Z " fill="#c0c0c0" fill-rule="evenodd"/>
<path transform="matrix(2.7777777,0,0,-2.7777777,0,2338.889)" d="M 159.6 414.6 L 190.40001 414.6 L 190.40001 440.9 L 159.6 440.9 Z " fill="#c0c0c0" fill-rule="evenodd"/>
<path transform="matrix(2.7777777,0,0,-2.7777777,0,2338.889)" d="M 251.8 414.6 L 344 414.6 L 344 440.9 L 251.8 440.9 Z " fill="#c0c0c0" fill-rule="evenodd"/>
<path transform="matrix(2.7777777,0,0,-2.7777777,0,2338.889)" d="M 159.6 388.4 L 251.8 388.4 L 251.8 414.69999 L 159.6 414.69999 Z " fill="#c0c0c0" fill-rule="evenodd"/>
<path transform="matrix(2.7777777,0,0,-2.7777777,0,2338.889)" d="M 313.3 388.4 L 405.5 388.4 L 405.5 414.69999 L 313.3 414.69999 Z " fill="#c0c0c0" fill-rule="evenodd"/>
<path transform="matrix(2.7777777,0,0,-2.7777777,0,2338.889)" d="M 221.1 362.1 L 313.3 362.1 L 313.3 388.4 L 221.1 388.4 Z " fill="#c0c0c0" fill-rule="evenodd"/>
<path transform="matrix(2.7777777,0,0,-2.7777777,0,2338.889)" d="M 374.7 362.1 L 405.5 362.1 L 405.5 388.4 L 374.7 388.4 Z " fill="#c0c0c0" fill-rule="evenodd"/>
<path transform="matrix(2.7777777,0,0,-2.7777777,0,2338.889)" d="M 282.5 335.9 L 344 335.9 L 344 362.19999 L 282.5 362.19999 Z " fill="#c0c0c0" fill-rule="evenodd"/>
<path transform="matrix(2.7777777,0,0,-2.7777777,0,2338.889)" d="M 159.6 309.6 L 221.1 309.6 L 221.1 335.9 L 159.6 335.9 Z " fill="#c0c0c0" fill-rule="evenodd"/>
<path transform="matrix(2.7777777,0,0,-2.7777777,0,2338.889)" d="M 128.5 546.3 L 129 545.8 L 129.5 545.3 L 282.1 545.3 L 282.6 545.8 L 283.1 546.3 L 128.5 546.3 Z " fill-rule="evenodd"/>
<path transform="matrix(2.7777777,0,0,-2.7777777,0,2338.889)" d="M 129.5 520.1 L 129 519.6 L 129.5 519 L 343.6 519 L 344.1 519.6 L 344.6 520.1 L 129.5 520.1 Z " fill-rule="evenodd"/>
<path transform="matrix(2.7777777,0,0,-2.7777777,0,2338.889)" d="M 159.2 493.8 L 159.7 493.3 L 160.2 492.8 L 220.6 492.8 L 221.2 493.3 L 221.7 493.8 L 159.2 493.8 Z " fill-rule="evenodd"/>
<path transform="matrix(2.7777777,0,0,-2.7777777,0,2338.889)" d="M 283.1 493.8 L 282.6 493.3 L 282.1 492.8 L 405 492.8 L 405.5 493.3 L 406 493.8 L 283.1 493.8 Z " fill-rule="evenodd"/>
<path transform="matrix(2.7777777,0,0,-2.7777777,0,2338.889)" d="M 160.2 467.6 L 159.7 467.1 L 160.2 466.6 L 189.9 466.6 L 190.4 467.1 L 190.9 467.6 L 160.2 467.6 Z " fill-rule="evenodd"/>
<path transform="matrix(2.7777777,0,0,-2.7777777,0,2338.889)" d="M 221.7 467.6 L 221.2 467.1 L 221.7 466.6 L 282.1 466.6 L 282.6 467.1 L 283.1 467.6 L 221.7 467.6 Z " fill-rule="evenodd"/>
<path transform="matrix(2.7777777,0,0,-2.7777777,0,2338.889)" d="M 344.6 467.6 L 344.1 467.1 L 343.6 466.6 L 435.7 466.6 L 436.3 467.1 L 436.8 467.6 L 344.6 467.6 Z " fill-rule="evenodd"/>
<path transform="matrix(2.7777777,0,0,-2.7777777,0,2338.889)" d="M 160.2 441.3 L 159.7 440.8 L 160.2 440.3 L 251.4 440.3 L 251.9 440.8 L 252.4 441.3 L 160.2 441.3 Z " fill-rule="evenodd"/>
<path transform="matrix(2.7777777,0,0,-2.7777777,0,2338.889)" d="M 283.1 441.3 L 282.6 440.8 L 283.1 440.3 L 343.6 440.3 L 344.1 440.8 L 344.6 441.3 L 283.1 441.3 Z " fill-rule="evenodd"/>
<path transform="matrix(2.7777777,0,0,-2.7777777,0,2338.889)" d="M 406 441.3 L 405.5 440.8 L 405 440.3 L 435.7 440.3 L 436.3 440.8 L 435.7 441.3 L 406 441.3 Z " fill-rule="evenodd"/>
<path transform="matrix(2.7777777,0,0,-2.7777777,0,2338.889)" d="M 53.9 415.1 L 53.9 414.6 L 53.9 414.1 L 128.5 414.1 L 129 414.6 L 128.5 415.1 L 53.9 415.1 Z " fill-rule="evenodd"/>
<path transform="matrix(2.7777777,0,0,-2.7777777,0,2338.889)" d="M 190.9 415.1 L 190.4 414.6 L 189.9 414.1 L 312.8 414.1 L 313.3 414.6 L 313.9 415.1 L 190.9 415.1 Z " fill-rule="evenodd"/>
<path transform="matrix(2.7777777,0,0,-2.7777777,0,2338.889)" d="M 344.6 415.1 L 344.1 414.6 L 344.6 414.1 L 405 414.1 L 405.5 414.6 L 406 415.1 L 344.6 415.1 Z " fill-rule="evenodd"/>
<path transform="matrix(2.7777777,0,0,-2.7777777,0,2338.889)" d="M 436.8 415.1 L 436.3 414.6 L 436.8 414.1 L 511.3 414.1 L 511.3 414.6 L 511.3 415.1 L 436.8 415.1 Z " fill-rule="evenodd"/>
<path transform="matrix(2.7777777,0,0,-2.7777777,0,2338.889)" d="M 129.5 388.8 L 129 388.3 L 128.5 387.8 L 220.6 387.8 L 221.2 388.3 L 220.6 388.8 L 129.5 388.8 Z " fill-rule="evenodd"/>
<path transform="matrix(2.7777777,0,0,-2.7777777,0,2338.889)" d="M 252.4 388.8 L 251.9 388.3 L 251.4 387.8 L 374.3 387.8 L 374.8 388.3 L 375.3 388.8 L 252.4 388.8 Z " fill-rule="evenodd"/>
<path transform="matrix(2.7777777,0,0,-2.7777777,0,2338.889)" d="M 406 388.8 L 405.5 388.3 L 406 387.8 L 436.8 387.8 L 436.3 388.3 L 435.7 388.8 L 406 388.8 Z " fill-rule="evenodd"/>
<path transform="matrix(2.7777777,0,0,-2.7777777,0,2338.889)" d="M 221.7 362.6 L 221.2 362.1 L 220.6 361.6 L 282.1 361.6 L 282.6 362.1 L 282.1 362.6 L 221.7 362.6 Z " fill-rule="evenodd"/>
<path transform="matrix(2.7777777,0,0,-2.7777777,0,2338.889)" d="M 313.9 362.6 L 313.3 362.1 L 312.8 361.6 L 405 361.6 L 405.5 362.1 L 405 362.6 L 313.9 362.6 Z " fill-rule="evenodd"/>
<path transform="matrix(2.7777777,0,0,-2.7777777,0,2338.889)" d="M 160.2 336.3 L 159.7 335.8 L 160.2 335.3 L 220.6 335.3 L 221.2 335.8 L 221.7 336.3 L 160.2 336.3 Z " fill-rule="evenodd"/>
<path transform="matrix(2.7777777,0,0,-2.7777777,0,2338.889)" d="M 283.1 336.3 L 282.6 335.8 L 282.1 335.3 L 343.6 335.3 L 344.1 335.8 L 343.6 336.3 L 283.1 336.3 Z " fill-rule="evenodd"/>
<path transform="matrix(2.7777777,0,0,-2.7777777,0,2338.889)" d="M 375.3 336.3 L 374.8 335.8 L 374.3 335.3 L 406 335.3 L 405.5 335.8 L 405 336.3 L 375.3 336.3 Z " fill-rule="evenodd"/>
<path transform="matrix(2.7777777,0,0,-2.7777777,0,2338.889)" d="M 160.2 310.1 L 159.7 309.6 L 160.2 309.1 L 344.6 309.1 L 344.1 309.6 L 343.6 310.1 L 160.2 310.1 Z " fill-rule="evenodd"/>
<path transform="matrix(2.7777777,0,0,-2.7777777,0,2338.889)" d="M 160.2 283.8 L 159.7 283.3 L 159.2 282.8 L 221.7 282.8 L 221.2 283.3 L 220.6 283.8 L 160.2 283.8 Z " fill-rule="evenodd"/>
<path transform="matrix(2.7777777,0,0,-2.7777777,0,2338.889)" d="M 128.5 387.8 L 129 388.3 L 129.5 388.8 L 129.5 545.3 L 129 545.8 L 128.5 546.3 L 128.5 387.8 Z " fill-rule="evenodd"/>
<path transform="matrix(2.7777777,0,0,-2.7777777,0,2338.889)" d="M 159.2 282.8 L 159.7 283.3 L 160.2 283.8 L 160.2 492.8 L 159.7 493.3 L 159.2 493.8 L 159.2 282.8 Z " fill-rule="evenodd"/>
<path transform="matrix(2.7777777,0,0,-2.7777777,0,2338.889)" d="M 189.9 414.1 L 190.4 414.6 L 190.9 415.1 L 190.9 467.6 L 190.4 467.1 L 189.9 466.6 L 189.9 414.1 Z " fill-rule="evenodd"/>
<path transform="matrix(2.7777777,0,0,-2.7777777,0,2338.889)" d="M 220.6 361.6 L 221.2 362.1 L 221.7 362.6 L 221.7 493.8 L 221.2 493.3 L 220.6 492.8 L 220.6 361.6 Z " fill-rule="evenodd"/>
<path transform="matrix(2.7777777,0,0,-2.7777777,0,2338.889)" d="M 220.6 283.8 L 221.2 283.3 L 221.7 282.8 L 221.7 336.3 L 221.2 335.8 L 220.6 335.3 L 220.6 283.8 Z " fill-rule="evenodd"/>
<path transform="matrix(2.7777777,0,0,-2.7777777,0,2338.889)" d="M 251.4 387.8 L 251.9 388.3 L 252.4 388.8 L 252.4 441.3 L 251.9 440.8 L 251.4 440.3 L 251.4 387.8 Z " fill-rule="evenodd"/>
<path transform="matrix(2.7777777,0,0,-2.7777777,0,2338.889)" d="M 282.1 492.8 L 282.6 493.3 L 283.1 493.8 L 283.1 546.3 L 282.6 545.8 L 282.1 545.3 L 282.1 492.8 Z " fill-rule="evenodd"/>
<path transform="matrix(2.7777777,0,0,-2.7777777,0,2338.889)" d="M 282.1 335.3 L 282.6 335.8 L 283.1 336.3 L 283.1 467.6 L 282.6 467.1 L 282.1 466.6 L 282.1 335.3 Z " fill-rule="evenodd"/>
<path transform="matrix(2.7777777,0,0,-2.7777777,0,2338.889)" d="M 312.8 361.6 L 313.3 362.1 L 313.9 362.6 L 313.9 415.1 L 313.3 414.6 L 312.8 414.1 L 312.8 361.6 Z " fill-rule="evenodd"/>
<path transform="matrix(2.7777777,0,0,-2.7777777,0,2338.889)" d="M 343.6 466.6 L 344.1 467.1 L 344.6 467.6 L 344.6 520.1 L 344.1 519.6 L 343.6 519 L 343.6 466.6 Z " fill-rule="evenodd"/>
<path transform="matrix(2.7777777,0,0,-2.7777777,0,2338.889)" d="M 343.6 310.1 L 344.1 309.6 L 344.6 309.1 L 344.6 441.3 L 344.1 440.8 L 343.6 440.3 L 343.6 310.1 Z " fill-rule="evenodd"/>
<path transform="matrix(2.7777777,0,0,-2.7777777,0,2338.889)" d="M 374.3 335.3 L 374.8 335.8 L 375.3 336.3 L 375.3 388.8 L 374.8 388.3 L 374.3 387.8 L 374.3 335.3 Z " fill-rule="evenodd"/>
<path transform="matrix(2.7777777,0,0,-2.7777777,0,2338.889)" d="M 405 440.3 L 405.5 440.8 L 406 441.3 L 406 493.8 L 405.5 493.3 L 405 492.8 L 405 440.3 Z " fill-rule="evenodd"/>
<path transform="matrix(2.7777777,0,0,-2.7777777,0,2338.889)" d="M 405 336.3 L 405.5 335.8 L 406 335.3 L 406 415.1 L 405.5 414.6 L 405 414.1 L 405 336.3 Z " fill-rule="evenodd"/>
<path transform="matrix(2.7777777,0,0,-2.7777777,0,2338.889)" d="M 435.7 388.8 L 436.3 388.3 L 436.8 387.8 L 436.8 467.6 L 436.3 467.1 L 435.7 466.6 L 435.7 388.8 Z " fill-rule="evenodd"/>
<g opacity=".5">
</g>
</g>
</g>
</svg>
