<?xml version="1.0" encoding="UTF-8" standalone="no"?>
<!DOCTYPE svg PUBLIC "-//W3C//DTD SVG 1.1//EN" "http://www.w3.org/Graphics/SVG/1.1/DTD/svg11.dtd">
<svg xmlns="http://www.w3.org/2000/svg" xmlns:xlink="http://www.w3.org/1999/xlink" version="1.1" width="1652.7777pt" height="2338.889pt" viewBox="0 0 1652.7777 2338.889">
<g enable-background="new">
<g>
<clipPath id="cp0">
<path transform="matrix(2.7777777,0,0,-2.7777777,0,2338.889)" d="M 54 770 L 541.2 770 L 541.2 806 L 54 806 Z " fill-rule="evenodd"/>
</clipPath>
<g clip-path="url(#cp0)">
<symbol id="font_1_1">
<path d="M .014160156 .08300781 L .17529297 .08300781 L .17529297 .63916018 L 0 .6040039 L 0 .69384768 L .1743164 .7290039 L .27294923 .7290039 L .27294923 .08300781 L .43408204 .08300781 L .43408204 0 L .014160156 0 L .014160156 .08300781 Z "/>
</symbol>
<use xlink:href="#font_1_1" transform="matrix(27.777777,0,0,-27.777777,812.2184,159.72241)"/>
<use xlink:href="#font_1_1" transform="matrix(27.777777,0,0,-27.777777,829.7183,159.72241)"/>
</g>
<clipPath id="cp2">
<path transform="matrix(2.7777777,0,0,-2.7777777,0,2338.889)" d="M 54 36.2 L 541.2 36.2 L 541.2 72.2 L 54 72.2 Z " fill-rule="evenodd"/>
</clipPath>
<g clip-path="url(#cp2)">
<symbol id="font_1_3">
<path d="M .09863281 .6479492 L .09863281 .37402345 L .22265625 .37402345 C .2685547 .37402345 .30403648 .38590495 .32910157 .40966798 C .35416667 .433431 .36669923 .46728517 .36669923 .51123049 C .36669923 .5548503 .35416667 .5885417 .32910157 .6123047 C .30403648 .6360677 .2685547 .6479492 .22265625 .6479492 L .09863281 .6479492 M 0 .7290039 L .22265625 .7290039 C .30436198 .7290039 .3660482 .7104492 .40771485 .67333987 C .44970704 .63655599 .47070313 .58251956 .47070313 .51123049 C .47070313 .43929038 .44970704 .38492839 .40771485 .34814454 C .3660482 .3113607 .30436198 .29296876 .22265625 .29296876 L .09863281 .29296876 L .09863281 0 L 0 0 L 0 .7290039 Z "/>
</symbol>
<symbol id="font_1_4">
<path d="M .28271485 .2890625 C .2101237 .2890625 .15983074 .28076173 .13183594 .26416017 C .10384115 .2475586 .08984375 .21923828 .08984375 .17919922 C .08984375 .14729817 .100260417 .121907558 .12109375 .103027347 C .14225261 .084472659 .17089844 .07519531 .20703125 .07519531 C .25683595 .07519531 .29671226 .09277344 .32666017 .12792969 C .3569336 .16341146 .3720703 .21044922 .3720703 .26904298 L .3720703 .2890625 L .28271485 .2890625 M .46191407 .32617188 L .46191407 .014160156 L .3720703 .014160156 L .3720703 .09716797 C .3515625 .063964847 .32600913 .03938802 .29541017 .0234375 C .2648112 .0078125 .2273763 0 .18310547 0 C .12711589 0 .08251953 .015625 .049316408 .046875 C .016438803 .07845052 0 .12060547 0 .17333985 C 0 .23486328 .020507813 .28125 .061523439 .3125 C .102864589 .34375 .16438802 .359375 .24609375 .359375 L .3720703 .359375 L .3720703 .36816407 C .3720703 .40950523 .35839845 .44140626 .3310547 .4638672 C .30403648 .48665367 .26595054 .49804688 .21679688 .49804688 C .18554688 .49804688 .15511067 .49430339 .12548828 .4868164 C .09586588 .47932945 .06738281 .46809898 .040039064 .453125 L .040039064 .5361328 C .072916667 .5488281 .10481771 .55826827 .13574219 .5644531 C .16666667 .57096359 .19677735 .57421877 .22607422 .57421877 C .30517579 .57421877 .3642578 .55371096 .4033203 .5126953 C .4423828 .4716797 .46191407 .40950523 .46191407 .32617188 Z "/>
</symbol>
<symbol id="font_1_5">
<path d="M .39892579 .48779298 C .39892579 .55289718 .38541667 .60335287 .35839845 .63916018 C .33170573 .67496749 .29410807 .6928711 .24560547 .6928711 C .19742839 .6928711 .15983074 .67496749 .1328125 .63916018 C .10611979 .60335287 .09277344 .55289718 .09277344 .48779298 C .09277344 .4230143 .10611979 .37272135 .1328125 .33691407 C .15983074 .30110679 .19742839 .28320313 .24560547 .28320313 C .29410807 .28320313 .33170573 .30110679 .35839845 .33691407 C .38541667 .37272135 .39892579 .4230143 .39892579 .48779298 M .48876954 .2758789 C .48876954 .18277996 .46809898 .11360677 .4267578 .068359378 C .38541667 .022786459 .32210288 0 .2368164 0 C .20524089 0 .17545574 .0024414063 .14746094 .0073242189 C .11946615 .011881511 .092285159 .019042969 .06591797 .028808594 L .06591797 .11621094 C .092285159 .10188802 .11832682 .091308597 .14404297 .084472659 C .16975911 .07763672 .19596355 .07421875 .22265625 .07421875 C .28157554 .07421875 .3256836 .08968099 .35498048 .12060547 C .38427735 .15120442 .39892579 .19759114 .39892579 .25976563 L .39892579 .30419923 C .3803711 .27197267 .35660807 .24788411 .32763673 .2319336 C .29866538 .21598308 .2639974 .20800781 .22363281 .20800781 C .15657552 .20800781 .10253906 .2335612 .061523439 .28466798 C .020507813 .33577476 0 .40348307 0 .48779298 C 0 .5724284 .020507813 .6402995 .061523439 .69140627 C .10253906 .742513 .15657552 .7680664 .22363281 .7680664 C .2639974 .7680664 .29866538 .7600911 .32763673 .7441406 C .35660807 .7281901 .3803711 .70410159 .39892579 .671875 L .39892579 .7548828 L .48876954 .7548828 L .48876954 .2758789 Z "/>
</symbol>
<symbol id="font_1_6">
<path d="M .50683596 .3100586 L .50683596 .26611329 L .09375 .26611329 C .09765625 .20426433 .11621094 .1570638 .14941406 .12451172 C .1829427 .092285159 .22949219 .076171878 .2890625 .076171878 C .32356773 .076171878 .3569336 .08040365 .38916017 .08886719 C .42171226 .09733073 .4539388 .11002604 .48583985 .12695313 L .48583985 .041992189 C .45361329 .028320313 .4205729 .017903647 .38671876 .0107421879 C .3528646 .0035807293 .31852214 0 .2836914 0 C .19645183 0 .12727864 .025390625 .076171878 .076171878 C .025390625 .12695313 0 .19563802 0 .28222657 C 0 .37174479 .024088541 .44270835 .072265628 .4951172 C .12076823 .54785159 .18603516 .57421877 .2680664 .57421877 C .34163413 .57421877 .3997396 .55045577 .4423828 .5029297 C .48535157 .45572917 .50683596 .3914388 .50683596 .3100586 M .4169922 .33642579 C .41634117 .38557945 .4025065 .4248047 .37548829 .45410157 C .34879557 .48339845 .3133138 .49804688 .26904298 .49804688 C .21891277 .49804688 .17871094 .48388673 .1484375 .4555664 C .118489589 .4272461 .10123698 .38736979 .09667969 .3359375 L .4169922 .33642579 Z "/>
</symbol>
<symbol id="font_1_7">
<path d="M 0 0 Z "/>
</symbol>
<use xlink:href="#font_1_3" transform="matrix(27.777777,0,0,-27.777777,782.7262,2198.0557)"/>
<use xlink:href="#font_1_4" transform="matrix(27.777777,0,0,-27.777777,797.22378,2198.449)"/>
<use xlink:href="#font_1_5" transform="matrix(27.777777,0,0,-27.777777,814.0326,2203.8338)"/>
<use xlink:href="#font_1_6" transform="matrix(27.777777,0,0,-27.777777,831.7826,2198.449)"/>
<use xlink:href="#font_1_7" transform="matrix(27.777777,0,0,-27.777777,847.1944,2198.0557)"/>
<use xlink:href="#font_1_1" transform="matrix(27.777777,0,0,-27.777777,859.16287,2198.0557)"/>
</g>
<path transform="matrix(2.7777777,0,0,-2.7777777,0,2338.889)" d="M 265.8 538.4 L 289 538.4 L 289 558.7 L 265.8 558.7 Z " fill="#c0c0c0" fill-rule="evenodd"/>
<path transform="matrix(2.7777777,0,0,-2.7777777,0,2338.889)" d="M 242.6 518.1 L 265.80003 518.1 L 265.80003 538.39999 L 242.6 538.39999 Z " fill="#c0c0c0" fill-rule="evenodd"/>
<path transform="matrix(2.7777777,0,0,-2.7777777,0,2338.889)" d="M 289 518.1 L 335.4 518.1 L 335.4 538.39999 L 289 538.39999 Z " fill="#c0c0c0" fill-rule="evenodd"/>
<path transform="matrix(2.7777777,0,0,-2.7777777,0,2338.889)" d="M 219.4 497.9 L 312.2 497.9 L 312.2 518.2 L 219.4 518.2 Z " fill="#c0c0c0" fill-rule="evenodd"/>
<path transform="matrix(2.7777777,0,0,-2.7777777,0,2338.889)" d="M 196.2 477.7 L 242.6 477.7 L 242.6 498 L 196.2 498 Z " fill="#c0c0c0" fill-rule="evenodd"/>
<path transform="matrix(2.7777777,0,0,-2.7777777,0,2338.889)" d="M 335.3 477.7 L 381.69999 477.7 L 381.69999 498 L 335.3 498 Z " fill="#c0c0c0" fill-rule="evenodd"/>
<path transform="matrix(2.7777777,0,0,-2.7777777,0,2338.889)" d="M 173 457.4 L 289 457.4 L 289 477.69999 L 173 477.69999 Z " fill="#c0c0c0" fill-rule="evenodd"/>
<path transform="matrix(2.7777777,0,0,-2.7777777,0,2338.889)" d="M 312.2 457.4 L 358.6 457.4 L 358.6 477.69999 L 312.2 477.69999 Z " fill="#c0c0c0" fill-rule="evenodd"/>
<path transform="matrix(2.7777777,0,0,-2.7777777,0,2338.889)" d="M 149.8 437.2 L 219.4 437.2 L 219.4 457.5 L 149.8 457.5 Z " fill="#c0c0c0" fill-rule="evenodd"/>
<path transform="matrix(2.7777777,0,0,-2.7777777,0,2338.889)" d="M 289 437.2 L 335.4 437.2 L 335.4 457.5 L 289 457.5 Z " fill="#c0c0c0" fill-rule="evenodd"/>
<path transform="matrix(2.7777777,0,0,-2.7777777,0,2338.889)" d="M 381.7 437.2 L 428.1 437.2 L 428.1 457.5 L 381.7 457.5 Z " fill="#c0c0c0" fill-rule="evenodd"/>
<path transform="matrix(2.7777777,0,0,-2.7777777,0,2338.889)" d="M 126.7 416.9 L 312.2 416.9 L 312.2 437.19999 L 126.7 437.19999 Z " fill="#c0c0c0" fill-rule="evenodd"/>
<path transform="matrix(2.7777777,0,0,-2.7777777,0,2338.889)" d="M 358.5 416.9 L 404.9 416.9 L 404.9 437.19999 L 358.5 437.19999 Z " fill="#c0c0c0" fill-rule="evenodd"/>
<path transform="matrix(2.7777777,0,0,-2.7777777,0,2338.889)" d="M 126.7 396.7 L 196.29999 396.7 L 196.29999 417 L 126.7 417 Z " fill="#c0c0c0" fill-rule="evenodd"/>
<path transform="matrix(2.7777777,0,0,-2.7777777,0,2338.889)" d="M 335.3 396.7 L 381.69999 396.7 L 381.69999 417 L 335.3 417 Z " fill="#c0c0c0" fill-rule="evenodd"/>
<path transform="matrix(2.7777777,0,0,-2.7777777,0,2338.889)" d="M 126.7 376.5 L 289 376.5 L 289 396.8 L 126.7 396.8 Z " fill="#c0c0c0" fill-rule="evenodd"/>
<path transform="matrix(2.7777777,0,0,-2.7777777,0,2338.889)" d="M 312.2 376.5 L 358.6 376.5 L 358.6 396.8 L 312.2 396.8 Z " fill="#c0c0c0" fill-rule="evenodd"/>
<path transform="matrix(2.7777777,0,0,-2.7777777,0,2338.889)" d="M 126.7 356.2 L 173.1 356.2 L 173.1 376.5 L 126.7 376.5 Z " fill="#c0c0c0" fill-rule="evenodd"/>
<path transform="matrix(2.7777777,0,0,-2.7777777,0,2338.889)" d="M 289 356.2 L 335.4 356.2 L 335.4 376.5 L 289 376.5 Z " fill="#c0c0c0" fill-rule="evenodd"/>
<path transform="matrix(2.7777777,0,0,-2.7777777,0,2338.889)" d="M 126.7 336 L 312.2 336 L 312.2 356.3 L 126.7 356.3 Z " fill="#c0c0c0" fill-rule="evenodd"/>
<path transform="matrix(2.7777777,0,0,-2.7777777,0,2338.889)" d="M 126.7 315.7 L 149.9 315.7 L 149.9 336 L 126.7 336 Z " fill="#c0c0c0" fill-rule="evenodd"/>
<path transform="matrix(2.7777777,0,0,-2.7777777,0,2338.889)" d="M 126.7 295.5 L 289 295.5 L 289 315.8 L 126.7 315.8 Z " fill="#c0c0c0" fill-rule="evenodd"/>
<path transform="matrix(2.7777777,0,0,-2.7777777,0,2338.889)" d="M 265.4 559.1 L 265.9 558.6 L 266.4 558.1 L 288.5 558.1 L 289 558.6 L 289.6 559.1 L 265.4 559.1 Z " fill-rule="evenodd"/>
<path transform="matrix(2.7777777,0,0,-2.7777777,0,2338.889)" d="M 242.2 538.8 L 242.7 538.3 L 243.2 537.8 L 334.9 537.8 L 335.4 538.3 L 335.9 538.8 L 242.2 538.8 Z " fill-rule="evenodd"/>
<path transform="matrix(2.7777777,0,0,-2.7777777,0,2338.889)" d="M 219 518.6 L 219.5 518.1 L 220 517.6 L 242.2 517.6 L 242.7 518.1 L 242.2 518.6 L 219 518.6 Z " fill-rule="evenodd"/>
<path transform="matrix(2.7777777,0,0,-2.7777777,0,2338.889)" d="M 266.4 518.6 L 265.9 518.1 L 265.4 517.6 L 289.6 517.6 L 289 518.1 L 288.5 518.6 L 266.4 518.6 Z " fill-rule="evenodd"/>
<path transform="matrix(2.7777777,0,0,-2.7777777,0,2338.889)" d="M 311.7 518.6 L 312.2 518.1 L 312.7 517.6 L 334.9 517.6 L 335.4 518.1 L 334.9 518.6 L 311.7 518.6 Z " fill-rule="evenodd"/>
<path transform="matrix(2.7777777,0,0,-2.7777777,0,2338.889)" d="M 195.8 498.4 L 196.3 497.8 L 196.8 497.3 L 219 497.3 L 219.5 497.8 L 219 498.4 L 195.8 498.4 Z " fill-rule="evenodd"/>
<path transform="matrix(2.7777777,0,0,-2.7777777,0,2338.889)" d="M 243.2 498.4 L 242.7 497.8 L 243.2 497.3 L 311.7 497.3 L 312.2 497.8 L 311.7 498.4 L 243.2 498.4 Z " fill-rule="evenodd"/>
<path transform="matrix(2.7777777,0,0,-2.7777777,0,2338.889)" d="M 335.9 498.4 L 335.4 497.8 L 335.9 497.3 L 381.3 497.3 L 381.8 497.8 L 382.3 498.4 L 335.9 498.4 Z " fill-rule="evenodd"/>
<path transform="matrix(2.7777777,0,0,-2.7777777,0,2338.889)" d="M 172.6 478.1 L 173.1 477.6 L 173.6 477.1 L 195.8 477.1 L 196.3 477.6 L 195.8 478.1 L 172.6 478.1 Z " fill-rule="evenodd"/>
<path transform="matrix(2.7777777,0,0,-2.7777777,0,2338.889)" d="M 243.2 478.1 L 242.7 477.6 L 242.2 477.1 L 288.5 477.1 L 289 477.6 L 289.6 478.1 L 243.2 478.1 Z " fill-rule="evenodd"/>
<path transform="matrix(2.7777777,0,0,-2.7777777,0,2338.889)" d="M 312.7 478.1 L 312.2 477.6 L 312.7 477.1 L 335.9 477.1 L 335.4 477.6 L 334.9 478.1 L 312.7 478.1 Z " fill-rule="evenodd"/>
<path transform="matrix(2.7777777,0,0,-2.7777777,0,2338.889)" d="M 358.1 478.1 L 358.6 477.6 L 359.1 477.1 L 381.3 477.1 L 381.8 477.6 L 381.3 478.1 L 358.1 478.1 Z " fill-rule="evenodd"/>
<path transform="matrix(2.7777777,0,0,-2.7777777,0,2338.889)" d="M 149.4 457.9 L 149.9 457.4 L 150.4 456.9 L 172.6 456.9 L 173.1 457.4 L 172.6 457.9 L 149.4 457.9 Z " fill-rule="evenodd"/>
<path transform="matrix(2.7777777,0,0,-2.7777777,0,2338.889)" d="M 220 457.9 L 219.5 457.4 L 220 456.9 L 312.7 456.9 L 312.2 457.4 L 311.7 457.9 L 220 457.9 Z " fill-rule="evenodd"/>
<path transform="matrix(2.7777777,0,0,-2.7777777,0,2338.889)" d="M 334.9 457.9 L 335.4 457.4 L 335.9 456.9 L 358.1 456.9 L 358.6 457.4 L 358.1 457.9 L 334.9 457.9 Z " fill-rule="evenodd"/>
<path transform="matrix(2.7777777,0,0,-2.7777777,0,2338.889)" d="M 382.3 457.9 L 381.8 457.4 L 382.3 456.9 L 427.7 456.9 L 428.2 457.4 L 428.7 457.9 L 382.3 457.9 Z " fill-rule="evenodd"/>
<path transform="matrix(2.7777777,0,0,-2.7777777,0,2338.889)" d="M 126.2 437.6 L 126.7 437.1 L 127.2 436.6 L 149.4 436.6 L 149.9 437.1 L 149.4 437.6 L 126.2 437.6 Z " fill-rule="evenodd"/>
<path transform="matrix(2.7777777,0,0,-2.7777777,0,2338.889)" d="M 220 437.6 L 219.5 437.1 L 219 436.6 L 289.6 436.6 L 289 437.1 L 288.5 437.6 L 220 437.6 Z " fill-rule="evenodd"/>
<path transform="matrix(2.7777777,0,0,-2.7777777,0,2338.889)" d="M 311.7 437.6 L 312.2 437.1 L 312.7 436.6 L 334.9 436.6 L 335.4 437.1 L 334.9 437.6 L 311.7 437.6 Z " fill-rule="evenodd"/>
<path transform="matrix(2.7777777,0,0,-2.7777777,0,2338.889)" d="M 359.1 437.6 L 358.6 437.1 L 359.1 436.6 L 382.3 436.6 L 381.8 437.1 L 381.3 437.6 L 359.1 437.6 Z " fill-rule="evenodd"/>
<path transform="matrix(2.7777777,0,0,-2.7777777,0,2338.889)" d="M 404.5 437.6 L 405 437.1 L 405.5 436.6 L 427.7 436.6 L 428.2 437.1 L 427.7 437.6 L 404.5 437.6 Z " fill-rule="evenodd"/>
<path transform="matrix(2.7777777,0,0,-2.7777777,0,2338.889)" d="M 53.9 417.4 L 53.9 416.9 L 53.9 416.4 L 126.2 416.4 L 126.7 416.9 L 126.2 417.4 L 53.9 417.4 Z " fill-rule="evenodd"/>
<path transform="matrix(2.7777777,0,0,-2.7777777,0,2338.889)" d="M 196.8 417.4 L 196.3 416.9 L 196.8 416.4 L 311.7 416.4 L 312.2 416.9 L 311.7 417.4 L 196.8 417.4 Z " fill-rule="evenodd"/>
<path transform="matrix(2.7777777,0,0,-2.7777777,0,2338.889)" d="M 335.9 417.4 L 335.4 416.9 L 335.9 416.4 L 359.1 416.4 L 358.6 416.9 L 358.1 417.4 L 335.9 417.4 Z " fill-rule="evenodd"/>
<path transform="matrix(2.7777777,0,0,-2.7777777,0,2338.889)" d="M 381.3 417.4 L 381.8 416.9 L 382.3 416.4 L 404.5 416.4 L 405 416.9 L 404.5 417.4 L 381.3 417.4 Z " fill-rule="evenodd"/>
<path transform="matrix(2.7777777,0,0,-2.7777777,0,2338.889)" d="M 428.7 417.4 L 428.2 416.9 L 428.7 416.4 L 501 416.4 L 501 416.9 L 501 417.4 L 428.7 417.4 Z " fill-rule="evenodd"/>
<path transform="matrix(2.7777777,0,0,-2.7777777,0,2338.889)" d="M 196.8 397.2 L 196.3 396.6 L 195.8 396.1 L 288.5 396.1 L 289 396.6 L 289.6 397.2 L 196.8 397.2 Z " fill-rule="evenodd"/>
<path transform="matrix(2.7777777,0,0,-2.7777777,0,2338.889)" d="M 312.7 397.2 L 312.2 396.6 L 312.7 396.1 L 335.9 396.1 L 335.4 396.6 L 334.9 397.2 L 312.7 397.2 Z " fill-rule="evenodd"/>
<path transform="matrix(2.7777777,0,0,-2.7777777,0,2338.889)" d="M 358.1 397.2 L 358.6 396.6 L 359.1 396.1 L 381.3 396.1 L 381.8 396.6 L 381.3 397.2 L 358.1 397.2 Z " fill-rule="evenodd"/>
<path transform="matrix(2.7777777,0,0,-2.7777777,0,2338.889)" d="M 405.5 397.2 L 405 396.6 L 405.5 396.1 L 428.7 396.1 L 428.2 396.6 L 427.7 397.2 L 405.5 397.2 Z " fill-rule="evenodd"/>
<path transform="matrix(2.7777777,0,0,-2.7777777,0,2338.889)" d="M 173.6 376.9 L 173.1 376.4 L 173.6 375.9 L 312.7 375.9 L 312.2 376.4 L 311.7 376.9 L 173.6 376.9 Z " fill-rule="evenodd"/>
<path transform="matrix(2.7777777,0,0,-2.7777777,0,2338.889)" d="M 334.9 376.9 L 335.4 376.4 L 335.9 375.9 L 358.1 375.9 L 358.6 376.4 L 358.1 376.9 L 334.9 376.9 Z " fill-rule="evenodd"/>
<path transform="matrix(2.7777777,0,0,-2.7777777,0,2338.889)" d="M 382.3 376.9 L 381.8 376.4 L 382.3 375.9 L 405.5 375.9 L 405 376.4 L 404.5 376.9 L 382.3 376.9 Z " fill-rule="evenodd"/>
<path transform="matrix(2.7777777,0,0,-2.7777777,0,2338.889)" d="M 173.6 356.7 L 173.1 356.2 L 172.6 355.7 L 289.6 355.7 L 289 356.2 L 288.5 356.7 L 173.6 356.7 Z " fill-rule="evenodd"/>
<path transform="matrix(2.7777777,0,0,-2.7777777,0,2338.889)" d="M 311.7 356.7 L 312.2 356.2 L 312.7 355.7 L 334.9 355.7 L 335.4 356.2 L 334.9 356.7 L 311.7 356.7 Z " fill-rule="evenodd"/>
<path transform="matrix(2.7777777,0,0,-2.7777777,0,2338.889)" d="M 359.1 356.7 L 358.6 356.2 L 359.1 355.7 L 382.3 355.7 L 381.8 356.2 L 381.3 356.7 L 359.1 356.7 Z " fill-rule="evenodd"/>
<path transform="matrix(2.7777777,0,0,-2.7777777,0,2338.889)" d="M 150.4 336.4 L 149.9 335.9 L 150.4 335.4 L 311.7 335.4 L 312.2 335.9 L 311.7 336.4 L 150.4 336.4 Z " fill-rule="evenodd"/>
<path transform="matrix(2.7777777,0,0,-2.7777777,0,2338.889)" d="M 335.9 336.4 L 335.4 335.9 L 335.9 335.4 L 359.1 335.4 L 358.6 335.9 L 358.1 336.4 L 335.9 336.4 Z " fill-rule="evenodd"/>
<path transform="matrix(2.7777777,0,0,-2.7777777,0,2338.889)" d="M 150.4 316.2 L 149.9 315.7 L 149.4 315.2 L 288.5 315.2 L 289 315.7 L 289.6 316.2 L 150.4 316.2 Z " fill-rule="evenodd"/>
<path transform="matrix(2.7777777,0,0,-2.7777777,0,2338.889)" d="M 312.7 316.2 L 312.2 315.7 L 312.7 315.2 L 335.9 315.2 L 335.4 315.7 L 334.9 316.2 L 312.7 316.2 Z " fill-rule="evenodd"/>
<path transform="matrix(2.7777777,0,0,-2.7777777,0,2338.889)" d="M 127.2 296 L 126.7 295.5 L 127.2 294.9 L 312.7 294.9 L 312.2 295.5 L 311.7 296 L 127.2 296 Z " fill-rule="evenodd"/>
<path transform="matrix(2.7777777,0,0,-2.7777777,0,2338.889)" d="M 127.2 275.7 L 126.7 275.2 L 126.2 274.7 L 289.6 274.7 L 289 275.2 L 288.5 275.7 L 127.2 275.7 Z " fill-rule="evenodd"/>
<path transform="matrix(2.7777777,0,0,-2.7777777,0,2338.889)" d="M 126.2 274.7 L 126.7 275.2 L 127.2 275.7 L 127.2 436.6 L 126.7 437.1 L 126.2 437.6 L 126.2 274.7 Z " fill-rule="evenodd"/>
<path transform="matrix(2.7777777,0,0,-2.7777777,0,2338.889)" d="M 149.4 315.2 L 149.9 315.7 L 150.4 316.2 L 150.4 456.9 L 149.9 457.4 L 149.4 457.9 L 149.4 315.2 Z " fill-rule="evenodd"/>
<path transform="matrix(2.7777777,0,0,-2.7777777,0,2338.889)" d="M 172.6 355.7 L 173.1 356.2 L 173.6 356.7 L 173.6 477.1 L 173.1 477.6 L 172.6 478.1 L 172.6 355.7 Z " fill-rule="evenodd"/>
<path transform="matrix(2.7777777,0,0,-2.7777777,0,2338.889)" d="M 195.8 396.1 L 196.3 396.6 L 196.8 397.2 L 196.8 497.3 L 196.3 497.8 L 195.8 498.4 L 195.8 396.1 Z " fill-rule="evenodd"/>
<path transform="matrix(2.7777777,0,0,-2.7777777,0,2338.889)" d="M 219 436.6 L 219.5 437.1 L 220 437.6 L 220 517.6 L 219.5 518.1 L 219 518.6 L 219 436.6 Z " fill-rule="evenodd"/>
<path transform="matrix(2.7777777,0,0,-2.7777777,0,2338.889)" d="M 242.2 477.1 L 242.7 477.6 L 243.2 478.1 L 243.2 537.8 L 242.7 538.3 L 242.2 538.8 L 242.2 477.1 Z " fill-rule="evenodd"/>
<path transform="matrix(2.7777777,0,0,-2.7777777,0,2338.889)" d="M 265.4 517.6 L 265.9 518.1 L 266.4 518.6 L 266.4 558.1 L 265.9 558.6 L 265.4 559.1 L 265.4 517.6 Z " fill-rule="evenodd"/>
<path transform="matrix(2.7777777,0,0,-2.7777777,0,2338.889)" d="M 288.5 518.6 L 289 518.1 L 289.6 517.6 L 289.6 559.1 L 289 558.6 L 288.5 558.1 L 288.5 518.6 Z " fill-rule="evenodd"/>
<path transform="matrix(2.7777777,0,0,-2.7777777,0,2338.889)" d="M 288.5 437.6 L 289 437.1 L 289.6 436.6 L 289.6 478.1 L 289 477.6 L 288.5 477.1 L 288.5 437.6 Z " fill-rule="evenodd"/>
<path transform="matrix(2.7777777,0,0,-2.7777777,0,2338.889)" d="M 288.5 356.7 L 289 356.2 L 289.6 355.7 L 289.6 397.2 L 289 396.6 L 288.5 396.1 L 288.5 356.7 Z " fill-rule="evenodd"/>
<path transform="matrix(2.7777777,0,0,-2.7777777,0,2338.889)" d="M 288.5 275.7 L 289 275.2 L 289.6 274.7 L 289.6 316.2 L 289 315.7 L 288.5 315.2 L 288.5 275.7 Z " fill-rule="evenodd"/>
<path transform="matrix(2.7777777,0,0,-2.7777777,0,2338.889)" d="M 311.7 457.9 L 312.2 457.4 L 312.7 456.9 L 312.7 517.6 L 312.2 518.1 L 311.7 518.6 L 311.7 457.9 Z " fill-rule="evenodd"/>
<path transform="matrix(2.7777777,0,0,-2.7777777,0,2338.889)" d="M 311.7 376.9 L 312.2 376.4 L 312.7 375.9 L 312.7 436.6 L 312.2 437.1 L 311.7 437.6 L 311.7 376.9 Z " fill-rule="evenodd"/>
<path transform="matrix(2.7777777,0,0,-2.7777777,0,2338.889)" d="M 311.7 296 L 312.2 295.5 L 312.7 294.9 L 312.7 355.7 L 312.2 356.2 L 311.7 356.7 L 311.7 296 Z " fill-rule="evenodd"/>
<path transform="matrix(2.7777777,0,0,-2.7777777,0,2338.889)" d="M 334.9 478.1 L 335.4 477.6 L 335.9 477.1 L 335.9 538.8 L 335.4 538.3 L 334.9 537.8 L 334.9 478.1 Z " fill-rule="evenodd"/>
<path transform="matrix(2.7777777,0,0,-2.7777777,0,2338.889)" d="M 334.9 397.2 L 335.4 396.6 L 335.9 396.1 L 335.9 456.9 L 335.4 457.4 L 334.9 457.9 L 334.9 397.2 Z " fill-rule="evenodd"/>
<path transform="matrix(2.7777777,0,0,-2.7777777,0,2338.889)" d="M 334.9 316.2 L 335.4 315.7 L 335.9 315.2 L 335.9 375.9 L 335.4 376.4 L 334.9 376.9 L 334.9 316.2 Z " fill-rule="evenodd"/>
<path transform="matrix(2.7777777,0,0,-2.7777777,0,2338.889)" d="M 358.1 417.4 L 358.6 416.9 L 359.1 416.4 L 359.1 477.1 L 358.6 477.6 L 358.1 478.1 L 358.1 417.4 Z " fill-rule="evenodd"/>
<path transform="matrix(2.7777777,0,0,-2.7777777,0,2338.889)" d="M 358.1 336.4 L 358.6 335.9 L 359.1 335.4 L 359.1 396.1 L 358.6 396.6 L 358.1 397.2 L 358.1 336.4 Z " fill-rule="evenodd"/>
<path transform="matrix(2.7777777,0,0,-2.7777777,0,2338.889)" d="M 381.3 437.6 L 381.8 437.1 L 382.3 436.6 L 382.3 498.4 L 381.8 497.8 L 381.3 497.3 L 381.3 437.6 Z " fill-rule="evenodd"/>
<path transform="matrix(2.7777777,0,0,-2.7777777,0,2338.889)" d="M 381.3 356.7 L 381.8 356.2 L 382.3 355.7 L 382.3 416.4 L 381.8 416.9 L 381.3 417.4 L 381.3 356.7 Z " fill-rule="evenodd"/>
<path transform="matrix(2.7777777,0,0,-2.7777777,0,2338.889)" d="M 404.5 376.9 L 405 376.4 L 405.5 375.9 L 405.5 436.6 L 405 437.1 L 404.5 437.6 L 404.5 376.9 Z " fill-rule="evenodd"/>
<path transform="matrix(2.7777777,0,0,-2.7777777,0,2338.889)" d="M 427.7 397.2 L 428.2 396.6 L 428.7 396.1 L 428.7 457.9 L 428.2 457.4 L 427.7 456.9 L 427.7 397.2 Z " fill-rule="evenodd"/>
<g opacity=".5">
</g>
</g>
</g>
</svg>
