<?xml version="1.0" encoding="UTF-8" standalone="no"?>
<!DOCTYPE svg PUBLIC "-//W3C//DTD SVG 1.1//EN" "http://www.w3.org/Graphics/SVG/1.1/DTD/svg11.dtd">
<svg xmlns="http://www.w3.org/2000/svg" xmlns:xlink="http://www.w3.org/1999/xlink" version="1.1" width="1652.7777pt" height="2338.889pt" viewBox="0 0 1652.7777 2338.889">
<g enable-background="new">
<g>
<clipPath id="cp0">
<path transform="matrix(2.7777777,0,0,-2.7777777,0,2338.889)" d="M 54 770 L 541.2 770 L 541.2 806 L 54 806 Z " fill-rule="evenodd"/>
</clipPath>
<g clip-path="url(#cp0)">
<symbol id="font_1_d">
<path d="M 0 .7290039 L .46875 .7290039 L .46875 .6870117 L .20410156 0 L .10107422 0 L .35009767 .6459961 L 0 .6459961 L 0 .7290039 Z "/>
</symbol>
<use xlink:href="#font_1_d" transform="matrix(27.777777,0,0,-27.777777,820.33419,159.72241)"/>
</g>
<clipPath id="cp2">
<path transform="matrix(2.7777777,0,0,-2.7777777,0,2338.889)" d="M 54 36.2 L 541.2 36.2 L 541.2 72.2 L 54 72.2 Z " fill-rule="evenodd"/>
</clipPath>
<g clip-path="url(#cp2)">
<symbol id="font_1_3">
<path d="M .09863281 .6479492 L .09863281 .37402345 L .22265625 .37402345 C .2685547 .37402345 .30403648 .38590495 .32910157 .40966798 C .35416667 .433431 .36669923 .46728517 .36669923 .51123049 C .36669923 .5548503 .35416667 .5885417 .32910157 .6123047 C .30403648 .6360677 .2685547 .6479492 .22265625 .6479492 L .09863281 .6479492 M 0 .7290039 L .22265625 .7290039 C .30436198 .7290039 .3660482 .7104492 .40771485 .67333987 C .44970704 .63655599 .47070313 .58251956 .47070313 .51123049 C .47070313 .43929038 .44970704 .38492839 .40771485 .34814454 C .3660482 .3113607 .30436198 .29296876 .22265625 .29296876 L .09863281 .29296876 L .09863281 0 L 0 0 L 0 .7290039 Z "/>
</symbol>
<symbol id="font_1_4">
<path d="M .28271485 .2890625 C .2101237 .2890625 .15983074 .28076173 .13183594 .26416017 C .10384115 .2475586 .08984375 .21923828 .08984375 .17919922 C .08984375 .14729817 .100260417 .121907558 .12109375 .103027347 C .14225261 .084472659 .17089844 .07519531 .20703125 .07519531 C .25683595 .07519531 .29671226 .09277344 .32666017 .12792969 C .3569336 .16341146 .3720703 .21044922 .3720703 .26904298 L .3720703 .2890625 L .28271485 .2890625 M .46191407 .32617188 L .46191407 .014160156 L .3720703 .014160156 L .3720703 .09716797 C .3515625 .063964847 .32600913 .03938802 .29541017 .0234375 C .2648112 .0078125 .2273763 0 .18310547 0 C .12711589 0 .08251953 .015625 .049316408 .046875 C .016438803 .07845052 0 .12060547 0 .17333985 C 0 .23486328 .020507813 .28125 .061523439 .3125 C .102864589 .34375 .16438802 .359375 .24609375 .359375 L .3720703 .359375 L .3720703 .36816407 C .3720703 .40950523 .35839845 .44140626 .3310547 .4638672 C .30403648 .48665367 .26595054 .49804688 .21679688 .49804688 C .18554688 .49804688 .15511067 .49430339 .12548828 .4868164 C .09586588 .47932945 .06738281 .46809898 .040039064 .453125 L .040039064 .5361328 C .072916667 .5488281 .10481771 .55826827 .13574219 .5644531 C .16666667 .57096359 .19677735 .57421877 .22607422 .57421877 C .30517579 .57421877 .3642578 .55371096 .4033203 .5126953 C .4423828 .4716797 .46191407 .40950523 .46191407 .32617188 Z "/>
</symbol>
<symbol id="font_1_5">
<path d="M .39892579 .48779298 C .39892579 .55289718 .38541667 .60335287 .35839845 .63916018 C .33170573 .67496749 .29410807 .6928711 .24560547 .6928711 C .19742839 .6928711 .15983074 .67496749 .1328125 .63916018 C .10611979 .60335287 .09277344 .55289718 .09277344 .48779298 C .09277344 .4230143 .10611979 .37272135 .1328125 .33691407 C .15983074 .30110679 .19742839 .28320313 .24560547 .28320313 C .29410807 .28320313 .33170573 .30110679 .35839845 .33691407 C .38541667 .37272135 .39892579 .4230143 .39892579 .48779298 M .48876954 .2758789 C .48876954 .18277996 .46809898 .11360677 .4267578 .068359378 C .38541667 .022786459 .32210288 0 .2368164 0 C .20524089 0 .17545574 .0024414063 .14746094 .0073242189 C .11946615 .011881511 .092285159 .019042969 .06591797 .028808594 L .06591797 .11621094 C .092285159 .10188802 .11832682 .091308597 .14404297 .084472659 C .16975911 .07763672 .19596355 .07421875 .22265625 .07421875 C .28157554 .07421875 .3256836 .08968099 .35498048 .12060547 C .38427735 .15120442 .39892579 .19759114 .39892579 .25976563 L .39892579 .30419923 C .3803711 .27197267 .35660807 .24788411 .32763673 .2319336 C .29866538 .21598308 .2639974 .20800781 .22363281 .20800781 C .15657552 .20800781 .10253906 .2335612 .061523439 .28466798 C .020507813 .33577476 0 .40348307 0 .48779298 C 0 .5724284 .020507813 .6402995 .061523439 .69140627 C .10253906 .742513 .15657552 .7680664 .22363281 .7680664 C .2639974 .7680664 .29866538 .7600911 .32763673 .7441406 C .35660807 .7281901 .3803711 .70410159 .39892579 .671875 L .39892579 .7548828 L .48876954 .7548828 L .48876954 .2758789 Z "/>
</symbol>
<symbol id="font_1_6">
<path d="M .50683596 .3100586 L .50683596 .26611329 L .09375 .26611329 C .09765625 .20426433 .11621094 .1570638 .14941406 .12451172 C .1829427 .092285159 .22949219 .076171878 .2890625 .076171878 C .32356773 .076171878 .3569336 .08040365 .38916017 .08886719 C .42171226 .09733073 .4539388 .11002604 .48583985 .12695313 L .48583985 .041992189 C .45361329 .028320313 .4205729 .017903647 .38671876 .0107421879 C .3528646 .0035807293 .31852214 0 .2836914 0 C .19645183 0 .12727864 .025390625 .076171878 .076171878 C .025390625 .12695313 0 .19563802 0 .28222657 C 0 .37174479 .024088541 .44270835 .072265628 .4951172 C .12076823 .54785159 .18603516 .57421877 .2680664 .57421877 C .34163413 .57421877 .3997396 .55045577 .4423828 .5029297 C .48535157 .45572917 .50683596 .3914388 .50683596 .3100586 M .4169922 .33642579 C .41634117 .38557945 .4025065 .4248047 .37548829 .45410157 C .34879557 .48339845 .3133138 .49804688 .26904298 .49804688 C .21891277 .49804688 .17871094 .48388673 .1484375 .4555664 C .118489589 .4272461 .10123698 .38736979 .09667969 .3359375 L .4169922 .33642579 Z "/>
</symbol>
<symbol id="font_1_7">
<path d="M 0 0 Z "/>
</symbol>
<use xlink:href="#font_1_3" transform="matrix(27.777777,0,0,-27.777777,782.7262,2198.0557)"/>
<use xlink:href="#font_1_4" transform="matrix(27.777777,0,0,-27.777777,797.22378,2198.449)"/>
<use xlink:href="#font_1_5" transform="matrix(27.777777,0,0,-27.777777,814.0326,2203.8338)"/>
<use xlink:href="#font_1_6" transform="matrix(27.777777,0,0,-27.777777,831.7826,2198.449)"/>
<use xlink:href="#font_1_7" transform="matrix(27.777777,0,0,-27.777777,847.1944,2198.0557)"/>
<symbol id="font_1_1">
<path d="M .014160156 .08300781 L .17529297 .08300781 L .17529297 .63916018 L 0 .6040039 L 0 .69384768 L .1743164 .7290039 L .27294923 .7290039 L .27294923 .08300781 L .43408204 .08300781 L .43408204 0 L .014160156 0 L .014160156 .08300781 Z "/>
</symbol>
<use xlink:href="#font_1_1" transform="matrix(27.777777,0,0,-27.777777,859.16287,2198.0557)"/>
</g>
<path transform="matrix(2.7777777,0,0,-2.7777777,0,2338.889)" d="M 90.6 540.6 L 113.1 540.6 L 113.1 558.6 L 90.6 558.6 Z " fill="#c0c0c0" fill-rule="evenodd"/>
<path transform="matrix(2.7777777,0,0,-2.7777777,0,2338.889)" d="M 180.3 540.6 L 247.6 540.6 L 247.6 558.6 L 180.3 558.6 Z " fill="#c0c0c0" fill-rule="evenodd"/>
<path transform="matrix(2.7777777,0,0,-2.7777777,0,2338.889)" d="M 314.8 540.6 L 382.09999 540.6 L 382.09999 558.6 L 314.8 558.6 Z " fill="#c0c0c0" fill-rule="evenodd"/>
<path transform="matrix(2.7777777,0,0,-2.7777777,0,2338.889)" d="M 449.3 540.6 L 471.8 540.6 L 471.8 558.6 L 449.3 558.6 Z " fill="#c0c0c0" fill-rule="evenodd"/>
<path transform="matrix(2.7777777,0,0,-2.7777777,0,2338.889)" d="M 90.6 522.7 L 135.5 522.7 L 135.5 540.7 L 90.6 540.7 Z " fill="#c0c0c0" fill-rule="evenodd"/>
<path transform="matrix(2.7777777,0,0,-2.7777777,0,2338.889)" d="M 157.9 522.7 L 270 522.7 L 270 540.7 L 157.9 540.7 Z " fill="#c0c0c0" fill-rule="evenodd"/>
<path transform="matrix(2.7777777,0,0,-2.7777777,0,2338.889)" d="M 292.4 522.7 L 404.5 522.7 L 404.5 540.7 L 292.4 540.7 Z " fill="#c0c0c0" fill-rule="evenodd"/>
<path transform="matrix(2.7777777,0,0,-2.7777777,0,2338.889)" d="M 426.9 522.7 L 471.8 522.7 L 471.8 540.7 L 426.9 540.7 Z " fill="#c0c0c0" fill-rule="evenodd"/>
<path transform="matrix(2.7777777,0,0,-2.7777777,0,2338.889)" d="M 113 504.7 L 180.3 504.7 L 180.3 522.7 L 113 522.7 Z " fill="#c0c0c0" fill-rule="evenodd"/>
<path transform="matrix(2.7777777,0,0,-2.7777777,0,2338.889)" d="M 247.5 504.7 L 314.8 504.7 L 314.8 522.7 L 247.5 522.7 Z " fill="#c0c0c0" fill-rule="evenodd"/>
<path transform="matrix(2.7777777,0,0,-2.7777777,0,2338.889)" d="M 382.1 504.7 L 449.40003 504.7 L 449.40003 522.7 L 382.1 522.7 Z " fill="#c0c0c0" fill-rule="evenodd"/>
<path transform="matrix(2.7777777,0,0,-2.7777777,0,2338.889)" d="M 135.4 486.7 L 157.9 486.7 L 157.9 504.7 L 135.4 504.7 Z " fill="#c0c0c0" fill-rule="evenodd"/>
<path transform="matrix(2.7777777,0,0,-2.7777777,0,2338.889)" d="M 270 486.7 L 292.5 486.7 L 292.5 504.7 L 270 504.7 Z " fill="#c0c0c0" fill-rule="evenodd"/>
<path transform="matrix(2.7777777,0,0,-2.7777777,0,2338.889)" d="M 404.5 486.7 L 427 486.7 L 427 504.7 L 404.5 504.7 Z " fill="#c0c0c0" fill-rule="evenodd"/>
<path transform="matrix(2.7777777,0,0,-2.7777777,0,2338.889)" d="M 113 468.8 L 180.3 468.8 L 180.3 486.8 L 113 486.8 Z " fill="#c0c0c0" fill-rule="evenodd"/>
<path transform="matrix(2.7777777,0,0,-2.7777777,0,2338.889)" d="M 247.5 468.8 L 314.8 468.8 L 314.8 486.8 L 247.5 486.8 Z " fill="#c0c0c0" fill-rule="evenodd"/>
<path transform="matrix(2.7777777,0,0,-2.7777777,0,2338.889)" d="M 382.1 468.8 L 449.40003 468.8 L 449.40003 486.8 L 382.1 486.8 Z " fill="#c0c0c0" fill-rule="evenodd"/>
<path transform="matrix(2.7777777,0,0,-2.7777777,0,2338.889)" d="M 113 450.8 L 202.7 450.8 L 202.7 468.8 L 113 468.8 Z " fill="#c0c0c0" fill-rule="evenodd"/>
<path transform="matrix(2.7777777,0,0,-2.7777777,0,2338.889)" d="M 225.1 450.8 L 337.2 450.8 L 337.2 468.8 L 225.1 468.8 Z " fill="#c0c0c0" fill-rule="evenodd"/>
<path transform="matrix(2.7777777,0,0,-2.7777777,0,2338.889)" d="M 359.7 450.8 L 449.40003 450.8 L 449.40003 468.8 L 359.7 468.8 Z " fill="#c0c0c0" fill-rule="evenodd"/>
<path transform="matrix(2.7777777,0,0,-2.7777777,0,2338.889)" d="M 90.6 432.8 L 113.1 432.8 L 113.1 450.8 L 90.6 450.8 Z " fill="#c0c0c0" fill-rule="evenodd"/>
<path transform="matrix(2.7777777,0,0,-2.7777777,0,2338.889)" d="M 180.3 432.8 L 247.6 432.8 L 247.6 450.8 L 180.3 450.8 Z " fill="#c0c0c0" fill-rule="evenodd"/>
<path transform="matrix(2.7777777,0,0,-2.7777777,0,2338.889)" d="M 314.8 432.8 L 382.09999 432.8 L 382.09999 450.8 L 314.8 450.8 Z " fill="#c0c0c0" fill-rule="evenodd"/>
<path transform="matrix(2.7777777,0,0,-2.7777777,0,2338.889)" d="M 449.3 432.8 L 471.8 432.8 L 471.8 450.8 L 449.3 450.8 Z " fill="#c0c0c0" fill-rule="evenodd"/>
<path transform="matrix(2.7777777,0,0,-2.7777777,0,2338.889)" d="M 90.6 414.8 L 113.1 414.8 L 113.1 432.8 L 90.6 432.8 Z " fill="#c0c0c0" fill-rule="evenodd"/>
<path transform="matrix(2.7777777,0,0,-2.7777777,0,2338.889)" d="M 202.7 414.8 L 225.2 414.8 L 225.2 432.8 L 202.7 432.8 Z " fill="#c0c0c0" fill-rule="evenodd"/>
<path transform="matrix(2.7777777,0,0,-2.7777777,0,2338.889)" d="M 337.2 414.8 L 359.7 414.8 L 359.7 432.8 L 337.2 432.8 Z " fill="#c0c0c0" fill-rule="evenodd"/>
<path transform="matrix(2.7777777,0,0,-2.7777777,0,2338.889)" d="M 449.3 414.8 L 471.8 414.8 L 471.8 432.8 L 449.3 432.8 Z " fill="#c0c0c0" fill-rule="evenodd"/>
<path transform="matrix(2.7777777,0,0,-2.7777777,0,2338.889)" d="M 90.6 396.9 L 113.1 396.9 L 113.1 414.9 L 90.6 414.9 Z " fill="#c0c0c0" fill-rule="evenodd"/>
<path transform="matrix(2.7777777,0,0,-2.7777777,0,2338.889)" d="M 180.3 396.9 L 247.6 396.9 L 247.6 414.9 L 180.3 414.9 Z " fill="#c0c0c0" fill-rule="evenodd"/>
<path transform="matrix(2.7777777,0,0,-2.7777777,0,2338.889)" d="M 314.8 396.9 L 382.09999 396.9 L 382.09999 414.9 L 314.8 414.9 Z " fill="#c0c0c0" fill-rule="evenodd"/>
<path transform="matrix(2.7777777,0,0,-2.7777777,0,2338.889)" d="M 449.3 396.9 L 471.8 396.9 L 471.8 414.9 L 449.3 414.9 Z " fill="#c0c0c0" fill-rule="evenodd"/>
<path transform="matrix(2.7777777,0,0,-2.7777777,0,2338.889)" d="M 90.6 378.9 L 135.5 378.9 L 135.5 396.9 L 90.6 396.9 Z " fill="#c0c0c0" fill-rule="evenodd"/>
<path transform="matrix(2.7777777,0,0,-2.7777777,0,2338.889)" d="M 157.9 378.9 L 270 378.9 L 270 396.9 L 157.9 396.9 Z " fill="#c0c0c0" fill-rule="evenodd"/>
<path transform="matrix(2.7777777,0,0,-2.7777777,0,2338.889)" d="M 292.4 378.9 L 404.5 378.9 L 404.5 396.9 L 292.4 396.9 Z " fill="#c0c0c0" fill-rule="evenodd"/>
<path transform="matrix(2.7777777,0,0,-2.7777777,0,2338.889)" d="M 426.9 378.9 L 471.8 378.9 L 471.8 396.9 L 426.9 396.9 Z " fill="#c0c0c0" fill-rule="evenodd"/>
<path transform="matrix(2.7777777,0,0,-2.7777777,0,2338.889)" d="M 113 360.9 L 180.3 360.9 L 180.3 378.9 L 113 378.9 Z " fill="#c0c0c0" fill-rule="evenodd"/>
<path transform="matrix(2.7777777,0,0,-2.7777777,0,2338.889)" d="M 247.5 360.9 L 314.8 360.9 L 314.8 378.9 L 247.5 378.9 Z " fill="#c0c0c0" fill-rule="evenodd"/>
<path transform="matrix(2.7777777,0,0,-2.7777777,0,2338.889)" d="M 382.1 360.9 L 449.40003 360.9 L 449.40003 378.9 L 382.1 378.9 Z " fill="#c0c0c0" fill-rule="evenodd"/>
<path transform="matrix(2.7777777,0,0,-2.7777777,0,2338.889)" d="M 135.4 343 L 157.9 343 L 157.9 361 L 135.4 361 Z " fill="#c0c0c0" fill-rule="evenodd"/>
<path transform="matrix(2.7777777,0,0,-2.7777777,0,2338.889)" d="M 270 343 L 292.5 343 L 292.5 361 L 270 361 Z " fill="#c0c0c0" fill-rule="evenodd"/>
<path transform="matrix(2.7777777,0,0,-2.7777777,0,2338.889)" d="M 404.5 343 L 427 343 L 427 361 L 404.5 361 Z " fill="#c0c0c0" fill-rule="evenodd"/>
<path transform="matrix(2.7777777,0,0,-2.7777777,0,2338.889)" d="M 113 325 L 180.3 325 L 180.3 343 L 113 343 Z " fill="#c0c0c0" fill-rule="evenodd"/>
<path transform="matrix(2.7777777,0,0,-2.7777777,0,2338.889)" d="M 247.5 325 L 314.8 325 L 314.8 343 L 247.5 343 Z " fill="#c0c0c0" fill-rule="evenodd"/>
<path transform="matrix(2.7777777,0,0,-2.7777777,0,2338.889)" d="M 382.1 325 L 449.40003 325 L 449.40003 343 L 382.1 343 Z " fill="#c0c0c0" fill-rule="evenodd"/>
<path transform="matrix(2.7777777,0,0,-2.7777777,0,2338.889)" d="M 90.6 307 L 202.7 307 L 202.7 325 L 90.6 325 Z " fill="#c0c0c0" fill-rule="evenodd"/>
<path transform="matrix(2.7777777,0,0,-2.7777777,0,2338.889)" d="M 225.1 307 L 337.2 307 L 337.2 325 L 225.1 325 Z " fill="#c0c0c0" fill-rule="evenodd"/>
<path transform="matrix(2.7777777,0,0,-2.7777777,0,2338.889)" d="M 359.7 307 L 471.80003 307 L 471.80003 325 L 359.7 325 Z " fill="#c0c0c0" fill-rule="evenodd"/>
<path transform="matrix(2.7777777,0,0,-2.7777777,0,2338.889)" d="M 90.6 289 L 113.1 289 L 113.1 307 L 90.6 307 Z " fill="#c0c0c0" fill-rule="evenodd"/>
<path transform="matrix(2.7777777,0,0,-2.7777777,0,2338.889)" d="M 180.3 289 L 202.8 289 L 202.8 307 L 180.3 307 Z " fill="#c0c0c0" fill-rule="evenodd"/>
<path transform="matrix(2.7777777,0,0,-2.7777777,0,2338.889)" d="M 225.1 289 L 247.6 289 L 247.6 307 L 225.1 307 Z " fill="#c0c0c0" fill-rule="evenodd"/>
<path transform="matrix(2.7777777,0,0,-2.7777777,0,2338.889)" d="M 314.8 289 L 337.3 289 L 337.3 307 L 314.8 307 Z " fill="#c0c0c0" fill-rule="evenodd"/>
<path transform="matrix(2.7777777,0,0,-2.7777777,0,2338.889)" d="M 359.7 289 L 382.2 289 L 382.2 307 L 359.7 307 Z " fill="#c0c0c0" fill-rule="evenodd"/>
<path transform="matrix(2.7777777,0,0,-2.7777777,0,2338.889)" d="M 449.3 289 L 471.8 289 L 471.8 307 L 449.3 307 Z " fill="#c0c0c0" fill-rule="evenodd"/>
<path transform="matrix(2.7777777,0,0,-2.7777777,0,2338.889)" d="M 90.2 559.1 L 90.7 558.6 L 91.2 558.1 L 112.6 558.1 L 113.1 558.6 L 113.6 559.1 L 90.2 559.1 Z " fill-rule="evenodd"/>
<path transform="matrix(2.7777777,0,0,-2.7777777,0,2338.889)" d="M 179.9 559.1 L 180.4 558.6 L 180.9 558.1 L 247.1 558.1 L 247.6 558.6 L 248.1 559.1 L 179.9 559.1 Z " fill-rule="evenodd"/>
<path transform="matrix(2.7777777,0,0,-2.7777777,0,2338.889)" d="M 314.4 559.1 L 314.9 558.6 L 315.4 558.1 L 381.7 558.1 L 382.2 558.6 L 382.7 559.1 L 314.4 559.1 Z " fill-rule="evenodd"/>
<path transform="matrix(2.7777777,0,0,-2.7777777,0,2338.889)" d="M 448.9 559.1 L 449.4 558.6 L 449.9 558.1 L 471.3 558.1 L 471.9 558.6 L 472.4 559.1 L 448.9 559.1 Z " fill-rule="evenodd"/>
<path transform="matrix(2.7777777,0,0,-2.7777777,0,2338.889)" d="M 113.6 541.1 L 113.1 540.6 L 113.6 540.1 L 135 540.1 L 135.5 540.6 L 136 541.1 L 113.6 541.1 Z " fill-rule="evenodd"/>
<path transform="matrix(2.7777777,0,0,-2.7777777,0,2338.889)" d="M 157.4 541.1 L 157.9 540.6 L 158.5 540.1 L 179.9 540.1 L 180.4 540.6 L 179.9 541.1 L 157.4 541.1 Z " fill-rule="evenodd"/>
<path transform="matrix(2.7777777,0,0,-2.7777777,0,2338.889)" d="M 248.1 541.1 L 247.6 540.6 L 248.1 540.1 L 269.5 540.1 L 270.1 540.6 L 270.6 541.1 L 248.1 541.1 Z " fill-rule="evenodd"/>
<path transform="matrix(2.7777777,0,0,-2.7777777,0,2338.889)" d="M 292 541.1 L 292.5 540.6 L 293 540.1 L 314.4 540.1 L 314.9 540.6 L 314.4 541.1 L 292 541.1 Z " fill-rule="evenodd"/>
<path transform="matrix(2.7777777,0,0,-2.7777777,0,2338.889)" d="M 382.7 541.1 L 382.2 540.6 L 382.7 540.1 L 404.1 540.1 L 404.6 540.6 L 405.1 541.1 L 382.7 541.1 Z " fill-rule="evenodd"/>
<path transform="matrix(2.7777777,0,0,-2.7777777,0,2338.889)" d="M 426.5 541.1 L 427 540.6 L 427.5 540.1 L 448.9 540.1 L 449.4 540.6 L 448.9 541.1 L 426.5 541.1 Z " fill-rule="evenodd"/>
<path transform="matrix(2.7777777,0,0,-2.7777777,0,2338.889)" d="M 91.2 523.1 L 90.7 522.6 L 91.2 522.1 L 112.6 522.1 L 113.1 522.6 L 112.6 523.1 L 91.2 523.1 Z " fill-rule="evenodd"/>
<path transform="matrix(2.7777777,0,0,-2.7777777,0,2338.889)" d="M 136 523.1 L 135.5 522.6 L 136 522.1 L 157.4 522.1 L 157.9 522.6 L 157.4 523.1 L 136 523.1 Z " fill-rule="evenodd"/>
<path transform="matrix(2.7777777,0,0,-2.7777777,0,2338.889)" d="M 180.9 523.1 L 180.4 522.6 L 180.9 522.1 L 247.1 522.1 L 247.6 522.6 L 247.1 523.1 L 180.9 523.1 Z " fill-rule="evenodd"/>
<path transform="matrix(2.7777777,0,0,-2.7777777,0,2338.889)" d="M 270.6 523.1 L 270.1 522.6 L 270.6 522.1 L 292 522.1 L 292.5 522.6 L 292 523.1 L 270.6 523.1 Z " fill-rule="evenodd"/>
<path transform="matrix(2.7777777,0,0,-2.7777777,0,2338.889)" d="M 315.4 523.1 L 314.9 522.6 L 315.4 522.1 L 381.7 522.1 L 382.2 522.6 L 381.7 523.1 L 315.4 523.1 Z " fill-rule="evenodd"/>
<path transform="matrix(2.7777777,0,0,-2.7777777,0,2338.889)" d="M 405.1 523.1 L 404.6 522.6 L 405.1 522.1 L 426.5 522.1 L 427 522.6 L 426.5 523.1 L 405.1 523.1 Z " fill-rule="evenodd"/>
<path transform="matrix(2.7777777,0,0,-2.7777777,0,2338.889)" d="M 449.9 523.1 L 449.4 522.6 L 449.9 522.1 L 471.3 522.1 L 471.9 522.6 L 471.3 523.1 L 449.9 523.1 Z " fill-rule="evenodd"/>
<path transform="matrix(2.7777777,0,0,-2.7777777,0,2338.889)" d="M 113.6 505.2 L 113.1 504.6 L 112.6 504.1 L 135 504.1 L 135.5 504.6 L 135 505.2 L 113.6 505.2 Z " fill-rule="evenodd"/>
<path transform="matrix(2.7777777,0,0,-2.7777777,0,2338.889)" d="M 158.5 505.2 L 157.9 504.6 L 158.5 504.1 L 180.9 504.1 L 180.4 504.6 L 179.9 505.2 L 158.5 505.2 Z " fill-rule="evenodd"/>
<path transform="matrix(2.7777777,0,0,-2.7777777,0,2338.889)" d="M 248.1 505.2 L 247.6 504.6 L 247.1 504.1 L 269.5 504.1 L 270.1 504.6 L 269.5 505.2 L 248.1 505.2 Z " fill-rule="evenodd"/>
<path transform="matrix(2.7777777,0,0,-2.7777777,0,2338.889)" d="M 293 505.2 L 292.5 504.6 L 293 504.1 L 315.4 504.1 L 314.9 504.6 L 314.4 505.2 L 293 505.2 Z " fill-rule="evenodd"/>
<path transform="matrix(2.7777777,0,0,-2.7777777,0,2338.889)" d="M 382.7 505.2 L 382.2 504.6 L 381.7 504.1 L 404.1 504.1 L 404.6 504.6 L 404.1 505.2 L 382.7 505.2 Z " fill-rule="evenodd"/>
<path transform="matrix(2.7777777,0,0,-2.7777777,0,2338.889)" d="M 427.5 505.2 L 427 504.6 L 427.5 504.1 L 449.9 504.1 L 449.4 504.6 L 448.9 505.2 L 427.5 505.2 Z " fill-rule="evenodd"/>
<path transform="matrix(2.7777777,0,0,-2.7777777,0,2338.889)" d="M 112.6 487.2 L 113.1 486.7 L 113.6 486.2 L 136 486.2 L 135.5 486.7 L 135 487.2 L 112.6 487.2 Z " fill-rule="evenodd"/>
<path transform="matrix(2.7777777,0,0,-2.7777777,0,2338.889)" d="M 158.5 487.2 L 157.9 486.7 L 157.4 486.2 L 179.9 486.2 L 180.4 486.7 L 180.9 487.2 L 158.5 487.2 Z " fill-rule="evenodd"/>
<path transform="matrix(2.7777777,0,0,-2.7777777,0,2338.889)" d="M 247.1 487.2 L 247.6 486.7 L 248.1 486.2 L 270.6 486.2 L 270.1 486.7 L 269.5 487.2 L 247.1 487.2 Z " fill-rule="evenodd"/>
<path transform="matrix(2.7777777,0,0,-2.7777777,0,2338.889)" d="M 293 487.2 L 292.5 486.7 L 292 486.2 L 314.4 486.2 L 314.9 486.7 L 315.4 487.2 L 293 487.2 Z " fill-rule="evenodd"/>
<path transform="matrix(2.7777777,0,0,-2.7777777,0,2338.889)" d="M 381.7 487.2 L 382.2 486.7 L 382.7 486.2 L 405.1 486.2 L 404.6 486.7 L 404.1 487.2 L 381.7 487.2 Z " fill-rule="evenodd"/>
<path transform="matrix(2.7777777,0,0,-2.7777777,0,2338.889)" d="M 427.5 487.2 L 427 486.7 L 426.5 486.2 L 448.9 486.2 L 449.4 486.7 L 449.9 487.2 L 427.5 487.2 Z " fill-rule="evenodd"/>
<path transform="matrix(2.7777777,0,0,-2.7777777,0,2338.889)" d="M 180.9 469.2 L 180.4 468.7 L 180.9 468.2 L 202.3 468.2 L 202.8 468.7 L 203.3 469.2 L 180.9 469.2 Z " fill-rule="evenodd"/>
<path transform="matrix(2.7777777,0,0,-2.7777777,0,2338.889)" d="M 224.7 469.2 L 225.2 468.7 L 225.7 468.2 L 247.1 468.2 L 247.6 468.7 L 247.1 469.2 L 224.7 469.2 Z " fill-rule="evenodd"/>
<path transform="matrix(2.7777777,0,0,-2.7777777,0,2338.889)" d="M 315.4 469.2 L 314.9 468.7 L 315.4 468.2 L 336.8 468.2 L 337.3 468.7 L 337.8 469.2 L 315.4 469.2 Z " fill-rule="evenodd"/>
<path transform="matrix(2.7777777,0,0,-2.7777777,0,2338.889)" d="M 359.2 469.2 L 359.7 468.7 L 360.3 468.2 L 381.7 468.2 L 382.2 468.7 L 381.7 469.2 L 359.2 469.2 Z " fill-rule="evenodd"/>
<path transform="matrix(2.7777777,0,0,-2.7777777,0,2338.889)" d="M 91.2 451.2 L 90.7 450.7 L 91.2 450.2 L 179.9 450.2 L 180.4 450.7 L 179.9 451.2 L 91.2 451.2 Z " fill-rule="evenodd"/>
<path transform="matrix(2.7777777,0,0,-2.7777777,0,2338.889)" d="M 203.3 451.2 L 202.8 450.7 L 203.3 450.2 L 224.7 450.2 L 225.2 450.7 L 224.7 451.2 L 203.3 451.2 Z " fill-rule="evenodd"/>
<path transform="matrix(2.7777777,0,0,-2.7777777,0,2338.889)" d="M 248.1 451.2 L 247.6 450.7 L 248.1 450.2 L 314.4 450.2 L 314.9 450.7 L 314.4 451.2 L 248.1 451.2 Z " fill-rule="evenodd"/>
<path transform="matrix(2.7777777,0,0,-2.7777777,0,2338.889)" d="M 337.8 451.2 L 337.3 450.7 L 337.8 450.2 L 359.2 450.2 L 359.7 450.7 L 359.2 451.2 L 337.8 451.2 Z " fill-rule="evenodd"/>
<path transform="matrix(2.7777777,0,0,-2.7777777,0,2338.889)" d="M 382.7 451.2 L 382.2 450.7 L 382.7 450.2 L 471.3 450.2 L 471.9 450.7 L 471.3 451.2 L 382.7 451.2 Z " fill-rule="evenodd"/>
<path transform="matrix(2.7777777,0,0,-2.7777777,0,2338.889)" d="M 180.9 433.3 L 180.4 432.8 L 179.9 432.3 L 202.3 432.3 L 202.8 432.8 L 202.3 433.3 L 180.9 433.3 Z " fill-rule="evenodd"/>
<path transform="matrix(2.7777777,0,0,-2.7777777,0,2338.889)" d="M 225.7 433.3 L 225.2 432.8 L 225.7 432.3 L 248.1 432.3 L 247.6 432.8 L 247.1 433.3 L 225.7 433.3 Z " fill-rule="evenodd"/>
<path transform="matrix(2.7777777,0,0,-2.7777777,0,2338.889)" d="M 315.4 433.3 L 314.9 432.8 L 314.4 432.3 L 336.8 432.3 L 337.3 432.8 L 336.8 433.3 L 315.4 433.3 Z " fill-rule="evenodd"/>
<path transform="matrix(2.7777777,0,0,-2.7777777,0,2338.889)" d="M 360.3 433.3 L 359.7 432.8 L 360.3 432.3 L 382.7 432.3 L 382.2 432.8 L 381.7 433.3 L 360.3 433.3 Z " fill-rule="evenodd"/>
<path transform="matrix(2.7777777,0,0,-2.7777777,0,2338.889)" d="M 53.9 415.3 L 53.9 414.8 L 53.9 414.3 L 90.2 414.3 L 90.7 414.8 L 90.2 415.3 L 53.9 415.3 Z " fill-rule="evenodd"/>
<path transform="matrix(2.7777777,0,0,-2.7777777,0,2338.889)" d="M 179.9 415.3 L 180.4 414.8 L 180.9 414.3 L 203.3 414.3 L 202.8 414.8 L 202.3 415.3 L 179.9 415.3 Z " fill-rule="evenodd"/>
<path transform="matrix(2.7777777,0,0,-2.7777777,0,2338.889)" d="M 225.7 415.3 L 225.2 414.8 L 224.7 414.3 L 247.1 414.3 L 247.6 414.8 L 248.1 415.3 L 225.7 415.3 Z " fill-rule="evenodd"/>
<path transform="matrix(2.7777777,0,0,-2.7777777,0,2338.889)" d="M 314.4 415.3 L 314.9 414.8 L 315.4 414.3 L 337.8 414.3 L 337.3 414.8 L 336.8 415.3 L 314.4 415.3 Z " fill-rule="evenodd"/>
<path transform="matrix(2.7777777,0,0,-2.7777777,0,2338.889)" d="M 360.3 415.3 L 359.7 414.8 L 359.2 414.3 L 381.7 414.3 L 382.2 414.8 L 382.7 415.3 L 360.3 415.3 Z " fill-rule="evenodd"/>
<path transform="matrix(2.7777777,0,0,-2.7777777,0,2338.889)" d="M 472.4 415.3 L 471.9 414.8 L 472.4 414.3 L 508.6 414.3 L 508.6 414.8 L 508.6 415.3 L 472.4 415.3 Z " fill-rule="evenodd"/>
<path transform="matrix(2.7777777,0,0,-2.7777777,0,2338.889)" d="M 113.6 397.3 L 113.1 396.8 L 113.6 396.3 L 135 396.3 L 135.5 396.8 L 136 397.3 L 113.6 397.3 Z " fill-rule="evenodd"/>
<path transform="matrix(2.7777777,0,0,-2.7777777,0,2338.889)" d="M 157.4 397.3 L 157.9 396.8 L 158.5 396.3 L 179.9 396.3 L 180.4 396.8 L 179.9 397.3 L 157.4 397.3 Z " fill-rule="evenodd"/>
<path transform="matrix(2.7777777,0,0,-2.7777777,0,2338.889)" d="M 248.1 397.3 L 247.6 396.8 L 248.1 396.3 L 269.5 396.3 L 270.1 396.8 L 270.6 397.3 L 248.1 397.3 Z " fill-rule="evenodd"/>
<path transform="matrix(2.7777777,0,0,-2.7777777,0,2338.889)" d="M 292 397.3 L 292.5 396.8 L 293 396.3 L 314.4 396.3 L 314.9 396.8 L 314.4 397.3 L 292 397.3 Z " fill-rule="evenodd"/>
<path transform="matrix(2.7777777,0,0,-2.7777777,0,2338.889)" d="M 382.7 397.3 L 382.2 396.8 L 382.7 396.3 L 404.1 396.3 L 404.6 396.8 L 405.1 397.3 L 382.7 397.3 Z " fill-rule="evenodd"/>
<path transform="matrix(2.7777777,0,0,-2.7777777,0,2338.889)" d="M 426.5 397.3 L 427 396.8 L 427.5 396.3 L 448.9 396.3 L 449.4 396.8 L 448.9 397.3 L 426.5 397.3 Z " fill-rule="evenodd"/>
<path transform="matrix(2.7777777,0,0,-2.7777777,0,2338.889)" d="M 91.2 379.4 L 90.7 378.8 L 91.2 378.3 L 112.6 378.3 L 113.1 378.8 L 112.6 379.4 L 91.2 379.4 Z " fill-rule="evenodd"/>
<path transform="matrix(2.7777777,0,0,-2.7777777,0,2338.889)" d="M 136 379.4 L 135.5 378.8 L 136 378.3 L 157.4 378.3 L 157.9 378.8 L 157.4 379.4 L 136 379.4 Z " fill-rule="evenodd"/>
<path transform="matrix(2.7777777,0,0,-2.7777777,0,2338.889)" d="M 180.9 379.4 L 180.4 378.8 L 180.9 378.3 L 247.1 378.3 L 247.6 378.8 L 247.1 379.4 L 180.9 379.4 Z " fill-rule="evenodd"/>
<path transform="matrix(2.7777777,0,0,-2.7777777,0,2338.889)" d="M 270.6 379.4 L 270.1 378.8 L 270.6 378.3 L 292 378.3 L 292.5 378.8 L 292 379.4 L 270.6 379.4 Z " fill-rule="evenodd"/>
<path transform="matrix(2.7777777,0,0,-2.7777777,0,2338.889)" d="M 315.4 379.4 L 314.9 378.8 L 315.4 378.3 L 381.7 378.3 L 382.2 378.8 L 381.7 379.4 L 315.4 379.4 Z " fill-rule="evenodd"/>
<path transform="matrix(2.7777777,0,0,-2.7777777,0,2338.889)" d="M 405.1 379.4 L 404.6 378.8 L 405.1 378.3 L 426.5 378.3 L 427 378.8 L 426.5 379.4 L 405.1 379.4 Z " fill-rule="evenodd"/>
<path transform="matrix(2.7777777,0,0,-2.7777777,0,2338.889)" d="M 449.9 379.4 L 449.4 378.8 L 449.9 378.3 L 471.3 378.3 L 471.9 378.8 L 471.3 379.4 L 449.9 379.4 Z " fill-rule="evenodd"/>
<path transform="matrix(2.7777777,0,0,-2.7777777,0,2338.889)" d="M 113.6 361.4 L 113.1 360.9 L 112.6 360.4 L 135 360.4 L 135.5 360.9 L 135 361.4 L 113.6 361.4 Z " fill-rule="evenodd"/>
<path transform="matrix(2.7777777,0,0,-2.7777777,0,2338.889)" d="M 158.5 361.4 L 157.9 360.9 L 158.5 360.4 L 180.9 360.4 L 180.4 360.9 L 179.9 361.4 L 158.5 361.4 Z " fill-rule="evenodd"/>
<path transform="matrix(2.7777777,0,0,-2.7777777,0,2338.889)" d="M 248.1 361.4 L 247.6 360.9 L 247.1 360.4 L 269.5 360.4 L 270.1 360.9 L 269.5 361.4 L 248.1 361.4 Z " fill-rule="evenodd"/>
<path transform="matrix(2.7777777,0,0,-2.7777777,0,2338.889)" d="M 293 361.4 L 292.5 360.9 L 293 360.4 L 315.4 360.4 L 314.9 360.9 L 314.4 361.4 L 293 361.4 Z " fill-rule="evenodd"/>
<path transform="matrix(2.7777777,0,0,-2.7777777,0,2338.889)" d="M 382.7 361.4 L 382.2 360.9 L 381.7 360.4 L 404.1 360.4 L 404.6 360.9 L 404.1 361.4 L 382.7 361.4 Z " fill-rule="evenodd"/>
<path transform="matrix(2.7777777,0,0,-2.7777777,0,2338.889)" d="M 427.5 361.4 L 427 360.9 L 427.5 360.4 L 449.9 360.4 L 449.4 360.9 L 448.9 361.4 L 427.5 361.4 Z " fill-rule="evenodd"/>
<path transform="matrix(2.7777777,0,0,-2.7777777,0,2338.889)" d="M 112.6 343.4 L 113.1 342.9 L 113.6 342.4 L 136 342.4 L 135.5 342.9 L 135 343.4 L 112.6 343.4 Z " fill-rule="evenodd"/>
<path transform="matrix(2.7777777,0,0,-2.7777777,0,2338.889)" d="M 158.5 343.4 L 157.9 342.9 L 157.4 342.4 L 179.9 342.4 L 180.4 342.9 L 180.9 343.4 L 158.5 343.4 Z " fill-rule="evenodd"/>
<path transform="matrix(2.7777777,0,0,-2.7777777,0,2338.889)" d="M 247.1 343.4 L 247.6 342.9 L 248.1 342.4 L 270.6 342.4 L 270.1 342.9 L 269.5 343.4 L 247.1 343.4 Z " fill-rule="evenodd"/>
<path transform="matrix(2.7777777,0,0,-2.7777777,0,2338.889)" d="M 293 343.4 L 292.5 342.9 L 292 342.4 L 314.4 342.4 L 314.9 342.9 L 315.4 343.4 L 293 343.4 Z " fill-rule="evenodd"/>
<path transform="matrix(2.7777777,0,0,-2.7777777,0,2338.889)" d="M 381.7 343.4 L 382.2 342.9 L 382.7 342.4 L 405.1 342.4 L 404.6 342.9 L 404.1 343.4 L 381.7 343.4 Z " fill-rule="evenodd"/>
<path transform="matrix(2.7777777,0,0,-2.7777777,0,2338.889)" d="M 427.5 343.4 L 427 342.9 L 426.5 342.4 L 448.9 342.4 L 449.4 342.9 L 449.9 343.4 L 427.5 343.4 Z " fill-rule="evenodd"/>
<path transform="matrix(2.7777777,0,0,-2.7777777,0,2338.889)" d="M 91.2 325.4 L 90.7 324.9 L 91.2 324.4 L 112.6 324.4 L 113.1 324.9 L 112.6 325.4 L 91.2 325.4 Z " fill-rule="evenodd"/>
<path transform="matrix(2.7777777,0,0,-2.7777777,0,2338.889)" d="M 180.9 325.4 L 180.4 324.9 L 180.9 324.4 L 202.3 324.4 L 202.8 324.9 L 203.3 325.4 L 180.9 325.4 Z " fill-rule="evenodd"/>
<path transform="matrix(2.7777777,0,0,-2.7777777,0,2338.889)" d="M 224.7 325.4 L 225.2 324.9 L 225.7 324.4 L 247.1 324.4 L 247.6 324.9 L 247.1 325.4 L 224.7 325.4 Z " fill-rule="evenodd"/>
<path transform="matrix(2.7777777,0,0,-2.7777777,0,2338.889)" d="M 315.4 325.4 L 314.9 324.9 L 315.4 324.4 L 336.8 324.4 L 337.3 324.9 L 337.8 325.4 L 315.4 325.4 Z " fill-rule="evenodd"/>
<path transform="matrix(2.7777777,0,0,-2.7777777,0,2338.889)" d="M 359.2 325.4 L 359.7 324.9 L 360.3 324.4 L 381.7 324.4 L 382.2 324.9 L 381.7 325.4 L 359.2 325.4 Z " fill-rule="evenodd"/>
<path transform="matrix(2.7777777,0,0,-2.7777777,0,2338.889)" d="M 449.9 325.4 L 449.4 324.9 L 449.9 324.4 L 471.3 324.4 L 471.9 324.9 L 471.3 325.4 L 449.9 325.4 Z " fill-rule="evenodd"/>
<path transform="matrix(2.7777777,0,0,-2.7777777,0,2338.889)" d="M 113.6 307.5 L 113.1 307 L 113.6 306.5 L 179.9 306.5 L 180.4 307 L 179.9 307.5 L 113.6 307.5 Z " fill-rule="evenodd"/>
<path transform="matrix(2.7777777,0,0,-2.7777777,0,2338.889)" d="M 203.3 307.5 L 202.8 307 L 203.3 306.5 L 224.7 306.5 L 225.2 307 L 224.7 307.5 L 203.3 307.5 Z " fill-rule="evenodd"/>
<path transform="matrix(2.7777777,0,0,-2.7777777,0,2338.889)" d="M 248.1 307.5 L 247.6 307 L 248.1 306.5 L 314.4 306.5 L 314.9 307 L 314.4 307.5 L 248.1 307.5 Z " fill-rule="evenodd"/>
<path transform="matrix(2.7777777,0,0,-2.7777777,0,2338.889)" d="M 337.8 307.5 L 337.3 307 L 337.8 306.5 L 359.2 306.5 L 359.7 307 L 359.2 307.5 L 337.8 307.5 Z " fill-rule="evenodd"/>
<path transform="matrix(2.7777777,0,0,-2.7777777,0,2338.889)" d="M 382.7 307.5 L 382.2 307 L 382.7 306.5 L 448.9 306.5 L 449.4 307 L 448.9 307.5 L 382.7 307.5 Z " fill-rule="evenodd"/>
<path transform="matrix(2.7777777,0,0,-2.7777777,0,2338.889)" d="M 91.2 289.5 L 90.7 289 L 91.2 288.5 L 113.6 288.5 L 113.1 289 L 112.6 289.5 L 91.2 289.5 Z " fill-rule="evenodd"/>
<path transform="matrix(2.7777777,0,0,-2.7777777,0,2338.889)" d="M 180.9 289.5 L 180.4 289 L 179.9 288.5 L 202.3 288.5 L 202.8 289 L 202.3 289.5 L 180.9 289.5 Z " fill-rule="evenodd"/>
<path transform="matrix(2.7777777,0,0,-2.7777777,0,2338.889)" d="M 225.7 289.5 L 225.2 289 L 225.7 288.5 L 248.1 288.5 L 247.6 289 L 247.1 289.5 L 225.7 289.5 Z " fill-rule="evenodd"/>
<path transform="matrix(2.7777777,0,0,-2.7777777,0,2338.889)" d="M 315.4 289.5 L 314.9 289 L 314.4 288.5 L 336.8 288.5 L 337.3 289 L 336.8 289.5 L 315.4 289.5 Z " fill-rule="evenodd"/>
<path transform="matrix(2.7777777,0,0,-2.7777777,0,2338.889)" d="M 360.3 289.5 L 359.7 289 L 360.3 288.5 L 382.7 288.5 L 382.2 289 L 381.7 289.5 L 360.3 289.5 Z " fill-rule="evenodd"/>
<path transform="matrix(2.7777777,0,0,-2.7777777,0,2338.889)" d="M 449.9 289.5 L 449.4 289 L 448.9 288.5 L 471.3 288.5 L 471.9 289 L 471.3 289.5 L 449.9 289.5 Z " fill-rule="evenodd"/>
<path transform="matrix(2.7777777,0,0,-2.7777777,0,2338.889)" d="M 91.2 271.5 L 90.7 271 L 90.2 270.5 L 203.3 270.5 L 202.8 271 L 202.3 271.5 L 91.2 271.5 Z " fill-rule="evenodd"/>
<path transform="matrix(2.7777777,0,0,-2.7777777,0,2338.889)" d="M 225.7 271.5 L 225.2 271 L 224.7 270.5 L 337.8 270.5 L 337.3 271 L 336.8 271.5 L 225.7 271.5 Z " fill-rule="evenodd"/>
<path transform="matrix(2.7777777,0,0,-2.7777777,0,2338.889)" d="M 360.3 271.5 L 359.7 271 L 359.2 270.5 L 472.4 270.5 L 471.9 271 L 471.3 271.5 L 360.3 271.5 Z " fill-rule="evenodd"/>
<path transform="matrix(2.7777777,0,0,-2.7777777,0,2338.889)" d="M 90.2 270.5 L 90.7 271 L 91.2 271.5 L 91.2 558.1 L 90.7 558.6 L 90.2 559.1 L 90.2 270.5 Z " fill-rule="evenodd"/>
<path transform="matrix(2.7777777,0,0,-2.7777777,0,2338.889)" d="M 112.6 504.1 L 113.1 504.6 L 113.6 505.2 L 113.6 559.1 L 113.1 558.6 L 112.6 558.1 L 112.6 504.1 Z " fill-rule="evenodd"/>
<path transform="matrix(2.7777777,0,0,-2.7777777,0,2338.889)" d="M 112.6 360.4 L 113.1 360.9 L 113.6 361.4 L 113.6 486.2 L 113.1 486.7 L 112.6 487.2 L 112.6 360.4 Z " fill-rule="evenodd"/>
<path transform="matrix(2.7777777,0,0,-2.7777777,0,2338.889)" d="M 112.6 289.5 L 113.1 289 L 113.6 288.5 L 113.6 342.4 L 113.1 342.9 L 112.6 343.4 L 112.6 289.5 Z " fill-rule="evenodd"/>
<path transform="matrix(2.7777777,0,0,-2.7777777,0,2338.889)" d="M 135 487.2 L 135.5 486.7 L 136 486.2 L 136 541.1 L 135.5 540.6 L 135 540.1 L 135 487.2 Z " fill-rule="evenodd"/>
<path transform="matrix(2.7777777,0,0,-2.7777777,0,2338.889)" d="M 135 343.4 L 135.5 342.9 L 136 342.4 L 136 397.3 L 135.5 396.8 L 135 396.3 L 135 343.4 Z " fill-rule="evenodd"/>
<path transform="matrix(2.7777777,0,0,-2.7777777,0,2338.889)" d="M 157.4 486.2 L 157.9 486.7 L 158.5 487.2 L 158.5 540.1 L 157.9 540.6 L 157.4 541.1 L 157.4 486.2 Z " fill-rule="evenodd"/>
<path transform="matrix(2.7777777,0,0,-2.7777777,0,2338.889)" d="M 157.4 342.4 L 157.9 342.9 L 158.5 343.4 L 158.5 396.3 L 157.9 396.8 L 157.4 397.3 L 157.4 342.4 Z " fill-rule="evenodd"/>
<path transform="matrix(2.7777777,0,0,-2.7777777,0,2338.889)" d="M 179.9 505.2 L 180.4 504.6 L 180.9 504.1 L 180.9 558.1 L 180.4 558.6 L 179.9 559.1 L 179.9 505.2 Z " fill-rule="evenodd"/>
<path transform="matrix(2.7777777,0,0,-2.7777777,0,2338.889)" d="M 179.9 432.3 L 180.4 432.8 L 180.9 433.3 L 180.9 487.2 L 180.4 486.7 L 179.9 486.2 L 179.9 432.3 Z " fill-rule="evenodd"/>
<path transform="matrix(2.7777777,0,0,-2.7777777,0,2338.889)" d="M 179.9 361.4 L 180.4 360.9 L 180.9 360.4 L 180.9 414.3 L 180.4 414.8 L 179.9 415.3 L 179.9 361.4 Z " fill-rule="evenodd"/>
<path transform="matrix(2.7777777,0,0,-2.7777777,0,2338.889)" d="M 179.9 288.5 L 180.4 289 L 180.9 289.5 L 180.9 343.4 L 180.4 342.9 L 179.9 342.4 L 179.9 288.5 Z " fill-rule="evenodd"/>
<path transform="matrix(2.7777777,0,0,-2.7777777,0,2338.889)" d="M 202.3 415.3 L 202.8 414.8 L 203.3 414.3 L 203.3 469.2 L 202.8 468.7 L 202.3 468.2 L 202.3 415.3 Z " fill-rule="evenodd"/>
<path transform="matrix(2.7777777,0,0,-2.7777777,0,2338.889)" d="M 202.3 271.5 L 202.8 271 L 203.3 270.5 L 203.3 325.4 L 202.8 324.9 L 202.3 324.4 L 202.3 271.5 Z " fill-rule="evenodd"/>
<path transform="matrix(2.7777777,0,0,-2.7777777,0,2338.889)" d="M 224.7 414.3 L 225.2 414.8 L 225.7 415.3 L 225.7 468.2 L 225.2 468.7 L 224.7 469.2 L 224.7 414.3 Z " fill-rule="evenodd"/>
<path transform="matrix(2.7777777,0,0,-2.7777777,0,2338.889)" d="M 224.7 270.5 L 225.2 271 L 225.7 271.5 L 225.7 324.4 L 225.2 324.9 L 224.7 325.4 L 224.7 270.5 Z " fill-rule="evenodd"/>
<path transform="matrix(2.7777777,0,0,-2.7777777,0,2338.889)" d="M 247.1 504.1 L 247.6 504.6 L 248.1 505.2 L 248.1 559.1 L 247.6 558.6 L 247.1 558.1 L 247.1 504.1 Z " fill-rule="evenodd"/>
<path transform="matrix(2.7777777,0,0,-2.7777777,0,2338.889)" d="M 247.1 433.3 L 247.6 432.8 L 248.1 432.3 L 248.1 486.2 L 247.6 486.7 L 247.1 487.2 L 247.1 433.3 Z " fill-rule="evenodd"/>
<path transform="matrix(2.7777777,0,0,-2.7777777,0,2338.889)" d="M 247.1 360.4 L 247.6 360.9 L 248.1 361.4 L 248.1 415.3 L 247.6 414.8 L 247.1 414.3 L 247.1 360.4 Z " fill-rule="evenodd"/>
<path transform="matrix(2.7777777,0,0,-2.7777777,0,2338.889)" d="M 247.1 289.5 L 247.6 289 L 248.1 288.5 L 248.1 342.4 L 247.6 342.9 L 247.1 343.4 L 247.1 289.5 Z " fill-rule="evenodd"/>
<path transform="matrix(2.7777777,0,0,-2.7777777,0,2338.889)" d="M 269.5 487.2 L 270.1 486.7 L 270.6 486.2 L 270.6 541.1 L 270.1 540.6 L 269.5 540.1 L 269.5 487.2 Z " fill-rule="evenodd"/>
<path transform="matrix(2.7777777,0,0,-2.7777777,0,2338.889)" d="M 269.5 343.4 L 270.1 342.9 L 270.6 342.4 L 270.6 397.3 L 270.1 396.8 L 269.5 396.3 L 269.5 343.4 Z " fill-rule="evenodd"/>
<path transform="matrix(2.7777777,0,0,-2.7777777,0,2338.889)" d="M 292 486.2 L 292.5 486.7 L 293 487.2 L 293 540.1 L 292.5 540.6 L 292 541.1 L 292 486.2 Z " fill-rule="evenodd"/>
<path transform="matrix(2.7777777,0,0,-2.7777777,0,2338.889)" d="M 292 342.4 L 292.5 342.9 L 293 343.4 L 293 396.3 L 292.5 396.8 L 292 397.3 L 292 342.4 Z " fill-rule="evenodd"/>
<path transform="matrix(2.7777777,0,0,-2.7777777,0,2338.889)" d="M 314.4 505.2 L 314.9 504.6 L 315.4 504.1 L 315.4 558.1 L 314.9 558.6 L 314.4 559.1 L 314.4 505.2 Z " fill-rule="evenodd"/>
<path transform="matrix(2.7777777,0,0,-2.7777777,0,2338.889)" d="M 314.4 432.3 L 314.9 432.8 L 315.4 433.3 L 315.4 487.2 L 314.9 486.7 L 314.4 486.2 L 314.4 432.3 Z " fill-rule="evenodd"/>
<path transform="matrix(2.7777777,0,0,-2.7777777,0,2338.889)" d="M 314.4 361.4 L 314.9 360.9 L 315.4 360.4 L 315.4 414.3 L 314.9 414.8 L 314.4 415.3 L 314.4 361.4 Z " fill-rule="evenodd"/>
<path transform="matrix(2.7777777,0,0,-2.7777777,0,2338.889)" d="M 314.4 288.5 L 314.9 289 L 315.4 289.5 L 315.4 343.4 L 314.9 342.9 L 314.4 342.4 L 314.4 288.5 Z " fill-rule="evenodd"/>
<path transform="matrix(2.7777777,0,0,-2.7777777,0,2338.889)" d="M 336.8 415.3 L 337.3 414.8 L 337.8 414.3 L 337.8 469.2 L 337.3 468.7 L 336.8 468.2 L 336.8 415.3 Z " fill-rule="evenodd"/>
<path transform="matrix(2.7777777,0,0,-2.7777777,0,2338.889)" d="M 336.8 271.5 L 337.3 271 L 337.8 270.5 L 337.8 325.4 L 337.3 324.9 L 336.8 324.4 L 336.8 271.5 Z " fill-rule="evenodd"/>
<path transform="matrix(2.7777777,0,0,-2.7777777,0,2338.889)" d="M 359.2 414.3 L 359.7 414.8 L 360.3 415.3 L 360.3 468.2 L 359.7 468.7 L 359.2 469.2 L 359.2 414.3 Z " fill-rule="evenodd"/>
<path transform="matrix(2.7777777,0,0,-2.7777777,0,2338.889)" d="M 359.2 270.5 L 359.7 271 L 360.3 271.5 L 360.3 324.4 L 359.7 324.9 L 359.2 325.4 L 359.2 270.5 Z " fill-rule="evenodd"/>
<path transform="matrix(2.7777777,0,0,-2.7777777,0,2338.889)" d="M 381.7 504.1 L 382.2 504.6 L 382.7 505.2 L 382.7 559.1 L 382.2 558.6 L 381.7 558.1 L 381.7 504.1 Z " fill-rule="evenodd"/>
<path transform="matrix(2.7777777,0,0,-2.7777777,0,2338.889)" d="M 381.7 433.3 L 382.2 432.8 L 382.7 432.3 L 382.7 486.2 L 382.2 486.7 L 381.7 487.2 L 381.7 433.3 Z " fill-rule="evenodd"/>
<path transform="matrix(2.7777777,0,0,-2.7777777,0,2338.889)" d="M 381.7 360.4 L 382.2 360.9 L 382.7 361.4 L 382.7 415.3 L 382.2 414.8 L 381.7 414.3 L 381.7 360.4 Z " fill-rule="evenodd"/>
<path transform="matrix(2.7777777,0,0,-2.7777777,0,2338.889)" d="M 381.7 289.5 L 382.2 289 L 382.7 288.5 L 382.7 342.4 L 382.2 342.9 L 381.7 343.4 L 381.7 289.5 Z " fill-rule="evenodd"/>
<path transform="matrix(2.7777777,0,0,-2.7777777,0,2338.889)" d="M 404.1 487.2 L 404.6 486.7 L 405.1 486.2 L 405.1 541.1 L 404.6 540.6 L 404.1 540.1 L 404.1 487.2 Z " fill-rule="evenodd"/>
<path transform="matrix(2.7777777,0,0,-2.7777777,0,2338.889)" d="M 404.1 343.4 L 404.6 342.9 L 405.1 342.4 L 405.1 397.3 L 404.6 396.8 L 404.1 396.3 L 404.1 343.4 Z " fill-rule="evenodd"/>
<path transform="matrix(2.7777777,0,0,-2.7777777,0,2338.889)" d="M 426.5 486.2 L 427 486.7 L 427.5 487.2 L 427.5 540.1 L 427 540.6 L 426.5 541.1 L 426.5 486.2 Z " fill-rule="evenodd"/>
<path transform="matrix(2.7777777,0,0,-2.7777777,0,2338.889)" d="M 426.5 342.4 L 427 342.9 L 427.5 343.4 L 427.5 396.3 L 427 396.8 L 426.5 397.3 L 426.5 342.4 Z " fill-rule="evenodd"/>
<path transform="matrix(2.7777777,0,0,-2.7777777,0,2338.889)" d="M 448.9 505.2 L 449.4 504.6 L 449.9 504.1 L 449.9 558.1 L 449.4 558.6 L 448.9 559.1 L 448.9 505.2 Z " fill-rule="evenodd"/>
<path transform="matrix(2.7777777,0,0,-2.7777777,0,2338.889)" d="M 448.9 361.4 L 449.4 360.9 L 449.9 360.4 L 449.9 487.2 L 449.4 486.7 L 448.9 486.2 L 448.9 361.4 Z " fill-rule="evenodd"/>
<path transform="matrix(2.7777777,0,0,-2.7777777,0,2338.889)" d="M 448.9 288.5 L 449.4 289 L 449.9 289.5 L 449.9 343.4 L 449.4 342.9 L 448.9 342.4 L 448.9 288.5 Z " fill-rule="evenodd"/>
<path transform="matrix(2.7777777,0,0,-2.7777777,0,2338.889)" d="M 471.3 271.5 L 471.9 271 L 472.4 270.5 L 472.4 559.1 L 471.9 558.6 L 471.3 558.1 L 471.3 271.5 Z " fill-rule="evenodd"/>
<symbol id="font_3_1">
<path d="M .20751953 0 L 0 .7402344 L .07080078 .7402344 L .27783204 0 L .20751953 0 Z "/>
</symbol>
<use xlink:href="#font_3_1" transform="matrix(27.777777,0,0,-27.777777,1251.3888,1278.117)"/>
<g opacity=".5">
</g>
</g>
</g>
</svg>
