<?xml version="1.0" encoding="UTF-8" standalone="no"?>
<!DOCTYPE svg PUBLIC "-//W3C//DTD SVG 1.1//EN" "http://www.w3.org/Graphics/SVG/1.1/DTD/svg11.dtd">
<svg xmlns="http://www.w3.org/2000/svg" xmlns:xlink="http://www.w3.org/1999/xlink" version="1.1" width="1652.7777pt" height="2338.889pt" viewBox="0 0 1652.7777 2338.889">
<g enable-background="new">
<g>
<clipPath id="cp0">
<path transform="matrix(2.7777777,0,0,-2.7777777,0,2338.889)" d="M 54 770 L 541.2 770 L 541.2 806 L 54 806 Z " fill-rule="evenodd"/>
</clipPath>
<g clip-path="url(#cp0)">
<symbol id="font_1_e">
<path d="M .2602539 .41796876 C .21598308 .41796876 .18082683 .40283204 .15478516 .3725586 C .12906902 .34228517 .11621094 .30078126 .11621094 .24804688 C .11621094 .19563802 .12906902 .15413411 .15478516 .123535159 C .18082683 .09326172 .21598308 .078125 .2602539 .078125 C .30452476 .078125 .33951823 .09326172 .36523438 .123535159 C .39127604 .15413411 .40429688 .19563802 .40429688 .24804688 C .40429688 .30078126 .39127604 .34228517 .36523438 .3725586 C .33951823 .40283204 .30452476 .41796876 .2602539 .41796876 M .4560547 .7270508 L .4560547 .63720706 C .4313151 .6489258 .40625 .6578776 .38085938 .6640625 C .35579429 .6702474 .33089195 .67333987 .30615235 .67333987 C .24104817 .67333987 .19124349 .6513672 .15673828 .6074219 C .122558597 .56347659 .103027347 .4970703 .09814453 .40820313 C .11735026 .43652345 .1414388 .45817057 .17041016 .47314454 C .19938152 .488444 .23128255 .49609376 .26611329 .49609376 C .33935548 .49609376 .3971354 .47379557 .43945313 .42919923 C .48209635 .38492839 .50341799 .32454429 .50341799 .24804688 C .50341799 .17317708 .48128257 .11311849 .43701173 .067871097 C .39274089 .022623698 .33382163 0 .2602539 0 C .17594402 0 .11149088 .032226564 .06689453 .09667969 C .022298178 .16145833 0 .25520835 0 .3779297 C 0 .49316407 .02734375 .58496096 .08203125 .6533203 C .13671875 .7220052 .2101237 .75634768 .3022461 .75634768 C .3269857 .75634768 .35188804 .75390627 .37695313 .74902346 C .40234376 .7441406 .42871095 .7368164 .4560547 .7270508 Z "/>
</symbol>
<use xlink:href="#font_1_e" transform="matrix(27.777777,0,0,-27.777777,819.9951,160.11576)"/>
</g>
<clipPath id="cp2">
<path transform="matrix(2.7777777,0,0,-2.7777777,0,2338.889)" d="M 54 36.2 L 541.2 36.2 L 541.2 72.2 L 54 72.2 Z " fill-rule="evenodd"/>
</clipPath>
<g clip-path="url(#cp2)">
<symbol id="font_1_3">
<path d="M .09863281 .6479492 L .09863281 .37402345 L .22265625 .37402345 C .2685547 .37402345 .30403648 .38590495 .32910157 .40966798 C .35416667 .433431 .36669923 .46728517 .36669923 .51123049 C .36669923 .5548503 .35416667 .5885417 .32910157 .6123047 C .30403648 .6360677 .2685547 .6479492 .22265625 .6479492 L .09863281 .6479492 M 0 .7290039 L .22265625 .7290039 C .30436198 .7290039 .3660482 .7104492 .40771485 .67333987 C .44970704 .63655599 .47070313 .58251956 .47070313 .51123049 C .47070313 .43929038 .44970704 .38492839 .40771485 .34814454 C .3660482 .3113607 .30436198 .29296876 .22265625 .29296876 L .09863281 .29296876 L .09863281 0 L 0 0 L 0 .7290039 Z "/>
</symbol>
<symbol id="font_1_4">
<path d="M .28271485 .2890625 C .2101237 .2890625 .15983074 .28076173 .13183594 .26416017 C .10384115 .2475586 .08984375 .21923828 .08984375 .17919922 C .08984375 .14729817 .100260417 .121907558 .12109375 .103027347 C .14225261 .084472659 .17089844 .07519531 .20703125 .07519531 C .25683595 .07519531 .29671226 .09277344 .32666017 .12792969 C .3569336 .16341146 .3720703 .21044922 .3720703 .26904298 L .3720703 .2890625 L .28271485 .2890625 M .46191407 .32617188 L .46191407 .014160156 L .3720703 .014160156 L .3720703 .09716797 C .3515625 .063964847 .32600913 .03938802 .29541017 .0234375 C .2648112 .0078125 .2273763 0 .18310547 0 C .12711589 0 .08251953 .015625 .049316408 .046875 C .016438803 .07845052 0 .12060547 0 .17333985 C 0 .23486328 .020507813 .28125 .061523439 .3125 C .102864589 .34375 .16438802 .359375 .24609375 .359375 L .3720703 .359375 L .3720703 .36816407 C .3720703 .40950523 .35839845 .44140626 .3310547 .4638672 C .30403648 .48665367 .26595054 .49804688 .21679688 .49804688 C .18554688 .49804688 .15511067 .49430339 .12548828 .4868164 C .09586588 .47932945 .06738281 .46809898 .040039064 .453125 L .040039064 .5361328 C .072916667 .5488281 .10481771 .55826827 .13574219 .5644531 C .16666667 .57096359 .19677735 .57421877 .22607422 .57421877 C .30517579 .57421877 .3642578 .55371096 .4033203 .5126953 C .4423828 .4716797 .46191407 .40950523 .46191407 .32617188 Z "/>
</symbol>
<symbol id="font_1_5">
<path d="M .39892579 .48779298 C .39892579 .55289718 .38541667 .60335287 .35839845 .63916018 C .33170573 .67496749 .29410807 .6928711 .24560547 .6928711 C .19742839 .6928711 .15983074 .67496749 .1328125 .63916018 C .10611979 .60335287 .09277344 .55289718 .09277344 .48779298 C .09277344 .4230143 .10611979 .37272135 .1328125 .33691407 C .15983074 .30110679 .19742839 .28320313 .24560547 .28320313 C .29410807 .28320313 .33170573 .30110679 .35839845 .33691407 C .38541667 .37272135 .39892579 .4230143 .39892579 .48779298 M .48876954 .2758789 C .48876954 .18277996 .46809898 .11360677 .4267578 .068359378 C .38541667 .022786459 .32210288 0 .2368164 0 C .20524089 0 .17545574 .0024414063 .14746094 .0073242189 C .11946615 .011881511 .092285159 .019042969 .06591797 .028808594 L .06591797 .11621094 C .092285159 .10188802 .11832682 .091308597 .14404297 .084472659 C .16975911 .07763672 .19596355 .07421875 .22265625 .07421875 C .28157554 .07421875 .3256836 .08968099 .35498048 .12060547 C .38427735 .15120442 .39892579 .19759114 .39892579 .25976563 L .39892579 .30419923 C .3803711 .27197267 .35660807 .24788411 .32763673 .2319336 C .29866538 .21598308 .2639974 .20800781 .22363281 .20800781 C .15657552 .20800781 .10253906 .2335612 .061523439 .28466798 C .020507813 .33577476 0 .40348307 0 .48779298 C 0 .5724284 .020507813 .6402995 .061523439 .69140627 C .10253906 .742513 .15657552 .7680664 .22363281 .7680664 C .2639974 .7680664 .29866538 .7600911 .32763673 .7441406 C .35660807 .7281901 .3803711 .70410159 .39892579 .671875 L .39892579 .7548828 L .48876954 .7548828 L .48876954 .2758789 Z "/>
</symbol>
<symbol id="font_1_6">
<path d="M .50683596 .3100586 L .50683596 .26611329 L .09375 .26611329 C .09765625 .20426433 .11621094 .1570638 .14941406 .12451172 C .1829427 .092285159 .22949219 .076171878 .2890625 .076171878 C .32356773 .076171878 .3569336 .08040365 .38916017 .08886719 C .42171226 .09733073 .4539388 .11002604 .48583985 .12695313 L .48583985 .041992189 C .45361329 .028320313 .4205729 .017903647 .38671876 .0107421879 C .3528646 .0035807293 .31852214 0 .2836914 0 C .19645183 0 .12727864 .025390625 .076171878 .076171878 C .025390625 .12695313 0 .19563802 0 .28222657 C 0 .37174479 .024088541 .44270835 .072265628 .4951172 C .12076823 .54785159 .18603516 .57421877 .2680664 .57421877 C .34163413 .57421877 .3997396 .55045577 .4423828 .5029297 C .48535157 .45572917 .50683596 .3914388 .50683596 .3100586 M .4169922 .33642579 C .41634117 .38557945 .4025065 .4248047 .37548829 .45410157 C .34879557 .48339845 .3133138 .49804688 .26904298 .49804688 C .21891277 .49804688 .17871094 .48388673 .1484375 .4555664 C .118489589 .4272461 .10123698 .38736979 .09667969 .3359375 L .4169922 .33642579 Z "/>
</symbol>
<symbol id="font_1_7">
<path d="M 0 0 Z "/>
</symbol>
<use xlink:href="#font_1_3" transform="matrix(27.777777,0,0,-27.777777,782.7262,2198.0557)"/>
<use xlink:href="#font_1_4" transform="matrix(27.777777,0,0,-27.777777,797.22378,2198.449)"/>
<use xlink:href="#font_1_5" transform="matrix(27.777777,0,0,-27.777777,814.0326,2203.8338)"/>
<use xlink:href="#font_1_6" transform="matrix(27.777777,0,0,-27.777777,831.7826,2198.449)"/>
<use xlink:href="#font_1_7" transform="matrix(27.777777,0,0,-27.777777,847.1944,2198.0557)"/>
<symbol id="font_1_1">
<path d="M .014160156 .08300781 L .17529297 .08300781 L .17529297 .63916018 L 0 .6040039 L 0 .69384768 L .1743164 .7290039 L .27294923 .7290039 L .27294923 .08300781 L .43408204 .08300781 L .43408204 0 L .014160156 0 L .014160156 .08300781 Z "/>
</symbol>
<use xlink:href="#font_1_1" transform="matrix(27.777777,0,0,-27.777777,859.16287,2198.0557)"/>
</g>
<path transform="matrix(2.7777777,0,0,-2.7777777,0,2338.889)" d="M 128.2 543.7 L 301.09999 543.7 L 301.09999 569.2 L 128.2 569.2 Z " fill="#c0c0c0" fill-rule="evenodd"/>
<path transform="matrix(2.7777777,0,0,-2.7777777,0,2338.889)" d="M 128.2 518.2 L 251.7 518.2 L 251.7 543.7 L 128.2 543.7 Z " fill="#c0c0c0" fill-rule="evenodd"/>
<path transform="matrix(2.7777777,0,0,-2.7777777,0,2338.889)" d="M 276.3 518.2 L 325.69999 518.2 L 325.69999 543.7 L 276.3 543.7 Z " fill="#c0c0c0" fill-rule="evenodd"/>
<path transform="matrix(2.7777777,0,0,-2.7777777,0,2338.889)" d="M 128.2 492.7 L 227 492.7 L 227 518.2 L 128.2 518.2 Z " fill="#c0c0c0" fill-rule="evenodd"/>
<path transform="matrix(2.7777777,0,0,-2.7777777,0,2338.889)" d="M 276.3 492.7 L 350.4 492.7 L 350.4 518.2 L 276.3 518.2 Z " fill="#c0c0c0" fill-rule="evenodd"/>
<path transform="matrix(2.7777777,0,0,-2.7777777,0,2338.889)" d="M 128.2 467.2 L 202.29999 467.2 L 202.29999 492.7 L 128.2 492.7 Z " fill="#c0c0c0" fill-rule="evenodd"/>
<path transform="matrix(2.7777777,0,0,-2.7777777,0,2338.889)" d="M 276.3 467.2 L 375.09999 467.2 L 375.09999 492.7 L 276.3 492.7 Z " fill="#c0c0c0" fill-rule="evenodd"/>
<path transform="matrix(2.7777777,0,0,-2.7777777,0,2338.889)" d="M 128.2 441.7 L 177.6 441.7 L 177.6 467.2 L 128.2 467.2 Z " fill="#c0c0c0" fill-rule="evenodd"/>
<path transform="matrix(2.7777777,0,0,-2.7777777,0,2338.889)" d="M 276.3 441.7 L 399.8 441.7 L 399.8 467.2 L 276.3 467.2 Z " fill="#c0c0c0" fill-rule="evenodd"/>
<path transform="matrix(2.7777777,0,0,-2.7777777,0,2338.889)" d="M 128.2 416.2 L 152.9 416.2 L 152.9 441.7 L 128.2 441.7 Z " fill="#c0c0c0" fill-rule="evenodd"/>
<path transform="matrix(2.7777777,0,0,-2.7777777,0,2338.889)" d="M 276.3 416.2 L 424.5 416.2 L 424.5 441.7 L 276.3 441.7 Z " fill="#c0c0c0" fill-rule="evenodd"/>
<path transform="matrix(2.7777777,0,0,-2.7777777,0,2338.889)" d="M 301 390.8 L 424.5 390.8 L 424.5 416.3 L 301 416.3 Z " fill="#c0c0c0" fill-rule="evenodd"/>
<path transform="matrix(2.7777777,0,0,-2.7777777,0,2338.889)" d="M 325.7 365.3 L 424.5 365.3 L 424.5 390.8 L 325.7 390.8 Z " fill="#c0c0c0" fill-rule="evenodd"/>
<path transform="matrix(2.7777777,0,0,-2.7777777,0,2338.889)" d="M 350.4 339.8 L 424.5 339.8 L 424.5 365.3 L 350.4 365.3 Z " fill="#c0c0c0" fill-rule="evenodd"/>
<path transform="matrix(2.7777777,0,0,-2.7777777,0,2338.889)" d="M 375.1 314.3 L 424.5 314.3 L 424.5 339.8 L 375.1 339.8 Z " fill="#c0c0c0" fill-rule="evenodd"/>
<path transform="matrix(2.7777777,0,0,-2.7777777,0,2338.889)" d="M 399.7 288.8 L 424.40003 288.8 L 424.40003 314.3 L 399.7 314.3 Z " fill="#c0c0c0" fill-rule="evenodd"/>
<path transform="matrix(2.7777777,0,0,-2.7777777,0,2338.889)" d="M 127.7 569.6 L 128.2 569.1 L 128.7 568.6 L 300.6 568.6 L 301.1 569.1 L 301.6 569.6 L 127.7 569.6 Z " fill-rule="evenodd"/>
<path transform="matrix(2.7777777,0,0,-2.7777777,0,2338.889)" d="M 251.2 544.1 L 251.7 543.6 L 252.2 543.1 L 275.9 543.1 L 276.4 543.6 L 276.9 544.1 L 251.2 544.1 Z " fill-rule="evenodd"/>
<path transform="matrix(2.7777777,0,0,-2.7777777,0,2338.889)" d="M 301.6 544.1 L 301.1 543.6 L 301.6 543.1 L 325.2 543.1 L 325.8 543.6 L 326.3 544.1 L 301.6 544.1 Z " fill-rule="evenodd"/>
<path transform="matrix(2.7777777,0,0,-2.7777777,0,2338.889)" d="M 226.5 518.6 L 227 518.1 L 227.5 517.6 L 251.2 517.6 L 251.7 518.1 L 251.2 518.6 L 226.5 518.6 Z " fill-rule="evenodd"/>
<path transform="matrix(2.7777777,0,0,-2.7777777,0,2338.889)" d="M 326.3 518.6 L 325.8 518.1 L 326.3 517.6 L 349.9 517.6 L 350.4 518.1 L 351 518.6 L 326.3 518.6 Z " fill-rule="evenodd"/>
<path transform="matrix(2.7777777,0,0,-2.7777777,0,2338.889)" d="M 201.8 493.1 L 202.3 492.6 L 202.8 492.1 L 226.5 492.1 L 227 492.6 L 226.5 493.1 L 201.8 493.1 Z " fill-rule="evenodd"/>
<path transform="matrix(2.7777777,0,0,-2.7777777,0,2338.889)" d="M 351 493.1 L 350.4 492.6 L 351 492.1 L 374.6 492.1 L 375.1 492.6 L 375.6 493.1 L 351 493.1 Z " fill-rule="evenodd"/>
<path transform="matrix(2.7777777,0,0,-2.7777777,0,2338.889)" d="M 177.1 467.7 L 177.6 467.1 L 178.1 466.6 L 201.8 466.6 L 202.3 467.1 L 201.8 467.7 L 177.1 467.7 Z " fill-rule="evenodd"/>
<path transform="matrix(2.7777777,0,0,-2.7777777,0,2338.889)" d="M 375.6 467.7 L 375.1 467.1 L 375.6 466.6 L 399.3 466.6 L 399.8 467.1 L 400.3 467.7 L 375.6 467.7 Z " fill-rule="evenodd"/>
<path transform="matrix(2.7777777,0,0,-2.7777777,0,2338.889)" d="M 152.4 442.2 L 152.9 441.7 L 153.4 441.2 L 177.1 441.2 L 177.6 441.7 L 177.1 442.2 L 152.4 442.2 Z " fill-rule="evenodd"/>
<path transform="matrix(2.7777777,0,0,-2.7777777,0,2338.889)" d="M 400.3 442.2 L 399.8 441.7 L 400.3 441.2 L 424 441.2 L 424.5 441.7 L 425 442.2 L 400.3 442.2 Z " fill-rule="evenodd"/>
<path transform="matrix(2.7777777,0,0,-2.7777777,0,2338.889)" d="M 53.9 416.7 L 53.9 416.2 L 53.9 415.7 L 152.4 415.7 L 152.9 416.2 L 152.4 416.7 L 53.9 416.7 Z " fill-rule="evenodd"/>
<path transform="matrix(2.7777777,0,0,-2.7777777,0,2338.889)" d="M 276.9 416.7 L 276.4 416.2 L 276.9 415.7 L 300.6 415.7 L 301.1 416.2 L 300.6 416.7 L 276.9 416.7 Z " fill-rule="evenodd"/>
<path transform="matrix(2.7777777,0,0,-2.7777777,0,2338.889)" d="M 425 416.7 L 424.5 416.2 L 425 415.7 L 498.8 415.7 L 498.8 416.2 L 498.8 416.7 L 425 416.7 Z " fill-rule="evenodd"/>
<path transform="matrix(2.7777777,0,0,-2.7777777,0,2338.889)" d="M 252.2 391.2 L 251.7 390.7 L 252.2 390.2 L 275.9 390.2 L 276.4 390.7 L 275.9 391.2 L 252.2 391.2 Z " fill-rule="evenodd"/>
<path transform="matrix(2.7777777,0,0,-2.7777777,0,2338.889)" d="M 301.6 391.2 L 301.1 390.7 L 300.6 390.2 L 325.2 390.2 L 325.8 390.7 L 325.2 391.2 L 301.6 391.2 Z " fill-rule="evenodd"/>
<path transform="matrix(2.7777777,0,0,-2.7777777,0,2338.889)" d="M 227.5 365.7 L 227 365.2 L 227.5 364.7 L 252.2 364.7 L 251.7 365.2 L 251.2 365.7 L 227.5 365.7 Z " fill-rule="evenodd"/>
<path transform="matrix(2.7777777,0,0,-2.7777777,0,2338.889)" d="M 326.3 365.7 L 325.8 365.2 L 325.2 364.7 L 349.9 364.7 L 350.4 365.2 L 349.9 365.7 L 326.3 365.7 Z " fill-rule="evenodd"/>
<path transform="matrix(2.7777777,0,0,-2.7777777,0,2338.889)" d="M 202.8 340.2 L 202.3 339.7 L 202.8 339.2 L 227.5 339.2 L 227 339.7 L 226.5 340.2 L 202.8 340.2 Z " fill-rule="evenodd"/>
<path transform="matrix(2.7777777,0,0,-2.7777777,0,2338.889)" d="M 351 340.2 L 350.4 339.7 L 349.9 339.2 L 374.6 339.2 L 375.1 339.7 L 374.6 340.2 L 351 340.2 Z " fill-rule="evenodd"/>
<path transform="matrix(2.7777777,0,0,-2.7777777,0,2338.889)" d="M 178.1 314.8 L 177.6 314.2 L 178.1 313.7 L 202.8 313.7 L 202.3 314.2 L 201.8 314.8 L 178.1 314.8 Z " fill-rule="evenodd"/>
<path transform="matrix(2.7777777,0,0,-2.7777777,0,2338.889)" d="M 375.6 314.8 L 375.1 314.2 L 374.6 313.7 L 399.3 313.7 L 399.8 314.2 L 399.3 314.8 L 375.6 314.8 Z " fill-rule="evenodd"/>
<path transform="matrix(2.7777777,0,0,-2.7777777,0,2338.889)" d="M 153.4 289.3 L 152.9 288.8 L 153.4 288.3 L 178.1 288.3 L 177.6 288.8 L 177.1 289.3 L 153.4 289.3 Z " fill-rule="evenodd"/>
<path transform="matrix(2.7777777,0,0,-2.7777777,0,2338.889)" d="M 400.3 289.3 L 399.8 288.8 L 399.3 288.3 L 424 288.3 L 424.5 288.8 L 424 289.3 L 400.3 289.3 Z " fill-rule="evenodd"/>
<path transform="matrix(2.7777777,0,0,-2.7777777,0,2338.889)" d="M 128.7 263.8 L 128.2 263.3 L 127.7 262.8 L 153.4 262.8 L 152.9 263.3 L 152.4 263.8 L 128.7 263.8 Z " fill-rule="evenodd"/>
<path transform="matrix(2.7777777,0,0,-2.7777777,0,2338.889)" d="M 276.9 263.8 L 276.4 263.3 L 275.9 262.8 L 425 262.8 L 424.5 263.3 L 424 263.8 L 276.9 263.8 Z " fill-rule="evenodd"/>
<path transform="matrix(2.7777777,0,0,-2.7777777,0,2338.889)" d="M 127.7 262.8 L 128.2 263.3 L 128.7 263.8 L 128.7 568.6 L 128.2 569.1 L 127.7 569.6 L 127.7 262.8 Z " fill-rule="evenodd"/>
<path transform="matrix(2.7777777,0,0,-2.7777777,0,2338.889)" d="M 152.4 263.8 L 152.9 263.3 L 153.4 262.8 L 153.4 441.2 L 152.9 441.7 L 152.4 442.2 L 152.4 263.8 Z " fill-rule="evenodd"/>
<path transform="matrix(2.7777777,0,0,-2.7777777,0,2338.889)" d="M 177.1 289.3 L 177.6 288.8 L 178.1 288.3 L 178.1 466.6 L 177.6 467.1 L 177.1 467.7 L 177.1 289.3 Z " fill-rule="evenodd"/>
<path transform="matrix(2.7777777,0,0,-2.7777777,0,2338.889)" d="M 201.8 314.8 L 202.3 314.2 L 202.8 313.7 L 202.8 492.1 L 202.3 492.6 L 201.8 493.1 L 201.8 314.8 Z " fill-rule="evenodd"/>
<path transform="matrix(2.7777777,0,0,-2.7777777,0,2338.889)" d="M 226.5 340.2 L 227 339.7 L 227.5 339.2 L 227.5 517.6 L 227 518.1 L 226.5 518.6 L 226.5 340.2 Z " fill-rule="evenodd"/>
<path transform="matrix(2.7777777,0,0,-2.7777777,0,2338.889)" d="M 251.2 365.7 L 251.7 365.2 L 252.2 364.7 L 252.2 543.1 L 251.7 543.6 L 251.2 544.1 L 251.2 365.7 Z " fill-rule="evenodd"/>
<path transform="matrix(2.7777777,0,0,-2.7777777,0,2338.889)" d="M 275.9 262.8 L 276.4 263.3 L 276.9 263.8 L 276.9 544.1 L 276.4 543.6 L 275.9 543.1 L 275.9 262.8 Z " fill-rule="evenodd"/>
<path transform="matrix(2.7777777,0,0,-2.7777777,0,2338.889)" d="M 300.6 390.2 L 301.1 390.7 L 301.6 391.2 L 301.6 569.6 L 301.1 569.1 L 300.6 568.6 L 300.6 390.2 Z " fill-rule="evenodd"/>
<path transform="matrix(2.7777777,0,0,-2.7777777,0,2338.889)" d="M 325.2 364.7 L 325.8 365.2 L 326.3 365.7 L 326.3 544.1 L 325.8 543.6 L 325.2 543.1 L 325.2 364.7 Z " fill-rule="evenodd"/>
<path transform="matrix(2.7777777,0,0,-2.7777777,0,2338.889)" d="M 349.9 339.2 L 350.4 339.7 L 351 340.2 L 351 518.6 L 350.4 518.1 L 349.9 517.6 L 349.9 339.2 Z " fill-rule="evenodd"/>
<path transform="matrix(2.7777777,0,0,-2.7777777,0,2338.889)" d="M 374.6 313.7 L 375.1 314.2 L 375.6 314.8 L 375.6 493.1 L 375.1 492.6 L 374.6 492.1 L 374.6 313.7 Z " fill-rule="evenodd"/>
<path transform="matrix(2.7777777,0,0,-2.7777777,0,2338.889)" d="M 399.3 288.3 L 399.8 288.8 L 400.3 289.3 L 400.3 467.7 L 399.8 467.1 L 399.3 466.6 L 399.3 288.3 Z " fill-rule="evenodd"/>
<path transform="matrix(2.7777777,0,0,-2.7777777,0,2338.889)" d="M 424 263.8 L 424.5 263.3 L 425 262.8 L 425 442.2 L 424.5 441.7 L 424 441.2 L 424 263.8 Z " fill-rule="evenodd"/>
<g opacity=".5">
</g>
</g>
</g>
</svg>
