<?xml version="1.0" encoding="UTF-8" standalone="no"?>
<svg
   version="1.1"
   width="429"
   height="240"
   id="svg26"
   sodipodi:docname="minecraft_heart_1.svg"
   inkscape:version="1.2.2 (b0a8486541, 2022-12-01)"
   xmlns:inkscape="http://www.inkscape.org/namespaces/inkscape"
   xmlns:sodipodi="http://sodipodi.sourceforge.net/DTD/sodipodi-0.dtd"
   xmlns="http://www.w3.org/2000/svg"
   xmlns:svg="http://www.w3.org/2000/svg">
  <defs
     id="defs30" />
  <sodipodi:namedview
     id="namedview28"
     pagecolor="#ffffff"
     bordercolor="#000000"
     borderopacity="0.25"
     inkscape:showpageshadow="2"
     inkscape:pageopacity="0.0"
     inkscape:pagecheckerboard="0"
     inkscape:deskcolor="#d1d1d1"
     showgrid="false"
     inkscape:zoom="3.0536131"
     inkscape:cx="201.07328"
     inkscape:cy="134.10344"
     inkscape:window-width="1854"
     inkscape:window-height="1011"
     inkscape:window-x="0"
     inkscape:window-y="0"
     inkscape:window-maximized="1"
     inkscape:current-layer="layer1" />
  <path
     d="m 1,18 c 0,5.61 0,11.22 0,17 -10.89,0 -21.78,0 -33,0 0,5.61 0,11.22 0,17 -10.89,0 -21.78,0 -33,0 0,22.11 0,44.22 0,67 10.89,0 21.78,0 33,0 0,5.61 0,11.22 0,17 10.89,0 21.78,0 33,0 0,5.61 0,11.22 0,17 10.89,0 21.78,0 33,0 0,5.61 0,11.22 0,17 10.89,0 21.78,0 33,0 0,5.61 0,11.22 0,17 10.89,0 21.78,0 33,0 0,5.61 0,11.22 0,17 10.56,0 21.12,0 32,0 0,-5.61 0,-11.22 0,-17 10.89,0 21.78,0 33,0 0,-5.61 0,-11.22 0,-17 10.89,0 21.78,0 33,0 0,-5.61 0,-11.22 0,-17 10.89,0 21.78,0 33,0 0,-5.61 0,-11.22 0,-17 10.89,0 21.78,0 33,0 0,-5.61 0,-11.22 0,-17 10.89,0 21.78,0 33,0 0,-22.11 0,-44.22 0,-67 -10.89,0 -21.78,0 -33,0 0,-5.61 0,-11.22 0,-17 -10.89,0 -21.78,0 -33,0 0,-5.61 0,-11.22 0,-17 -32.34,0 -64.68,0 -98,0 0,5.61 0,11.22 0,17 -11.22,0 -22.44,0 -34,0 0,-5.61 0,-11.22 0,-17 -32.34,0 -64.68,0 -98,0 z"
     transform="translate(97,18)"
     id="path315" />
  <path
     d="m 0,0 c 64.68,0 129.36,0 196,0 0,5.61 0,11.22 0,17 11.22,0 22.44,0 34,0 0,-5.61 0,-11.22 0,-17 65.67,0 131.34,0 199,0 0,11.22 0,22.44 0,34 C 287.43,34 145.86,34 0,34 0,22.78 0,11.56 0,0 Z"
     transform="translate(0,206)"
     id="path6"
     style="display:inline" />
  <path
     d="m 0,0 c 32.34,0 64.68,0 98,0 0,5.28 0,10.56 0,16 C 65.66,16 33.32,16 0,16 0,10.72 0,5.44 0,0 Z"
     transform="translate(230,19)"
     id="path10" />
  <path
     d="m 0,0 c 32.34,0 64.68,0 98,0 0,5.28 0,10.56 0,16 C 65.66,16 33.32,16 0,16 0,10.72 0,5.44 0,0 Z"
     transform="translate(98,19)"
     id="path12" />
  <path
     d="m 0,0 c 10.56,0 21.12,0 32,0 0,5.28 0,10.56 0,16 C 21.44,16 10.88,16 0,16 0,10.72 0,5.44 0,0 Z"
     transform="translate(362,53)"
     id="path14" />
  <path
     d="m 0,0 c 10.56,0 21.12,0 32,0 0,5.28 0,10.56 0,16 C 21.44,16 10.88,16 0,16 0,10.72 0,5.44 0,0 Z"
     transform="translate(32,53)"
     id="path16" />
  <path
     d="m 0,0 c 10.56,0 21.12,0 32,0 0,5.28 0,10.56 0,16 C 21.44,16 10.88,16 0,16 0,10.72 0,5.44 0,0 Z"
     transform="translate(329,36)"
     id="path18" />
  <path
     d="m 0,0 c 10.56,0 21.12,0 32,0 0,5.28 0,10.56 0,16 C 21.44,16 10.88,16 0,16 0,10.72 0,5.44 0,0 Z"
     transform="translate(197,36)"
     id="path20" />
  <g
     inkscape:groupmode="layer"
     id="layer1"
     inkscape:label="Layer 1">
    <path
       d="m 1,1 c 0,5.28 0,10.56 0,16 10.56,0 21.12,0 32,0 C 33,11.72 33,6.44 33,1 22.44,1 11.88,1 1,1 Z"
       transform="translate(262,69)"
       id="path319" />
    <path
       d="m 34,18 c 0,5.28 0,10.56 0,16 10.56,0 21.12,0 32,0 0,-5.28 0,-10.56 0,-16 -10.56,0 -21.12,0 -32,0 z"
       transform="translate(262,69)"
       id="path321" />
    <path
       d="m 0,0 c 10.56,0 21.12,0 32,0 0,5.28 0,10.56 0,16 C 21.44,16 10.88,16 0,16 0,10.72 0,5.44 0,0 Z"
       transform="translate(65,36)"
       id="path22" />
    <path
       d="m 0,0 c 11.22,0 22.44,0 34,0 0,5.61 0,11.22 0,17 10.89,0 21.78,0 33,0 0,5.94 0,11.88 0,18 -11.22,0 -22.44,0 -34,0 0,-5.61 0,-11.22 0,-17 C 22.11,18 11.22,18 0,18 0,12.06 0,6.12 0,0 Z"
       transform="translate(262,69)"
       id="path24" />
  </g>
  <g
     inkscape:groupmode="layer"
     id="layer2"
     inkscape:label="Layer 2"
     style="display:none">
    <path
       d="m 0,0 c 33,0 66,0 100,0 0,5.61 0,11.22 0,17 10.56,0 21.12,0 32,0 0,-5.61 0,-11.22 0,-17 33,0 66,0 100,0 0,5.61 0,11.22 0,17 10.89,0 21.78,0 33,0 0,5.61 0,11.22 0,17 10.89,0 21.78,0 33,0 0,28.38 0,56.76 0,86 -10.89,0 -21.78,0 -33,0 0,5.61 0,11.22 0,17 -10.89,0 -21.78,0 -33,0 0,5.61 0,11.22 0,17 -10.89,0 -21.78,0 -33,0 0,5.61 0,11.22 0,17 -10.89,0 -21.78,0 -33,0 0,5.28 0,10.56 0,16 54.12,0 108.24,0 164,0 0,0.33 0,0.66 0,1 -65.01,0 -130.02,0 -197,0 0,5.61 0,11.22 0,17 -11.22,0 -22.44,0 -34,0 0,-5.61 0,-11.22 0,-17 -64.68,0 -129.36,0 -196,0 0,-0.33 0,-0.66 0,-1 53.79,0 107.58,0 163,0 0,-5.28 0,-10.56 0,-16 -10.89,0 -21.78,0 -33,0 0,-5.61 0,-11.22 0,-17 -10.89,0 -21.78,0 -33,0 0,-5.61 0,-11.22 0,-17 -10.89,0 -21.78,0 -33,0 0,-5.61 0,-11.22 0,-17 -10.89,0 -21.78,0 -33,0 0,-28.38 0,-56.76 0,-86 10.89,0 21.78,0 33,0 0,-5.61 0,-11.22 0,-17 10.89,0 21.78,0 33,0 C 0,11.39 0,5.78 0,0 Z"
       transform="translate(97,18)"
       id="path8" />
    <path
       d="m 0,0 c 32.34,0 64.68,0 98,0 0,5.61 0,11.22 0,17 11.22,0 22.44,0 34,0 0,-5.61 0,-11.22 0,-17 32.34,0 64.68,0 98,0 0,5.61 0,11.22 0,17 10.89,0 21.78,0 33,0 0,5.61 0,11.22 0,17 10.89,0 21.78,0 33,0 0,22.11 0,44.22 0,67 -10.89,0 -21.78,0 -33,0 0,5.61 0,11.22 0,17 -10.89,0 -21.78,0 -33,0 0,5.61 0,11.22 0,17 -10.89,0 -21.78,0 -33,0 0,5.61 0,11.22 0,17 -10.89,0 -21.78,0 -33,0 0,5.61 0,11.22 0,17 -10.89,0 -21.78,0 -33,0 0,5.61 0,11.22 0,17 -10.56,0 -21.12,0 -32,0 0,-5.61 0,-11.22 0,-17 -10.89,0 -21.78,0 -33,0 0,-5.61 0,-11.22 0,-17 -10.89,0 -21.78,0 -33,0 0,-5.61 0,-11.22 0,-17 -10.89,0 -21.78,0 -33,0 0,-5.61 0,-11.22 0,-17 -10.89,0 -21.78,0 -33,0 0,-5.61 0,-11.22 0,-17 -10.89,0 -21.78,0 -33,0 0,-22.11 0,-44.22 0,-67 10.89,0 21.78,0 33,0 0,-5.61 0,-11.22 0,-17 10.89,0 21.78,0 33,0 C 0,11.39 0,5.78 0,0 Z"
       transform="translate(98,36)"
       id="path4" />
    <path
       d="m 0,0 c 141.57,0 283.14,0 429,0 0,79.2 0,158.4 0,240 -141.57,0 -283.14,0 -429,0 C 0,160.8 0,81.6 0,0 Z"
       id="path2" />
  </g>
</svg>
